<svg id="Слой_1" xmlns="http://www.w3.org/2000/svg" viewBox="0 0 596.2 537.1"><style>.st2,.st3{stroke:#000;stroke-width:.6656}.st3{fill:red;fill-opacity:.75;stroke-width:3.75}</style><path d="M130.7 530.4c-19.1-1.6-32.1-23.7-23.7-41.1 34.6-60 192.4-331.2 230.3-397.7 10.9-15.7 36.6-15.9 47.4 0 34.7 60 191.9 330.9 230.5 397 8.2 17.3-4.5 39.6-23.7 41.1-69.2 0-384.2.3-460.8.7z" fill="red" transform="translate(-101.86 -75.011) scale(1.1086)"/><path d="M160.5 489.2l402.7-1.2-202.4-355.5-200.3 356.7z" fill="#fff" transform="translate(-101.86 -75.011) scale(1.1086)"/><path class="st2" d="M149.7 367.1l37.6.8v82h-83.5l45.9-82.8z"/><path class="st3" d="M462.7 359.1zM393.2 358.7zM532.3 359.5zM462.9 386.6zM393.4 386.1zM532.5 387zM462.9 413.3zM393.4 412.9zM532.5 413.7z"/><path class="st2" d="M450.8 367.1l-37.6.8v82h83.5l-45.9-82.8z"/><path d="M319.9 439.7c-10.7 13.5-35.7 13.7-45.2.3-5.2-7.3-19.3-7.6-25.2-.9-9.2 13.7-34.7 13.9-44.3.4-5.4-7.5-20.3-7.6-25.6.1l-9.1-6.3c4.7-6.6 13.5-9.9 21.9-9.8 8.4 0 17.4 3.2 22 10 5.3 7.3 19.5 7.5 25.2.4 9.3-13.5 34.9-13.2 44.3 0 5.4 7.4 19.6 7.4 26.1-.1 5.5-7.1 14.3-10.3 22.7-10.3 8.4 0 17.4 3.2 22 10 5.3 7.3 19.5 7.5 25.2.4 9.3-13.5 34.9-13.2 44.3 0 5.4 7.4.3 19.5-9.2 6.1-5.2-7.3-19.3-7.6-25.2-.9-9.2 13.7-34.7 13.9-44.3.4-5.4-7.4-20.2-7.5-25.6.2z"/><path d="M319.9 414.8c-10.7 13.5-35.7 13.7-45.2.3-5.2-7.3-19.3-7.6-25.2-.9-9.2 13.7-34.7 13.9-44.3.4-5.4-7.5-20.3-7.6-25.6.1l-9.1-6.3c4.7-6.6 13.5-9.9 21.9-9.8 8.4 0 17.4 3.2 22 10 5.3 7.3 19.5 7.5 25.2.4 9.3-13.5 34.9-13.2 44.3 0 5.4 7.4 19.6 7.4 26.1-.1 5.5-7.1 14.3-10.3 22.7-10.3 8.4 0 17.4 3.2 22 10 5.3 7.3 19.5 7.5 25.2.4 9.3-13.5 34.9-13.2 44.3 0 5.4 7.4.3 19.5-9.2 6.1-5.2-7.3-19.3-7.6-25.2-.9-9.2 13.7-34.7 13.9-44.3.4-5.4-7.4-20.2-7.5-25.6.2z"/><path d="M162.7 345.4l155.8-155.8 22.3 22.3L185 367.7l-22.3-22.3z" fill-opacity=".75" stroke="#000" stroke-width="3.75"/></svg>