<svg widght="10" height="10" viewBox="0 0 110 110" xmlns="http://www.w3.org/2000/svg"><g fill-rule="evenodd" stroke="#000"><path d="M28.631 14.285C22.24 10.788 16.181 8.29 8.082 6.293c-.636-.198-1.644-.27-1.909-.012-.348.269-.18 1.407.01 1.863 1.747 7.51 4.316 14.044 7.49 20.634L28.63 14.285z" fill="#ffa72a" stroke-width="2.337"/><path d="M25.102 15.879c-4.418-2.67-14.02-6.224-14.727-5.42-1.021.707 3.495 11.9 5.184 14.728l9.543-9.308z" fill="#ffd5d5"/></g><g fill-rule="evenodd" stroke="#000"><path d="M80.973 14.285c6.391-3.497 12.45-5.995 20.549-7.992.636-.198 1.644-.27 1.909-.012.348.269.18 1.407-.01 1.863-1.747 7.51-4.316 14.044-7.49 20.634L80.975 14.285z" fill="#ffa72a" stroke-width="2.337"/><path d="M84.502 15.879c4.418-2.67 14.02-6.224 14.727-5.42 1.021.707-3.495 11.9-5.184 14.728l-9.543-9.308z" fill="#ffd5d5"/></g><path transform="matrix(.97307 0 0 .98048 6.022 5.925)" d="M100.26 49.997a50.129 49.75 0 1 1-100.26 0 50.129 49.75 0 1 1 100.26 0z" fill="#ffa72a" stroke="#000" stroke-linecap="round" stroke-width="2.5"/><path d="M54.796 7.895c-10.98.019-17.77 2.368-24.546 6.893l11.981 14.236 6.342-17.611 6.32 17.398 6.192-17.431s6.26 17.87 6.35 17.617l11.92-14.283c-3.998-3.127-12.99-6.781-24.56-6.819zM7.688 54.955c.019 10.98 2.368 17.77 6.893 24.546L28.817 67.52l-17.611-6.342 17.398-6.32-17.431-6.192s17.87-6.26 17.617-6.35l-14.283-11.92c-3.127 3.998-6.781 12.99-6.819 24.56z" fill="#a40" fill-rule="evenodd" stroke="#000" stroke-width=".898"/><path d="M102.293 54.941c-.019-10.978-2.417-17.767-7.035-24.541l-14.53 11.978 17.976 6.34-17.758 6.32 17.792 6.19s-18.24 6.26-17.981 6.35l14.578 11.918c3.191-3.998 6.92-12.989 6.96-24.555z" fill="#a40" fill-rule="evenodd" stroke="#000" stroke-width=".907"/><path transform="matrix(.99439 0 0 1.0034 7.489 7.325)" d="M42.048 35.003a7.04 6.976 0 1 1-14.079 0 7.04 6.976 0 1 1 14.079 0z" fill="#fff" stroke="#000" stroke-linecap="round" stroke-width="1.001"/><path d="M47.301 42.448a5 5 0 1 1-10 0 5 5 0 1 1 10 0z"/><path transform="matrix(.99439 0 0 1.0034 32.489 7.325)" d="M42.048 35.003a7.04 6.976 0 1 1-14.079 0 7.04 6.976 0 1 1 14.079 0z" fill="#fff" stroke="#000" stroke-linecap="round" stroke-width="1.001"/><path d="M72.301 42.448a5 5 0 1 1-10 0 5 5 0 1 1 10 0z"/><path d="M45.188 55.312c-.081-1.285 19.23-1.324 19.227 0-1.534 3.496-3.38 9.173-6.701 9.203l-5.744.045c-3.388-.006-5.298-5.698-6.782-9.248z" fill="#4d4d4d" fill-rule="evenodd" stroke="#000" stroke-width=".773"/><path d="M54.803 64.946v15.283" fill="none" stroke="#000" stroke-width="2.5"/><path d="M35.951 73.283c5.813 3.956 11.374 7.47 18.954 7.7 7.44-.24 12.861-3.699 18.723-7.727" fill="none" stroke="#000" stroke-linecap="round" stroke-width="2.3"/></svg>