<svg viewBox="0 0 749.986 659.078" xmlns="http://www.w3.org/2000/svg">
	<path d="M35.662 645.7c-12.33 0-22.297-10.001-22.297-22.289 0-3.907 1.027-7.747 2.997-11.152l339.34-587.77c6.161-10.652 19.784-14.308 30.453-8.147a22.52 22.52 0 0 1 8.156 8.147l339.31 587.77c6.177 10.685 2.521 24.275-8.131 30.452a22.305 22.305 0 0 1-11.137 2.989m-601.5-66.86h524.31l-262.16-454.07-262.15 454.07z" fill="red" />
	<path d="M128.29 569.94l123.36-213.67 370.08 213.67M312.885 368.83l39.725-68.974-16.452 1.793 7.117-12.358 16.42-1.737 11.691 6.734-46.81 81.275-11.691-6.733M384.647 378.876l19.847-34.458c2.244-3.897 2.94-7.549 2.085-10.957-.817-3.387-2.933-6.064-6.347-8.03-3.452-1.988-6.847-2.486-10.186-1.493-3.34.993-6.132 3.437-8.376 7.335l-19.847 34.458c-2.265 3.934-2.99 7.594-2.173 10.98.839 3.35 2.984 6.019 6.435 8.007 3.415 1.966 6.78 2.472 10.099 1.516 3.376-.971 6.197-3.424 8.463-7.358m-34.843-19.178l20.616-35.795c4.297-7.459 9.947-11.864 16.954-13.217 7.027-1.39 13.547-.352 19.559 3.11 5.975 3.442 10.125 8.55 12.45 15.325 2.383 6.76 1.427 13.87-2.87 21.33l-20.616 35.794c-4.297 7.46-9.966 11.855-17.01 13.186-7.005 1.352-13.496.307-19.47-3.134-6.013-3.463-10.192-8.564-12.538-15.302-2.346-6.738-1.371-13.837 2.925-21.297M435.75 416.018l-3.559 6.179c-2.138 3.711-1.796 6.38 1.025 8.004 2.783 1.603 5.243.549 7.38-3.163l3.56-6.179c2.137-3.71 1.814-6.368-.97-7.971-2.82-1.625-5.299-.581-7.436 3.13m-10.521 3.207l4.457-7.738c2.287-3.97 5.038-6.216 8.254-6.737 3.215-.52 6.215.022 8.998 1.625 2.71 1.56 4.646 3.861 5.81 6.904 1.2 3.064.657 6.581-1.63 10.552l-4.457 7.738c-2.308 4.008-5.078 6.243-8.31 6.705-3.194.483-6.146-.056-8.855-1.616-2.783-1.603-4.767-3.907-5.952-6.913s-.623-6.512 1.685-10.52m3.966-67.254l4.457-7.737c2.287-3.971 5.038-6.217 8.254-6.737 3.215-.52 6.215.02 8.998 1.624 2.71 1.56 4.646 3.862 5.81 6.904 1.2 3.064.657 6.582-1.63 10.552l-4.457 7.738c-2.308 4.008-5.089 6.262-8.342 6.761-3.194.483-6.146-.055-8.855-1.616-2.783-1.603-4.767-3.907-5.952-6.912-1.164-3.043-.592-6.568 1.717-10.577m10.521-3.207l-3.559 6.18c-2.137 3.71-1.796 6.378 1.025 8.003 2.783 1.603 5.243.549 7.381-3.162l3.559-6.18c2.137-3.71 1.814-6.368-.969-7.97-2.82-1.625-5.3-.582-7.437 3.13m-45.908 66.449l85.182-58.953 7.515 4.328-85.125 58.986-7.571-4.36" />
</svg>
