
<svg version="1.1" xmlns="http://www.w3.org/2000/svg" xmlns:xlink="http://www.w3.org/1999/xlink" x="0px" y="0px"
	 viewBox="0 0 590 312" style="enable-background:new 0 0 590 312;" xml:space="preserve">
<path d="M265.2,298.8c0.6-1.2,14.9-32,31.7-68.5l30.5-66.2l6.7-3.4c12.2-6.2,26.5-9,36.9-7.4c15.7,2.5,29.1,12.4,52.5,38.7
	c17.1,19.2,26.5,27.2,37.4,31.9c8.4,3.6,8.7,3.6,21.1,3.6c14,0,19.3-1.3,30.6-7.3l5.8-3.1l32.2-70c17.7-38.5,32.2-70.6,32.2-71.3
	c0-0.9-1.8-0.4-5.8,1.5c-13.7,6.7-27.9,9.5-38,7.7c-15.7-2.8-28-11.8-50.7-37.1c-15.3-17-24.7-25.8-32.4-30.3
	c-15.8-9.3-35.1-9.8-54.3-1.5c-7.2,3.2-7.4,3.2-7.4,1.4c0-1.1-4.6-2.8-8-2.9c-0.8,0-131.2,281.9-131.2,283.5c0,0.4,1.2,0.9,2.6,1.2
	c1.5,0.3,3.4,0.8,4.4,1.1C263.4,300.9,264.4,300.3,265.2,298.8L265.2,298.8z M466.9,224.3c-3-1-8.7-3.8-12.6-6.2l-7.1-4.4l1.8-4
	c1-2.2,3.9-8.3,6.3-13.7l4.5-9.7l6.5,4.2c6.5,4.2,16.1,8,20.3,8c1.2,0,2.2,0.5,2.2,1.1c0,0.6-2.5,6.8-5.7,13.7
	C476.7,227.7,476.9,227.6,466.9,224.3L466.9,224.3z M489.8,199.1c0-0.3,2.7-6.3,6-13.5c3.3-7.1,6-13.3,6-13.6c0-0.4-2.8-1.4-6.3-2.2
	c-6.7-1.7-11.4-3.8-18-8.2c-2.2-1.5-4.2-2.7-4.5-2.7c-0.3,0-3.1,5.6-6.3,12.5c-3.2,6.9-6.2,13-6.8,13.5c-1.2,1.1-7-4.2-17.5-15.9
	c-3.6-4-6.7-7.3-6.9-7.3c-0.1,0-2.9,5.8-6.1,12.8c-3.2,7-6.2,12.8-6.7,12.8c-0.5,0-3.2-2.7-6.1-5.9c-2.9-3.3-8.1-8.5-11.6-11.7
	l-6.4-5.8l5.4-11.7c2.9-6.4,5.7-12.5,6.1-13.5c0.7-1.6,1.3-1.4,5.8,2.4c2.8,2.3,8.2,7.7,12.1,12c3.9,4.3,7.3,7.8,7.5,7.8
	s3.2-6.2,6.6-13.8c3.4-7.6,6.4-13.6,6.5-13.5c0.2,0.2,4.2,4.5,9,9.8c4.8,5.2,10.2,10.6,12,12.1l3.2,2.6l5.8-13
	c3.2-7.2,6.2-13.4,6.7-13.9c0.5-0.5,3,0.7,5.7,2.6c5.3,3.8,14.8,7.9,20.3,8.8c2,0.3,3.6,0.9,3.6,1.2c0,0.4-2.7,6.5-6,13.6
	c-3.3,7.1-6,13.2-6,13.5c0,1,10.8,0.4,16.8-0.9c3.4-0.8,9.7-2.9,13.9-4.7c4.2-1.8,7.7-3.2,7.7-3c0,0.2-2.8,6.4-6.3,14l-6.3,13.7
	l-8.2,3.5c-4.5,1.9-10.9,4.2-14.2,4.9C500.4,199.4,489.8,200.1,489.8,199.1L489.8,199.1z M336.4,146.9c3.1-6.7,6.2-12.8,6.8-13.4
	c1.8-1.9,10.4-5.4,18.7-7.6c8.5-2.3,19.9-2.8,19-0.8c-0.3,0.6-3.2,6.8-6.3,13.7l-5.8,12.5h-6.8c-7.4,0-17.7,2.5-25.7,6.1
	c-2.7,1.2-5.1,2.1-5.3,2C331,159.2,333.4,153.6,336.4,146.9L336.4,146.9z M516.6,142.6c-0.3-0.7,2.1-6.9,5.4-14
	c3.3-7,5.7-13.1,5.4-13.5c-0.3-0.4-1.2-0.7-2-0.7c-3.6,0-14.1-4.2-20.2-8.1c-6.5-4.2-6.6-4.2-7.6-2.1c-4,9.1-11.5,24.9-11.9,25.3
	c-0.6,0.6-8.4-6.9-16.9-16.3c-3.6-4-7-7.1-7.4-6.9c-0.4,0.2-3.4,6.2-6.6,13.3c-3.2,7.1-6.2,12.7-6.6,12.6c-0.4-0.2-4.8-4.5-9.6-9.7
	c-4.8-5.2-10.1-10.5-11.6-11.7l-2.8-2.3l-1,2.3l-6.1,13.6c-2.8,6.2-5.3,11.5-5.5,11.7c-0.2,0.2-2.8-1.2-5.7-3.2
	c-5.6-3.7-15.6-8-18.8-8c-5.3,0-5.2-1.2,1.3-15.3c3.5-7.5,6.4-13.7,6.5-13.8c0.1-0.1,2.7,0.4,5.7,1c6.7,1.5,12.9,4.2,18.5,8.1
	c2.3,1.6,4.6,2.9,4.9,2.9c0.4,0,3.3-5.9,6.6-13c3.3-7.2,6.1-13.2,6.3-13.4c0.7-0.8,10.3,7.9,17,15.3c3.6,4,7,7.3,7.4,7.3
	c0.4,0,3.4-5.8,6.6-12.8s6.2-13,6.5-13.2c0.4-0.2,4.2,3.6,8.5,8.3c7.8,8.7,15.3,15.5,16,14.8c0.2-0.2,3-6.2,6.2-13.2
	c3.2-7,6-12.9,6.1-13.1s2.9,1.4,6.1,3.4c7.5,4.8,10,5.9,17.5,7.7l6.2,1.5l-5.9,12.7c-3.3,7-5.9,13.3-5.9,14.1c0,1.1,1.4,1.2,7.2,0.7
	c8.1-0.8,15.8-2.8,24.3-6.5c3.2-1.4,5.7-2.1,5.7-1.7c0,2.7-11.4,25.6-13.6,27.3C545.7,139.5,518.2,146,516.6,142.6L516.6,142.6z
	 M362.4,90.7l6.3-13.6l6.8-3.1c11.2-5.1,31-8.7,31-5.6c0,0.7-2.7,7-5.9,14L394.7,95l-7.2,0.6c-8.9,0.8-17,2.9-24.8,6.4
	c-3.3,1.5-6.2,2.6-6.3,2.5C356.2,104.4,358.9,98.1,362.4,90.7L362.4,90.7z M423.1,71.9c-2.2-0.9-5.9-2.2-8.3-2.9
	c-2.4-0.6-5-1.3-5.7-1.5c-0.9-0.2,0.7-4.8,4.8-13.4c3.3-7.2,6.5-13.5,7-13.9c2.2-2,15.8,3,26,9.6l3.3,2.1l6-13
	c3.3-7.1,6.5-13.1,7.2-13.3c1.1-0.3,18.6,17.2,22,22c1.5,2,1.1,3.2-4.3,15.1c-3.2,7.1-6.2,13-6.5,13.2c-0.3,0.2-4.3-3.7-8.8-8.6
	c-8.3-9-15-15.3-15.7-14.5c-0.3,0.3-8.3,17.5-11.8,25.3c-1,2.1-1,2.1-6.1-1.2C429.3,75.1,425.3,72.8,423.1,71.9L423.1,71.9z
	 M382.4,47.7c0-0.3,2.5-5.9,5.5-12.5c6.3-13.7,7.5-14.9,19.3-19.2c7.4-2.7,23.7-5.7,25-4.6c0.3,0.3-2.2,6.7-5.7,14.4l-6.3,13.9
	l-6.6,0c-6.9,0-21.9,3.9-27,6.9C384.2,48.1,382.4,48.6,382.4,47.7L382.4,47.7z"/>
<path d="M323.4,299.8c-0.6-1.2-14.9-32-31.6-68.5l-30.5-66.2l-6.7-3.4c-12.2-6.2-26.5-9-36.9-7.4c-15.7,2.5-29.1,12.4-52.5,38.7
	c-17.1,19.2-26.4,27.2-37.4,31.9c-8.4,3.6-8.6,3.6-21.1,3.6c-13.9,0-19.2-1.3-30.6-7.3l-5.8-3.1l-32.2-70C20.5,109.5,6,77.4,6,76.8
	c0-0.9,1.8-0.4,5.7,1.5c13.7,6.7,27.8,9.5,37.9,7.7c15.6-2.8,27.9-11.8,50.7-37.1c15.3-17,24.7-25.8,32.3-30.3
	c15.8-9.3,35-9.8,54.2-1.5c7.2,3.2,7.4,3.2,7.4,1.4c0-1.1,4.6-2.8,8-2.9c0.8,0,131,281.9,131,283.5c0,0.4-1.2,0.9-2.6,1.2
	c-1.5,0.3-3.4,0.8-4.4,1.1C325.2,301.9,324.2,301.3,323.4,299.8L323.4,299.8z M122,225.3c3-1,8.7-3.8,12.6-6.2l7.1-4.4l-1.8-4
	c-2.1-4.6-4.2-9.1-6.3-13.7l-4.5-9.7l-6.5,4.2c-6.5,4.2-16.1,8-20.2,8c-1.2,0-2.1,0.5-2.1,1.1c0,0.6,2.5,6.8,5.7,13.7
	C112.2,228.7,112,228.6,122,225.3L122,225.3z M99,200.1c0-0.3-2.7-6.3-6-13.5s-6-13.3-6-13.6c0-0.4,2.8-1.4,6.3-2.2
	c6.7-1.7,11.4-3.8,17.9-8.2c2.2-1.5,4.2-2.7,4.5-2.7s3.1,5.6,6.3,12.5c3.2,6.9,6.2,13,6.8,13.5c1.2,1.1,7-4.2,17.5-15.9
	c3.6-4,6.7-7.3,6.9-7.3c0.1,0,2.9,5.8,6.1,12.8c3.2,7,6.2,12.8,6.7,12.8c0.5,0,3.2-2.7,6.1-5.9c2.9-3.3,8.1-8.5,11.6-11.7l6.4-5.8
	l-5.4-11.7c-2.9-6.4-5.7-12.5-6.1-13.5c-0.7-1.6-1.3-1.4-5.8,2.4c-2.7,2.3-8.2,7.7-12.1,12c-3.9,4.3-7.3,7.8-7.5,7.8
	c-0.2,0-3.2-6.2-6.6-13.8c-3.4-7.6-6.4-13.6-6.5-13.5c-0.2,0.2-4.2,4.5-9,9.8c-4.8,5.2-10.2,10.6-12,12.1l-3.2,2.6l-5.8-13
	c-3.2-7.2-6.2-13.4-6.7-13.9c-0.5-0.5-3,0.7-5.7,2.6c-5.3,3.8-14.8,7.9-20.3,8.8c-2,0.3-3.6,0.9-3.6,1.2c0,0.4,2.7,6.5,6,13.6
	s6,13.2,6,13.5c0,1-10.8,0.4-16.7-0.9c-3.4-0.8-9.7-2.9-13.9-4.7c-4.2-1.8-7.7-3.2-7.7-3c0,0.2,2.8,6.4,6.3,14l6.3,13.7l8.2,3.5
	c4.5,1.9,10.9,4.2,14.2,4.9C88.5,200.4,99,201.1,99,200.1L99,200.1z M252.2,147.9c-3.1-6.7-6.2-12.8-6.8-13.4
	c-1.8-1.9-10.4-5.4-18.7-7.6c-8.5-2.3-19.9-2.8-19-0.8c0.3,0.6,3.1,6.8,6.3,13.7l5.8,12.5h6.8c7.4,0,17.7,2.5,25.6,6.1
	c2.7,1.2,5.1,2.1,5.2,2C257.7,160.2,255.3,154.6,252.2,147.9z M72.3,143.6c0.3-0.7-2.1-6.9-5.4-14c-3.3-7-5.7-13.1-5.4-13.5
	c0.3-0.4,1.2-0.7,2-0.7c3.6,0,14.1-4.2,20.2-8.1c6.5-4.2,6.6-4.2,7.6-2.1c4,9.1,11.5,24.9,11.9,25.3c0.6,0.6,8.4-6.9,16.9-16.3
	c3.6-4,7-7.1,7.4-6.9c0.4,0.2,3.4,6.2,6.6,13.3c3.2,7.1,6.1,12.7,6.6,12.6c0.4-0.2,4.8-4.5,9.6-9.7c4.8-5.2,10.1-10.5,11.6-11.7
	l2.8-2.3l1,2.3l6.1,13.6c2.8,6.2,5.3,11.5,5.5,11.7c0.2,0.2,2.8-1.2,5.7-3.2c5.6-3.7,15.6-8,18.7-8c5.3,0,5.2-1.2-1.3-15.3
	c-3.5-7.5-6.4-13.7-6.5-13.8c-0.1-0.1-2.7,0.4-5.6,1c-6.7,1.5-12.9,4.2-18.4,8.1c-2.3,1.6-4.6,2.9-4.9,2.9c-0.4,0-3.3-5.9-6.6-13
	c-3.3-7.2-6.1-13.2-6.3-13.4c-0.7-0.8-10.3,7.9-17,15.3c-3.6,4-7,7.3-7.4,7.3c-0.4,0-3.4-5.8-6.6-12.8s-6.1-13-6.5-13.2
	c-0.4-0.2-4.2,3.6-8.5,8.3c-7.8,8.7-15.3,15.5-16,14.8c-0.2-0.2-3-6.2-6.2-13.2s-6-12.9-6.1-13.1s-2.9,1.4-6.1,3.4
	C64,84.1,61.5,85.2,54,87l-6.2,1.5l5.9,12.7c3.3,7,5.9,13.3,5.9,14.1c0,1.1-1.4,1.2-7.2,0.7c-8.1-0.8-15.8-2.8-24.3-6.5
	c-3.1-1.4-5.7-2.1-5.7-1.7c0,2.7,11.4,25.6,13.6,27.3C43.2,140.5,70.7,147,72.3,143.6L72.3,143.6z M226.3,91.7L220,78l-6.8-3.1
	c-11.2-5.1-31-8.7-31-5.6c0,0.7,2.7,7,5.9,14l5.9,12.7l7.2,0.6c8.9,0.8,17,2.9,24.8,6.4c3.3,1.5,6.2,2.6,6.3,2.5
	C232.5,105.4,229.8,99.1,226.3,91.7L226.3,91.7z M165.7,72.9c2.2-0.9,5.9-2.2,8.3-2.9c2.4-0.6,5-1.3,5.7-1.5
	c0.9-0.2-0.7-4.8-4.7-13.4c-3.3-7.2-6.5-13.5-7-13.9c-2.2-2-15.8,3-26,9.6l-3.3,2.1l-6-13c-3.3-7.1-6.5-13.1-7.2-13.3
	c-1.1-0.3-18.6,17.2-22,22c-1.5,2-1.1,3.2,4.3,15.1c3.2,7.1,6.2,13,6.5,13.2c0.3,0.2,4.3-3.7,8.8-8.6c8.3-9,15-15.3,15.7-14.5
	c0.3,0.3,8.3,17.5,11.8,25.3c0.9,2.1,1,2.1,6.1-1.2C159.5,76.1,163.5,73.8,165.7,72.9L165.7,72.9z M206.3,48.7
	c0-0.3-2.5-5.9-5.5-12.5c-6.3-13.7-7.5-14.9-19.3-19.2c-7.4-2.7-23.7-5.7-25-4.6c-0.3,0.3,2.2,6.7,5.7,14.4l6.3,13.9l6.6,0
	c6.9,0,21.9,3.9,26.9,6.9C204.6,49.1,206.3,49.6,206.3,48.7L206.3,48.7z"/>
</svg>
