<svg width="25" height="25" xmlns="http://www.w3.org/2000/svg" viewBox="0 0 1382.5 1479.6"><style>.st0,.st1,.st2,.st3,.st4,.st5{fill:#41210a;stroke:#41210a;stroke-width:9.380000e-02}.st1,.st2,.st3,.st4,.st5{fill:#cfac99;stroke:#cfac99}.st2,.st3,.st4,.st5{fill:#ef9eb1;stroke:#ef9eb1}.st3,.st4,.st5{fill:#fff;stroke:#fff}.st4,.st5{fill:#ee1f7a;stroke:#ee1f7a}.st5{fill:#ff01fe;stroke:#ff01fe}</style><path class="st0" d="M759.9 48.7c17.3-11.4 36.5-20.6 57.2-23.2 19.7-2.4 40.8 1.6 57.1 13.2 4.5 2.9 7.1 7.6 10.5 11.6 3.4 4.1 9.8 5.6 14.4 2.6 6.4-3.8 9-11.8 15.6-15.3 17.7-10.1 39.7-14.2 59.3-7.8 15.4 5 27.2 17.8 33.6 32.4 9.5 21.8 10.4 46.8 4.7 69.7-4.2 17.1-11.2 33.5-21.2 48-9.7 14.1-22.6 26.2-37.8 34.2-9.9 4.6-21.1 7.2-29.6 14.5-4.1 3.4-6.7 9.5-3.9 14.5 2.1 4 7.2 8 11.7 5.1 3.7-2.2 2.5-8.4-1.5-9.4-1.8-.8-5.7 0-4.7 2.7.8 1.4 2.6.9 4 1.1-2.9 4.2-9-.7-7-4.8 2.8-7.4 12.9-8.4 19.3-5.6 7 3 9.4 11.7 7.3 18.6-1.6 6-6.7 11-12.9 12-4.7.9-9.5-.2-14.2-.9 5.2 4.2 10.6 9 12.3 15.8 2.7 9-1.1 18-1.4 27-.1 3.6 1 8.5 5.2 9.4 3.5.6 7.9-.3 9.7-3.7 1.5-2.7 1.9-6.7-.5-9-2.5-1.5-5.8-.3-6.8 2.4.9 1.4 1.9 2.8 3.8 2.6-4.1 3.2-10.5-1.9-8.8-6.7 1.7-4.3 7-5.9 11.2-4.4 4.8 1.6 8.8 6.1 8.6 11.4-.1 6.8-3.8 14.7-11.1 16.2-6 .6-11.7-2.8-15.8-7 .5 5.5-3.9 9.3-7.4 12.7-4.7 4.8-9.8 10.2-10.3 17.2 0 6.2 2.8 12.6 7.9 16.4 3.3 2.4 8.1 1.8 11-1.1 3.3-3 7-7.6 5.7-12.4-2.2-5.4-11.7-3-10.9 2.8.4 2.8 3.9 3.6 5.7 1.4-1.1 1.9-2.4 4.4-5 4.2-7-.6-10.6-11-5.1-15.6 8.6-6.9 23.7-4.9 28.7 5.5 6.1 12.8-3.1 29.3-16.5 32.5-8.8 2.3-18.2-.5-25.6-5.5-3.1-2.1-5.8-4.7-7.7-7.9-1.2-2.4-1.6-5-1.6-7.6-1.6 2.9-3.5 5.6-5.9 7.9-7.9 7.5-19.1 12.6-30.1 9.6-5.7-1.6-11.4-4.7-14.6-9.9-1.9-3.2-3.6-6.4-5.6-9.6 3.7 3.3 6.9 7.4 11.3 9.9 3.2 1.9 7.1 2.1 10.7 2.1 7.2-.6 13.5-4.3 19-8.7-5.4 2.5-11.4 3.1-17.3 2.4-5.1-.5-10.7-2.3-13.3-7-3.6-5.1-3-12.4 1.5-16.8-.7 3.4-2.1 7.2 0 10.4 2.5 5 8.7 6.6 13.9 5.5 6-1.5 12.4-4.6 14.9-10.6-4.4 1.6-8.9 3-13.6 2.5-8.1-1.1-12.2-11.2-8.5-18.1 1.7-3.6 5.2-7.2 9.6-6.4 1.1 1 2.4 2 3.2 3.3.1 1.2.2 2.3.3 3.5-.9 1.1-1.8 2.2-2.8 3.3-.4.2-1.2.7-1.6 1 .2-1.2.4-2.5.6-3.7-1.5-2.4-5-.4-5.4 1.9-.8 3.8 1.1 7.9 4.6 9.6 6 .5 11.6-3.7 13.5-9.3 3.1-8.8-3-19.8-12.4-21.2-6.8-1-13.9 1.2-19 5.8-12.2 10.3-16.9 26.2-26.3 38.6-4.8 6.5-11.7 11.9-20 12.8-5.9.4-11.9-.9-17.1-3.7-4.2-2.5-8.1-5.8-11.1-9.7-3.8-5-6.2-11-6.7-17.3-.9-10 6.4-19.2 15.7-22 5.6-1 12.2 1.4 14.9 6.6 1.8 3.2-.1 6.8-1.5 9.7-.3-3.2-2-7.3-5.9-6.8-5.1 0-7.4 6.3-4.6 10.1 3.2 5.3 11.4 5.3 15.2.5 1-2.2 1.9-4.6 2.1-7 .3-5-.6-10.2.7-15.1 2.3-8.8 8.4-16.6 16.5-20.8 5.6-2.8 11.7-4.2 17.4-6.6 3.4-1.5 7.1-2 10.8-1.4-7.2-5.2-15.4-9-24.1-10.9-4.2-.7-8.9-1.3-12.7 1.1-3.8 2.5-4.7 7.9-2.9 12 2 1.5 4.4 3.4 7 2.2 2.9-1.1 3.4-6 .4-7.3-2.3-1.6-4.3.6-5.8 2.3.6-1.4.6-3.3 2.2-4.1 1.6-.9 3.5-.8 5.2-.9 3.2 1.1 7.2 3.8 5.8 7.7-3.4 6.2-12.7 6.9-17.6 2.1-2.5-3-3.8-7.2-2.3-11 2.3-7.3 9.7-11.2 16.7-13 6.3-1.8 13-1.3 19.4.1 6.3 1.5 12.5 3.7 18.6 5.6 4.2 1.2 8.5 1.8 12.8 1.5 6.3-.7 11.9-4.2 16-8.9 4.6-5.2 7.4-12.3 6.6-19.4-.5-4.7-3.3-9.1-7.7-11.2-5.1-2.5-11.1-3.2-16.6-1.7-7.7 2.2-10.1 13.6-4.4 19 4.9 4.3 13.9-.9 12.5-7.3-1.4-4.3-6.4-5.3-10.3-4.2 2.3-1.6 4.6-3.4 7.4-4 9.8-2.2 19.4 8.9 16.3 18.3-.9 3.2-3 5.9-5.4 8.2-9.5 8.3-25 6.4-34.1-1.6-4.7-4.4-6.5-10.9-6.1-17.1.8-7.8 4.7-14.8 9.5-20.9 4.8-6.1 10.1-11.9 16.4-16.4 9.2-6.7 19.6-12.4 26.1-22 9.4-13.7 17.5-28.7 20.3-45.2 1.6-9.9 5.2-19.6 4.1-29.8-.6-7.6-4.1-14.8-9.1-20.4-1.2-1.3-3.4-3.2-4.9-1.3-.5 1.6-.2 3.3.4 4.9 5.5 11.7 6.3 25.1 5.3 37.8-2.2 18.2-5.8 37.1-17 52.2-3.9 5.4-9.1 9.9-14.9 13.1-8.6 5.2-16.5 11.6-25.3 16.6-7.4 4.1-14.5 8.9-20.1 15.4-5.3 6-7.1 14-9.5 21.4-2.1 6.8-9.7 9.8-16.3 10.1-6.3.4-13.9-2.1-16.3-8.5-1.3-4.5-1-10.3 2.9-13.4 3.7-2.9 9 .2 10 4.4-.2.2-.7.6-.9.8.7-2.5-2.1-5.4-4.6-3.8-3.2 1.7-1.5 6 .7 7.8 2.5 2.7 7.2 2.2 9.4-.6 1.9-2.9-.2-6.3-1.6-9-2.7-5.2-8-9.9-7.1-16.3.9-9.5 7.4-17.1 12.9-24.4 5.6-7.6 12-15.7 12-25.6-.1-4.1.1-8.8-2.7-12.1-2.8-1.3-4.9 1.7-6.5 3.5-6.3 8.9-5.2 20.6-9.6 30.3-2.9 6.3-6.4 13-12.9 16.1-5.6 3.1-12.9 4.5-18.6.9-3.7-2.3-6-6.5-6.5-10.8-.6-4.4 5-8.6 8.8-5.6 2.4 1.5 2.2 4.6.9 6.7.3-1.1.6-2.3.9-3.4-1.6-.7-3.2-1.3-4.9-1.7-3.4 7 10.2 11.9 12.3 4.7 1.3-4.9.1-9.9-.1-14.9-.7-10-2.2-20-6.3-29.2-7.4-16.8-18.9-32.5-34.9-42.1-6.8-3.8-14.2-7.2-22.1-7.4-3.1-.1-5.7 1.7-7.6 3.9 1.8-12.5 4.1-25.4 11.5-35.9 7-10.3 18.5-16 28.7-22.5z"/><path class="st1" d="M727.4 103.2c7.9.2 15.3 3.6 22.1 7.4 16 9.5 27.5 25.2 34.9 42.1 4.2 9.1 5.7 19.2 6.3 29.2.2 4.9 1.5 10 .1 14.9-2.1 7.2-15.7 2.3-12.3-4.7 1.7.3 3.3.9 4.9 1.7-.3 1.1-.6 2.3-.9 3.4 1.3-2.1 1.5-5.3-.9-6.7-3.8-3-9.3 1.3-8.8 5.6s2.8 8.4 6.5 10.8c5.7 3.6 13 2.1 18.6-.9 6.5-3.2 10-9.9 12.9-16.1 4.4-9.7 3.3-21.4 9.6-30.3 1.6-1.8 3.7-4.8 6.5-3.5 2.8 3.3 2.6 8 2.7 12.1 0 9.9-6.4 18-12 25.6-5.5 7.4-12 14.9-12.9 24.4-.9 6.4 4.4 11.1 7.1 16.3 1.4 2.7 3.4 6.1 1.6 9-2.2 2.8-6.9 3.4-9.4.6-2.2-1.8-3.9-6.1-.7-7.8 2.4-1.6 5.2 1.2 4.6 3.8.2-.2.7-.6.9-.8-1-4.1-6.3-7.2-10-4.4-3.9 3.1-4.2 9-2.9 13.4 2.5 6.4 10 8.9 16.3 8.5 6.6-.2 14.2-3.3 16.3-10.1 2.4-7.4 4.2-15.4 9.5-21.4 2.8 5.6 5.9 10.9 9.3 16.1-.5 6.3 1.4 12.8 6.1 17.1-4.1 1.6-8 3.5-11.8 5.7-6.4-1.4-13-1.9-19.4-.1-7 1.7-14.4 5.7-16.7 13-1.4 3.8-.2 8 2.3 11l-2.1 1.8c-5.4-10.9-10-22.2-13.5-33.9-2-6.1-4.4-12.4-9.1-16.9-3.5-3.3-8.4-4.4-13-4.3-12.5.2-24.4 6-37 5.5-4.3-.4-9.2-1.6-11.7-5.5-1.8-3.5-2.4-7.6-2-11.5.9-3 5.1-5 4.1-8.5-2-4.1-8.8-2.1-10-6.9-1.2-3.2.8-6.2 2.7-8.6-3.7-1-8-2.9-8.9-7-.8-3.1-.5-8 3.5-8.6 2.5-.5 4.3-3.1 3.3-5.5-2.2-5.5-9.7-6.9-11.1-12.8-1-4.1 2.5-7 5.8-8.5 7.1-3.1 11.5-9.9 15.1-16.5 3.4.6 6.9.8 10.4 0 7.6-1 15-2.8 22.2-5.6-4.6-.3-9-1.7-13.1-3.7-5-2.4-10.7-2.6-16-1.6-.3-9-.7-17.7 0-26.3z"/><path class="st0" d="M727.4 129.2c5.3-1 11.1-.9 16 1.6 4.1 2 8.5 3.4 13.1 3.7-7.1 2.8-14.6 4.6-22.2 5.6-5.8.6-11.9.2-17.2-2.4 2.7.1 5.4.2 8.1-.1-3.5-.8-7.1-1.4-10.6-2.3 3.3-.1 7 .8 10.1-.8 1.9-1 1.5-3.4 1.9-5.2l.8-.1z"/><path class="st2" d="M841.5 264.2c3.8-2.2 7.7-4.1 11.8-5.7 9.1 8 24.6 9.9 34.1 1.6.4.6 1.2 1.7 1.6 2.3-4.1 4.7-9.7 8.2-16 8.9-1.4-2.5-3.7-5-6.9-4.8-2.6-.3-4.5 1.6-6 3.3-6.1-2-12.3-4.2-18.6-5.6z"/><path class="st3" d="M860.2 269.8c1.5-1.8 3.4-3.6 6-3.3 3.2-.2 5.4 2.3 6.9 4.8-4.4.3-8.7-.3-12.9-1.5z"/><path class="st1" d="M813.5 274.2c3.8-2.4 8.5-1.8 12.7-1.1-2.3 1.5-4.5 3.2-6.6 5.1-1.8.2-3.7 0-5.2.9-1.5.8-1.6 2.7-2.2 4.1-.6 1-1.1 1.9-1.7 2.9-1.7-4-.8-9.3 3-11.9z"/><path class="st2" d="M819.7 278.2c2-1.9 4.2-3.6 6.6-5.1 8.7 1.9 16.9 5.6 24.1 10.9-3.7-.6-7.4 0-10.8 1.4-5.7 2.4-11.9 3.8-17.4 6.6-8.1 4.2-14.2 12-16.5 20.8-1.4 4.9-.5 10.1-.7 15.1-.5-.8-1-1.6-1.4-2.4-1.8 2.8-3.2 6.5-.7 9.4-3.8 4.8-11.9 4.8-15.2-.5-2.8-3.8-.5-10.1 4.6-10.1 3.9-.5 5.7 3.5 5.9 6.8 1.5-2.9 3.4-6.5 1.5-9.7-2.8-5.2-9.3-7.6-14.9-6.6 6-9.1 14.1-16.6 21-24.9.7-.6 1.3-1.2 2.1-1.8 4.9 4.8 14.2 4.1 17.6-2.1 1.4-4-2.6-6.7-5.8-7.8z"/><path class="st2" d="M812.3 283.3c1.4-1.6 3.4-3.9 5.8-2.3 3 1.3 2.5 6.2-.4 7.3-2.6 1.2-5.1-.7-7-2.2.5-.9 1.1-1.8 1.6-2.8z"/><path class="st1" d="M850.2 316c5.1-4.6 12.2-6.8 19-5.8-.5.2-1.5.6-2 .9.7 3.6 1.7 7.1 2.1 10.8-4.4-.8-7.9 2.8-9.6 6.4-3.6 6.9.5 17 8.5 18.1-.5 2.7-.9 5.4-1.3 8.1-5.2 1.1-11.4-.4-13.9-5.5-2.1-3.2-.8-7 0-10.4-4.5 4.4-5.1 11.7-1.5 16.8 2.7 4.8 8.2 6.5 13.3 7-.5 2.1-1.1 4.2-1.7 6.3-3.7.1-7.5-.2-10.7-2.1-4.4-2.5-7.5-6.6-11.3-9.9 1.9 3.1 3.7 6.4 5.6 9.6 3.2 5.2 8.9 8.2 14.6 9.9-.4 2.5-.6 5.1-1.2 7.6l-1.2 3.9c-6.3 26.8-13.1 53.4-20.7 79.8-1.5 4.8-2.9 9.6-4.3 14.4-5.5 17.5-11.8 34.7-17.6 52.1-4.1 10.1-8 21-16.7 28.1-11 8.8-23.4 15.6-35.8 22.2-34.8 18.3-71 33.7-107.6 47.7-19.1 6.9-38.2 14.3-58.2 18.5-5.8 1.6-11.8-.5-16.4-4-3.5-2.8-4.9-7.2-6.2-11.3-.7-2.3-1.3-4.5-1.9-6.8-7.5-4.7-17.9-2.9-24-10-5.2-6.2-12.7-10.1-20.6-11.5-3-2-6-4.4-7.1-7.9.5-6.1 4-11.9 9.3-15 8.3-5.1 18.7-5.6 28-3.4 10.4 2.5 19.1 9.4 25.8 17.5 6.7 7.7 13.5 15.8 23.1 19.8 2.2 1.1 4.6.9 6.9.5 8.3-1.5 16.4-3.6 24.3-6.6 34.9-12.6 63.1-37.4 92-59.7 9-7.3 19.8-11.8 28.6-19.4 5.4-5.1 8.1-12.2 10.9-18.8 5.9-16.1 9.8-32.9 13.2-49.8 1.8-8.4 3.2-16.9 5.3-25.2 5.1-23.8 9-47.8 14.5-71.5 8.2-.9 15.1-6.3 20-12.8 9.6-12.4 14.3-28.3 26.5-38.6z"/><path class="st2" d="M867.1 311.1c.5-.2 1.5-.6 2-.9 9.4 1.3 15.5 12.4 12.4 21.2-1.9 5.5-7.5 9.8-13.5 9.3.5-1.5 1.1-3 1.6-4.5l.7 1c3.5-2.9 3.8-8 2.1-11.9-.8-1.4-2.1-2.3-3.2-3.3-.4-3.8-1.4-7.3-2.1-10.9z"/><path class="st3" d="M872.5 325.2c1.7 3.9 1.4 9.1-2.1 11.9l-.7-1 .3-4.2c1-1 1.9-2.1 2.8-3.3-.1-1.1-.2-2.2-.3-3.4zM803.4 325.5c.5.8.9 1.6 1.4 2.4-.2 2.5-1.1 4.8-2.1 7-2.5-2.8-1.1-6.6.7-9.4z"/><path class="st1" d="M863.5 331.1c.4-2.3 3.9-4.3 5.4-1.9-.1 1.2-.4 2.5-.6 3.7.4-.2 1.2-.7 1.6-1l-.3 4.2c-.5 1.5-1.1 3-1.6 4.5-3.4-1.7-5.2-5.7-4.5-9.5z"/><path class="st2" d="M762.4 346.4c2.1-3.3 4.3-6.5 6.6-9.7.6 6.3 3 12.3 6.7 17.3-4.7 3.1-3.9 11 1.5 12.8 3.6 1.6 7-.9 9.6-3.1 5.2 2.8 11.2 4.1 17.1 3.7-5.5 23.7-9.4 47.7-14.5 71.5-2.1 8.3-3.5 16.8-5.3 25.2-7.2-5-13.8-10.9-20.6-16.4-9.8-8.5-19.7-17-27.7-27.3-4-5.4-8-11.5-8.1-18.5.4-6.1 3.7-11.5 6.8-16.6 8.4-13.6 19.5-25.3 27.9-38.9m-14.8 36.1c-3.7 2-5.1 7.2-2.4 10.5 3 4.9 11.4 3.5 12.7-2 2.2-5.9-5-11.8-10.3-8.5m28.7 28.7c-4 2.1-5 8.1-1.8 11.3 3.8 4.8 12.6 1.5 12.5-4.6.6-5.4-6.1-9.4-10.7-6.7zM868.2 346.4c4.7.5 9.2-.9 13.6-2.5-2.6 6-9 9.1-14.9 10.6.4-2.7.8-5.4 1.3-8.1z"/><path class="st3" d="M777.2 366.8c-5.4-1.8-6.2-9.7-1.5-12.8 3 4 6.8 7.2 11.1 9.7-2.6 2.3-6 4.7-9.6 3.1zM891.3 366.7c2.4-2.3 4.3-5 5.9-7.9.1 2.6.5 5.2 1.6 7.6-2.4.8-5 1-7.5.3z"/><path class="st2" d="M864.8 362.6c5.9.7 11.9.2 17.3-2.4-5.5 4.4-11.8 8.1-19 8.7.6-2.1 1.2-4.2 1.7-6.3zM898.8 366.4c2 3.1 4.6 5.8 7.7 7.9-.9 3.5-.6 7.1-.5 10.6.9 37.8 7.1 75.7 19.7 111.4-3 .5-6.8.8-8.3 4-2.5 4 0 9.8 4.7 10.7 3 .9 5.7-.9 7.8-2.8 13.9 35.6 33.7 68.8 57.5 98.6 9.1 11.2 18.4 22.3 27.6 33.5.1.6.2 1.8.2 2.4-3.6-3.5-10.1-2.3-12 2.3-2.2 4.5 1.8 10.4 6.8 9.9 5.3.6 9.6-6.8 5.6-10.7.5-.6 1-1.2 1.6-1.7.8 3 2.8 5.5 4.2 8.2 8.7 15.8 11.5 34.7 8 52.4-2.9 15.1-10.1 29.3-19.6 41.3-9 11.1-19.7 21.2-32.5 27.9-12.8 7.2-27.1 11.7-38.7 20.8 1.9.2 3.8.4 5.7.5-2.4.1-4.8-.4-7.1.4-5 3.9-9.3 9.1-10.7 15.4-2.7 11.9.1 24.5 6.3 34.8 5.6 10 13.8 18.2 21.6 26.3-3.1.1-6.7.6-8.3 3.6-3.3 5.1 1.9 12.6 7.9 10.8 4.5-1 6.3-6 5.3-10.1 12.8 12.1 27.6 22.5 37.2 37.5 1 2.1 3.4 4.7 1.8 7-12.7 20.2-25.9 41.5-46.9 54.1-7.3 4.8-15.8 7.2-24.1 9.8-10.1.8-20.4 1.8-30.5-.3-2.8-.6-5.5-1.4-8.2-1.9-6.5-4.3-14.4-5.6-21.1-9.5 2.7-1.3 5.2-3.5 5.5-6.6.5-4-2.9-8.3-7.2-8-4.2-.4-7.8 3.8-7.3 7.9.3 2.3 2 4.2 3.5 5.9-.7 0-2-.1-2.6-.2-11-.6-21.7 3.2-31.1 8.7-3.3 2.1-7.2 3.5-9.5 6.8-3.9.7-6.6 3.6-9.7 5.9-16.2 11.7-33.1 22.6-51 31.6-.5-2.8-.7-6.1-3.4-7.8-3.9-3-10.1-.7-11.1 4.1-1 3 1 5.6 2.4 8.1-5.1 2.5-10.8 2.7-16.3 3.2-9.4.3-18.3-4.1-25.1-10.4-13.9-11.6-23.9-27.6-39.5-37.1-3-1.5-3.6-5.6-2-8.3 2-4.3 5.4-8.8 3.9-13.9-5.1-14.8-17-26-22-40.8-1.7-4.6-2.7-9.4-2.7-14.3l-.2-.7c-.2-.7-.5-2-.7-2.7-.3-.2-1-.5-1.3-.7 1.2-2.5-2.9-3.8-4.6-2.5-9.9-4.8-19.9-9.6-29.7-14.7 4.8.6 9.5-4.4 7.8-9.2-1.2-5.2-8.5-7.2-12.1-3.2-2.8 2.4-2.3 6.2-1.3 9.4-5.3-3-10.6-6-15.6-9.4-3.1-2-6-4.8-9.8-5.3l.9-.6c-4.5-4.2-9.5-7.9-13.7-12.5-7.8-8.5-14.5-18.2-18.6-29 2.1 1.2 4.4 2.8 7 2 5.1-.7 7.6-7.7 4.1-11.5-2.2-3.3-7.2-3.5-10.2-1.1-1.7 1.3-2.1 3.5-3 5.3-4-12.3-5.7-25.2-5.4-38.1 27-17.7 58.1-27.6 88.4-38.1 3.6-1.4 7.2-2.8 11.2-2.7 2.2.2 3.8-1.4 5.5-2.6 2.7-2.1 6-2.8 9.1-4.1 21.6-8.5 42.6-18.2 64.3-26.5 2.2 2.7 5.3 5.7 9.1 4.3 4.6-1 5.9-6.2 5.2-10.2 18.4-7.4 37.2-14.8 53.3-26.5 4.1-2.5 6.9-6.7 11.1-8.9 12.7-1.7 25.8-4.2 36.7-11.2 2.9-2.3 6.8.5 10-1 2.9-1.5 5-5.1 3.7-8.3-2.1-4.5 1.6-8.6 1.8-13 1.4-12.5-4.7-23.9-8.8-35.2 2.5-.8 5.5-1.5 6.6-4.2 2.3-3.9-.3-9.5-4.7-10.3-2.7-.7-5.3.8-7.7 1.7-6.9-16.4-7.5-34.6-15.1-50.7 5.7-17.4 12.1-34.6 17.6-52.1 2.3 0 4.8.6 7-.6 3.7-1.9 5-7.3 2.4-10.6-1.2-1.7-3.3-2.4-5-3.2 7.6-26.4 14.4-53 20.7-79.8-.4 4.6 3.6 9 8.3 8 5.7-.2 8.3-8.3 4.1-12.1-3.1-3.4-7.9-2.1-11.2.2.6-2.5.8-5.1 1.2-7.6 11 3 22.2-2.1 30.1-9.6 3 .5 5.6.3 8-.5m-7.5 44.8c-4.8 2.4-4.9 10.1-.1 12.6 4.7 3 11.6-1.3 10.7-6.9-.1-5.1-6.3-8.2-10.6-5.7m-27.8 28.3c-5 1.7-6.4 9-2.2 12.2 3.7 3.6 10.8 1.4 11.8-3.7 1.6-5.4-4.4-10.6-9.6-8.5m28.8 28.8c-3.7 1.3-5.9 5.9-4.1 9.5 1.5 4.2 7.4 5.9 10.9 3 3.8-2.5 3.9-8.7.4-11.4-1.9-1.6-4.8-1.6-7.2-1.1m-29 28.9c-5.3 1.9-6.1 9.9-1.2 12.7 4.8 3.7 12.3-1.3 11.1-7.1-.5-4.5-5.8-7.5-9.9-5.6m-29.9 29.3c-4.9 2.7-4.3 11.2 1.2 12.8 4.5 1.9 9.8-1.6 9.8-6.5.7-5.5-6.4-9.5-11-6.3m58-.2c-4.1 2-5 7.9-1.9 11.2 3.5 4.5 11.9 2.2 12.4-3.6 1.4-5.7-5.6-10.6-10.5-7.6m-27.8 28.3c-4.6 1.5-6.5 8.2-2.9 11.7 3.3 4 10.6 2.7 12.2-2.4 2.2-5.5-3.8-11.5-9.3-9.3m57.9-.1c-5.1 1.3-6.9 8.5-3 12 3.8 4.5 12.3 1.3 12.3-4.5.6-4.9-4.7-9.1-9.3-7.5m-29 28.9c-5.5 1.6-6.6 9.9-1.7 12.8 4.4 3.5 12-.6 11.2-6.3.1-4.8-5.2-8.2-9.5-6.5m57.8-.1c-5.8 1.3-7 10.3-1.7 13 4.2 3 10.8-.2 11-5.4.7-4.9-4.6-9.2-9.3-7.6m-87 29c-4.6 1.8-6.1 8.4-2.3 11.8 3.5 4 10.8 2.1 12-3.1 2-5.5-4.4-11.3-9.7-8.7m57.1.1c-4.7 2.1-5.4 9.4-1.2 12.3 4.1 3.3 11.1.5 11.5-4.8 1.2-5.4-5.4-10.1-10.3-7.5m57.2.2c-5.1 2.6-4.8 11 .7 13 4.9 2.5 11.1-2.4 10-7.7-.6-4.9-6.5-7.7-10.7-5.3m-86.2 28.8c-4.3 2-5.2 8.7-1.4 11.7 4 4.1 12.3 1 11.9-5 .9-5.5-6-9.5-10.5-6.7m57.9-.1c-4.7 1.8-5.5 9.1-1.5 12 4 3.5 11.2 1 11.8-4.4 1.2-5.5-5.4-10.5-10.3-7.6m-27.8 28.2c-4.6 1.3-6.9 7.8-3.5 11.4 3.2 4.9 11.9 2.9 12.7-2.9 1.3-5.1-4.2-10.1-9.2-8.5m-116.2.6c-4.7 2-5.4 9.1-1.3 12 4.1 3.8 11.8.5 11.8-5.1.6-5.4-5.9-9.6-10.5-6.9m56.3.6c-5 3.5-2.8 12.4 3.4 12.9 5.2 1.2 10-4.9 7.8-9.7-1.5-4.4-7.5-6-11.2-3.2m115.9-.4c-5.2 2.6-4.5 11.6 1.3 13 4.4 1.7 9.4-1.7 9.6-6.3.7-5.6-6.3-9.8-10.9-6.7m-200.1 28.1c-4.9 1.5-6.6 8.4-2.8 11.9 3.9 4.3 12.2 1.5 12.3-4.4.7-5-4.8-9.2-9.5-7.5m58 0c-5.7 1-7.1 9.6-2.4 12.7 4.1 3.5 11.5.4 11.5-5.1.6-4.9-4.4-9.2-9.1-7.6m57.9-.1c-3.5.5-6 4.2-5.7 7.7.2 3.4 3.2 6.2 6.6 6.5 4.1.7 8.4-3.4 7.8-7.6 0-4.3-4.6-7.7-8.7-6.6m57.1.1c-5.5 1.2-7.1 9.6-2.3 12.6 3.9 3.3 10.5.9 11.4-4.1 1.4-5.2-4.1-10.2-9.1-8.5m57.2.1c-4.9 1.4-6.6 8.4-2.9 11.9 3.5 3.8 10.6 2.4 12-2.7 2.3-5.4-3.7-11.4-9.1-9.2m-317.2 29c-5.2 2-5.6 10.3-.7 12.8 4.2 2.8 10.6-.3 10.9-5.4.8-5.4-5.4-9.9-10.2-7.4m57.9-.2c-4.8 1.7-6.2 8.5-2.4 11.9 3.5 3.9 10.9 2 12-3.2 1.9-5.5-4.4-11.1-9.6-8.7m58-.1c-5.4 1.3-6.9 9.6-2.2 12.6 4.1 3.5 11.3.5 11.6-4.9.8-5-4.7-9.5-9.4-7.7m57 .1c-5.2 2-6.2 9.9-1.3 12.7 4.8 3.8 12.4-1.1 11.2-7-.6-4.6-5.6-7.2-9.9-5.7m58-.1c-5.3 1.6-6.6 9.5-2 12.6 4 3.4 11.2.5 11.5-4.8.9-5-4.7-9.8-9.5-7.8m57.1.2c-5.2 1.7-6.1 9.8-1.4 12.5 3.8 3 10.1.7 11.1-4 1.9-5.4-4.5-11.1-9.7-8.5m-374.9 29.1c-3.7 2.2-5.1 7.7-1.9 11 3.3 4.4 11.1 2.7 12.4-2.6 2.2-5.8-5.2-11.8-10.5-8.4m57.8-.1c-2.4 1.2-4 3.9-3.9 6.6-.1 4.7 5.3 8.5 9.6 6.7 3.5-1.1 5.5-5.1 4.6-8.6-.9-4.5-6.4-6.8-10.3-4.7m58-.2c-3.9 1.7-5.8 7-3.1 10.6 2.7 4.7 10.8 4.1 12.6-1.1 3-5.6-3.9-12.3-9.5-9.5m57.1.2c-5.3 2.3-5.1 10.9.3 13 4.4 2.4 10.5-1.4 10.2-6.4.4-5.3-5.9-9.3-10.5-6.6m57.9-.1c-5.1 1.9-5.6 9.7-1.1 12.6 4.1 3 10.6.2 11.2-4.9 1.2-5.4-5.2-10.3-10.1-7.7m57.1.1c-3.9 2-5.2 7.9-2 11.1 3.5 4.4 12.1 2.4 12.5-3.5 1.4-5.7-5.5-10.5-10.5-7.6m57.9-.1c-5.2 2.1-5.4 10.5-.4 12.9 4.4 2.7 10.9-1 10.7-6.2.4-5.2-5.8-9.1-10.3-6.7m-374.1 28.8c-5.9 2.4-5.1 11.7.8 13.4 4.8 1.6 10-2.5 9.4-7.5-.1-4.9-5.9-8.2-10.2-5.9m56.5.5c-5 3.2-3.5 12 2.4 13 4.6 1.4 9.6-3 8.8-7.8 0-5.3-7.1-8.2-11.2-5.2m58.6-.5c-6.2 2.5-4.8 12.9 1.9 13.6 4.9 1.2 9.6-4 8.3-8.7-.9-4.5-6.4-7-10.2-4.9m57.1.2c-4.2 2.1-5 8.7-1.3 11.6 3.8 3.7 11.2 1.5 11.9-4 1.6-5.6-5.6-10.8-10.6-7.6m57.9-.2c-4.7 2-5.4 9-1.4 12 4.2 3.8 11.8.6 11.8-5.1.7-5.3-5.7-9.4-10.4-6.9m57.2.3c-6 2.8-4 12.8 2.5 13.3 5.2 1.2 10-4.8 7.8-9.6-1.3-4.1-6.7-6-10.3-3.7m57.8-.2c-5.5 2.5-4.9 11 .5 13.2 4.4 1.9 10.1-1.5 10-6.4.6-5.4-5.9-9.5-10.5-6.8m-315.9 28.4c-4.3 1.6-6.2 7.5-3.2 11.1 3 4.5 11 3.4 12.6-1.8 2.5-5.6-3.8-11.7-9.4-9.3m57.2.1c-4.4 2.1-5.7 8.4-2.1 11.8 4 4.3 12.2 1.4 12.3-4.5.7-5.4-5.4-9.4-10.2-7.3m57.9-.1c-3.8 1.6-6 6.8-3.5 10.4 2.5 5.3 11.3 4.6 13-1 2.4-5.7-3.9-11.8-9.5-9.4m58-.1c-4.6 1.4-6.7 7.8-3.3 11.5 3.3 4.6 11.7 2.8 12.6-2.9 1.4-5.3-4.2-10.4-9.3-8.6m57 .1c-5 1.9-5.9 9.4-1.6 12.5 4.2 3.5 11.5.3 11.6-5.2.6-5.2-5.2-9.4-10-7.3m58-.1c-4.6 1.4-6.5 7.7-3.3 11.3 3.3 4.8 11.8 2.8 12.7-3 1.4-5.1-4.3-10.2-9.4-8.3m-317 28.9c-5.1 1.8-6 9.6-1.5 12.5 4.1 3.5 11.1.3 11.5-5 .8-5.2-5.1-9.6-10-7.5m57.9 0c-5.8 1.6-6.5 10.6-1 13.1 4.5 2.8 11.2-1.2 10.6-6.5.2-4.8-5.2-8.3-9.6-6.6m57.9-.1c-5.6 1.1-6.8 9.6-2.3 12.7 3.6 2.8 9.5 1.4 11.1-3 2.6-5.4-3.3-11.7-8.8-9.7m57.1.1c-4.8 1.5-6.3 8.4-2.6 11.8 3.6 4 11.1 2 12.1-3.3 1.7-5.4-4.2-10.7-9.5-8.5m57.9-.1c-4.9 1.2-6.8 8.1-3.2 11.6 3.4 4.2 11.1 2.6 12.3-2.7 1.9-5.3-3.8-10.9-9.1-8.9m57.2.1c-5 1.6-6.3 9-2 12.2 3.7 3.6 10.5 1.3 11.7-3.6 1.6-5.5-4.5-10.8-9.7-8.6m57.8-.1c-5.1 1.4-6.7 8.7-2.6 12.1 3.8 4.2 11.8 1.3 12.1-4.4.8-5-4.6-9.5-9.5-7.7m-259.9 29.1c-5 2.2-5.3 10-.5 12.7 4.4 3 11.2-.8 11-6.1.3-5.2-6-9.1-10.5-6.6m57.9-.1c-5.1 1.9-6 9.9-1.1 12.6 4.1 3.2 10.7.1 11.2-5 .9-5.3-5.2-10-10.1-7.6m57.2.1c-5.2 2.4-5.2 10.9.3 13 4.5 2.5 10.6-1.4 10.2-6.5.3-5.2-6-9-10.5-6.5m57.8-.1c-5.3 2-5.7 10.6-.5 12.9 3.7 2.3 9.4.1 10.4-4.3 2.1-5.4-4.7-11.3-9.9-8.6m57.2.2c-4.9 2.2-5.3 10-.5 12.5 4.3 3.2 11.5-.5 10.9-6 .6-5.3-5.9-9.1-10.4-6.5m-201.2 28.7c-5.2 2.2-5.4 10.5-.3 12.9 4.8 2.8 11.4-1.6 10.6-7.1-.3-4.9-6-8.2-10.3-5.8m57.1.2c-4.8 2.4-4.9 9.8-.3 12.4 4.8 3.2 11.9-1.1 11-6.9-.3-4.9-6.5-8.3-10.7-5.5m57.9-.2c-4.5 1.9-5.6 9-1.5 11.9 3.8 3.8 11.2 1.1 11.7-4.2 1.4-5.5-5.3-10.5-10.2-7.7m57.1.2c-3.8 2.1-4.8 7.8-1.8 11 3.3 4.1 11 2.9 12.3-2.4 2.4-6-5.1-12.1-10.5-8.6m57.9-.1c-4.5 2-5.2 8.7-1.5 11.8 4.1 4 12.2.7 12-5.2.5-5.3-5.9-9.4-10.5-6.6m57.1.2c-4.5 2.5-4.6 9.8-.1 12.3 4.1 2.7 10.3.2 11-4.8 1.3-5.8-5.9-11-10.9-7.5m-314.9 28c-5.4 1.4-6.9 9.2-2.4 12.4 3.9 3.7 11 1 11.7-4.2 1.1-5.1-4.4-9.9-9.3-8.2m57 .1c-4.8 1.8-6.3 8.8-2.2 12.1 4 4.2 12 1.1 12.1-4.8.6-5.1-5.1-9.2-9.9-7.3m57.9-.1c-4.6 1.4-6.7 7.8-3.3 11.4 3.3 4.9 11.7 2.7 12.7-3 1.4-5.2-4.3-10.1-9.4-8.4m57.2.1c-5.1 1.8-6.1 9.4-1.8 12.5 3.9 3.3 10.7.9 11.5-4.2 1.5-5.4-4.6-10.4-9.7-8.3m58 0c-4.9 1.4-6.7 8.3-3 11.8 3.6 4.3 11.4 2.1 12.3-3.5 1.4-5.2-4.3-10.3-9.3-8.3m57.9-.1c-5.3 1.2-7.1 8.7-3 12.2 3.6 4.1 11.2 1.6 12-3.8 1.3-5.1-4.1-10-9-8.4m-259.2 28.8c-5.2 1.3-6.9 8.7-2.9 12.2 3.4 3.5 10.1 2 11.7-2.6 2.4-5.3-3.2-11.5-8.8-9.6m57.2.1c-4.5 1.4-6.3 7.7-3.1 11.3 3.1 4.4 10.9 3.2 12.4-2.1 2.3-5.5-3.9-11.4-9.3-9.2m57.8-.1c-4.2 1.3-6.5 6.6-4.1 10.5 2.6 5.1 11 4.6 13-.8 2.5-5.4-3.3-11.7-8.9-9.7m115.1.1c-4.8 1.3-6.7 8-3.3 11.6 3.6 4.8 12.4 2.2 12.6-3.9 1-5.2-4.5-9.4-9.3-7.7m-202.1 28.9c-5.1 1.8-6 9.8-1.3 12.6 4.4 3.5 11.6-.4 11.3-5.9.2-5-5.4-8.9-10-6.7m57.9-.1c-5.3 1.6-6.4 9.3-1.9 12.5 4.3 3.7 12.2 0 11.6-5.8.3-4.8-5.3-8.6-9.7-6.7z"/><path class="st3" d="M747.6 382.5c5.3-3.3 12.6 2.7 10.3 8.5-1.3 5.6-9.8 6.9-12.7 2-2.7-3.4-1.3-8.6 2.4-10.5zM860 384c3.3-2.3 8.2-3.6 11.2-.2 4.2 3.8 1.6 11.9-4.1 12.1-4.7 1-8.7-3.4-8.3-8l1.2-3.9zM776.3 411.2c4.7-2.7 11.3 1.2 10.7 6.7.2 6.1-8.7 9.4-12.5 4.6-3.2-3.2-2.2-9.2 1.8-11.3zM891.3 411.2c4.3-2.5 10.5.6 10.7 5.7.8 5.6-6 9.9-10.7 6.9-4.9-2.5-4.8-10.1 0-12.6zM863.5 439.5c5.2-2.1 11.2 3.1 9.6 8.5-.9 5.1-8 7.4-11.8 3.7-4.2-3.1-2.7-10.5 2.2-12.2zM833.8 482.1c1.4-4.8 2.9-9.6 4.3-14.4 1.8.8 3.9 1.5 5 3.2 2.6 3.3 1.3 8.8-2.4 10.6-2.1 1.2-4.6.6-6.9.6zM892.3 468.3c2.3-.5 5.2-.6 7.1 1.2 3.5 2.7 3.4 9-.4 11.4-3.5 2.9-9.4 1.2-10.9-3-1.7-3.6.5-8.2 4.2-9.6zM863.3 497.2c4.1-1.9 9.4 1.1 9.9 5.6 1.2 5.8-6.3 10.8-11.1 7.1-4.9-2.8-4.1-10.8 1.2-12.7zM833.5 526.5c4.6-3.2 11.6.8 11.1 6.4 0 4.9-5.4 8.4-9.8 6.5-5.6-1.6-6.2-10.1-1.3-12.9zM891.4 526.3c4.9-3.1 11.9 1.8 10.5 7.5-.5 5.8-8.9 8.1-12.4 3.6-3.1-3.1-2.2-9.1 1.9-11.1zM863.6 554.6c5.5-2.2 11.5 3.8 9.3 9.3-1.6 5-8.9 6.4-12.2 2.4-3.6-3.5-1.7-10.2 2.9-11.7zM921.5 554.5c4.6-1.6 9.9 2.6 9.3 7.5 0 5.9-8.5 9.1-12.3 4.5-3.9-3.5-2.1-10.7 3-12zM892.5 583.4c4.4-1.7 9.6 1.8 9.5 6.5.8 5.7-6.7 9.8-11.2 6.3-4.9-2.9-3.8-11.2 1.7-12.8zM950.3 583.3c4.7-1.6 9.9 2.6 9.3 7.6-.2 5.2-6.8 8.4-11 5.4-5.3-2.7-4.1-11.7 1.7-13z"/><path class="st4" d="M585 598.2c13-1.3 26.1-2 39.2-2.9 5.2-.6 10.6 2 13.2 6.5 1.6 3.1 1.5 6.7 2 10.1-7.9 3-16 5-24.3 6.6-2.3.4-4.8.6-6.9-.5-9.7-4-16.6-12.1-23.2-19.8zM483.1 611.4c15.1-2.7 30.5-3.9 45.8-4.4 7.9 1.4 15.4 5.3 20.6 11.5 6.1 7.1 16.6 5.3 24 10 .6 2.3 1.2 4.5 1.9 6.8-11.4.6-22.8 2.1-34.2 2.3-4.4.4-7.7-3.6-12-3.2-19 1.2-38.4 1.9-56.6 8-10.5 3.3-17 14-18.6 24.5-1 5.4.5 11.6 5.2 14.9 11.8 8.5 24.8 15.6 34.7 26.4 7.3 7.9 11.5 18.8 10.7 29.6-.4 10.9-6.1 20.4-10.3 30.1 2.5 2.5 5.2 5.3 5.8 9 1.3 6.8-1.7 13.5-4.6 19.5-2.6 5.4-8.3 8.3-14 9-7 14.7-13.6 29.6-20.9 44.2 38.2 6 76.5 11.9 114.7 18 3.8.5 6.7 3.3 9.8 5.3 5 3.4 10.3 6.4 15.6 9.4 1.8 1 3.6 2 5.5 3 9.8 5 19.8 9.8 29.7 14.7 1.5.8 3 1.7 4.6 2.5.3.2 1 .5 1.3.7.2.7.5 2 .7 2.7-21.5-2.8-42.9-6.7-64.4-9.9-43.3-6.7-86.6-13.8-130-20.4-1.8 4.6-4.6 8.7-6 13.4 24.2 25.5 48.4 51 72.5 76.7 26.9 28.7 54.3 57 81.2 85.7 30.2 31.6 60 63.8 90.2 95.4-3.4 11.8-7 23.5-10.8 35.2-24.6-26.6-50-52.5-74.7-79.1-24.4-25.3-48.2-51.2-72.5-76.6-11.5-12.2-23.1-24.2-34.5-36.5-22.5-22.9-44-46.8-66.3-69.8-10.5 22.1-21.1 44.1-31.5 66.3 31.4 17.2 58.6 41.9 79.4 71 23 31.8 38.8 68.9 44.5 107.9 7.1 46.4 1.1 94.8-17.8 137.9-14.3 33.4-36.5 63.2-63.6 87.4-14.6 13.3-31.1 24.3-48.5 33.6-33.2 18.1-70.9 27.8-108.7 28.9-43.2 1.7-86.8-8.3-125-28.6-34.9-18.6-65.6-45.4-88-78-20.4-29.2-34.8-62.8-40.9-98-8.8-48.6-3.2-99.9 16.8-145.1 14.5-33.3 36.5-63.3 63.9-87.1 27-24 59.4-42 94.1-52.2 27.2-8.3 55.8-11 84.1-9.7 27 .8 53.4 7.5 78.6 16.9 28.3-59.7 56.7-119.3 85.1-178.9-4.3-5-4.6-12.4-2.1-18.2 2.2-5.6 4.5-12 10.3-14.9 3.3-2 7.3-1.8 11-1.6 2.1-6.9 6.5-13 7.8-20.2 1-5.7-3.1-10.4-7.1-13.8-9.7-8.9-22.3-14-31.8-23.1-7-6.4-10.8-15.7-11.5-25.1-1.6-20 7.9-40.7 24.2-52.4 9.8-6.9 21.4-9.3 32.6-11.6M253.5 990.6c-1.2 1-.1 2.8-.2 4.2 5.8 52.5 11.8 104.9 17.6 157.4 2.5.1 4.9.2 7.4.3 5.1-10.6 10-21.4 15.2-32 3-7.8 5-15.9 7.2-23.9 7-25.7 14.7-51.2 22-76.7 2.3-7.5 4-15.3 7.3-22.5-24.8-6.5-50.9-9.3-76.5-6.8m-82.4 24.8c.7 2.8 2.5 5.2 3.8 7.8 24.5 45 49.6 89.6 74.1 134.6 4.5-2 9.1-3.9 14-4.4-.2-7-1.3-14-2-20.9-5.1-46.9-10.6-93.9-15.7-140.8-26 3.1-51.1 11.6-74.2 23.7m164.8-16.2c0 1.6 0 3.2-.3 4.8-5.9 20.5-11.8 41-17.9 61.4-1 3.2-2.1 6.3-2.4 9.7 7-15.2 14.2-30.4 21.3-45.6 4-8.7 8.6-17 12.3-25.9-4.3-1.5-8.7-3-13-4.4M332 1120c11.2-13.2 21.7-27.1 32.5-40.6 12.2-15.6 24.7-31 37.1-46.4-7-5-14-10.1-21.6-14.3-15.9 33.8-32.3 67.4-48 101.3m-224.5-51.9c8.6 7.2 17.5 14 26.2 21.1 32.5 25.9 65 51.8 97.3 77.8 1 .6 1.7 1.7 3 1.8 2.8-2.3 5.3-5 8.2-7-5.8-11.4-12.3-22.4-18.3-33.6-19.9-36.2-40.1-72.1-59.9-108.4-21.7 12.3-40.4 29.4-56.5 48.3m214.8 77c-2.5 3.2-5.8 5.9-7.2 9.9-1.6 4.3-3.8 8.3-5.8 12.4 2.6 2.1 4 5.7 6.8 7.5 45.9-24.9 91.5-50.5 137.3-75.6 1.9-1.1 4.7-.6 5.3 1.7 1 2.3-.5 4.7-2.6 5.7-45.6 24.9-90.9 50.4-136.6 75.2 1.9 4.4 3.5 8.9 4.2 13.7 48.8-5.4 97.6-11 146.4-16.5 4.8-.2 9.7-1.6 14.5-.9-3.9-34.3-16.1-67.7-36.1-95.8-11.6-16.4-24.9-31.8-40.8-44.3-28.6 35.5-57 71.2-85.4 107m-246.7-23.6c-2.4 6.4-5.4 12.6-6.5 19.4 51.6 14.4 103.1 29.6 154.6 44.5 1.6-3.5 3.3-6.9 5.4-10.1-28-22.1-55.5-44.8-83.5-66.8-14.4-11.2-28.7-22.5-42.7-34.1-11.2 14.3-20.3 30.3-27.3 47.1m-9 26.5c-6.8 24.9-8.7 51.1-6.1 76.8 5.9-.3 11.7-1.2 17.6-1.8 47.3-5.3 94.6-10.5 141.9-16 .5-4.8.4-9.7 1.5-14.3-51.6-14.9-103.3-29.8-154.9-44.7m188.8 28.2c-7.3 4-12.5 11.2-15 19-2.2 8-1.5 16.8 2.3 24.2 5.5 11.2 17.8 18.6 30.3 18.1 11.8-.3 22.8-7.9 28.4-18.2 5.1-9.6 4.6-21.7-.9-31.1-1.7-.7-1.7 1.8-2.5 2.7-3.9 7.5-6.7 15.5-11.2 22.7-4.1 6.8-13.4 9.2-20.6 6.1-8.3-3.3-13-13.7-9.5-22 4.2-8.6 8.3-17.2 12.1-26-4.6.8-9.3 2.1-13.4 4.5m218.6 10.2c-49.8 5.5-99.6 11.3-149.4 16.8-.1 3.7-.4 7.4-1 11.1 51.8 14.6 103.4 30 155.2 44.6 6.3-24 8.8-49.1 6.6-73.9-3.7.7-7.5 1-11.4 1.4m-265.9 29.8c-48.9 5.4-97.7 11-146.6 16.3 3.3 24.6 11.2 48.5 22.7 70.5 46.8-25.7 93.4-51.8 140.4-77.2-1.3-3.6-2.5-7.2-3.3-10.9-4.5.3-8.8.8-13.2 1.3m107.2 18.1c42 33.2 83.8 66.8 125.6 100.1 16.1-20.2 27.9-43.4 35.9-67.9-51.6-15.3-103.4-29.8-155-45-1.7 4.6-3.9 8.8-6.5 12.8m-222.2 72.6c-1.6 1.1-3.8 1.4-4.9 3.1 2.5 4.9 5.8 9.4 8.8 14.1 11 15.7 23.6 30.5 38.8 42.1 32.3-40.8 64.9-81.5 97.4-122.1.6-.9 1.7-1.7 1.7-2.9-2.3-2.9-4.6-5.7-6.8-8.6-45.1 24.6-89.9 49.7-135 74.3m207-57.9c.8 3.2 2.9 5.9 4.3 8.8 24 43.9 48.4 87.6 72.5 131.5 22.5-12.6 42.9-29.1 59.1-49.1-27.7-21.6-55-43.7-82.4-65.6-14.4-11.4-28.5-23.1-43.2-34.2-3.1 3.3-6.8 5.9-10.3 8.6m-80.4 24.4c-15.1 18.9-30.2 37.9-45.3 56.8-11 13.6-21.6 27.6-32.9 41 20.5 16.4 44.3 28.2 69.2 36.2 2.9-7.4 4.6-15.3 7-22.9 12.5-43.6 25.2-87.1 37.6-130.8-4.9-1.7-9.4-4.2-13.5-7.3-7.9 8.7-14.8 18.1-22.1 27m62.8-17.7c5.9 53 12.2 105.9 17.6 158.9 24-2.6 47.3-10.3 68.9-20.9 1.7-.4.2-1.9-.1-2.8-24.9-45-49.6-90.1-74.6-135.1-.7-1-1-2.5-2.2-2.8-3.2.9-6.3 2.1-9.6 2.7m-25.2 19.2c-13.2 44.8-25.9 89.7-38.9 134.5 24 6.7 49.4 8.5 74.2 6.2-5.6-53-11.9-105.9-17.7-158.8-4 .1-7.9-.4-11.9-.7-2.3 6-3.7 12.5-5.7 18.8z"/><path class="st3" d="M863.3 612.3c5.3-2.5 11.7 3.2 9.7 8.7-1.2 5.2-8.5 7.1-12 3.1-3.8-3.4-2.3-10 2.3-11.8zM920.4 612.4c4.9-2.6 11.5 2 10.4 7.6-.4 5.3-7.5 8.1-11.5 4.8-4.3-3-3.6-10.3 1.1-12.4zM977.6 612.6c4.2-2.4 10.1.4 10.7 5.2 1 5.3-5.1 10.2-10 7.7-5.5-1.9-5.8-10.3-.7-12.9zM891.5 641.4c4.5-2.7 11.4 1.2 10.5 6.7.4 6-7.9 9.2-11.9 5-3.8-3.1-2.9-9.7 1.4-11.7zM949.3 641.3c4.9-2.8 11.5 2.1 10.3 7.6-.5 5.4-7.8 7.8-11.8 4.4-4-3-3.2-10.2 1.5-12zM921.5 669.5c5-1.6 10.5 3.4 9.2 8.5-.8 5.8-9.5 7.8-12.7 2.9-3.4-3.6-1.1-10.1 3.5-11.4zM805.3 670.1c4.7-2.7 11.1 1.5 10.4 6.9 0 5.6-7.6 8.9-11.8 5.1-4-2.9-3.3-10 1.4-12zM861.6 670.7c3.7-2.8 9.7-1.2 11.2 3.2 2.2 4.8-2.6 10.9-7.8 9.7-6.2-.5-8.3-9.4-3.4-12.9zM977.5 670.3c4.6-3.2 11.6 1.1 10.9 6.7-.2 4.7-5.3 8-9.6 6.3-5.8-1.4-6.5-10.3-1.3-13zM777.4 698.4c4.8-1.8 10.3 2.5 9.5 7.5-.1 5.9-8.4 8.7-12.3 4.4-3.8-3.4-2.1-10.4 2.8-11.9zM835.4 698.4c4.7-1.5 9.7 2.7 9.1 7.6 0 5.5-7.4 8.6-11.5 5.1-4.7-3.2-3.3-11.7 2.4-12.7zM893.3 698.3c4.2-1.1 8.7 2.3 8.7 6.7.6 4.2-3.7 8.2-7.8 7.6-3.4-.3-6.3-3.2-6.6-6.5-.3-3.6 2.2-7.3 5.7-7.8zM950.4 698.4c5-1.7 10.5 3.4 9.1 8.5-.9 5-7.5 7.4-11.4 4.1-4.8-3.1-3.2-11.4 2.3-12.6zM1007.6 698.5c5.4-2.2 11.4 3.8 9.2 9.2-1.4 5.1-8.6 6.5-12 2.7-3.8-3.6-2.1-10.5 2.8-11.9zM690.4 727.5c4.8-2.4 11 2 10.2 7.4-.3 5.1-6.7 8.2-10.9 5.4-4.9-2.5-4.5-10.8.7-12.8zM748.4 727.3c5.2-2.4 11.5 3.2 9.6 8.6-1 5.2-8.4 7.1-12 3.2-3.8-3.3-2.4-10.1 2.4-11.8zM806.3 727.2c4.7-1.8 10.2 2.6 9.4 7.6-.2 5.4-7.5 8.4-11.6 4.9-4.7-2.9-3.2-11.1 2.2-12.5zM863.4 727.3c4.3-1.5 9.3 1.1 9.9 5.7 1.2 5.9-6.4 10.8-11.2 7-4.9-2.8-3.8-10.8 1.3-12.7zM921.3 727.2c4.8-2 10.5 2.8 9.5 7.8-.3 5.3-7.5 8.2-11.5 4.8-4.6-3.1-3.3-11 2-12.6zM978.4 727.4c5.2-2.6 11.6 3.1 9.8 8.5-1 4.7-7.3 7-11.1 4-4.7-2.7-3.8-10.8 1.3-12.5z"/><path class="st4" d="M977.3 772.1c12.8-6.7 23.5-16.8 32.5-27.9 3.6 6.5 5.5 14.3 4.1 21.7-2 8.7-8.3 15.7-15.8 20.2-7.3 4.3-15.6 7.1-24 7.6-9.9.6-19.8 0-29.8-.2-1.9-.1-3.8-.3-5.7-.5 11.6-9.2 25.9-13.7 38.7-20.9z"/><path class="st3" d="M603.5 756.5c5.3-3.5 12.7 2.5 10.5 8.4-1.3 5.3-9.1 7-12.4 2.6-3.1-3.2-1.8-8.8 1.9-11zM661.4 756.4c3.9-2.1 9.4.3 10.3 4.7.9 3.5-1.1 7.5-4.6 8.6-4.4 1.8-9.8-2-9.6-6.7-.2-2.7 1.4-5.5 3.9-6.6zM719.3 756.2c5.6-2.8 12.5 3.9 9.5 9.5-1.8 5.2-9.9 5.8-12.6 1.1-2.6-3.5-.8-8.9 3.1-10.6zM776.5 756.4c4.6-2.7 10.8 1.3 10.5 6.5.2 5-5.8 8.8-10.2 6.4-5.4-2-5.6-10.6-.3-12.9zM834.4 756.3c4.9-2.6 11.3 2.3 10.1 7.7-.6 5.1-7.1 7.9-11.2 4.9-4.5-2.9-4-10.7 1.1-12.6zM891.4 756.4c5-3 11.9 1.9 10.5 7.6-.4 5.9-8.9 7.9-12.5 3.5-3.2-3.1-1.9-9 2-11.1zM949.3 756.3c4.5-2.4 10.7 1.5 10.3 6.7.3 5.2-6.3 8.9-10.7 6.2-5-2.4-4.8-10.8.4-12.9zM575.3 785.1c4.3-2.3 10.1 1 10.3 5.9.6 5-4.7 9.1-9.4 7.5-6.1-1.7-6.9-11-.9-13.4zM631.7 785.6c4.1-3 11.2-.1 11.3 5.2.8 4.8-4.2 9.2-8.8 7.8-5.9-1-7.5-9.8-2.5-13zM690.3 785.1c3.9-2.1 9.4.4 10.2 4.8 1.4 4.8-3.4 10-8.3 8.7-6.7-.6-8.1-11-1.9-13.5zM747.4 785.3c5-3.3 12.2 2 10.6 7.7-.7 5.4-8.1 7.6-11.9 4-3.7-3-2.9-9.6 1.3-11.7zM805.4 785.1c4.6-2.5 11.1 1.6 10.4 6.9 0 5.8-7.7 9-11.8 5.1-4-3-3.3-10 1.4-12zM862.5 785.4c3.6-2.3 9-.4 10.3 3.7 2.2 4.8-2.6 10.8-7.8 9.6-6.5-.5-8.5-10.5-2.5-13.3zM920.3 785.2c4.6-2.7 11.1 1.5 10.5 6.8.1 4.9-5.6 8.3-10 6.4-5.4-2.2-6-10.8-.5-13.2zM604.5 813.6c5.5-2.4 11.8 3.8 9.4 9.3-1.6 5.2-9.6 6.3-12.6 1.8-3-3.6-1.1-9.5 3.2-11.1zM661.6 813.7c4.8-2.1 11 1.9 10.2 7.3-.1 6-8.3 8.8-12.3 4.5-3.6-3.4-2.3-9.7 2.1-11.8zM719.5 813.6c5.6-2.4 11.9 3.8 9.4 9.3-1.7 5.6-10.5 6.3-13 1-2.4-3.6-.2-8.7 3.6-10.3zM777.5 813.5c5.1-1.8 10.8 3.3 9.3 8.6-.9 5.7-9.3 7.5-12.6 2.9-3.3-3.7-1.3-10.1 3.3-11.5zM834.5 813.6c4.8-2.1 10.6 2.1 10 7.3-.1 5.5-7.4 8.8-11.6 5.2-4.3-3.1-3.4-10.6 1.6-12.5zM892.6 813.5c5.1-1.9 10.7 3.2 9.3 8.4-.8 5.8-9.4 7.7-12.7 3-3.1-3.7-1.2-10 3.4-11.4zM575.6 842.4c4.9-2.1 10.7 2.2 10 7.5-.4 5.3-7.4 8.5-11.5 5-4.6-2.9-3.6-10.7 1.5-12.5zM633.5 842.4c4.4-1.7 9.8 1.8 9.6 6.6.5 5.3-6.1 9.3-10.6 6.5-5.5-2.5-4.8-11.5 1-13.1zM691.3 842.3c5.5-2 11.3 4.3 8.8 9.6-1.5 4.4-7.5 5.8-11.1 3-4.5-3.1-3.3-11.5 2.3-12.6zM748.5 842.4c5.2-2.1 11.2 3.1 9.5 8.5-1 5.3-8.5 7.3-12.1 3.3-3.7-3.4-2.2-10.3 2.6-11.8zM806.4 842.3c5.2-2 11 3.6 9.1 8.9-1.3 5.4-8.9 6.9-12.3 2.7-3.6-3.5-1.7-10.4 3.2-11.6zM863.5 842.4c5.3-2.3 11.4 3.1 9.6 8.6-1.1 4.9-7.9 7.3-11.7 3.6-4.2-3.1-2.9-10.6 2.1-12.2zM921.3 842.3c4.8-1.8 10.3 2.7 9.5 7.8-.3 5.6-8.3 8.5-12.1 4.4-4.1-3.5-2.5-10.8 2.6-12.2zM602 872.8c3.6-4.1 10.8-2 12.1 3.2 1.7 4.8-3 9.8-7.8 9.2-1.9-1-3.7-2-5.5-3-1.1-3.1-1.6-7 1.2-9.4zM661.4 871.4c4.5-2.5 10.8 1.3 10.5 6.5.3 5.4-6.5 9.1-11 6.1-4.8-2.5-4.5-10.3.5-12.6zM719.4 871.3c4.9-2.4 11 2.4 10 7.7-.5 5.1-7.1 8.1-11.2 5-4.8-2.8-3.9-10.8 1.2-12.7zM776.5 871.4c4.5-2.5 10.8 1.3 10.4 6.5.4 5.1-5.7 9-10.2 6.5-5.4-2.1-5.4-10.6-.2-13zM834.4 871.3c5.2-2.7 12 3.2 9.8 8.7-1 4.3-6.6 6.6-10.4 4.3-5.1-2.4-4.7-11 .6-13zM891.6 871.5c4.5-2.5 11 1.2 10.4 6.5.6 5.5-6.6 9.2-10.9 6-4.8-2.6-4.4-10.3.5-12.5zM635.9 899.8c1.6-1.4 5.8 0 4.6 2.5-1.6-.8-3.1-1.6-4.6-2.5zM690.3 900.2c4.3-2.3 10 1 10.4 5.8.8 5.5-5.8 9.8-10.6 7.1-5.2-2.4-5-10.8.2-12.9zM747.5 900.4c4.2-2.8 10.4.6 10.7 5.5.9 5.8-6.2 10.1-11 6.9-4.6-2.6-4.5-10 .3-12.4zM805.4 900.2c4.9-2.8 11.6 2.2 10.3 7.7-.5 5.3-7.9 8-11.7 4.2-4.2-2.9-3.1-10 1.4-11.9zM862.4 900.4c5.4-3.5 12.9 2.6 10.5 8.6-1.3 5.3-9.1 6.5-12.3 2.4-3-3.2-2-8.9 1.8-11zM920.3 900.3c4.6-2.7 11 1.3 10.5 6.7.2 5.9-7.9 9.2-12 5.2-3.7-3.2-3-9.9 1.5-11.9zM977.4 900.5c5-3.5 12.2 1.7 10.9 7.5-.7 5-6.9 7.5-11 4.8-4.5-2.5-4.4-9.8.1-12.3zM662.5 928.5c4.9-1.8 10.5 3.1 9.3 8.2-.7 5.3-7.8 7.9-11.7 4.2-4.5-3.2-3-11 2.4-12.4zM719.6 928.6c4.8-1.9 10.5 2.1 9.9 7.3-.1 5.8-8.1 9-12.1 4.8-4.1-3.2-2.6-10.3 2.2-12.1zM777.5 928.5c5-1.8 10.8 3.2 9.3 8.4-.9 5.7-9.4 7.9-12.7 3-3.3-3.6-1.1-9.9 3.4-11.4zM834.7 928.6c5.1-2.1 11.2 2.9 9.8 8.3-.8 5.1-7.6 7.5-11.5 4.2-4.4-3-3.3-10.6 1.7-12.5zM892.6 928.6c5-2 10.8 3.2 9.3 8.4-.8 5.5-8.6 7.7-12.3 3.5-3.7-3.6-1.9-10.5 3-11.9zM950.5 928.5c4.9-1.6 10.4 3.3 9 8.4-.8 5.3-8.4 7.8-12 3.8-4.1-3.6-2.3-11 3-12.2z"/><path class="st4" d="M1061.1 956.7c44.7-6.8 91.2-1.9 133.1 15.1 32.4 13 62.1 32.7 86.2 58 26.5 27.9 47.3 61.4 58.6 98.3 10.8 35.4 14.3 73.2 9 109.9-5.3 37.1-18.8 73-39.7 104.1-17.3 25.8-39.5 48.3-65 66.1-27.2 18.9-58.1 32.3-90.5 39.3-38.1 7.4-77.9 7.4-115.5-2.9-38-10-73.6-28.8-102.8-55.1-27.2-23.8-48.5-54-62.8-87.1-10.2-23.2-16.7-47.9-19.2-73.1-11 .6-22 1.1-33 1.7-2.4 17.4-10 34.3-23 46.3-15.4 14.4-36.7 22.4-57.7 21.1 1-7.9 2.3-15.8 3.2-23.8 4.1-.1 8.2-.5 12.3-1.1-2.8-7.6-5.3-15.3-9-22.4 3.2-26.8 7.1-53.5 10.6-80.3 2.1-9.2.6-18.5.7-27.8 19.5-47.8 38.6-95.8 57.7-143.9 1.7-4.2 3.5-8.4 5-12.7 2.2-3.3 6.2-4.8 9.5-6.8 9.4-5.5 20.1-9.3 31.1-8.7-8 21-16.6 41.7-24.9 62.6-16.5 41.3-32.9 82.7-49.6 124 16.3 10.4 27.9 27.4 32.6 46.2 11.1-.7 22.2-1 33.3-1.8.1-31.8 6.4-63.5 18.3-92.9 7.3-18.2 16.9-35.4 28.4-51.2 2.1-2.9 4.2-5.8 6.5-8.6 4.1-5 8.2-9.9 12.5-14.7 2.9-3.3 6.3-6.1 9-9.5-1.4-3.5-4.6-5.8-6.8-8.7-7.9-9.2-15.7-18.4-23.7-27.5-2.1-2.5-4.3-5-6.5-7.4 2.7.5 5.4 1.3 8.2 1.9 10.1 2.1 20.3 1.1 30.5.3 6.7 7.5 13.1 15.4 19.9 22.8 32.8-25.8 72.2-43.3 113.5-49.7m9.5 35.1c9.2 52.9 18.9 105.8 28.3 158.7 4 .1 8 .3 12 1.2 1.6-5.5 2.6-11.1 3.9-16.6 10.3-46.8 19.8-93.8 30.9-140.5-24.7-5.4-50.2-6-75.1-2.8m-80.3 28.9c27.1 42.6 54.5 85 81.6 127.5 2 2.3 3.3 5.9 6.2 7.1 4-1.5 7.9-3.1 12.1-3.9-8.8-52.8-18.9-105.3-28-158-25.4 4.5-49.9 13.9-71.9 27.3m158.6-3.2c-9.7 45.5-19.9 91-29.7 136.4 2.4 1 4.8 2.1 7.1 3.4 20.8-29.6 41.3-59.4 62.1-89 9.9-14.4 20.3-28.6 29.9-43.2-19.7-13.3-41.8-22.7-64.7-28.9-1.3 7.2-3.1 14.2-4.7 21.3m-177.6 16.2c21.3 24.3 42.4 48.7 63.7 73.1-17.1-27.3-34.8-54.2-51.9-81.4-4.1 2.5-8 5.4-11.8 8.3m233.6 26c-23.9 34.1-47.4 68.4-71.5 102.5 3.1 2.7 6 5.7 8.6 8.9 41.5-27 83.4-53.4 125.1-80.1 3.7-2.2 7-5.1 11.1-6.5-14.2-21-32.4-38.9-52.4-54.4-7.3 9.6-13.9 19.8-20.9 29.6m-257.6-4.8l.6.8-.6-.8c-2.4 2.8-4.8 5.4-7.2 8-3.8 4.5-7.7 9-11.1 13.9 4.2 1 7.3 4.2 10.8 6.5 11.2 7.8 22.2 15.9 33.6 23.3 1.7 1.6 3.8 2.8 5.8 4.1l-.1.2c19 13 37.8 26.2 56.8 39.3-28.3-32.8-57.1-65.2-85.3-98.2-1 .9-2.2 1.9-3.3 2.9m-28.3 36.4c-1.5 2.4-3 4.9-4.4 7.4-8.9 16.3-16.3 33.8-20.5 51.9 11.1 2.5 22.3 4.8 33.4 7.3 4.7 1.1 9.4 2.3 14.2 2.8l.1.4c36.5 7.8 72.9 15.9 109.3 23.8 1.2-3.5 3-6.7 4.7-10-.3-.4-1-1.1-1.3-1.4-40.4-27.9-80.7-56-120.9-84.2-3.1-2.2-6.8-3.7-8.7-7.2-2 3.1-4 6.2-5.9 9.2m351.1 7.8c-41.2 26.2-82.2 52.9-123.5 79.1 1.7 3.7 3.3 7.5 4.3 11.4 53-9.4 106-19 159-28.2-4.5-25.2-14.4-49.2-27.7-71.1-3.1 4.1-8 6-12.1 8.8m-378.4 60.1c-.4 2.9-1.1 5.8-1.3 8.8-1.3 5.7-1.8 11.5-2.1 17.3-1 4.8-.7 9.8-1 14.7 4.7-.1 9.3-.5 14-.6l.2-.2 21.3-.9c39.5-2.3 79-3.8 118.4-6.3-31.7-7.4-63.6-14.1-95.4-21l.8-.2c-7.6-1.3-15-3-22.5-4.6-10.8-2.4-21.5-5.3-32.4-7m199.4 11.8c6.6 7.4 12.9 15.1 19.5 22.5 5 5.6 4.1 15.4-2.2 19.7-4.6 3.6-10.7 3.7-16.2 3.9-7 0-14 .6-21 .9 4.1 7.4 10.7 13.6 18.9 16.1 13.1 4.3 28.4-.7 36.5-11.9 7.8-10.3 8.7-25.4 1.7-36.4-7.6-12.1-23.3-19-37.2-14.8m61.4 26.9v9.5c52.8 11.2 105.5 22.9 158.3 34.5 4.2-23.9 4.6-48.6.9-72.6-53 9.9-106.1 19.2-159.2 28.6m-376-18.1c-3.1 7.4-6 14.9-9 22.3-1.1 1.6.4 2.9 1.4 4.1 8.3-.9 16.7-.5 25-1.7-3.3-9.7-9.3-18.4-17.4-24.7m292.9 9.5c-.4 1.6.1 2.1 1.8 1.5.4-1.6-.2-2.1-1.8-1.5m77.2 37.7c44.1 31.2 88.7 61.5 132.8 92.7 14.2-21 24-44.9 29.6-69.6-52.7-11.8-105.6-22.6-158.2-34.6-1 4-2.3 7.9-4.2 11.5m-117.5-6.9c-45.9 8.2-91.7 16.5-137.6 24.6 4.6 24.5 14.2 47.9 26.8 69.4 6.2-3.3 11.9-7.6 17.9-11.2 35.9-23 71.9-46.1 107.8-69.1 3.2-2.4 7.2-4 10-6.8-1-2.7-2.2-5.2-3.3-7.8-7.2.4-14.4.2-21.6.9m-130.1 6.7l-.2.3c-3.3 0-6.6 0-9.9.1.8 2.8-.6 7.4 2.3 8.8 22.7-3.8 45.4-7.9 68-12.2-20.1.8-40.1 2.2-60.2 3m-128.5 6.6c-2.7 4.8-6.3 9.2-11.1 12.1 2.6 7.6 5.9 14.9 8.4 22.6 14.4-6.6 24.1-20.7 27.8-35.8-8.5.2-16.8.9-25.1 1.1m196.8 59.8c-14.6 9.6-29.7 18.5-44 28.4 13.9 20.8 31.6 39 51.6 53.9 6.6-10.5 14.1-20.4 21.1-30.7 23.7-34 47.1-68.1 71-101.9-2.9-2.6-5.6-5.3-8.1-8.3-30.7 19.2-61.1 39.1-91.6 58.6m165.9-49.9c20.7 33.3 42.3 66.2 63.4 99.3 8.1 12.3 15.7 25 24 37.2 21.1-14.2 39.4-32.3 54.1-52.9-44.4-30.6-88.3-61.9-132.7-92.5-2.7 3.1-5.5 6.3-8.8 8.9m-143.4 125.3c-2.8 3.8-5 8.1-8.3 11.5 22 14.8 46.7 25.9 72.8 31.2 11.2-52.6 23-105.1 34.3-157.7-5.1-1.2-10-3.2-14.6-5.7-28.3 40-55.8 80.6-84.2 120.7m127.6-116.6c1.7 11.9 4.1 23.7 6.1 35.5 7.4 41.4 15 82.8 22.2 124.3 23.9-5 46.7-14.5 67.5-27.1-12.8-19.8-25.2-39.9-38.1-59.7-12.7-19.6-25.2-39.3-37.8-59-3.9-5.9-7.3-12.2-11.7-17.7-2.7 1.6-5.4 2.7-8.2 3.7m-54.9 161.3c24.6 4.2 50 4.5 74.7.2-1.3-10.6-3.7-21-5.4-31.5-7.5-42.6-15.5-85-22.6-127.7-4 .3-8.1.6-12.1.5-11.4 52.9-23.2 105.6-34.6 158.5z"/><path class="st3" d="M691.4 957.3c5.5-1.9 11.2 4.3 8.8 9.6-1.6 4.6-8.3 6.1-11.7 2.6-4.1-3.5-2.3-11 2.9-12.2zM748.5 957.4c5.5-2.2 11.6 3.7 9.3 9.2-1.5 5.2-9.3 6.5-12.4 2.1-3.2-3.6-1.4-9.9 3.1-11.3zM806.4 957.3c5.6-2 11.4 4.3 8.9 9.7-2 5.4-10.4 5.9-13 .8-2.4-3.9-.1-9.2 4.1-10.5zM858.8 965c-.5-4.1 3.1-8.3 7.3-7.9 4.2-.4 7.7 3.9 7.2 8-.4 3.1-2.9 5.3-5.5 6.6-1.8-.2-3.6-.5-5.4-.8-1.6-1.8-3.3-3.6-3.6-5.9zM921.4 957.4c4.8-1.7 10.3 2.6 9.4 7.7-.2 6.1-9 8.7-12.6 3.9-3.5-3.6-1.5-10.3 3.2-11.6z"/><path class="st1" d="M859.7 970.7c.7 0 2 .1 2.6.2 1.8.2 3.6.5 5.4.8 6.7 3.9 14.6 5.1 21.1 9.5 2.2 2.4 4.4 4.9 6.5 7.4-2.4 14.4-4.6 28.8-4 43.4.2 8.9 3.2 17.4 6.6 25.5-11.5 15.9-21.1 33.1-28.4 51.2-7.6-16.9-14.4-34.1-22.4-50.9-4-8.2-7.5-16.7-12.3-24.5 8.3-20.9 16.9-41.7 24.9-62.6z"/><path class="st3" d="M719.4 986.4c4.6-2.2 10.2 1.7 10.1 6.7.2 5.5-6.9 9.4-11.3 5.9-4.8-2.9-3.9-10.8 1.2-12.6zM777.3 986.2c4.4-1.9 10 1.9 9.7 6.7.6 5.8-7.3 9.5-11.6 5.8-4.5-3.2-3.4-10.9 1.9-12.5z"/><path class="st1" d="M809.5 992.1c3-2.2 5.8-5.2 9.7-5.9-1.5 4.3-3.3 8.5-5 12.7-1.6-2.2-3.1-4.5-4.7-6.8z"/><path class="st5" d="M895.4 988.5c8 9.1 15.8 18.3 23.7 27.5 2.2 2.9 5.5 5.2 6.8 8.7-2.7 3.4-6.1 6.2-9 9.5-5.6-6-10.5-12.8-17.4-17.4-1.5 10.9 2.4 21.6 4.9 32-2.3 2.8-4.4 5.7-6.5 8.6-3.3-8.1-6.4-16.6-6.6-25.5-.5-14.6 1.7-29.1 4.1-43.4z"/><path class="st1" d="M705 1020.8c6.8 6.3 15.7 10.8 25.1 10.4 5.5-.5 11.2-.7 16.3-3.2.8-.1 2.4-.4 3.2-.6-5.5 27.1-10.5 56.1-.6 82.8 3.8 10.6 5.3 21.7 7.6 32.6-.1 9.2 1.3 18.6-.7 27.8-7 2.9-13.4 7-19.4 11.5-7.9 6.2-15.2 13.8-18.5 23.5-9.6 27.5-16.7 55.9-28.5 82.7-3.5 7.3-6.9 15.3-13.2 20.7-3.9 3.7-9.6 1.3-14.2.6-18.5-5.3-36-13.6-53-22.3 8-2.2 16-5.1 23.1-9.5 8.8-5.3 16.7-13.2 19.7-23.2 7.7-24.3 15.6-48.6 23.4-72.9 3.8-11.7 7.4-23.4 10.8-35.2 6-20.4 10.8-41.2 13.3-62.4 2.1-21 4-42.2 5.6-63.3z"/><path class="st5" d="M940.1 1062.9c2.4-2.6 4.8-5.2 7.1-7.9l.7.7c11.1 17.2 21.6 34.8 32.4 52.2-.3.7-.8 2-1 2.7-2-1.2-4.1-2.5-5.8-4.1-11.1-14.5-22.1-29.2-33.4-43.6zM914.6 1098.7c1.4-2.5 2.9-4.9 4.4-7.4 2.3 6.4 5.2 12.6 8 18.8 6.5 16.4 10.5 33.7 14.8 50.7-4.8-.6-9.6-1.7-14.2-2.8 1.9-11.2-1-22.4-3.9-33.1-2.7-8.9-5.7-17.6-9.1-26.2z"/><path class="st1" d="M894.1 1150.7c4.2-18.2 11.5-35.6 20.5-51.9 3.4 8.6 6.4 17.3 9 26.2 2.9 10.7 5.8 21.9 3.9 33.1-11.1-2.6-22.3-4.9-33.4-7.4zM891.7 1159.2c10.9 1.7 21.6 4.6 32.4 6.8-6.8 11.5-14.3 22.6-22.6 33l-.2.2c-4.7.1-9.3.4-14 .6.3-4.9 0-9.9 1-14.7 1.2-5.7 2.3-11.4 2.1-17.3.2-2.8.9-5.7 1.3-8.6z"/><path class="st5" d="M924.1 1166c7.5 1.6 15 3.3 22.5 4.6l-.8.2c-.5.1-1.6.3-2.1.4-1.3 3.2-4 5.6-6.1 8.4-4.9 6.2-10 12.3-14.9 18.6l-21.3.9c8.4-10.6 15.9-21.6 22.7-33.1zM736.4 1182.2c6-4.5 12.4-8.6 19.4-11.5-3.5 26.8-7.4 53.5-10.6 80.3-1.3 7.8-2.2 15.7-3.3 23.6-.9 7.9-2.2 15.8-3.2 23.8-.8 6.5-1.7 12.9-2.5 19.4-1.8 11.6-3.1 23.2-4.7 34.9-1.3-.1-2.5-.2-3.8-.3 1.4-11.4 2.2-22.8 3.2-34.3.6-6.8 1.2-13.7 1.7-20.5 2.1-24.5 3.8-49 4.7-73.6.1-5.9 0-11.9-.8-17.7-4.7.2-7.5 4.7-9.8 8.2-7.3 12.4-11.7 26.2-15.9 39.9-.7 2.4-1.4 4.8-2.1 7.3-2.4 8.4-4.3 16.8-6.3 25.3-2.8 10.6-6.9 20.9-10.9 31.1-3.4 8.4-7 16.6-10.7 24.9-8-3.1-15.5-7.4-23.3-11.1-16.4-8.2-32.8-16.4-48.6-25.7-3.2-2.2-7.4-4-8.2-8.2 1.2-4.6 4.8-7.7 8.3-10.6 17.1 8.7 34.5 17 53 22.3 4.6.7 10.3 3.1 14.2-.6 6.3-5.5 9.7-13.4 13.2-20.7 11.8-26.7 18.9-55.2 28.5-82.7 3.3-9.8 10.6-17.3 18.5-23.5z"/><path class="st2" d="M1069.4 1189.3c1.6-.6 2.2-.1 1.8 1.5-1.7.6-2.2.1-1.8-1.5z"/><path class="st4" d="M726.7 1214.5c2.3-3.6 5.1-8.1 9.8-8.2.8 5.9 1 11.8.8 17.7-.9 24.6-2.6 49.1-4.7 73.6-1.5-.2-3-.3-4.4-.5-2.4 7.2-5.7 14-7.9 21.3 3.5-.1 7-.2 10.6-.3-1 11.4-1.8 22.9-3.2 34.3 1.2.1 2.5.2 3.8.3 1.5-11.6 2.9-23.3 4.7-34.9 3.3.5 7.1 1 9.5 3.7 4 3.7 3.8 9.6 3.7 14.6-.2 4.8.7 10.1-1.7 14.6-1.8 3.5-5.5 6.2-9.5 6.1-20.7-.2-41.4-.1-62-.1-5 .1-10.9 1-14.6-3.1-5.9-5.6-3.4-14.4-4-21.6 7.8 3.7 15.3 8 23.3 11.1 3.6-8.3 7.3-16.5 10.7-24.9h3.8c3.8-9.7 7.4-19.5 11.2-29.2-1.4-.7-2.7-1.3-4.1-2 2-8.5 3.9-17 6.3-25.3 2 1.5 4.1 3.1 6.3 4.5 2.8-6.7 5.1-13.6 7.8-20.3-4 2.7-7.9 5.8-12 8.5 4.1-13.7 8.5-27.5 15.8-39.9z"/><path class="st5" d="M888.8 1227.2c3.3 0 6.6-.1 9.9-.1-2.6 2.9-5 6-7.7 8.9-2.8-1.5-1.4-6.1-2.2-8.8z"/></svg>