<?xml version="1.0" encoding="utf-8"?>
<!-- Generator: Adobe Illustrator 22.1.0, SVG Export Plug-In . SVG Version: 6.00 Build 0)  -->
<svg version="1.1" id="Слой_1" xmlns="http://www.w3.org/2000/svg" xmlns:xlink="http://www.w3.org/1999/xlink" x="0px" y="0px"
	 viewBox="0 0 579 537" style="enable-background:new 0 0 579 537;" xml:space="preserve">
<style type="text/css">
	.st0{fill:#ED2024;stroke:#010101;stroke-width:4;stroke-miterlimit:10;}
	.st1{fill:#F26A6C;}
	.st2{fill:#C42026;}
	.st3{fill:#FDB515;}
	.st4{fill:#F6EB16;}
	.st5{fill:#FFFFFF;}
	.st6{fill:#ED2024;}
	.st7{opacity:0.6;fill:#8A1A1B;enable-background:new    ;}
	.st8{fill:#FBB416;}
	.st9{fill:url(#SVGID_1_);}
	.st10{fill:url(#SVGID_2_);}
	.st11{fill:url(#SVGID_3_);}
	.st12{fill:url(#SVGID_4_);}
</style>
<polygon class="st0" points="11,315 571,315 539.7,526 42,526 "/>
<polygon class="st1" points="14.9,315.9 23.9,324.7 560.8,323.5 569.6,315.8 "/>
<polygon class="st2" points="53,513.7 44,523.7 537.8,523.6 569.6,315.8 560.8,323.5 531.2,514.4 "/>
<polygon class="st3" points="33.5,335 59.2,505 74,505 50.1,348.6 449.3,348.8 448.5,335 "/>
<polygon class="st4" points="33.5,334.6 59.2,505 74,505 50.1,348.8 "/>
<polygon class="st5" points="78.1,399 69.8,448 86,448 89.5,423.5 97,448 112,448 119.7,423.5 123.9,448 140,448 132.2,399 112,399 
	104.9,421.4 97.2,399 "/>
<path class="st5" d="M168,422h15.2c0,0,0.1-18.3-21.1-18.2c-18.7,0.1-21.5,14.1-21.5,22c0,7.6,1.9,21.6,22.1,22
	c23,0.4,20.5-16.9,20.5-16.9l-14.9-0.2c0,0-0.2,5.4-6.3,5.4c-5.7,0-6-7.8-5.9-10.8c0-2.8,0.7-9.5,5.9-9.5
	C168.7,415.8,168,422,168,422L168,422z"/>
<path class="st5" d="M189,399v50h31c0,0,25-1.1,25-28.5c0-21.5-25-21.5-25-21.5H189L189,399z"/>
<path class="st6" d="M206,409.7v26c0,0,20.8,4,20.8-14.5C226.8,406.7,206,409.7,206,409.7L206,409.7z"/>
<path class="st5" d="M270.8,403.4c-19.8,0-23,13.8-23,21.9c0,8.1-0.1,22.9,23,22.9c23.6,0,23.6-14.7,23.6-22.9
	C294.3,417.3,290.2,403.4,270.8,403.4L270.8,403.4z"/>
<path class="st6" d="M271.1,415c-8-0.4-8.1,7.3-8,10.7c0.1,3.2,0,9.9,8,9.9c7.8,0,7.7-6.7,7.8-9.9C279,422.4,278.9,415.4,271.1,415
	L271.1,415z"/>
<path class="st5" d="M299,407v40.7l14-0.1v-23.9c0,0,0.5-4.5,7-4.5c6.6,0,7,4.8,7,4.8v25h15.5c0,0,0.7-13.5,0.7-24.4
	c0-4.4-0.8-14.7-9.9-18.2c-12.9-4.9-20.5,4.7-20.5,4.7l0.1-4L299,407L299,407z"/>
<path class="st5" d="M350,420h14c0,0-1.1-4.8,4.7-4.8c4.2,0,4.6,3.6,3.3,4.2c-5.6,2.6-25.2-1.4-25.2,15.8c0,4.5,3,13.1,15.8,13
	c5.2-0.1,11.1-4,11.1-4l-0.3,3.5l14.7,0v-32.1c0,0-0.5-11-19-11C345.6,404.6,350,420,350,420L350,420z"/>
<path class="st6" d="M372.9,428.4c0,0-9.8,0.5-10.3,3.8c-0.9,5.9,7.2,5.5,9.4,1.5C373.1,431.6,372.8,428.4,372.9,428.4L372.9,428.4z
	"/>
<rect x="394" y="399" class="st5" width="16" height="50"/>
<path class="st5" d="M460,399h-15l0.1,10.1c0,0-8.9-5.8-16.6-3.2c-12,4.1-13,14.5-13,21.4c0,6.4,2,21.1,16.9,21.4
	c9.9,0.2,11.6-4,11.6-4l0,4.3H460L460,399L460,399z"/>
<polygon class="st5" points="464,399 464,414 473,414 477.4,399 "/>
<path class="st5" d="M496.8,419.2l14.1,0c0,0,1-14.1-11.4-14.1c-15.6-0.1-24.4-1.7-25.9,12.7c-1.6,15.4,23,10.8,22.7,17.9
	c-0.1,2-0.8,5.1-6.5,4.2c-2.5-0.4-2.3-5.9-2.3-5.9H472c0,0-2.8,14.2,15.9,15.6c24.6,1.8,24.6-10.3,24.6-14.5c0-15.7-24-10.6-24-18
	c0-1.2,3-2.3,4.2-2.3C497.3,414.8,496.8,419.2,496.8,419.2L496.8,419.2z"/>
<polygon class="st5" points="512.5,391 512.5,392.1 517.1,392.1 517,405 519,405 519.2,392.1 523,391.9 523,391 "/>
<polygon class="st5" points="524,391 524,405 526,405 526,396.7 529.2,404 531.9,404 535.5,397.3 535.5,405 537,405 537,391 
	535,391 530.5,399.6 527,391 "/>
<path class="st6" d="M438,417.8c-7.5,0-7.7,6.1-7.4,9c0.3,3.1-0.1,10.2,7.4,10.2c7.1,0,7.1-6.7,7.1-9.7
	C445.1,420,442.7,417.8,438,417.8L438,417.8z"/>
<path class="st8" d="M65,385h68c0,0,4.5-271.7,67-334.2c12.2-12.2,27.1,43,36.9,91.2c16.2,79.4,18.5,221,18.5,221H328
	c0,0,0.9-131.6,19-219.8c15.5-75.8,26-96.7,34.7-92.6C442.3,79,450.9,385,450.9,385H518c0,0-10.2-358.6-136.1-380
	c-54.5-9.3-90.4,114.6-90.4,114.6S253.4-0.6,203.8,5.1C78,19.3,65,385,65,385L65,385z"/>
<linearGradient id="SVGID_1_" gradientUnits="userSpaceOnUse" x1="76.361" y1="327.9205" x2="181.995" y2="327.9205" gradientTransform="matrix(1 0 0 -1 0 526)">
	<stop  offset="0.5376" style="stop-color:#F6EB16;stop-opacity:0.8"/>
	<stop  offset="0.5921" style="stop-color:#F8EE5E;stop-opacity:0.6499"/>
	<stop  offset="0.7089" style="stop-color:#FBF6B6;stop-opacity:0.3281"/>
	<stop  offset="0.79" style="stop-color:#FDFCE8;stop-opacity:0.1047"/>
	<stop  offset="0.828" style="stop-color:#FFFFFF;stop-opacity:0"/>
</linearGradient>
<path class="st9" d="M76.4,372.5l23.7-23.8c0,0,6.5-96.4,12.4-128C140.7,68.6,182,37.9,182,37.9V23.7c0,0-57.6,27.1-89.4,191.6
	C82,270,76.4,372.5,76.4,372.5L76.4,372.5z"/>
<linearGradient id="SVGID_2_" gradientUnits="userSpaceOnUse" x1="199.998" y1="336.6243" x2="292.833" y2="336.6243" gradientTransform="matrix(1 0 0 -1 0 526)">
	<stop  offset="8.060000e-02" style="stop-color:#FFFFFF;stop-opacity:0"/>
	<stop  offset="0.328" style="stop-color:#F6EB16;stop-opacity:0.7"/>
</linearGradient>
<path class="st10" d="M265.9,351.5l26.9-24.7c0,0-13.9-135.6-23.9-179.9C239,14.2,200,27.6,200,27.6v9.1c0,0,30-5.7,48.1,109.7
	C257.7,207.6,265.9,351.5,265.9,351.5L265.9,351.5z"/>
<linearGradient id="SVGID_3_" gradientUnits="userSpaceOnUse" x1="291.292" y1="353.4956" x2="390.993" y2="353.4956" gradientTransform="matrix(1 0 0 -1 0 526)">
	<stop  offset="0.5376" style="stop-color:#F6EB16;stop-opacity:0.7"/>
	<stop  offset="0.5921" style="stop-color:#F8EE5E;stop-opacity:0.5687"/>
	<stop  offset="0.7089" style="stop-color:#FBF6B6;stop-opacity:0.2871"/>
	<stop  offset="0.79" style="stop-color:#FDFCE8;stop-opacity:9.160000e-02"/>
	<stop  offset="0.828" style="stop-color:#FFFFFF;stop-opacity:0"/>
</linearGradient>
<path class="st11" d="M291.3,159.9l1.5,166.9c0,0,9.2-119.5,16.6-156.4C344-0.7,391,33.2,391,33.2V20.7c0,0-32-21.8-74.4,62.7
	C307.5,101.4,291.3,159.9,291.3,159.9L291.3,159.9z"/>
<linearGradient id="SVGID_4_" gradientUnits="userSpaceOnUse" x1="394.9971" y1="322.196" x2="482.918" y2="322.196" gradientTransform="matrix(1 0 0 -1 0 526)">
	<stop  offset="8.060000e-02" style="stop-color:#FFFFFF;stop-opacity:0"/>
	<stop  offset="0.328" style="stop-color:#F6EB16;stop-opacity:0.8"/>
</linearGradient>
<path class="st12" d="M460.3,372.5l22.6-21c0,0-7.4-126.7-22.7-185.4C428.5,44.5,395,35.1,395,35.1v13.5
	C458,121.5,460.3,372.5,460.3,372.5L460.3,372.5z"/>
</svg>
