<svg version="1.1" id="Слой_1" xmlns="http://www.w3.org/2000/svg" xmlns:xlink="http://www.w3.org/1999/xlink" x="0px" y="0px"
	 viewBox="0 0 24.2 37.2" style="enable-background:new 0 0 24.2 37.2;" xml:space="preserve">
<path d="M13.8,35c0-0.1-1.3-2.8-2.9-6l-2.8-5.8l0.1-0.6c0.3-1.2,0.9-2.3,1.5-2.8c1-0.9,2.4-1.2,5.5-1.3c2.2,0,3.3-0.2,4.2-0.7
	c0.7-0.3,0.7-0.4,1.4-1.2c0.8-0.9,1-1.3,1.2-2.4l0.1-0.6l-3-6.1c-1.6-3.3-3-6.1-3-6.2c-0.1,0-0.1,0.1-0.2,0.5
	c-0.3,1.3-0.9,2.4-1.6,2.9C13.4,5.7,12.1,6,9.2,6.1c-2,0-3.1,0.2-3.8,0.4C3.8,7,2.7,8.2,2.2,10c-0.2,0.7-0.2,0.7-0.3,0.6
	c-0.1-0.1-0.4,0.1-0.6,0.4c0,0,11.8,24.6,11.9,24.7c0,0,0.1,0,0.2-0.1c0.1-0.1,0.2-0.2,0.3-0.2C13.9,35.2,13.9,35.1,13.8,35L13.8,35
	z M19.9,17.5c-0.2,0.1-0.7,0.4-1.1,0.5l-0.7,0.2l-0.2-0.3c-0.2-0.4-0.4-0.8-0.6-1.2l-0.4-0.8l0.6-0.2c0.6-0.2,1.4-0.6,1.7-0.9
	c0.1-0.1,0.2-0.1,0.2-0.1c0,0,0.3,0.6,0.6,1.2C20.7,17,20.7,17,19.9,17.5L19.9,17.5z M19.5,14.6c0,0-0.3-0.5-0.6-1.2
	c-0.3-0.6-0.6-1.1-0.6-1.2c0,0-0.2,0.1-0.5,0.3c-0.5,0.3-0.9,0.5-1.5,0.7c-0.2,0.1-0.4,0.1-0.4,0.1c0,0,0.2,0.5,0.5,1.1
	c0.3,0.6,0.5,1.1,0.5,1.2c0,0.1-0.7,0.2-2,0.3c-0.5,0-0.9,0-0.9,0c0,0,0.2,0.5,0.5,1.1c0.3,0.6,0.5,1.1,0.5,1.2c0,0-0.4,0.1-0.7,0.1
	s-1,0-1.4,0.1l-0.7,0.1l-0.5-1c-0.2-0.4-0.4-0.8-0.6-1.2c-0.1-0.1,0-0.2,0.5-0.2c0.3,0,1-0.1,1.5-0.1c0.5,0,0.9,0,0.9,0
	c0,0-0.2-0.6-0.6-1.2s-0.6-1.2-0.6-1.2l1.2,0c0.6,0,1.3-0.1,1.5-0.1l0.4-0.1l-0.6-1.1c-0.3-0.6-0.6-1.2-0.6-1.2
	c0-0.1,0.2-0.2,0.5-0.2c0.5-0.1,1.4-0.5,1.7-0.8c0.1-0.1,0.3-0.2,0.3-0.2s0.3,0.5,0.6,1.2c0.3,0.6,0.6,1.1,0.6,1.2
	c0.1,0.1,0.6-0.7,0.9-1.2c0.2-0.4,0.3-0.8,0.4-1.2c0.1-0.4,0.2-0.7,0.2-0.7c0,0,0.3,0.6,0.6,1.2l0.6,1.2l-0.2,0.7
	c-0.1,0.4-0.3,1-0.5,1.2C20.1,13.9,19.5,14.6,19.5,14.6L19.5,14.6z M7.5,21.7C7.2,21.1,7,20.6,7,20.5c0-0.2,0.2-1,0.5-1.7
	c0.3-0.7,0.9-1.5,1-1.3L9,18.7l0.5,1.1l-0.4,0.4c-0.4,0.5-0.8,1.3-1,2c-0.1,0.2-0.1,0.5-0.2,0.5C8,22.7,7.8,22.3,7.5,21.7L7.5,21.7z
	 M17.1,9.6c-0.1,0-0.4-0.5-0.6-1.1c-0.3-0.6-0.6-1.1-0.6-1.1c0,0-0.1,0-0.2,0.1c-0.2,0.2-1.1,0.7-1.7,0.9c-0.6,0.2-0.6,0.2-0.6,0.4
	c0.4,0.8,1.1,2.2,1.1,2.2c0,0.1-0.9,0.2-2,0.2c-0.5,0-0.9,0.1-0.9,0.1c0,0,0.2,0.6,0.5,1.2s0.5,1.1,0.5,1.1s-0.6,0.1-1.2,0.1
	c-0.6,0-1.3,0.1-1.4,0.1l-0.3,0.1l0.1,0.2l0.6,1.2c0.3,0.5,0.5,1,0.5,1c0,0-0.2,0.1-0.5,0.2c-0.6,0.2-1.4,0.6-1.6,0.8
	c-0.3,0.3-0.4,0.3-1-1c-0.2-0.4-0.4-0.8-0.6-1.2c0,0,0.2-0.2,0.4-0.3c0.5-0.4,1-0.6,1.6-0.8c0.2-0.1,0.5-0.1,0.5-0.2
	c0,0-0.2-0.5-0.5-1.2c-0.2-0.4-0.4-0.8-0.6-1.2c0-0.1,1.1-0.2,2-0.3c0.5,0,0.9,0,0.9-0.1c0,0-0.2-0.6-0.5-1.2
	c-0.3-0.6-0.5-1.1-0.5-1.2c0,0,0.5-0.1,1-0.1c1,0,1.9-0.1,1.9-0.2c0,0-0.2-0.5-0.5-1.2c-0.2-0.4-0.4-0.8-0.5-1.1
	c0,0,0.3-0.1,0.6-0.2c0.7-0.2,1-0.3,1.5-0.7l0.4-0.3L15.3,6c0.3,0.6,0.6,1.1,0.6,1.2c0.1,0.1,0.2,0,0.4-0.4c0.4-0.6,0.7-1.2,0.9-2
	c0.1-0.3,0.2-0.5,0.2-0.5c0.2,0.2,1.1,2.2,1.1,2.4C18.5,7.5,17.4,9.7,17.1,9.6L17.1,9.6z M5.1,16.8l-0.6-1.2L4.7,15
	C5,14,5.8,12.5,6,12.6c0,0,0.3,0.6,0.6,1.2l0.5,1.1l-0.4,0.5c-0.4,0.6-0.7,1.3-0.9,2C5.8,17.7,5.7,18,5.7,18
	C5.7,18,5.4,17.4,5.1,16.8z M7.2,11.7C7,11.8,6.7,12,6.5,12.1l-0.4,0.3c-0.1,0-0.3-0.3-0.6-1.1c-0.3-0.6-0.6-1.2-0.6-1.2
	C4.9,9.8,6,9.2,7,8.9l0.3-0.1L6.8,7.7C6.5,7.1,6.3,6.5,6.3,6.5c0-0.1,2.2-0.2,2.7-0.2c0.2,0,0.3,0.1,0.8,1.1
	c0.3,0.6,0.5,1.1,0.5,1.2c0,0-0.5,0.1-1.1,0.1c-1.1,0-1.9,0.1-1.8,0.2c0,0,0.7,1.5,1.1,2.2c0.1,0.2,0.1,0.2-0.4,0.3
	C7.8,11.5,7.4,11.7,7.2,11.7L7.2,11.7z M3.3,13c-0.2-0.4-0.4-0.7-0.5-1.1c-0.6-1.2-0.6-1.3-0.2-2.4C2.8,9,3.5,7.7,3.6,7.7
	c0,0,0.3,0.5,0.7,1.2l0.6,1.2l-0.4,0.4c-0.4,0.5-0.9,1.7-1,2.2C3.4,13,3.4,13.1,3.3,13z"/>
</svg>
