<svg widght="12" height="12" viewBox="0 0 200.132 200.02" xmlns="http://www.w3.org/2000/svg"><path d="M175.072 100.01c0 41.421-33.58 75.001-75.002 75.001s-75-33.579-75-75.001 33.578-75.001 75-75.001 75.002 33.579 75.002 75z" fill="none" stroke="#000" stroke-width="10.00015848"/><path d="M145.07 100.005c0 24.853-20.147 45-45 45s-45-20.147-45-45 20.146-45 45-45 45 20.147 45 45z" fill="none" stroke="#000" stroke-width="9.99982907"/><path d="M121.966 100.006c0 12.092-9.802 21.895-21.894 21.895s-21.894-9.803-21.894-21.895 9.802-21.894 21.894-21.894 21.894 9.802 21.894 21.894z"/><path d="M100.08 12.54v174.95M187.58 100.02H12.63" fill="none" stroke="#000" stroke-linecap="round" stroke-width="5"/></svg>