<?xml version="1.0" encoding="UTF-8"?>
<svg viewBox="0 0 609.1991 590.06268" xmlns="http://www.w3.org/2000/svg">
 <g transform="matrix(.68899 0 0 .68899 56.216 -49.395)">
  <path transform="matrix(-.46631 .80802 -.80768 -.46651 866.25 428.88)" d="m823.84 632.91h-835.51l417.76-723.58z" fill="#fff" stroke="#f00" stroke-linecap="round" stroke-linejoin="round" stroke-width="75.041"/>
  <path d="m358.22 647.29 92.92-85.579-0.2762 184.11 37.271-59.386 37.271 59.386-0.2131-204.69c-0.4893-14.226-4.8326-28.563-14.02-41.324s-25.381-20.949-39.222-22.229c-27.68-2.5595-45.004 10.155-61.111 25.802l-92.456 85.969v-150.17l-37.271-62.681-37.271 62.681v169.89c0 14.358 4.3433 28.695 13.531 41.456s25.381 20.949 39.222 22.229c27.68 2.5595 45.004-10.155 61.626-25.463z" fill-rule="evenodd"/>
 </g>
</svg>
