<svg viewBox="0 0 636.243 609.511" xmlns="http://www.w3.org/2000/svg"><path transform="matrix(-.33555 .58144 -.58119 -.33569 682.041 257.02)" d="M823.84 632.91H-11.67L406.09-90.67z" opacity=".519" stroke="#000" stroke-linecap="round" stroke-linejoin="round" stroke-width="112.56"/><path transform="matrix(-.33555 .58144 -.58119 -.33569 682.041 257.02)" d="M823.84 632.91H-11.67L406.09-90.67z" fill="none" stroke="#fff" stroke-linecap="round" stroke-linejoin="round" stroke-width="107.2"/><path transform="matrix(-.33555 .58144 -.58119 -.33569 682.041 257.02)" d="M823.84 632.91H-11.67L406.09-90.67z" fill="#fff" stroke="red" stroke-linecap="round" stroke-linejoin="round" stroke-width="75.041"/><path d="M261.712 336.454l10.498 3.948a5.055 5.055 0 0 1 2.952 6.511l-8.746 23.255a5.055 5.055 0 0 1-6.51 2.952l-10.499-3.948a5.055 5.055 0 0 1-2.952-6.511l8.746-23.255a5.055 5.055 0 0 1 6.511-2.952M355.092 371.573l10.498 3.948a5.055 5.055 0 0 1 2.952 6.512l-8.746 23.255a5.055 5.055 0 0 1-6.511 2.952l-10.498-3.949a5.055 5.055 0 0 1-2.952-6.51l8.746-23.256a5.055 5.055 0 0 1 6.511-2.952"/><path d="M250.644 325.835l9.956-26.47a9.223 9.223 0 0 1 11.879-5.387L384.98 336.29a9.223 9.223 0 0 1 5.386 11.88l-9.956 26.47a9.223 9.223 0 0 1-11.88 5.386l-112.5-42.311a9.223 9.223 0 0 1-5.387-11.88"/><path d="M270.342 308.122c29.038-42.02 26.797-42.862 39.075-38.245l64.893 24.406c14.421 5.424 10.963 4.123 2.514 53.886" fill="none" stroke="#000" stroke-width="12.3666"/><path d="M207.701 486.49c12.5-6.64 35.547-17.188 44.141-26.953s15.14-16.092 13.672-24.171c-.742-4.085-12.825-5.216-21.419-5.216s-38.542-3.035-43.229-13.972-1.81-25.041 5.664-32.812 28.906-16.016 34.766-17.578S262 368.522 262 368.522s.39 2.735-5.078 4.297-27.614 9.743-33.301 14.062-8.496 8.79-8.496 17.188 11.328 12.891 23.047 14.453 23.102 2.73 29.49 5.555c6.558 2.9 7.9 5.422 10.089-5.343 1.397-6.872 24.874-10.368 39.327-12.712s21.094-4.297 28.125-4.297 14.062.39 7.812 4.297-11.19 4.783-23.157 8.523c-9.25 2.89-15.124 4.32-19.03 5.93-3.683 1.518-15.625 5.469-4.687 7.031s106.82 16.307 111.33 17.578c4.411 1.243 22.013 4.76 21.875 12.5-.16 8.983-2.344 14.062-7.813 18.75s-10.547 10.156-10.547 10.156h-25s12.111-9.216 16.284-13.206 6.835-6.944 6.535-9.817.62-4.32-6.412-5.492-115.62-21.094-117.97-21.484-10.156-3.906-10.156.781.586 13.477-1.953 20.312-17.05 24.057-20.956 28.744c-8.06 0-53.654.162-53.654.162z" stroke="#000"/></svg>