<svg viewBox="-0.384 -0.498 511 454" xmlns="http://www.w3.org/2000/svg">
	<path d="M290.66 20.574l213.77 370.37c3.672 6.264 5.544 13.392 5.544 20.592 0 22.68-18.432 41.112-41.112 41.184H41.182c-22.748.01-41.18-18.5-41.18-41.18 0-7.272 1.872-14.4 5.544-20.592l213.84-370.37c15.92-27.428 55.44-27.428 71.28.004z" fill="#ff0000" />
	<path d="M52.056 405.2l202.82-351.29 202.82 351.29z" fill="#fff" />
	<path d="M243.94 277.11c-6.696 3.888-14.76 4.752-22.176 2.376-9.288-3.168-16.992-9.648-21.888-18.072s-6.624-18.36-4.824-28.008c1.656-7.632 6.48-14.184 13.32-18.072 6.696-3.96 14.832-4.824 22.248-2.448 9.216 3.24 16.92 9.72 21.744 18.216a40.588 40.588 0 0 1 5.472 20.376c0 2.52-.144 5.04-.648 7.416a27.57 27.57 0 0 1-13.248 18.144v.06zM186.48 309.37l-24.77-42.99-6.77 3.89-3.88-6.77 3.09-15.91 8.5-4.9 15.62 26.93 19.23 33.41zM278.64 197.55c0-6.984-5.688-12.672-12.672-12.672-6.912 0-12.6 5.688-12.6 12.672s5.688 12.672 12.6 12.672c6.98 0 12.67-5.69 12.67-12.67zM300.82 215.91v27.43-73.22h-12.75v73.22h12.75zM335.59 215.98c0-6.984-5.688-12.672-12.672-12.672s-12.672 5.688-12.672 12.672c0 6.912 5.688 12.6 12.672 12.6s12.67-5.69 12.67-12.6z" />
	<path d="M237.6 266.09c-3.528 2.088-7.848 2.592-11.88 1.368a27.916 27.916 0 0 1-14.832-12.384c-3.384-5.76-4.608-12.6-3.384-19.152.936-4.032 3.528-7.56 7.2-9.576 3.528-2.088 7.848-2.592 11.88-1.368 6.264 2.232 11.52 6.624 14.76 12.456 2.52 4.248 3.816 9.072 3.816 14.04 0 1.656-.144 3.384-.432 5.04-.95 3.96-3.54 7.49-7.14 9.57z" fill="#fff" />
	<path d="M457.78 405.2H52.13l304.2-175.61z" />
</svg>
