<svg xmlns="http://www.w3.org/2000/svg" viewBox="0 0 220.889 220.889"><path d="M206.43 22.883h-50.089V7.5c0-4.143-3.357-7.5-7.5-7.5H72.053a7.499 7.499 0 0 0-7.5 7.5v15.383H14.459c-4.143 0-7.5 3.357-7.5 7.5s3.357 7.5 7.5 7.5h12.219l12.578 176.04a7.5 7.5 0 0 0 7.481 6.966h127.42c3.935 0 7.2-3.041 7.48-6.966l12.579-176.04h12.214c4.143 0 7.5-3.357 7.5-7.5s-3.358-7.5-7.5-7.5zM79.553 15h61.788v7.883H79.553V15zm87.62 190.889H53.72L41.715 37.883h137.464l-12.006 168.006z"/><path d="M110.445 62.907a7.499 7.499 0 0 0-7.5 7.5v102.945c0 4.143 3.357 7.5 7.5 7.5s7.5-3.357 7.5-7.5V70.407a7.5 7.5 0 0 0-7.5-7.5zm-33.236 6.966c-.294-4.132-3.898-7.262-8.015-6.946a7.499 7.499 0 0 0-6.946 8.015l7.354 102.945a7.499 7.499 0 0 0 8.015 6.946 7.499 7.499 0 0 0 6.946-8.015L77.209 69.873zm66.484 0l-7.357 102.945a7.499 7.499 0 0 0 7.488 8.035 7.502 7.502 0 0 0 7.473-6.966l7.357-102.945a7.499 7.499 0 0 0-6.946-8.015c-4.115-.313-7.72 2.814-8.015 6.946z"/></svg>