<svg id="Слой_1" xmlns="http://www.w3.org/2000/svg" viewBox="0 0 512 512"><style>.st1{fill:#3570d8}</style><path d="M512 256c0 141.4-114.6 256-256 256S0 397.4 0 256 114.6 0 256 0s256 114.6 256 256z" fill="#8ad5dd"/><path class="st1" d="M335.4 386h-256v-34.7h256c29 0 55.4-15.9 69-41.6l22.1-41.8 30.7 16.2-22 41.9c-19.6 37-57.9 60-99.8 60z"/><path class="st1" d="M105.2 281.8H133v86.8h-27.8v-86.8zm217.5 0h27.8v86.8h-27.8v-86.8z"/><path d="M137 234.5V121H77v160.8h308.8v-47.4H137v.1z" fill="#fc502a"/></svg>