<svg xmlns="http://www.w3.org/2000/svg" preserveAspectRatio="xMidYMid" viewBox="0 0 0.063 0.063"><defs><linearGradient id="a" x2="0" y1="-.001" y2="63.996" gradientTransform="scale(.99994 1.0001)" gradientUnits="userSpaceOnUse"><stop offset="0" stop-color="#f9aa4b"/><stop offset="1" stop-color="#f9aa4b"/></linearGradient></defs><path fill="url(#a)" d="M63.036 39.741c-4.274 17.143-21.637 27.576-38.782 23.301C7.116 58.768-3.317 41.404.959 24.262 5.231 7.117 22.594-3.317 39.734.957c17.144 4.274 27.576 21.64 23.302 38.784z" transform="scale(.00098)"/><path fill="#fff" d="M.045.027C.045.023.042.02.038.019L.04.013H.036L.035.017H.032L.033.011.03.01.029.017.026.016.022.015.02.018.023.02C.025.02.025.02.025.021L.023.027l-.002.01H.019.017L.015.04H.02l.002.001-.001.006h.003L.026.044l.002.001L.027.05H.03L.032.045c.006 0 .01 0 .012-.005C.045.036.044.033.04.032.043.032.045.03.045.027zm-.008.01C.037.043.03.04.027.04L.029.032c.002 0 .01.001.008.006zm.001-.01C.038.03.031.029.03.028L.031.021c.002 0 .008.002.007.006z"/></svg>