<svg id="Слой_1" xmlns="http://www.w3.org/2000/svg" viewBox="0 0 512 512"><style>.st5{fill:#fff}.st6{fill:#e9edf5}</style><path d="M512 256c0 141.4-114.6 256-256 256S0 397.4 0 256 114.6 0 256 0s256 114.6 256 256z" fill="#ffedb5"/><path d="M88.7 363.1c0-13.4-7.9-13.4-7.9-26.8s7.9-13.4 7.9-26.8-7.9-13.4-7.9-26.8 7.9-13.4 7.9-26.8-7.9-13.4-7.9-26.8 7.9-13.4 7.9-26.8-7.9-13.4-7.9-26.8 7.9-13.4 7.9-26.8h.2c45.8 14.1 79.1 56.7 79.1 107.1S134.4 349 88.7 363.1z" fill="#ed074f"/><path d="M423.3 148.9c0 13.4 7.9 13.4 7.9 26.8s-7.9 13.4-7.9 26.8 7.9 13.4 7.9 26.8-7.9 13.4-7.9 26.8 7.9 13.4 7.9 26.8-7.9 13.4-7.9 26.8 7.9 13.4 7.9 26.8-7.9 13.4-7.9 26.8h-.2c-45.8-14.1-79.1-56.7-79.1-107.1s33.6-93.2 79.3-107.3z" fill="#d80e56"/><path d="M368 256c0 61.8-50.1 112-112 112s-112-50.1-112-112 50.1-112 112-112 112 50.2 112 112z" fill="#ff0062"/><path d="M256 144h-.2v224h.2c61.8 0 112-50.1 112-112 0-61.8-50.2-112-112-112z" fill="#dd0e4e"/><path class="st5" d="M244.3 344.3c-2.6 8.1-5.3 15.4-8 21.9 6.4 1.1 13 1.7 19.7 1.7 5.1 0 10.2-.4 15.1-1 .5-7 .9-14.7.9-23.3 0-43.8-8-65.8-16-87.7.9 23.4 1.8 46.7-11.7 88.4z"/><path class="st6" d="M256 256c.4 10.9.8 21.9-.2 34.7V368h.2c5.1 0 10.2-.4 15.1-1 .5-7 .9-14.7.9-23.3 0-43.9-8-65.8-16-87.7z"/><path class="st5" d="M267.7 167.7c2.6-8.1 5.3-15.4 8-21.9-6.4-1.1-13-1.7-19.7-1.7-5.1 0-10.2.4-15.1 1-.5 7-.9 14.7-.9 23.3 0 43.8 8 65.8 16 87.7-.9-23.4-1.8-46.7 11.7-88.4z"/><path class="st6" d="M267.7 167.7c2.6-8.1 5.3-15.4 8-21.9-6.4-1.1-13-1.7-19.7-1.7h-.2V229c.7-16.3 3.5-35.2 11.9-61.3z"/><path class="st5" d="M256 256c-.1-2.2-.2-4.5-.2-6.7v6c0 .3.1.5.2.7z"/><path class="st5" d="M185.3 310.2c-7.6 3.9-14.6 7.1-21.1 9.8 6.7 9.6 14.8 18.1 24.1 25.1 5.4-4.6 11-9.8 17.1-15.9 31-31 40.8-52.1 50.7-73.3-16 17.2-31.8 34.3-70.8 54.3z"/><path class="st6" d="M323.7 166.8c-5.4 4.6-11 9.8-17.1 15.9-31 31-40.8 52.2-50.7 73.3 15.9-17.1 31.7-34.2 70.7-54.2 7.6-3.9 14.6-7.1 21.1-9.8-6.5-9.6-14.7-18.1-24-25.2zM256 256c23.3-.9 46.6-1.8 88.3 11.7 8.1 2.6 15.4 5.3 21.9 8 1.1-6.4 1.7-13 1.7-19.7 0-5.1-.4-10.2-1-15.1-7-.6-14.7-.9-23.3-.9-43.8 0-65.7 8-87.6 16z"/><path class="st5" d="M167.7 244.3c-8.1-2.6-15.4-5.3-21.9-8-1.1 6.4-1.7 13-1.7 19.7 0 5.1.4 10.2 1 15.1 7 .5 14.7.9 23.3.9 43.8 0 65.8-8 87.7-16-23.4.9-46.7 1.8-88.4-11.7zm34.1-59.1c-3.9-7.6-7.1-14.6-9.8-21.1-9.6 6.7-18.1 14.8-25.1 24.1 4.6 5.4 9.8 11 15.9 17.1 31 31 52.2 40.8 73.3 50.7-17.2-15.9-34.3-31.7-54.3-70.8z"/><path class="st6" d="M329.3 306.7c-31-31-52.1-40.8-73.3-50.7 17.1 15.9 34.2 31.7 54.2 70.7 3.9 7.6 7.1 14.6 9.9 21.1 9.6-6.7 18.1-14.8 25.1-24.1-4.6-5.3-9.9-11-15.9-17z"/></svg>