<svg xmlns="http://www.w3.org/2000/svg" viewBox="0 0 286.9 286.9"><path d="M286.9 143.5c0 102.9-108.3 180.4-217.1 125-18.7-9.5-41.9-32.7-51.4-51.4C-37 108.3 40.6 0 143.5 0c79.2 0 143.4 64.2 143.4 143.5z" fill="#a3cbf9"/><path d="M221.7 171.4c-.3-1.5-.9-2.8-2-3.9-2.4-2.4-5.1-2.9-8.3-1.5-8.4 3.9-17.1 5.8-26.1 5.8-11.3 0-21.8-2.8-31.3-8.4-9.6-5.6-17.1-13.1-22.7-22.7-5.6-9.6-8.4-20-8.4-31.3 0-8.8 1.7-17.1 5.2-25.1 3.5-7.9 8.5-14.9 15.1-20.8 2.5-2.4 3.1-5.1 1.7-8.3-1.3-3.1-3.6-4.6-7-4.5-11.7.5-22.8 3.1-33.3 7.9-10.5 4.8-19.5 11.1-27 18.9-7.5 7.8-13.5 17-17.9 27.7-4.4 10.7-6.6 21.8-6.6 33.5 0 11.9 2.3 23.3 7 34.2 4.7 10.9 10.9 20.2 18.8 28.1 7.9 7.9 17.2 14.1 28.1 18.8 10.9 4.7 22.2 7 34.2 7 17.1 0 32.9-4.6 47.4-13.9s25.3-21.7 32.5-37.2c.7-1.4.9-2.8.6-4.3zm-49 33.7c-9.9 4.7-20.4 7.1-31.4 7.1-9.9 0-19.4-1.9-28.5-5.8-9.1-3.9-16.9-9.1-23.4-15.7-6.5-6.5-11.8-14.3-15.7-23.4-3.9-9.1-5.8-18.6-5.8-28.5 0-16.4 4.9-31.1 14.6-44 9.7-12.9 22.3-21.7 37.7-26.3-8 12.6-11.9 26.3-11.9 40.9 0 13.9 3.4 26.8 10.3 38.6s16.2 21.2 28.1 28.1c11.8 6.9 24.7 10.3 38.6 10.3 4.3 0 8.5-.3 12.6-1-6.9 8.5-15.3 15-25.2 19.7z" fill="#fff"/></svg>