<svg viewBox="0 -11 512 512" xmlns="http://www.w3.org/2000/svg"><path d="M490 245c0 135.309-109.691 245-245 245S0 380.309 0 245 109.691 0 245 0s245 109.691 245 245zm0 0" fill="#60d882"/><path d="M490 245c0 135.309-109.691 245-245 245S0 380.309 0 245 109.691 0 245 0s245 109.691 245 245zm0 0" fill="#60d882"/><path d="M66.3 163.402a7.492 7.492 0 0 0 6.5 3.75 7.476 7.476 0 0 0 3.743-1.004l14.984-8.652v17.297c0 .863.153 1.687.422 2.46l14.578-12.82v-6.937l4.766 2.75 11.89-10.457-9.156-5.285 14.989-8.652a7.503 7.503 0 0 0 2.746-10.247c-2.075-3.585-6.66-4.816-10.246-2.746l-14.989 8.657V114.21c0-4.145-3.355-7.5-7.5-7.5a7.5 7.5 0 0 0-7.5 7.5v17.3l-14.98-8.652a7.502 7.502 0 0 0-10.246 2.746 7.5 7.5 0 0 0 2.746 10.247l14.984 8.652-14.984 8.652c-3.59 2.074-4.82 6.66-2.746 10.246zm0 0" fill="#fff"/><path d="M213.785 417.695c-16.148 0-29.293-13.14-29.293-29.293v-29.761a3.744 3.744 0 0 1 3.742-3.739h44.817V169.32l-63.567-54.98c-2.078-1.8-5.472-1.785-7.535.031L26.754 233.246c-2.063 1.817-3.754 5.55-3.754 8.3v206.29c0 2.75 2.25 5 5 5h277.777c2.75 0 5-2.25 5-5v-30.14zm0 0" fill="#fe3745"/><path d="M49.355 236.547c.653-1.305 1.485-2.496 2.399-3.3l126.55-111.274-8.82-7.633c-2.078-1.8-5.472-1.785-7.535.031L26.754 233.246c-.914.805-1.746 1.996-2.399 3.3zm0 0M213.785 417.695c-16.148 0-29.293-13.14-29.293-29.293v-29.761a3.744 3.744 0 0 1 3.742-3.739h44.817V236.547H24.355c-.82 1.64-1.355 3.469-1.355 5v206.289c0 2.75 2.25 5 5 5h277.777c2.75 0 5-2.25 5-5v-30.14zm0 0" fill="#ea2a3d"/><path d="M48 256.172v-14.625c0-1.531.535-3.36 1.355-5h-25c-.128.258-.238.523-.351.789zm0 0" fill="#b7092b"/><path d="M213.785 417.695c-16.148 0-29.293-13.14-29.293-29.293v-29.761a3.744 3.744 0 0 1 3.742-3.739h44.817v-58.34l-67.348 52-141.71-111.238c-.61 1.426-.993 2.934-.993 4.223v206.289c0 2.75 2.25 5 5 5h277.777c2.75 0 5-2.25 5-5v-30.14zm0 0" fill="#b7092b"/><path d="M48 447.836V434h-1c-2.75 0-5-2.25-5-5v-31c0-2.75 2.25-5 5-5h1V256.172l-24.008-18.848c-.61 1.426-.992 2.934-.992 4.223v206.289c0 2.75 2.25 5 5 5h25c-2.75 0-5-2.25-5-5zm0 0" fill="#a00026"/><path d="M80 429c0 2.75-2.25 5-5 5H47c-2.75 0-5-2.25-5-5v-31c0-2.75 2.25-5 5-5h28c2.75 0 5 2.25 5 5zm0 0" fill="#ffca51"/><path d="M217.75 74.656l-15.395-8.89 15.395-8.891a7.499 7.499 0 0 0 2.746-10.246c-2.074-3.586-6.66-4.816-10.246-2.742l-15.395 8.886V35a7.5 7.5 0 0 0-7.5-7.5 7.497 7.497 0 0 0-7.5 7.5v17.773l-15.39-8.886a7.499 7.499 0 0 0-10.246 2.742 7.499 7.499 0 0 0 2.746 10.246l15.394 8.89-15.394 8.891a7.495 7.495 0 0 0-2.746 10.242 7.5 7.5 0 0 0 6.5 3.754 7.465 7.465 0 0 0 3.746-1.007l15.39-8.887v17.77c0 4.144 3.356 7.5 7.5 7.5a7.5 7.5 0 0 0 7.5-7.5v-17.77l15.395 8.887a7.498 7.498 0 0 0 10.246-2.742 7.499 7.499 0 0 0-2.746-10.247zm0 0" fill="#02af8e"/><path d="M481.707 72h-1.574c-16.242 0-29.496 12.781-30.254 28.836.004.203.016.41.016.617v35.344h57.363a4.742 4.742 0 0 0 4.742-4.742v-29.762C512 85.59 498.41 72 481.707 72zm0 0" fill="#c3ddf4"/><path d="M481.184 72h-219.68c-16.2 0-29.453 13.254-29.453 29.453V355h153.867a4.742 4.742 0 0 1 4.742 4.742v29.762c0 13.93 9.406 25.656 22.219 29.191h4.894a245.89 245.89 0 0 0 33.168-40.945V101.453c0-.207-.011-.414-.015-.617C451.688 84.78 464.94 72 481.184 72zm0 0" fill="#d9eafc"/><path d="M257 355V101.453C257 85.253 270.254 72 286.453 72h-24.95c-16.198 0-29.452 13.254-29.452 29.453V355zm0 0" fill="#c3ddf4"/><g fill="#85a0dd"><path d="M404.328 204.676H278.66a7.5 7.5 0 1 1 0-15h125.668a7.5 7.5 0 0 1 7.5 7.5c0 4.144-3.355 7.5-7.5 7.5zm0 0M404.328 234.21H278.66a7.5 7.5 0 1 1 0-15h125.668c4.145 0 7.5 3.356 7.5 7.5a7.5 7.5 0 0 1-7.5 7.5zm0 0M404.328 274.5H278.66c-4.14 0-7.5-3.355-7.5-7.5s3.36-7.5 7.5-7.5h125.668c4.145 0 7.5 3.355 7.5 7.5s-3.355 7.5-7.5 7.5zm0 0M404.328 304.031H278.66a7.5 7.5 0 1 1 0-15h125.668c4.145 0 7.5 3.356 7.5 7.5s-3.355 7.5-7.5 7.5zm0 0M342.262 333.566H278.66a7.5 7.5 0 1 1 0-15h63.602c4.144 0 7.5 3.356 7.5 7.5a7.5 7.5 0 0 1-7.5 7.5zm0 0"/></g><path d="M370.14 165.715l-9.652-16.719H322.25l-9.652 16.719a2.848 2.848 0 0 0 0 2.855 2.848 2.848 0 0 0 2.472 1.43h52.594a2.85 2.85 0 0 0 2.477-1.43 2.867 2.867 0 0 0 0-2.855zm0 0" fill="#37c47a"/><path d="M365.05 145.965l-10.753-18.63h-25.86l-10.753 18.63a2.354 2.354 0 0 0 2.039 3.527h43.289a2.356 2.356 0 0 0 2.039-3.527zm0 0" fill="#02af8e"/><path d="M326.781 127.781a2.343 2.343 0 0 1-2.039-1.176 2.343 2.343 0 0 1 0-2.351l14.59-25.27a2.35 2.35 0 0 1 4.07 0l14.59 25.27a2.352 2.352 0 0 1-2.04 3.527zm0 0" fill="#159e97"/><path d="M325.074 168.57a2.848 2.848 0 0 1 0-2.855l9.653-16.719h-12.48l-9.653 16.719a2.867 2.867 0 0 0 0 2.855 2.854 2.854 0 0 0 2.476 1.43h12.477a2.848 2.848 0 0 1-2.473-1.43zm0 0" fill="#02af8e"/><path d="M330.316 148.313a2.336 2.336 0 0 1 0-2.348l10.75-18.63h-12.629l-10.753 18.63a2.354 2.354 0 0 0 2.039 3.527h12.629c-.836 0-1.614-.449-2.036-1.18zm0 0" fill="#159e97"/><path d="M337.316 126.605a2.343 2.343 0 0 1 0-2.351l10.336-17.906-4.25-7.36a2.353 2.353 0 0 0-2.035-1.18c-.84 0-1.617.454-2.035 1.18l-14.59 25.27a2.35 2.35 0 0 0 2.04 3.527h12.573a2.36 2.36 0 0 1-2.039-1.18zm0 0" fill="#0f9390"/><path d="M418.047 418.434c-14.86-1.942-26.34-14.641-26.34-30.032v-29.757a4.742 4.742 0 0 0-4.742-4.743h-198.73a4.742 4.742 0 0 0-4.743 4.743v29.757c0 16.707 13.594 30.293 30.297 30.293h203.988c.086-.09.18-.175.27-.261zm0 0" fill="#eef6ff"/><path d="M208.445 388.402v-29.761a4.741 4.741 0 0 1 4.743-4.739h-24.954a4.741 4.741 0 0 0-4.742 4.739v29.761c0 16.703 13.59 30.293 30.293 30.293h24.953c-16.703 0-30.293-13.59-30.293-30.293zm0 0" fill="#d9eafc"/></svg>