<svg id="Layer_1" xmlns="http://www.w3.org/2000/svg" viewBox="0 0 504 494.8" width="220" height="220"><style>.st0{fill:red}.st1{fill:#f4b840}.st3{fill:#f7cbaa}.st4{fill:#fff}.st5{fill:#f9e8d9}.st7{fill:#1e4784}.st8{fill:#00233f}.st11{fill:#ffd371}</style><path class="st0" d="M504 497.2c0-112-112.8-201.6-252-201.6S0 385.2 0 497.2h504z"/><circle class="st1" cx="426.4" cy="102" r="46.4"/><path d="M472.8 102c0 25.6-20.8 46.4-46.4 46.4S380 127.6 380 102" fill="#e59f23"/><path class="st0" d="M398.4 171.6c36-34.4 35.2-94.4-1.6-135.2-36.8-41.6-96-48-134.4-16.8l136 152z"/><path class="st0" d="M415.2 159.6c20-53.6-18.4-118.4-86.4-146.4S187.2 4.4 164 57.2l251.2 102.4z"/><path class="st3" d="M449.6 293.2c0 104.8-90.4 166.4-200.8 166.4S47.2 398 47.2 293.2s90.4-220 200.8-220 201.6 115.2 201.6 220z"/><path class="st4" d="M176.8 221.2c-12.8.8-22.4 6.4-22.4 12.8l45.6-3.2c0-6.4-10.4-10.4-23.2-9.6zm148 7.2c11.2 5.6 18.4 13.6 16 19.2l-41.6-19.2c2.4-5.6 13.6-5.6 25.6 0z"/><path class="st5" d="M164.8 308.4c-30.4 0-54.4 7.2-54.4 15.2 0 8.8 24.8 4.8 54.4 4.8 30.4 0 54.4 4 54.4-4.8 0-8-24-15.2-54.4-15.2zm167.2 0c-30.4 0-54.4 7.2-54.4 15.2 0 8.8 24.8 4.8 54.4 4.8 30.4 0 54.4 4 54.4-4.8.8-8-24-15.2-54.4-15.2z"/><path d="M199.2 297.2c0 12-9.6 22.4-22.4 22.4-12 0-22.4-9.6-22.4-22.4 0-12 9.6-22.4 22.4-22.4 12.8 0 22.4 10.4 22.4 22.4z" fill="#e8b39c"/><circle class="st3" cx="322.4" cy="297.2" r="22.4"/><path class="st7" d="M199.2 290.8c0 12-9.6 22.4-22.4 22.4-12 0-22.4-9.6-22.4-22.4 0-12 9.6-22.4 22.4-22.4 12.8 0 22.4 10.4 22.4 22.4z"/><path class="st8" d="M176.8 268.4c12 0 22.4 9.6 22.4 22.4 0 12-9.6 22.4-22.4 22.4"/><circle class="st7" cx="322.4" cy="290.8" r="22.4"/><path class="st8" d="M322.4 268.4c12 0 22.4 9.6 22.4 22.4 0 12-9.6 22.4-22.4 22.4"/><path class="st5" d="M207.2 346.8c0-7.2 18.4-36.8 40.8-36.8s40.8 30.4 40.8 36.8c0 7.2-18.4 4.8-40.8 4.8s-40.8 2.4-40.8-4.8z"/><path class="st3" d="M207.2 354.8c0-7.2 18.4-28 40.8-28s40.8 20.8 40.8 28-18.4 4.8-40.8 4.8-40.8 1.6-40.8-4.8z"/><path d="M269.6 414c0 16-9.6 20.8-20.8 20.8-12 0-20.8-4.8-20.8-20.8s9.6-36 20.8-36 20.8 20.8 20.8 36z" fill="#892624"/><path class="st4" d="M78.4 207.6s-14.4 65.6 8 82.4 13.6 33.6 13.6 33.6 14.4 0 12.8 27.2 24.8 21.6 24.8 21.6L84 395.6S34.4 382.8 42.4 306c0 0-24-26.4-.8-59.2 0 0-12.8-24.8 7.2-34.4s20.8-19.2 20.8-19.2l8.8 14.4zm340 0s14.4 65.6-8 82.4-13.6 33.6-13.6 33.6-14.4 0-12.8 27.2-24.8 21.6-24.8 21.6l52.8 23.2s49.6-12.8 41.6-89.6c0 0 24-26.4.8-59.2 0 0 12.8-24.8-7.2-34.4-19.2-9.6-19.2-19.2-19.2-19.2l-9.6 14.4z"/><path d="M227.2 414c0-16 9.6-36 20.8-36 12 0 20.8 20 20.8 36" fill="#681111"/><ellipse transform="rotate(-71.543 235.847 346.576)" class="st5" cx="235.9" cy="346.6" rx="2.4" ry="7.2"/><ellipse transform="rotate(-18.468 260.697 346.166)" class="st5" cx="260.7" cy="346.2" rx="7.2" ry="2.4"/><path class="st4" d="M205.6 341.2s-55.2-13.6-79.2 16-52 24-52 24-10.4 28 18.4 50.4 23.2 1.6 28.8 20c3.2 11.2 21.6 20.8 34.4 22.4 0 0 6.4 21.6 36 17.6 0 0 8 8 33.6 8 23.2 0 26.4-4.8 26.4-4.8v-38.4s-56-4.8-48-41.6 48-40 48-40v-16s-41.6 3.2-42.4-9.6l2.4-8h-6.4z"/><path class="st4" d="M291.2 341.2s55.2-13.6 79.2 16 52 24 52 24 10.4 28-18.4 50.4-23.2 1.6-28.8 20c-3.2 11.2-21.6 20.8-34.4 22.4 0 0-6.4 21.6-36 17.6 0 0-4.8 8-30.4 8-23.2 0-23.2-4.8-23.2-4.8v-38.4s52-4.8 44-41.6-52-40-52-40v-16s42.4 3.2 43.2-9.6l-1.6-8h6.4z"/><path class="st0" d="M429.6 185.2c-3.2-80-83.2-149.6-180.8-149.6-98.4 0-178.4 69.6-180.8 149.6h361.6z"/><path class="st11" d="M459.2 206c0 24-94.4-3.2-211.2-3.2S36.8 230 36.8 206s94.4-42.4 211.2-42.4c116.8-.8 211.2 18.4 211.2 42.4z"/><path class="st1" d="M459.2 206c0 24-94.4-3.2-211.2-3.2S36.8 230 36.8 206"/><path d="M353.6 174c0 4.8-45.6.8-101.6.8s-101.6 4-101.6-.8 45.6-8.8 101.6-8.8 101.6 4 101.6 8.8z" fill="#fff0a6"/><circle class="st0" cx="58.4" cy="87.6" r="18.4"/><circle class="st0" cx="79.2" cy="58.8" r="3.2"/><circle class="st0" cx="119.2" cy="46.8" r="11.2"/><circle class="st0" cx="98.4" cy="78.8" r="2.4"/><circle class="st0" cx="84.8" cy="18.8" r="8.8"/><circle class="st0" cx="160" cy="44.4" r="4.8"/><circle class="st0" cx="62.4" cy="136.4" r="8"/><circle class="st0" cx="52" cy="122" r="2.4"/><ellipse transform="rotate(-57.201 442.297 73.267)" class="st11" cx="442.3" cy="73.3" rx="5.6" ry="21.6"/></svg>