<svg xmlns="http://www.w3.org/2000/svg" viewBox="0 0 496.158 496.158"><path d="M0 248.085C0 111.064 111.07.003 248.076.003c137.012 0 248.082 111.061 248.082 248.082 0 137.002-111.07 248.07-248.082 248.07C111.07 496.155 0 385.087 0 248.085z" fill="#25b7d3"/><g fill="#fff"><path d="M394.463 151.309l-49.615-49.614c-10.727-10.728-28.119-10.726-38.844 0l-76.631 76.63c-10.726 10.728-10.727 28.119-.001 38.847l49.615 49.614c10.727 10.727 28.119 10.726 38.845-.002l76.631-76.63c10.725-10.725 10.726-28.118 0-38.845zm-81.873 84.114c-6.289 6.288-16.484 6.289-22.772.001l-29.084-29.084c-6.288-6.288-6.287-16.483.001-22.772l50.511-50.511c6.287-6.287 16.482-6.288 22.771 0l29.084 29.085c6.288 6.287 6.287 16.482 0 22.77l-50.511 50.511zM266.786 278.986l-49.614-49.614c-10.727-10.727-28.119-10.726-38.845 0l-76.631 76.632c-10.726 10.726-10.727 28.118 0 38.844l49.615 49.615c10.726 10.727 28.119 10.725 38.844 0l76.632-76.633c10.724-10.725 10.726-28.117-.001-38.844zM184.912 363.1c-6.288 6.288-16.482 6.29-22.771.001l-29.084-29.084c-6.289-6.288-6.288-16.483 0-22.771l50.512-50.512c6.287-6.287 16.482-6.288 22.771 0l29.084 29.084c6.288 6.289 6.287 16.484 0 22.771L184.912 363.1z"/></g><path d="M306.907 191.673l-2.42-2.421c-7.742-7.743-20.34-7.743-28.083 0l-87.151 87.151c-7.742 7.742-7.742 20.34 0 28.082l2.42 2.421c7.742 7.741 20.34 7.741 28.083 0l87.151-87.152c7.742-7.741 7.742-20.34 0-28.081z" fill="#48a1af"/><path d="M215.398 302.548c-5.348 5.348-14.02 5.349-19.368.001l-2.421-2.421c-5.348-5.348-5.348-14.02 0-19.367l87.152-87.152c5.348-5.349 14.019-5.348 19.368.002l2.42 2.42c5.347 5.348 5.349 14.019 0 19.366l-87.151 87.151z" fill="#fff"/></svg>