<svg xmlns="http://www.w3.org/2000/svg" viewBox="0 0 512 512"><path d="M512 256c0 141.4-114.6 256-256 256S0 397.4 0 256 114.6 0 256 0s256 114.6 256 256z" fill="#fcbb06"/><linearGradient id="a" gradientUnits="userSpaceOnUse" x1="139.572" y1="494.507" x2="372.428" y2="261.649" gradientTransform="matrix(1 0 0 -1 0 512)"><stop offset="0" stop-color="#4ad2f5"/><stop offset="1" stop-color="#00abe9"/></linearGradient><path d="M455.3 100.4v67.1l-30.1 22.1H80.1l-23.4-22.1v-67.1h398.6z" fill="url(#a)"/><path d="M56.7 167.5v244.2h398.6V167.5H56.7z" fill="#deecf1"/><linearGradient id="b" gradientUnits="userSpaceOnUse" x1="147.418" y1="211.12" x2="227.863" y2="130.676" gradientTransform="matrix(1 0 0 -1 0 512)"><stop offset="0" stop-color="#4ad2f5"/><stop offset="1" stop-color="#00abe9"/></linearGradient><path d="M187.6 284.8c-32.2 0-58.6 26.4-58.6 58.6V363h117.2v-19.5c0-32.3-26.3-58.7-58.6-58.7z" fill="url(#b)"/><path d="M265.8 245.8h117.8v19.5H265.8v-19.5zm0 39h117.8v19.5H265.8v-19.5zm0 39.1h39.1v19.5h-39.1v-19.5zm58.6 0h59.2v19.5h-59.2v-19.5z" fill="#005285"/><linearGradient id="c" gradientUnits="userSpaceOnUse" x1="166.913" y1="277.197" x2="208.369" y2="235.741" gradientTransform="matrix(1 0 0 -1 0 512)"><stop offset="0" stop-color="#4ad2f5"/><stop offset="1" stop-color="#00abe9"/></linearGradient><path d="M216.9 255.5c0 16.2-13.1 29.3-29.3 29.3s-29.3-13.1-29.3-29.3 13.1-29.3 29.3-29.3 29.3 13.1 29.3 29.3z" fill="url(#c)"/></svg>