<svg id="Capa_1" xmlns="http://www.w3.org/2000/svg" viewBox="0 0 384 384"><style>.st1{fill:#fff}</style><circle cx="192" cy="192" r="192" fill="#9b9187"/><path class="st1" d="M62.2 92.5h17.3v47.7h-7.6V99.6h-9.7v-7.1zM95.1 134c-3.2-4.5-4.8-10.5-4.8-18s1.6-13.5 4.8-18c3.2-4.5 8.1-6.7 14.6-6.7s11.4 2.2 14.6 6.7c3.2 4.5 4.8 10.5 4.8 18s-1.6 13.5-4.8 18c-3.2 4.5-8.1 6.7-14.6 6.7s-11.4-2.2-14.6-6.7zm5.7-30.9C99 106.4 98 110.7 98 116c0 5.3.9 9.6 2.8 12.9 1.9 3.3 4.8 4.9 8.8 4.9 4 0 6.9-1.6 8.8-4.9 1.8-3.3 2.8-7.6 2.8-12.9 0-5.4-.9-9.7-2.8-12.9-1.8-3.3-4.8-4.9-8.8-4.9-3.9 0-6.9 1.6-8.8 4.9zM135.1 92.5h17.3v47.7h-7.6V99.6h-9.7v-7.1zM168 134c-3.2-4.5-4.8-10.5-4.8-18s1.6-13.5 4.8-18c3.2-4.5 8.1-6.7 14.6-6.7s11.4 2.2 14.6 6.7c3.2 4.5 4.8 10.5 4.8 18s-1.6 13.5-4.8 18c-3.2 4.5-8.1 6.7-14.6 6.7s-11.3-2.2-14.6-6.7zm5.8-30.9c-1.9 3.3-2.8 7.6-2.8 12.9 0 5.3.9 9.6 2.8 12.9 1.9 3.3 4.8 4.9 8.8 4.9 4 0 6.9-1.6 8.8-4.9 1.8-3.3 2.8-7.6 2.8-12.9 0-5.4-.9-9.7-2.8-12.9-1.8-3.3-4.8-4.9-8.8-4.9s-6.9 1.6-8.8 4.9zM208.1 92.5h17.3v47.7h-7.6V99.6h-9.7v-7.1zM234.1 92.5h17.3v47.7h-7.6V99.6h-9.7v-7.1zM267 134c-3.2-4.5-4.8-10.5-4.8-18s1.6-13.5 4.8-18c3.2-4.5 8.1-6.7 14.6-6.7s11.4 2.2 14.6 6.7c3.2 4.5 4.8 10.5 4.8 18s-1.6 13.5-4.8 18c-3.2 4.5-8.1 6.7-14.6 6.7s-11.4-2.2-14.6-6.7zm5.8-30.9c-1.9 3.3-2.8 7.6-2.8 12.9 0 5.3.9 9.6 2.8 12.9 1.9 3.3 4.8 4.9 8.8 4.9s6.9-1.6 8.8-4.9c1.8-3.3 2.8-7.6 2.8-12.9 0-5.4-.9-9.7-2.8-12.9-1.8-3.3-4.8-4.9-8.8-4.9-4 0-6.9 1.6-8.8 4.9zM307.1 92.5h17.3v47.7h-7.6V99.6h-9.7v-7.1zM62.2 156.4h17.3v47.7h-7.6v-40.5h-9.7v-7.2zM88.2 156.4h17.3v47.7h-7.6v-40.5h-9.7v-7.2zM121.1 197.9c-3.2-4.5-4.8-10.5-4.8-18s1.6-13.5 4.8-18c3.2-4.5 8.1-6.7 14.6-6.7s11.4 2.2 14.6 6.7c3.2 4.5 4.8 10.5 4.8 18s-1.6 13.5-4.8 18c-3.2 4.5-8.1 6.7-14.6 6.7s-11.4-2.2-14.6-6.7zm5.7-30.9c-1.9 3.3-2.8 7.6-2.8 12.9s.9 9.6 2.8 12.9c1.9 3.3 4.8 4.9 8.8 4.9 4 0 6.9-1.6 8.8-4.9 1.8-3.3 2.8-7.6 2.8-12.9 0-5.4-.9-9.7-2.8-12.9-1.8-3.3-4.8-4.9-8.8-4.9s-6.9 1.6-8.8 4.9zM161.1 156.4h17.3v47.7h-7.6v-40.5h-9.7v-7.2zM194 197.9c-3.2-4.5-4.8-10.5-4.8-18s1.6-13.5 4.8-18c3.2-4.5 8.1-6.7 14.6-6.7s11.4 2.2 14.6 6.7c3.2 4.5 4.8 10.5 4.8 18s-1.6 13.5-4.8 18c-3.2 4.5-8.1 6.7-14.6 6.7s-11.3-2.2-14.6-6.7zm5.8-30.9c-1.9 3.3-2.8 7.6-2.8 12.9s.9 9.6 2.8 12.9c1.9 3.3 4.8 4.9 8.8 4.9 4 0 6.9-1.6 8.8-4.9 1.8-3.3 2.8-7.6 2.8-12.9 0-5.4-.9-9.7-2.8-12.9-1.8-3.3-4.8-4.9-8.8-4.9s-6.9 1.6-8.8 4.9zM234.1 156.4h17.3v47.7h-7.6v-40.5h-9.7v-7.2zM267 197.9c-3.2-4.5-4.8-10.5-4.8-18s1.6-13.5 4.8-18c3.2-4.5 8.1-6.7 14.6-6.7s11.4 2.2 14.6 6.7c3.2 4.5 4.8 10.5 4.8 18s-1.6 13.5-4.8 18c-3.2 4.5-8.1 6.7-14.6 6.7s-11.4-2.2-14.6-6.7zm5.8-30.9c-1.9 3.3-2.8 7.6-2.8 12.9s.9 9.6 2.8 12.9c1.9 3.3 4.8 4.9 8.8 4.9s6.9-1.6 8.8-4.9c1.8-3.3 2.8-7.6 2.8-12.9 0-5.4-.9-9.7-2.8-12.9-1.8-3.3-4.8-4.9-8.8-4.9-4 0-6.9 1.6-8.8 4.9zM307.1 156.4h17.3v47.7h-7.6v-40.5h-9.7v-7.2zM61.1 261.8c-3.2-4.5-4.8-10.5-4.8-18s1.6-13.5 4.8-18c3.2-4.5 8.1-6.7 14.6-6.7s11.4 2.2 14.6 6.7c3.2 4.5 4.8 10.5 4.8 18s-1.6 13.5-4.8 18c-3.2 4.5-8.1 6.7-14.6 6.7s-11.4-2.2-14.6-6.7zm5.8-30.9c-1.9 3.3-2.8 7.6-2.8 12.9 0 5.3.9 9.6 2.8 12.9 1.9 3.3 4.8 4.9 8.8 4.9 4 0 6.9-1.6 8.8-4.9 1.8-3.3 2.8-7.6 2.8-12.9 0-5.4-.9-9.7-2.8-12.9-1.8-3.3-4.8-4.9-8.8-4.9-4 0-6.9 1.7-8.8 4.9zM108.1 261.8c-3.2-4.5-4.8-10.5-4.8-18s1.6-13.5 4.8-18c3.2-4.5 8.1-6.7 14.6-6.7s11.4 2.2 14.6 6.7c3.2 4.5 4.8 10.5 4.8 18s-1.6 13.5-4.8 18c-3.2 4.5-8.1 6.7-14.6 6.7s-11.4-2.2-14.6-6.7zm5.7-30.9c-1.9 3.3-2.8 7.6-2.8 12.9 0 5.3.9 9.6 2.8 12.9 1.9 3.3 4.8 4.9 8.8 4.9 4 0 6.9-1.6 8.8-4.9 1.8-3.3 2.8-7.6 2.8-12.9 0-5.4-.9-9.7-2.8-12.9-1.8-3.3-4.8-4.9-8.8-4.9-3.9 0-6.9 1.7-8.8 4.9zM155 261.8c-3.2-4.5-4.8-10.5-4.8-18s1.6-13.5 4.8-18c3.2-4.5 8.1-6.7 14.6-6.7s11.4 2.2 14.6 6.7c3.2 4.5 4.8 10.5 4.8 18s-1.6 13.5-4.8 18c-3.2 4.5-8.1 6.7-14.6 6.7s-11.3-2.2-14.6-6.7zm5.8-30.9c-1.9 3.3-2.8 7.6-2.8 12.9 0 5.3.9 9.6 2.8 12.9 1.9 3.3 4.8 4.9 8.8 4.9s6.9-1.6 8.8-4.9c1.8-3.3 2.8-7.6 2.8-12.9 0-5.4-.9-9.7-2.8-12.9-1.8-3.3-4.8-4.9-8.8-4.9s-6.9 1.7-8.8 4.9zM195.1 220.3h17.3V268h-7.6v-40.5h-9.7v-7.2zM228 261.8c-3.2-4.5-4.8-10.5-4.8-18s1.6-13.5 4.8-18c3.2-4.5 8.1-6.7 14.6-6.7s11.4 2.2 14.6 6.7c3.2 4.5 4.8 10.5 4.8 18s-1.6 13.5-4.8 18c-3.2 4.5-8.1 6.7-14.6 6.7s-11.4-2.2-14.6-6.7zm5.8-30.9c-1.9 3.3-2.8 7.6-2.8 12.9 0 5.3.9 9.6 2.8 12.9 1.9 3.3 4.8 4.9 8.8 4.9 4 0 6.9-1.6 8.8-4.9 1.8-3.3 2.8-7.6 2.8-12.9 0-5.4-.9-9.7-2.8-12.9-1.8-3.3-4.8-4.9-8.8-4.9s-7 1.7-8.8 4.9zM268 220.3h17.3V268h-7.6v-40.5H268v-7.2zM300.9 261.8c-3.2-4.5-4.8-10.5-4.8-18s1.6-13.5 4.8-18c3.2-4.5 8.1-6.7 14.6-6.7s11.4 2.2 14.6 6.7c3.2 4.5 4.8 10.5 4.8 18s-1.6 13.5-4.8 18c-3.2 4.5-8.1 6.7-14.6 6.7s-11.3-2.2-14.6-6.7zm5.8-30.9c-1.9 3.3-2.8 7.6-2.8 12.9 0 5.3.9 9.6 2.8 12.9 1.9 3.3 4.8 4.9 8.8 4.9s6.9-1.6 8.8-4.9c1.8-3.3 2.8-7.6 2.8-12.9 0-5.4-.9-9.7-2.8-12.9-1.8-3.3-4.8-4.9-8.8-4.9s-6.9 1.7-8.8 4.9z"/></svg>