<svg xmlns="http://www.w3.org/2000/svg" viewBox="0 0 512 512">
	<path d="M512 256.006C512 397.402 397.394 512.004 256.004 512 114.606 512.004 0 397.402 0 256.006-.007 114.61 114.606 0 256.004 0 397.394 0 512 114.614 512 256.006z" fill="#47ceac" />
	<path d="M512 256.006C512 397.402 397.394 512.004 256.004 512 114.606 512.004 0 397.402 0 256.006-.007 114.61 114.606 0 256.004 0 397.394 0 512 114.614 512 256.006z" fill="#00adff" />
	<g fill="#f4f6f9">
		<path d="M385.092 89.6H126.908c-20.571 0-37.308 16.737-37.308 37.308v258.186c0 20.57 16.737 37.307 37.308 37.307h258.186c20.57 0 37.307-16.737 37.307-37.308V126.908C422.4 106.337 405.663 89.6 385.092 89.6zm23.441 295.492c0 12.926-10.515 23.441-23.441 23.441H126.908c-12.926 0-23.441-10.515-23.441-23.441V126.908c0-12.926 10.515-23.441 23.441-23.441h258.186c12.925 0 23.44 10.515 23.44 23.441v258.184z" />
		<path d="M193.6 186.048h17.268v137.248H193.6zM317.577 179.733h-17.268v56.817h-.415c-4.317-7.941-13.567-13.849-26.518-13.849-21.591 0-40.299 18.939-40.299 52.336 0 30.746 16.653 50.294 38.653 50.294 14.39 0 25.086-7.941 29.811-17.713h.615l1.03 15.678H318.4c-.409-6.516-.823-16.699-.823-24.846V179.733zm-17.269 104.062c0 2.85-.207 5.291-.823 7.325-3.493 13.649-13.158 20.165-23.024 20.165-17.275 0-25.909-16.699-25.909-36.858 0-20.98 9.25-37.878 26.318-37.878 11.927 0 20.561 9.162 22.823 20.159.409 2.24.615 5.091.615 7.331v19.756z" />
	</g>
</svg>
