<svg id="Слой_1" xmlns="http://www.w3.org/2000/svg" viewBox="0 0 512 512"><style>.st2{fill:#573a32}</style><circle cx="256" cy="256" r="243.2" fill="#d7f4f1"/><circle cx="256" cy="256" r="25.6" fill="#ff877f"/><path class="st2" d="M256 512c141.4 0 256-114.6 256-256S397.4 0 256 0 0 114.6 0 256s114.6 256 256 256zm0-486.4C383 25.6 486.4 129 486.4 256S383 486.4 256 486.4 25.6 383 25.6 256 129 25.6 256 25.6z"/><path class="st2" d="M217.6 256c0 21.2 17.2 38.4 38.4 38.4s38.4-17.2 38.4-38.4c0-16.7-10.7-30.8-25.6-36.1V102.4h-25.6v27.2l-20.4-81.5-24.8 6.2 41.8 167c-13.1 6.2-22.2 19.3-22.2 34.7zm38.4-12.8c7.1 0 12.8 5.7 12.8 12.8s-5.7 12.8-12.8 12.8-12.8-5.7-12.8-12.8 5.7-12.8 12.8-12.8zm-204.8 0h25.6v25.6H51.2v-25.6zm192 192h25.6v25.6h-25.6v-25.6zm192-192h25.6v25.6h-25.6v-25.6z"/><path class="st2" d="M243.2 51.2h25.6v25.6h-25.6V51.2z"/></svg>