<svg viewBox="0 0 512 512" xmlns="http://www.w3.org/2000/svg"><path d="M512 256c0 141.387-114.613 256-256 256S0 397.387 0 256 114.613 0 256 0s256 114.613 256 256zm0 0" fill="#ff7855"/><path d="M170.781 256c0-47.063 38.156-85.219 85.219-85.219l17.043-55.39L256 60h-34.086v46.414a152.556 152.556 0 0 0-47.57 19.723l-32.832-32.832-48.207 48.207 32.832 32.832a152.535 152.535 0 0 0-19.723 47.566H60v68.176h46.414a152.595 152.595 0 0 0 19.723 47.57l-32.832 32.832 48.207 48.207 32.832-32.832a152.535 152.535 0 0 0 47.566 19.723V452H256l17.043-55.39L256 341.218c-47.063 0-85.219-38.156-85.219-85.219zm0 0" fill="#fff"/><path d="M452 290.086v-68.172h-46.414a152.556 152.556 0 0 0-19.723-47.57l32.832-32.832-48.207-48.207-32.832 32.832a152.535 152.535 0 0 0-47.566-19.723V60H256v110.781c47.062 0 85.219 38.156 85.219 85.219S303.062 341.219 256 341.219V452h34.086v-46.414a152.556 152.556 0 0 0 47.57-19.723l32.832 32.832 48.207-48.207-32.836-32.832a152.442 152.442 0 0 0 19.723-47.566H452zm0 0" fill="#fff"/></svg>