<svg id="Слой_1" xmlns="http://www.w3.org/2000/svg" viewBox="0 0 512 512"><style>.st1{fill:#404c52}</style><path d="M512 256c0 141.4-114.6 256-256 256S0 397.4 0 256 114.6 0 256 0s256 114.6 256 256z" fill="#fff"/><path class="st1" d="M212.8 52.3C207.3 55 197.6 60.6 191 65c-8.3 5.9-18 10.1-32.6 14.4-11.6 3.4-22.6 7.8-24.8 10.1-11.4 10.8-16.7 37.9-12.3 63.5 2.3 12.9 2.1 15.9-1.1 28.6-3.6 15-2.8 19.9 3.8 21.2 5.1 1.1 9.7-4.4 16.5-19.9 6.1-13.8 6.3-14.2 8-9.1.9 2.8 2.8 7.2 4.2 9.7 1.7 3.2 1.7 7.4.4 16.3-3 18.2-2.1 26 6.4 57.1 7.8 28.3 7.8 28.8 4.6 34.5-9.5 16.3-22 64.7-21.6 84.2 0 7 .9 4.2 4.6-13.3 2.5-12.3 6.1-26 8.2-30.3l3.8-8.3.2 18.2c.2 25 4.6 47.6 13.3 69.4 4 10.2 8.2 21.1 9.3 24.3 4 11.6 2.1-1.3-3.2-22.2-10.4-40.4-14.4-78-10.4-98.1 1.5-6.8 3.8-7.6 5.5-1.9 2.7 8.2 15.7 20.1 24.8 22.6 7.2 2.1 9.7 4 15.2 12.7 7.6 11.9 13.8 15.2 31.7 16.9 6.4.6 16.1 2.5 21.2 4.2 5.5 1.7 15.6 2.8 23.7 2.8 7.8-.2 22.4-.2 32.4-.4 19.5-.2 19.5-.2 27.3-12.5l3.4-5.5-7.4 5.9c-7.8 6.1-7.2 5.9-46.3 9.3-9.9.9-17.3 0-36.4-4.7-22.4-5.3-37.2-10.6-35.3-12.7.6-.4 13.3 1.3 28.3 4 23.5 4 30.5 4.6 51 3.4 19.2-.9 24.7-1.9 28.6-4.9 7.4-5.3 25.6-28.1 29.6-36.6 1.9-4.2 8.3-12.7 14.2-19.3 14.4-15.7 14-19.5-.6-5.7-6.3 6.1-12.3 11-13.3 11-4.2 0-3.8-6.8.8-16.3 5.3-10.8 6.1-14 3.6-14-.8 0-3.4 4.2-5.5 9.5-5.1 12.3-11 13.1-18 2.3-9.1-13.8-7.8-18 6.4-20.3 16.5-2.7 32.2-19 34.9-36.2.6-4.6 1.9-8.3 2.7-8.3 2.3 0 4.6 19.7 3 26.7-.6 3.4-.4 5.3.8 4.6 3-1.9 2.3-29.6-1.1-40.6-2.8-10.1-18-28.6-23.5-28.6-1.3 0 0 1.9 3 4.2 7.8 5.9 9.9 9.1 11.4 16.1 2.7 13.3-3.6 17.6-12.7 8.9-2.8-2.7-10.8-7-18-9.5-7-2.7-16.9-7.8-21.8-11.4-10.8-8-16.3-8.3-19-1.3-1.1 3-3.2 6.6-4.6 8.2-2.1 2.5-2.1 4.9.2 15.9 1.5 7.2 2.5 14 2.1 15-.2.9-4.6-2.1-9.5-6.6-8.3-7.8-8.9-9.1-8.9-17.8 0-5.1 1.7-12.9 3.8-17.4 4.4-9.9 11.9-13.7 27.9-13.8 8.3-.2 9.9-.6 6.3-1.7-7.2-2.3-18.2-2.1-23.7.4-2.7 1.1-10.4 9.7-17.3 19-12.5 16.9-15.7 19.2-21.8 13.7-2.8-2.5-4.4-2.7-9.9-.6-10.4 3.6-17.3-1.5-27.7-21.1-8.5-15.7-17.6-24.8-24.7-24.5-1.9 0-1.1.9 1.9 2.3 2.7 1.3 6.4 3.4 8.2 4.9 14 11.8 14.2 49.1.6 47.2-3.4-.4-4.4-2.3-5.3-9.1-.8-4.7-.4-13.1.8-18.6 2.7-13.7.6-15.7-11.6-11.2-4.9 1.9-13.1 4.7-18.4 6.1-5.1 1.5-11.6 4.4-14.6 6.6-2.8 2.1-5.7 3.8-6.3 3.8-1.9 0-.9-7.8 1.9-14.8l2.8-7-3.8 4.6c-2.1 2.5-4.2 4.2-4.6 3.8-2.5-2.8-4.9-9.9-4.9-14 0-7.2 2.8-11.9 15.2-24.7 6.1-6.3 15.6-19.2 20.9-28.5 5.3-9.5 12.9-20.3 16.7-24.3 3.8-3.8 6.1-7 5.1-7-3.6 0-27.5 8.3-27.5 9.7 0 .8 1.9 1.7 4.4 2.1 3.6.6.4 4.4-21.1 25.4-21.2 21.2-29.4 26.7-14.6 10.2 2.3-2.7 9.9-12.1 16.9-21.4 9.5-12.3 11.8-16.5 9.3-16.5-4.6 0 19-23.7 28.8-29 6.4-3.4 11.6-4.2 32.6-4.7 22.2-.8 26.7-.2 41.7 4 11.9 3.4 23.3 5.1 39.6 5.9 21.6.9 23.7 1.3 36 7.6 7.2 3.8 15.7 7.2 18.8 8 3.2.6-2.1-2.8-11.8-7.8-16.5-8.5-18.4-8.9-38.9-10.6-26.6-2.1-31.9-2.8-46.1-7.6-8.2-2.7-15.7-3.4-25.6-3.2-7.8.4-17.6 0-21.8-.9-6.2-1.8-9.6-1.2-17.6 2.6zM191.6 197c2.1 2.3 1.5 2.3-3.2.4-7.8-3.4-9.5-5.1-3.8-4.2 2.6.6 5.8 2.3 7 3.8zm1.1 13.3c-.8.6-1.9.6-2.7 0-.6-.8 0-1.3 1.3-1.3 1.4-.1 2 .5 1.4 1.3zm8 7.6c1.5 5.1.9 6.6-3.4 10.8-6.3 6.1-15.2 6.4-21.2.9l-4.6-4 4.7 3c6.3 4.2 8.9 3.8 14.2-1.7 3.4-3.2 4.7-6.6 4.7-11.8.1-8 2.9-6.5 5.6 2.8zm152.5-3.5c1.3 1.3 0 1.3-4.6.2-3.6-1.1-8.9-1.5-12.1-.9-4.7.8-4.9.6-1.9-.9 4.4-2.1 15.9-1 18.6 1.6zm-24.5 13.5c-1.1 6.6-.6 8.2 4.6 13.3 6.1 5.9 11.2 7 18 3.6 4-1.9 4-1.9.6.9-7 5.7-19.7 3.4-29-5.1-5.7-5.1-5.5-9.9.4-15.6 6.2-6.4 6.7-6 5.4 2.9zm13.9-2.5c-.8.6-1.3 0-1.3-1.3s.6-1.9 1.3-1.3c.5.8.5 1.9 0 2.6zm-174.5 1.9c-.8.6-1.3 0-1.3-1.3s.6-1.9 1.3-1.3c.5.7.5 1.9 0 2.6zm97.3 12.9c7 3.6 7.4 5.3.8 2.8-2.7-1.1-10.4-1.9-17.4-1.9-8.9 0-11.9-.6-9.9-1.9 4.3-2.7 20.4-2.2 26.5 1zm96.7 5.5c0 .6-.9 1.5-2.3 2.3-1.3.8-1.5.6-.8-.8 1.4-2.2 3.1-3 3.1-1.5zM236 262.1c-.6.9-2.5 1.1-4 .6-2.3-.8-2.5-1.5-.6-2.7 2.9-1.7 6.1-.4 4.6 2.1zm8.7 12.7c-1.1 3.8-1.5 7.6-.9 8.3.6.9-.4 1.1-1.9.6-1.5-.6-3.2-2.3-3.8-3.6-.6-1.7 0-2.3 1.9-1.5 2.1.8 2.7-.9 2.7-8.2.2-7.2.6-8.5 2.1-6.1 1.2 2.3 1.2 5.7-.1 10.5zm10.6-9.5c-.8.6-1.3 0-1.3-1.3s.6-1.9 1.3-1.3c.6.7.6 1.8 0 2.6zm12.5.5c3 0 3.4.6 1.9 2.1-3 3-8.2.8-8-3.4 0-2.1.6-2.5 1.1-1.1.5 1.3 2.8 2.4 5 2.4zm-6.2 16.2c0 .6-1.3.9-2.8.9-1.5 0-2.8-.8-2.8-1.7s-.6-3.2-1.3-5.1c-.9-2.7-.4-2.5 2.8.8 2.2 2.2 4.1 4.5 4.1 5.1zm-21.8 25c-7.8 5.7-11.2 6.4-4.7.9 3.6-3 7-5.3 7.6-4.7.5.4-.9 2.1-2.9 3.8zm32.4 9.7c1.9 1.3-.2.6-4.9-1.7-9.1-4.4-15.2-8.9-15.2-11.4 0-.9 3.8 1.1 8.3 4.6 4.6 3.2 9.9 7.2 11.8 8.5zm-22-1.5c2.1 1.3 1.1 1.9-3.8 1.9s-5.9-.6-3.8-1.9c1.5-.9 3.2-1.9 3.8-1.9.6 0 2.3.9 3.8 1.9z"/><path class="st1" d="M174 241.2c5-6.9 10-14.5 11-16.8 4-8.7 2.1-14.4-7.3-21.9M347.5 392.7c0 1.3 1 .3 2.9-3 1.6-2.8 5.9-8.5 9.5-12.8M299.4 419.3c-4.8 2.5-10.2 1.3-23.4-4.9-6.9-3.3-13-6-13.5-5.9"/></svg>