<svg viewBox="0 -84 512 512" xmlns="http://www.w3.org/2000/svg"><path d="M45.57 324l3.645 9.473c4.289 11.16 18.644 14.207 27.101 5.75l42.977-42.977-29.922-29.922-40.062 40.063A16.521 16.521 0 0 0 45.57 324zm0 0M466.43 324l-3.645 9.473c-4.289 11.16-18.644 14.207-27.101 5.75l-42.977-42.977 29.922-29.922 40.062 40.063A16.521 16.521 0 0 1 466.43 324zm0 0" fill="#45a354"/><path d="M453.031 148.012a475.202 475.202 0 0 0 27.801-4.004c13.137-2.293 16.695-19.434 5.652-26.906a408.026 408.026 0 0 1-37.629-28.782 410.104 410.104 0 0 0 20.5-3.023c11.247-1.965 14.52-16.59 5.06-22.984-25.349-17.133-47.403-36.747-65.868-57.942-5.074-5.828-14.133-5.828-19.211 0-18.465 21.195-40.52 40.809-65.867 57.941-9.461 6.395-6.188 21.02 5.062 22.985a409.283 409.283 0 0 0 20.496 3.023 406.654 406.654 0 0 1-37.629 28.782c-11.043 7.476-7.484 24.613 5.653 26.906a475.202 475.202 0 0 0 27.8 4.004c-27.988 11.004-48.792 30.289-56.101 53.277-20.707-9.098-44.79-9.098-65.496.004-7.309-22.992-28.113-42.277-56.106-53.281a475.202 475.202 0 0 0 27.801-4.004c13.137-2.293 16.696-19.434 5.656-26.906a406.714 406.714 0 0 1-37.632-28.782 409.435 409.435 0 0 0 20.5-3.023c11.25-1.965 14.52-16.59 5.058-22.984C163.184 45.18 141.13 25.566 122.664 4.37c-5.074-5.828-14.133-5.828-19.21 0-18.466 21.195-40.52 40.809-65.868 57.941-9.461 6.395-6.188 21.02 5.059 22.985a410.104 410.104 0 0 0 20.5 3.023 406.654 406.654 0 0 1-37.63 28.782c-11.042 7.472-7.48 24.613 5.653 26.906a475.202 475.202 0 0 0 27.8 4.004C23.837 161.824 0 188.676 0 219.535c0 44.973 50.617 81.434 113.059 81.434 50.464 0 93.199-23.817 107.738-56.692a24.765 24.765 0 0 1 9.812-11.175l.012-.004a49.052 49.052 0 0 1 50.766 0 24.725 24.725 0 0 1 9.812 11.175c14.54 32.88 57.278 56.696 107.742 56.696C461.383 300.965 512 264.508 512 219.535c0-30.86-23.836-57.71-58.969-71.523zm0 0" fill="#67c67b"/><path d="M113.059 269.266c-23.262 0-45.649-6.512-61.418-17.871-7.45-5.364-19.942-16.637-19.942-31.86s12.492-26.496 19.942-31.86c15.77-11.359 38.156-17.87 61.418-17.87 23.261 0 45.648 6.511 61.418 17.87 7.449 5.364 19.945 16.637 19.945 31.86s-12.496 26.496-19.945 31.86c-15.77 11.359-38.157 17.87-61.418 17.87zm0 0M480.3 219.531c0 15.227-12.495 26.5-19.937 31.86-15.777 11.359-38.16 17.879-61.418 17.879-5.57 0-11.074-.375-16.457-1.098-17.136-2.297-32.965-8.14-44.96-16.781-7.454-5.36-19.95-16.633-19.95-31.86 0-15.222 12.496-26.488 19.95-31.86 11.995-8.64 27.824-14.48 44.96-16.769a123.753 123.753 0 0 1 16.457-1.097c23.258 0 45.64 6.511 61.418 17.867 7.442 5.371 19.938 16.637 19.938 31.86zm0 0" fill="#fff"/><g fill="#d7f4f1"><path d="M161.508 219.531c0 15.227-12.5 26.5-19.938 31.86-12.007 8.64-27.836 14.484-44.96 16.78-17.137-2.296-32.97-8.14-44.965-16.78-7.45-5.36-19.946-16.633-19.946-31.86 0-15.222 12.496-26.488 19.946-31.86 11.996-8.64 27.828-14.48 44.964-16.769 17.125 2.301 32.954 8.13 44.961 16.77 7.438 5.371 19.938 16.637 19.938 31.86zm0 0M447.387 219.535c0 15.223-12.496 26.5-19.938 31.86-12.004 8.64-27.836 14.48-44.96 16.78-17.137-2.3-32.966-8.14-44.962-16.78-7.449-5.36-19.949-16.637-19.949-31.86s12.5-26.488 19.95-31.86c11.995-8.64 27.824-14.48 44.96-16.769 17.125 2.297 32.957 8.13 44.961 16.77 7.442 5.37 19.938 16.637 19.938 31.86zm0 0"/></g></svg>