<svg viewBox="-10 1 511 512" xmlns="http://www.w3.org/2000/svg"><path d="M490.5 267c0 135.309-109.691 245-245 245S.5 402.309.5 267s109.691-245 245-245 245 109.691 245 245zm0 0" fill="#ffca51"/><path d="M435.883 129.148c1.062 0 2.066.418 2.824 1.176a3.985 3.985 0 0 1 1.172 2.824l-.012 19.45 14.192-14.192a245.266 245.266 0 0 0-20.114-27.969l-18.715 18.711zm0 0" fill="#fe3745"/><path d="M268.875 46.16c1.063 0 2.066.418 2.824 1.176a3.985 3.985 0 0 1 1.172 2.824l-.016 22.817L320.332 25.5a5.012 5.012 0 0 0 0-7.07L303.363 1.457c-1.945-1.941-5.129-1.941-7.074 0l-44.7 44.703zm0 0" fill="#02af8e"/><path d="M124.66 115.145v128.832l-72.508 42.55 61.813 106.985 90.816-53.016a63.034 63.034 0 0 1-11.472-36.344c0-34.98 28.359-63.336 63.336-63.336 1.773 0 3.52.098 5.253.243.063-33.364.114-91.98.133-125.914zm0 0" fill="#fe3745"/><path d="M124.66 115.145v128.832l-72.508 42.55 10.692 18.508 80.476-47.226V115.145zm0 0" fill="#ea2a3d"/><path d="M254.95 122.559a8.185 8.185 0 0 0-9.61 0l-19.32 13.992-19.32-13.992a8.179 8.179 0 0 0-9.606 0l-19.32 13.992-19.317-13.992a8.185 8.185 0 0 0-9.61 0l-19.316 13.988-4.875-3.527v20.226l.07.047a8.179 8.179 0 0 0 9.606 0l19.316-13.992 19.317 13.992a8.185 8.185 0 0 0 9.61 0l19.32-13.992 19.32 13.992a8.185 8.185 0 0 0 9.61 0l19.32-13.992 11.796 8.547.024-20.207zm0 0" fill="#b7092b"/><path d="M112.832 111.145c0 2.75 2.25 5 5 5h150.992c2.75 0 5-2.25 5.004-5l.043-60.985c0-2.75-2.246-5-4.996-5H117.832c-2.75 0-5 2.25-5 5zm0 0" fill="#37c47a"/><path d="M137.5 111.145V50.16c0-2.75 2.25-5 5-5h-24.668c-2.75 0-5 2.25-5 5v60.985c0 2.75 2.25 5 5 5H142.5c-2.75 0-5-2.25-5-5zm0 0" fill="#2bb381"/><path d="M254.95 194.559a8.185 8.185 0 0 0-9.61 0l-19.32 13.992-19.32-13.992a8.179 8.179 0 0 0-9.606 0l-19.32 13.992-19.317-13.992a8.185 8.185 0 0 0-9.61 0l-19.316 13.988-4.875-3.527v20.226l.07.047a8.179 8.179 0 0 0 9.606 0l19.316-13.992 19.317 13.992a8.185 8.185 0 0 0 9.61 0l19.32-13.992 19.32 13.992a8.185 8.185 0 0 0 9.61 0l19.32-13.992 11.796 8.547.024-20.207zm0 0" fill="#b7092b"/><g fill="#37c47a"><path d="M254.95 158.559a8.185 8.185 0 0 0-9.61 0l-19.32 13.992-19.32-13.992a8.179 8.179 0 0 0-9.606 0l-19.32 13.992-19.317-13.992a8.185 8.185 0 0 0-9.61 0l-19.316 13.988-4.875-3.527v20.226l.07.047a8.179 8.179 0 0 0 9.606 0l19.316-13.992 19.317 13.992a8.185 8.185 0 0 0 9.61 0l19.32-13.992 19.32 13.992a8.185 8.185 0 0 0 9.61 0l19.32-13.992 11.796 8.547.024-20.207zm0 0M255.184 239.54c-34.98 0-63.336 28.358-63.336 63.335 0 14.191 4.664 27.29 12.547 37.848l26.77-15.625c21.464-12.395 32.663-35.73 30.64-58.895.035-.426.066-10.789.097-26.305-2.21-.234-4.449-.359-6.718-.359zm0 0M52.5 286.32l-19.773 11.606C3.19 314.98-6.93 352.746 10.12 382.28c17.055 29.535 54.82 39.656 84.356 22.606l19.835-11.578zm0 0"/></g><path d="M291.664 198.133v128.832l-72.797 42.719 61.813 106.984 91.097-53.176a63.053 63.053 0 0 1-11.465-36.34c0-34.98 28.356-63.336 63.336-63.336 1.774 0 3.52.098 5.258.243.067-33.364.114-91.989.133-125.926zm0 0" fill="#fff"/><path d="M291.664 198.133v128.832l-72.797 42.719 11.492 19.89 85.961-50.441v-141zm0 0" fill="#eef6ff"/><path d="M421.957 256.559a8.185 8.185 0 0 0-9.61 0l-19.32 13.992-19.32-13.992a8.179 8.179 0 0 0-9.605 0l-19.32 13.988-19.317-13.988a8.185 8.185 0 0 0-9.61 0l-19.316 13.988-4.871-3.527v20.226l.066.047a8.185 8.185 0 0 0 9.61 0l19.312-13.992 19.32 13.992a8.179 8.179 0 0 0 9.606 0l19.32-13.992 19.32 13.992a8.185 8.185 0 0 0 9.61 0l19.32-13.992L429 281.883c.008-6.91.016-13.703.02-20.211zm0 0" fill="#999cad"/><path d="M421.957 211.703a8.197 8.197 0 0 0-9.61 0l-19.32 13.996-19.32-13.996a8.191 8.191 0 0 0-9.605 0l-19.32 13.992-19.317-13.992a8.197 8.197 0 0 0-9.61 0l-19.316 13.992-4.871-3.53v20.23l.066.046a8.185 8.185 0 0 0 9.61 0l19.312-13.992 19.32 13.992a8.179 8.179 0 0 0 9.606 0l19.32-13.992 19.32 13.992a8.185 8.185 0 0 0 9.61 0l19.32-13.992L429 237.031c.008-6.91.016-13.703.02-20.21zm0 0" fill="#fe3745"/><path d="M422.191 322.527c-34.98 0-63.336 28.356-63.336 63.336 0 14.192 4.665 27.29 12.547 37.848l26.77-15.625c21.465-12.395 32.66-35.73 30.637-58.895.039-.425.07-10.789.101-26.304a63.67 63.67 0 0 0-6.719-.36zm0 0" fill="#999cad"/><path d="M219.508 369.309l-19.778 11.605c-29.535 17.05-39.652 54.82-22.601 84.356 17.055 29.535 54.82 39.656 84.355 22.601l19.836-11.578zm0 0" fill="#fe3745"/><path d="M279.84 194.133c0 2.75 2.25 5 5 5h150.992c2.75 0 5-2.25 5.004-5l.043-60.985c0-2.75-2.246-5-4.996-5H284.84c-2.75 0-5 2.25-5 5zm0 0" fill="#ea2a3d"/><path d="M304.5 194.133v-60.985c0-2.75 2.25-5 5-5h-24.66c-2.75 0-5 2.25-5 5v60.985c0 2.75 2.25 5 5 5h24.66c-2.75 0-5-2.25-5-5zm0 0" fill="#b7092b"/></svg>