<svg xmlns="http://www.w3.org/2000/svg" viewBox="0 0 508 508"><circle cx="254" cy="254" r="254" fill="#324a5e"/><path fill="#fff" d="M179.6 166.8l-34.8-75.2-34.8 75.2z"/><g fill="#ff7058"><path d="M158 120c-1.2-1.2-6.8-2-13.2-2s-12 .8-13.2 2l13.2-28.4L158 120z"/><ellipse cx="144.8" cy="169.2" rx="35.6" ry="12"/><path d="M158.4 120.8l-.4-.8c0 .4.4.4.4.8zM109.2 169.2h71.2v235.2h-71.2z"/></g><ellipse cx="144.8" cy="404.4" rx="35.6" ry="12" fill="#fff"/><ellipse cx="144.8" cy="404.4" rx="9.2" ry="3.2" fill="#ff7058"/><path fill="#fff" d="M288.8 166.8L254 91.6l-34.8 75.2z"/><g fill="#84dbff"><path d="M267.2 120c-1.2-1.2-6.8-2-13.2-2s-12 .8-13.2 2L254 91.6l13.2 28.4z"/><ellipse cx="254" cy="169.2" rx="35.6" ry="12"/></g><path d="M267.6 120.8l-.4-.4s.4 0 .4.4z" fill="#ff7058"/><path fill="#84dbff" d="M218.4 169.2h71.2v235.2h-71.2z"/><ellipse cx="254" cy="404.4" rx="35.6" ry="12" fill="#fff"/><ellipse cx="254" cy="404.4" rx="9.2" ry="3.2" fill="#54c0eb"/><path fill="#fff" d="M398 166.8l-34.8-75.2-34.8 75.2z"/><path d="M376.4 120c-1.2-1.2-6.8-2-13.2-2-6.4 0-12 .8-13.2 2l13.2-28.4 13.2 28.4z" fill="#ffd05b"/><path d="M376.8 120.8l-.4-.4s.4 0 .4.4z" fill="#ff7058"/><path d="M398.8 169.2v235.2h-71.2V169.2c0-6.8 16-12 35.6-12s35.6 5.2 35.6 12z" fill="#ffd05b"/><ellipse cx="363.2" cy="404.4" rx="35.6" ry="12" fill="#fff"/><ellipse cx="363.2" cy="404.4" rx="9.2" ry="3.2" fill="#ffd05b"/></svg>