<svg xmlns="http://www.w3.org/2000/svg" viewBox="0 0 508 508"><circle cx="254" cy="254" r="254" fill="#54c0eb"/><path d="M340.8 261.6H167.2V414c0 24 38.8 44 86.8 44 44.4 0 86.8-20 86.8-44V261.6z" fill="#2b3b4e"/><ellipse cx="254" cy="265.6" rx="142" ry="71.6" fill="#324a5e"/><g fill="#2b3b4e"><ellipse cx="254" cy="265.6" rx="86.8" ry="44"/><path d="M340.8 265.6c0 8-4 15.2-11.2 21.6-14.8 13.2-43.2 22-75.6 22s-60.4-8.8-75.6-22c-7.2-6.4-11.2-13.6-11.2-21.6 0-16.8 19.2-31.6 46.8-38.8 10-2.8 21.2-4.4 33.2-4.8h13.6c12 .4 23.2 2 33.2 4.8 28 7.2 46.8 21.6 46.8 38.8z"/></g><path d="M294 226.8c-5.2 8.4-10 16-14.4 23.2 23.6 6 42 20 50 37.2-14.8 13.2-43.2 22-75.6 22s-60.4-8.8-75.6-22C186 269.6 204.8 256 228 250c-4.4-7.2-9.2-14.8-14.4-23.2-25.6-42-57.2-95.2-62-111.6-8-28 4.8-56.4 29.2-63.6s50.4 10 58.8 38c4.8 16.8 6.8 82.8 7.6 132.4 0 8.8.4 17.6.4 24.8h12.8c0-7.6 0-16 .4-24.8.8-49.6 2.8-115.6 7.6-132.4 8-28 34.4-45.2 58.8-38s37.2 35.6 29.2 63.6c-5.2 16-36.8 69.6-62.4 111.6z" fill="#e6e9ee"/><g fill="#ced5e0"><path d="M341.2 104.8c-5.2 17.6-60 103.6-60 103.6s0-102 4.8-119.6c5.2-17.6 21.6-28 36.8-23.6 15.2 4.4 23.6 22 18.4 39.6zM166.8 104.8c5.2 17.6 60 103.6 60 103.6s0-102-4.8-119.6c-5.2-17.6-21.6-28-36.8-23.6s-23.6 22-18.4 39.6z"/></g></svg>