<svg id="Слой_1" xmlns="http://www.w3.org/2000/svg" viewBox="0 0 286.9 286.9"><style>.st1{fill:#fff}</style><path d="M286.9 143.5c0 102.9-108.3 180.4-217.1 125-18.7-9.5-41.9-32.7-51.4-51.4C-37 108.3 40.6 0 143.5 0c79.2 0 143.4 64.2 143.4 143.5z" fill="#a3cbf9"/><path class="st1" d="M174.5 112.4c-45-35.1-97.1 17-62 62 45 35.2 97.1-16.9 62-62zm-11.3 50.8c-28.6 22.3-61.8-10.8-39.5-39.5 28.7-22.3 61.8 10.8 39.5 39.5zM135.7 79.1c0 7.1 8.8 11.2 15.5 3.9V59.8c-6.7-8-15.5-3.1-15.5 3.6v15.7zM223.5 135.7h-19.3c-8 6.7-3.1 15.5 3.6 15.5h19.3c8-6.7 3.2-15.5-3.6-15.5zM151.2 207.8c0-7.1-8.8-11.2-15.5-3.9v23.2c6.7 8 15.5 3.1 15.5-3.6v-15.7zM79.1 151.2c7.1 0 11.2-8.8 3.9-15.5H59.8c-8 6.7-3.1 15.5 3.6 15.5h15.7zM188.9 105.7c1.9 0 3.9-.8 5.4-2.3l14.2-14.2c-.1-10.2-9.1-12.9-14-8.1l-11.2 11.2c-3.1 3.1-3.1 7.9 0 11 1.7 1.7 3.7 2.4 5.6 2.4z"/><path class="st1" d="M194.3 183.5c-4.8-4.8-13.9-2.1-14 8.1l14.2 14.2c1.5 1.5 3.5 2.3 5.4 2.3s3.9-.8 5.4-2.3c3.1-3.1 3.1-7.9 0-11l-11-11.3zM92.6 183.5l-14.4 14.4c.5 6.8 4.5 10.2 8.6 10.2 1.9 0 3.9-.8 5.4-2.3l11.2-11.2c3.1-3.1 3.1-7.9 0-11-2.9-3.2-7.9-3.2-10.8-.1zM92.6 103.4c1.4 1.5 3.5 2.3 5.4 2.3 4 0 8.1-3.4 8.6-10.2L89.3 78.2c-10.2.1-12.9 9.1-8.1 14l11.4 11.2z"/></svg>