<svg xmlns="http://www.w3.org/2000/svg" viewBox="0 0 512 512"><circle cx="256" cy="256" r="256" fill="#a3cbf9"/><path d="M443.1 235.5h-32.6L423 213l-18.5-10.2-18.2 32.7h-11.8l-31-23.1 5.6-38.3 8.3-8.3 36 10.3 5.8-20.3-24.8-7.1 23-23-17.1-17.1-23 23-7.1-24.8-20.3 5.8 10.3 36-8.3 8.3-38.3 5.6-23.1-31v-11.8l32.8-18.2-10.2-18.4-22.5 12.5V63h-24.2v32.6l-22.7-12.4-10.2 18.5 32.8 18.2v11.8l-23.1 31L185 157l-8.3-8.3 10.3-36-20.3-5.8-7.1 24.8-23-23-17.1 17.1 23 23-24.8 7.1 5.8 20.3 36-10.3 8.3 8.3 5.6 38.3-31 23.1h-11.8l-18.2-32.7-18.4 10 12.5 22.5H73.9v24.2h32.6L94 282.2l18.5 10.2 18.2-32.7h11.8l31 23.1-5.6 38.3-8.3 8.3-36-10.3-5.8 20.3 24.8 7.1-23 23 17.1 17.1 23-23 7.1 24.8 20.3-5.8-10.3-36 8.3-8.3 38.3-5.6 23.1 31v11.8l-32.8 18.2 10.2 18.5 22.5-12.5v32.6h24.2v-32.6l22.5 12.5 10.2-18.5-32.8-18.2v-11.8l23.1-31 38.3 5.6 8.3 8.3-10.3 36 20.3 5.8 7.1-24.8 23 23 17.1-17.1-23-23 24.8-7.1-5.8-20.3-36 10.3-8.3-8.3-5.6-38.3 31-23.1h11.8l18.2 32.7 18.5-10.2-12.5-22.5H443l.1-24.2zm-124.4 0c-1.6-7.9-4.7-15.2-9.1-21.9l19.5-19.5-3.8 25.8 20.9 15.6h-27.5zm27.5 24.1l-20.9 15.6 3.8 25.8-19.5-19.5c4.5-6.7 7.5-14 9.1-21.9h27.5zm-75.6-72.3v-27.5l15.6 20.9 25.8-3.8-19.5 19.5c-6.6-4.5-14-7.6-21.9-9.1zm26.2 60.3c0 21.2-17.2 38.3-38.3 38.3s-38.3-17.2-38.3-38.3 17.2-38.3 38.3-38.3 38.3 17.1 38.3 38.3zm-72.4 51.1c6.7 4.5 14 7.5 21.9 9.1v27.5l-15.5-20.9-25.8 3.8 19.4-19.5zm22-138.9v27.5c-7.9 1.6-15.2 4.7-21.9 9.1L205 176.9l25.8 3.8 15.6-20.9zm24.2 175.5v-27.5c7.9-1.6 15.2-4.7 21.9-9.1l19.5 19.5-25.8-3.8-15.6 20.9zm-99.8-99.8l20.9-15.6-3.8-25.8 19.5 19.5c-4.5 6.7-7.5 14-9.1 21.9h-27.5zm27.5 24.1c1.6 7.9 4.7 15.2 9.1 21.9L187.8 301l3.8-25.8-20.9-15.6h27.6z" fill="#fff"/></svg>