<svg xmlns="http://www.w3.org/2000/svg" viewBox="0 0 57.045 56.589">
  <defs>
    <linearGradient id="a" x1=".084336" x2=".91566" y1=".046507" y2=".93023">
      <stop offset="0" stop-color="#fff" stop-opacity=".727"/>
      <stop offset="1" stop-color="#fff"/>
    </linearGradient>
  </defs>
  <path fill="#408de5" stroke-width="3.625" d="M55.136 28.934c.011051 14.633-11.848 26.502-26.482 26.502-14.633 0-26.493-11.868-26.482-26.502C2.160948 14.301 14.02 2.432 28.654 2.432c14.633 0 26.493 11.868 26.482 26.502z"/>
  <path fill="#408de5" stroke="#408de5" stroke-width=".722" d="M52.833 28.934c.01009 13.361-10.818 24.197-24.179 24.197S4.465 42.295 4.475 28.934C4.464909 15.573 15.293 4.737 28.654 4.737s24.189 10.836 24.179 24.197z"/>
  <path fill="#408de5" stroke-width=".616" d="M28.638 4.7681c-13.347 0-24.175 10.828-24.175 24.175 0 6.4126 2.6169 12.143 6.6955 16.472 2.1188-17.5 16.89-31.107 34.959-31.107.48721 0 .93961.098959 1.422.1185-4.4214-5.7507-11.092-9.6581-18.901-9.6581z"/>
  <path fill="url(#a)" stroke-linecap="round" stroke-linejoin="round" stroke-width="1.75" d="M31.318 13.143l4.1313 4.1313-11.7 11.7 11.588 11.588-4.1619 4.1619-15.72-15.72 15.862-15.862z"/>
</svg>
