<svg xmlns="http://www.w3.org/2000/svg" xmlns:xlink="http://www.w3.org/1999/xlink"><defs><path id="kfpua" d="M420.74 1236.5a15.72 15.72 0 0 0-8.24-8.24 5.87 5.87 0 0 1 8.24 8.24zm-.24 6.5c0 3.85-1.51 7.34-3.96 9.94l2.03 2.03a1.48 1.48 0 1 1-2.1 2.1l-2.18-2.18a14.42 14.42 0 0 1-16.57 0l-2.16 2.17a1.5 1.5 0 1 1-2.12-2.12l2.01-2.01a14.5 14.5 0 1 1 25.05-9.93zm-14.5-11.5a11.5 11.5 0 1 0 0 23 11.5 11.5 0 0 0 0-23zm6 13h-6a1.5 1.5 0 0 1-1.5-1.5v-8a1.5 1.5 0 0 1 3 0v6.5h4.5a1.5 1.5 0 0 1 0 3zm-20.71-7.8a6 6 0 0 1 8.42-8.42 16.06 16.06 0 0 0-8.42 8.43z"/><path id="u4p6a" d="M422.06 1421.89l-14.47 5.99a1.5 1.5 0 0 1-1.18 0l-14.47-6a1.5 1.5 0 0 1-.94-1.38v-23a1.5 1.5 0 0 1 2.07-1.39l.02.01 13.91 5.76 13.91-5.76h.01a1.5 1.5 0 0 1 2.07 1.39v22.99a1.5 1.5 0 0 1-.93 1.39zm-16.56-17.39l-11.5-4.76v19.76l11.5 4.76zm14.5-4.76l-11.5 4.76v19.76l11.5-4.76zm-9.12 6.9l5.5-2.5a1.5 1.5 0 0 1 1.24 2.73l-5.5 2.5a1.5 1.5 0 0 1-1.24-2.73zm0 5.5l5.5-2.5a1.5 1.5 0 0 1 1.24 2.73l-5.5 2.5a1.5 1.5 0 0 1-1.24-2.73zm0 5.5l5.5-2.5a1.5 1.5 0 0 1 1.24 2.73l-5.5 2.5a1.5 1.5 0 0 1-1.24-2.73zM397 1404c.22 0 .43.05.62.13l5.5 2.5a1.5 1.5 0 0 1-1.24 2.74l-5.5-2.5a1.5 1.5 0 0 1 .62-2.87zm0 5.5c.22 0 .43.05.62.13l5.5 2.5a1.5 1.5 0 1 1-1.24 2.73l-5.5-2.5a1.5 1.5 0 0 1 .62-2.86zm0 5.5c.22 0 .43.05.62.13l5.5 2.5a1.5 1.5 0 0 1-1.24 2.74l-5.5-2.5a1.5 1.5 0 0 1 .62-2.87z"/><path id="xj56a" d="M1220 1250h-9.5v2.5l2 2v.5h-13v-.5l2-2v-2.5h-9.5a1.5 1.5 0 0 1-1.5-1.5v-20c0-.83.67-1.5 1.5-1.5h28c.83 0 1.5.67 1.5 1.5v20c0 .83-.67 1.5-1.5 1.5zm-.5-21h-27v17h27zm-16.5 7c.41 0 .79.17 1.06.44l.94.94 2.94-2.94a1.5 1.5 0 1 1 2.12 2.12l-4 4a1.5 1.5 0 0 1-2.12 0l-2-2a1.5 1.5 0 0 1 1.06-2.56z"/><path id="ymuca" d="M463.09 2060.2v4.12s-3.04-.3-3.8.86c-.41.64-.17 2.5-.2 3.84h4.02c-.34 1.56-.58 2.62-.83 3.98h-3.22v12.8h-5.58v-12.75h-2.37v-4.03h2.34c.13-2.95.17-5.87 1.63-7.35 1.65-1.67 3.22-1.47 8-1.47z"/><path id="qj4ca" d="M822 1412.5a1.5 1.5 0 0 1-2.52 1.1l-13.44-13.44-.04-.04-13.45 13.45a1.5 1.5 0 1 1-2.1-2.15l14.47-14.46a1.5 1.5 0 0 1 1.08-.46h.09a1.97 1.97 0 0 1 .07 0c.37.05.7.22.94.48l5.9 5.9v-1.38a1.5 1.5 0 1 1 3 0v4.38l5.6 5.6c.24.27.4.62.4 1.02zm-3 2.5v10.5c0 .83-.67 1.5-1.5 1.5h-3v-12h-6v12h-14a1.5 1.5 0 0 1-1.5-1.5V1415l13-13zm-15.5 0h-6v6h6z"/><path id="30x8a" d="M632.7 2085.8h-19.2a3.2 3.2 0 0 1-3.2-3.2v-19.2a3.2 3.2 0 0 1 3.2-3.2h19.2a3.2 3.2 0 0 1 3.2 3.2v19.2a3.2 3.2 0 0 1-3.2 3.2zm-9.6-17.76c-2 0-3.71 1.18-4.5 2.88l-.02.05c-.05.1-.1.22-.13.33l-.06.15a5 5 0 0 0-.1.34c0 .05-.02.1-.04.16l-.06.37-.02.15a4.96 4.96 0 1 0 9.86 0l-.02-.15a4.98 4.98 0 0 0-.06-.37l-.04-.16a5 5 0 0 0-.1-.34l-.06-.15-.13-.33c0-.01 0-.03-.02-.05a4.96 4.96 0 0 0-4.5-2.88zm9.92-3.68c0-.7-.57-1.28-1.28-1.28h-2.56c-.7 0-1.28.57-1.28 1.28v2.56c0 .7.57 1.28 1.28 1.28h2.56c.7 0 1.28-.57 1.28-1.28zm0 6.56h-2.36a7.84 7.84 0 1 1-15.12 0h-2.36v10.72c0 .7.57 1.28 1.28 1.28h17.28c.7 0 1.28-.57 1.28-1.28z"/><path id="71o7a" d="M821.5 1258h-29a1.5 1.5 0 0 1-1.5-1.5v-29c0-.83.67-1.5 1.5-1.5h29c.83 0 1.5.67 1.5 1.5v29c0 .83-.67 1.5-1.5 1.5zm-1.5-29h-26v26h26zm-23.78 13.24l4-2.5a1.5 1.5 0 0 1 1.62.03l6.64 4.42 7.63-5.4c.25-.18.56-.28.89-.28a1.5 1.5 0 0 1 .88 2.71l-8.5 6a1.5 1.5 0 0 1-1.74.01l-6.66-4.43-3.13 1.95a1.5 1.5 0 0 1-1.63-2.52z"/><path id="lr2ua" d="M1561.8 52.15a1.65 1.65 0 0 1-2.82 1.17l-4.83-4.84a6.6 6.6 0 1 1 2.33-2.33l4.84 4.83c.3.3.48.71.48 1.17zm-11-14.3a4.95 4.95 0 1 0 0 9.9 4.95 4.95 0 0 0 0-9.9z"/><path id="oqbqa" d="M566.05 2076.85l-.64 2.56c-.21.85-.4 1.7-.71 2.47a12.65 12.65 0 0 1-2.05 3.53c-.57.66-.45.4-.62.36-.14-.03-.15-.16-.17-.34-.14-1.02-.05-2.2 0-3.34.06-1.3.34-2.4.6-3.48l1.43-6.16c.03-.14.12-.37.09-.44a6.41 6.41 0 0 1-.43-1.7c-.07-.7-.02-1.35.14-1.95.27-1.06.91-2 1.9-2.34a2.18 2.18 0 0 1 1.73.14c.43.25.73.66.86 1.24.15.62.04 1.35-.08 1.9-.26 1.21-.61 2.13-.93 3.3-.16.59-.34 1.19-.2 1.81.14.58.44.98.86 1.28.42.31.92.48 1.62.45 1.23-.04 2.08-.82 2.65-1.56a9.27 9.27 0 0 0 1.68-4.69c.06-.61.11-1.32.07-2.01a5.48 5.48 0 0 0-1.13-3.12 5.28 5.28 0 0 0-2.51-1.71 8.33 8.33 0 0 0-3.75-.23 6.64 6.64 0 0 0-4.91 3.53c-.5.95-.84 2.05-.84 3.4 0 1.06.26 1.87.68 2.5.13.21.32.38.45.6.19.33-.02.82-.12 1.17-.1.43-.12 1.01-.61 1.02-.2 0-.47-.14-.64-.24-1.3-.72-2.1-2.03-2.42-3.74a8.93 8.93 0 0 1 0-3.23 9.25 9.25 0 0 1 4.4-6.15 10.45 10.45 0 0 1 3.9-1.34c.5-.08 1.03-.1 1.6-.13 1.67-.08 3.19.3 4.33.8a8.85 8.85 0 0 1 2.98 2.15 8.12 8.12 0 0 1 1.84 3.31c.2.7.4 1.43.4 2.29 0 .85-.19 1.61-.31 2.37-.48 2.82-1.82 5.14-3.84 6.45a6.64 6.64 0 0 1-4 1.1 4.6 4.6 0 0 1-1.98-.58c-.54-.3-1-.68-1.32-1.25z"/><path id="8i3da" d="M1501.73 40.66l-2.48 5.5a.82.82 0 0 1-.7.49l-7.12.47.4 1.18h7.77a1.65 1.65 0 1 1-1.65 1.65h-7.7a1.65 1.65 0 1 1-1.65-1.65h1.5l-3.19-9.08h-1.89a.83.83 0 0 1 0-1.65h2.48c.36 0 .66.24.78.56l.48 1.37h12.21a.82.82 0 0 1 .76 1.16zm-12.4.49l1.53 4.36 7.1-.48 1.74-3.88z"/><path id="wsv3a" d="M1220.5 1428h-29a1.5 1.5 0 0 1-1.5-1.5v-29c0-.83.67-1.5 1.5-1.5h29c.83 0 1.5.67 1.5 1.5v29c0 .83-.67 1.5-1.5 1.5zm-1.5-29h-26v26h26zm-17 1.5a1.5 1.5 0 0 1 0 3h-4.5v4.5a1.5 1.5 0 1 1-3 0v-7.5zm-7.5 15.5a1.5 1.5 0 1 1 3 0v4.5h4.5a1.5 1.5 0 1 1 0 3h-7.5zm15.5-15.5h7.5v7.5a1.5 1.5 0 1 1-3 0v-4.5h-4.5a1.5 1.5 0 1 1 0-3zm0 20h4.5v-4.5a1.5 1.5 0 0 1 3 0v7.5h-7.5a1.5 1.5 0 0 1 0-3z"/><path id="qpc1a" d="M516.51 2062.6a5.4 5.4 0 0 1 4.15 1.65 8.5 8.5 0 0 0 2.7-.9l.65-.37a5.25 5.25 0 0 1-1.7 2.47c-.18.14-.36.32-.58.4v.02c1.14-.01 2.08-.52 2.97-.8a8.5 8.5 0 0 1-1.78 2.05l-.82.65c.01 1.21-.02 2.36-.24 3.38-1.32 5.9-4.8 9.9-10.3 11.6-1.97.62-5.16.88-7.42.32a19.2 19.2 0 0 1-3.1-1.01c-.52-.23-1.01-.49-1.48-.77l-.46-.28c.51.01 1.1.15 1.68.06.51-.08 1.02-.06 1.5-.16 1.19-.26 2.24-.6 3.15-1.14.44-.26 1.1-.56 1.42-.93a5.28 5.28 0 0 1-4.9-3.64c.52.05 2 .19 2.35-.1a3.85 3.85 0 0 1-1.71-.7 5.05 5.05 0 0 1-2.48-4.5 5.77 5.77 0 0 0 1.64.56c.18.05.52.15.72.07h-.03c-.26-.3-.7-.5-.96-.84a5.37 5.37 0 0 1-1.18-4.76c.14-.51.35-.96.57-1.37l.02.01c.1.22.33.37.48.55.45.56 1 1.06 1.56 1.5a15.46 15.46 0 0 0 6.42 3.1c.7.17 1.52.3 2.36.3-.24-.68-.16-1.8.02-2.46a5.18 5.18 0 0 1 4.14-3.88l.64-.08z"/></defs><symbol id="alarm" viewBox="0 0 32 31"><g><g transform="translate(-390 -1227)"><use xlink:href="#kfpua"/></g></g></symbol><symbol id="book" viewBox="0 0 32 32"><g><g transform="translate(-391 -1396)"><use xlink:href="#u4p6a"/></g></g></symbol><symbol id="computer" viewBox="0 0 32 28"><g><g transform="translate(-1190 -1227)"><use xlink:href="#xj56a"/></g></g></symbol><symbol id="facebook" viewBox="0 0 12 26"><g><g transform="translate(-451 -2060)"><use xlink:href="#ymuca"/></g></g></symbol><symbol id="home" viewBox="0 0 32 31"><g><g transform="translate(-790 -1396)"><use xlink:href="#qj4ca"/></g></g></symbol><symbol id="instagram" viewBox="0 0 26 26"><g><g transform="translate(-610 -2060)"><use xlink:href="#30x8a"/></g></g></symbol><symbol id="line-graph" viewBox="0 0 32 32"><g><g transform="translate(-791 -1226)"><use xlink:href="#71o7a"/></g></g></symbol><symbol id="magnifying-glass" viewBox="0 0 18 18"><g><g transform="translate(-1544 -36)"><use xlink:href="#lr2ua"/></g></g></symbol><symbol id="pinterest" viewBox="0 0 20 26"><g><g transform="translate(-558 -2060)"><use xlink:href="#oqbqa"/></g></g></symbol><symbol id="shopping-cart" viewBox="0 0 18 15"><g><g transform="translate(-1484 -37)"><use xlink:href="#8i3da"/></g></g></symbol><symbol id="target" viewBox="0 0 32 32"><g><g transform="translate(-1190 -1396)"><use xlink:href="#wsv3a"/></g></g></symbol><symbol id="twitter" viewBox="0 0 26 22"><g><g transform="translate(-499 -2062)"><use xlink:href="#qpc1a"/></g></g></symbol></svg>