<svg xmlns="http://www.w3.org/2000/svg" viewBox="0 0 474 474"><circle cx="237" cy="237" r="237" fill="red"/><path d="M214.4 252.4l-6.7-100.2c-1.3-19.5-1.9-33.5-1.9-42 0-11.6 3-20.6 9.1-27.1s14.1-9.7 23.9-9.7c12 0 20 4.2 24.1 12.4 4 8.3 6.1 20.3 6.1 35.9 0 9.2-.5 18.6-1.5 28l-9 103.1c-1 12.3-3.1 21.7-6.3 28.2-3.2 6.5-8.5 9.8-15.9 9.8-7.5 0-12.8-3.2-15.7-9.5-2.8-6.2-4.9-15.9-6.2-28.9zM237.6 390c-8.5 0-15.9-2.7-22.3-8.3-6.3-5.5-9.5-13.2-9.5-23.1 0-8.6 3-16 9.1-22.1s13.5-9.1 22.3-9.1 16.3 3 22.5 9.1 9.3 13.4 9.3 22.1c0 9.8-3.1 17.4-9.4 23s-13.6 8.4-22 8.4z" fill="#fff"/></svg>