<svg id="Capa_1" xmlns="http://www.w3.org/2000/svg" viewBox="0 0 331.7 331.7"><style>.st1{fill:#fff}</style><circle cx="165.9" cy="165.9" r="165.9" fill="red"/><path class="st1" d="M87 139.7v-32.5l17.9 33.5c4.5 8.1 17.6 5.7 17.6-.9v-65c0-7.9-16.9-8-16.9 0v32.3c-18.4-35.7-17.7-38.4-27-38.4-5 0-8.4 2.4-8.4 6v64.9c-.1 8.2 16.8 8 16.8.1zM138.3 145.7h35.6c4 0 6-3.8 6-7.5 0-4.5-2.5-7.7-6-7.7h-26.4v-16.3h13.3c8.1 0 7.9-14.1 0-14.1h-13.3V84h26.4c8 0 8.1-15.3 0-15.3h-35.6c-4.4 0-7.6 2.5-7.6 6v64.9c0 3.6 3.2 6.1 7.6 6.1zM256.5 72.7L242.7 120l-6.8-27.8c-1.6-6.8-14.8-6.8-16.5 0l-6.8 27.8-13.8-47.3c-.7-2.6-2.9-4-6.2-4-4.8 0-11.7 3.4-9.9 8.9l19.8 62.9c1.1 3.5 5.1 5.8 10.3 5.8 4.1 0 9.2-1.5 10.2-5.9l4.6-19.2 4.5 19.2c1.8 7.6 17.9 8.1 20.5.1C274 72.6 272.7 77 272.7 75.8c.2-6.6-14.2-10.5-16.2-3.1zM77.9 165.7c-3.2 0-4.6 1.7-5.6 3.6L58.7 195l-13.5-25.7c-1.3-2.6-3-3.7-5.7-3.7-5.1 0-12.3 3.7-10.1 9.3L50.2 211v25.5c0 4 4.2 6 8.4 6 5 0 8.4-2.5 8.4-6v-25.2c0-.1 0-.2.1-.2 22.5-39.2 21.2-36.4 21.2-38.2.1-4.4-6-7.2-10.4-7.2zM134.7 181c3.5 0 6-3.2 6-7.7 0-3.7-2.1-7.5-6-7.5H99.1c-4.4 0-7.6 2.5-7.6 6v64.9c0 3.5 3.2 6 7.6 6h35.6c4 0 6-3.8 6-7.5 0-4.5-2.5-7.7-6-7.7h-26.4v-16.3h13.3c3.9 0 6-3.6 6-6.9 0-4.1-2.6-7.1-6-7.1h-13.3V181h26.4zM184.9 170.9c-2.3-7.8-18.1-7.7-20.4 0l-19.3 62.9v.1c-.1.5-.2 1-.2 1.4 0 4.7 6 7.3 10.1 7.3 4.5 0 5.9-2.5 6.3-4l3.4-11.9h20l3.4 11.9c.4 1.5 1.7 4 6.3 4 4.2 0 10.1-2.8 10.1-7.3 0-.5-.1-.9-.2-1.3l-19.5-63.1zm-4.1 41.8h-12.3l6.2-21.7 6.1 21.7zM249.4 209.6c7.9-3.4 12.3-10.7 12.3-21.1 0-14.9-8.9-22.8-25.6-22.8h-19.8c-3.4 0-6.1 2.6-6.1 5.9v65c0 8 16.9 8.1 16.9 0v-24.2h5.3l13.7 26.6c1.3 2.6 3.6 4.2 6.2 4.2 6.6 0 12.2-7.2 9.2-11.4l-12.1-22.2zm-4.6-19.9c0 10.4-7.2 8.7-17.9 8.7V181c10.6 0 17.9-1.7 17.9 8.7zM294.1 225.8c-4.9 0-8.7 3.8-8.7 8.7 0 4.8 3.9 8.7 8.7 8.7 4.7 0 8.7-4 8.7-8.7 0-4.7-4-8.7-8.7-8.7zM287.1 216.8c0 7.9 13.7 7.4 13.7 0 0-13.1 1.4-30.8 1.4-44 0-9.8-16.4-10-16.4 0 0 13.1 1.3 30.9 1.3 44z"/></svg>