<svg id="Слой_1" xmlns="http://www.w3.org/2000/svg" viewBox="0 0 483.3 483.3"><style>.st0{fill:#d7f4f1}.st2{fill:#67c67b}.st3{fill:#45a354}.st4{fill:#fff}</style><path class="st0" d="M483.3 241.6c0 115.4-80.9 211.9-189 235.9-16.9 3.8-34.6 5.8-52.6 5.8C108.2 483.3 0 375.1 0 241.6 0 108.2 108.2 0 241.6 0c18.1 0 35.7 2 52.6 5.8 108.2 24 189.1 120.5 189.1 235.8z"/><path class="st0" d="M483.3 241.6c0 115.4-80.9 211.9-189 235.9-108.1-24-189-120.5-189-235.9s80.9-211.9 189-235.9c108.1 24.1 189 120.6 189 235.9z"/><path d="M274.9 352.7V404h-66.5v-51.2" fill="#3a3d51"/><path class="st2" d="M388.1 339.6c-62.7 12-126.5 16.2-189.9 12.6-34.5-1.9-68.9-6.1-103-12.6 23.9-21.2 46.1-43.5 66.4-66.6 7.2-8.2 14.1-16.5 20.9-24.9h118.4c6.7 8.4 13.7 16.7 20.9 24.9 20.2 23.1 42.4 45.4 66.3 66.6z"/><path class="st3" d="M321.7 273c-6.9.9-13.9 1.7-20.9 2.3-39.4 3.7-79 3.7-118.4 0-7-.7-13.9-1.4-20.9-2.3 7.2-8.2 14.1-16.5 20.9-24.9h118.4c6.8 8.4 13.7 16.7 20.9 24.9z"/><path class="st3" d="M224.5 250.7s-5.9 61.9-26.3 101.6c-34.5-1.9-68.9-6.1-103-12.6 23.9-21.2 46.1-43.5 66.4-66.6 7.2-8.2 14.1-16.5 20.9-24.9h40.3l1.7 2.5z"/><path class="st2" d="M360.4 239.7c-19.8 3.8-39.6 6.6-59.6 8.5-34.3 3.2-68.8 3.6-103.2 1.2-5.1-.4-10.1-.8-15.2-1.2-20-1.9-39.8-4.7-59.6-8.5 23.9-21.1 45.6-43.6 65-67.1 5.3-6.4 10.4-12.8 15.4-19.4H280c5 6.5 10.1 13 15.3 19.4 19.6 23.4 41.3 45.9 65.1 67.1z"/><path class="st3" d="M295.4 172.6c-35.7 4.2-71.8 4.2-107.5 0 5.3-6.4 10.4-12.8 15.4-19.4h76.8c4.9 6.5 10 13 15.3 19.4z"/><path class="st3" d="M233.8 154.7s-19.2 58.3-36.1 94.6c-5.1-.4-10.1-.8-15.2-1.2-20-1.9-39.8-4.7-59.6-8.5 23.9-21.1 45.6-43.6 65-67.1 5.3-6.4 10.4-12.8 15.4-19.4H232l1.8 1.6z"/><path class="st4" d="M102.8 117c-3.4 0-6.4-2.2-7.4-5.4-1-3.1.1-6.7 2.7-8.7 5.6-4.2 13.9.9 12.4 7.9-.8 3.5-4.1 6.2-7.7 6.2z"/><path class="st2" d="M327.9 146.7c-37.8 7.2-76.3 9.6-114.5 7.3-19.4-1.2-38.7-3.6-57.9-7.3 35.5-31.5 64.4-67 86.2-104.6 21.7 37.6 50.6 73.1 86.2 104.6z"/><path class="st4" d="M126.3 192.2c-3.3 0-6.3-2.1-7.4-5.2-1.1-3.2 0-6.9 2.7-8.9 5.7-4.2 13.9 1 12.3 8-.8 3.5-4 6.1-7.6 6.1zM451 243.2c-7.1 0-10.5-9-5.2-13.7 2.6-2.3 6.5-2.6 9.4-.8 2.6 1.7 4 4.8 3.5 7.9-.6 3.8-3.9 6.6-7.7 6.6z"/><path class="st3" d="M241.6 42.1c-.3 1.4-14.6 68.5-28.3 111.8-19.4-1.2-38.7-3.6-57.9-7.3 35.6-31.4 64.4-66.9 86.2-104.5z"/><path class="st4" d="M364.9 386.7c-3.3 0-6.3-2.1-7.4-5.2-1.1-3-.2-6.4 2.2-8.5 2.4-2.1 5.9-2.6 8.7-1.1 2.9 1.5 4.7 4.7 4.3 7.9-.5 3.8-3.8 6.9-7.8 6.9zM61.8 258c-3.1 0-6-2-7.2-4.8-1.4-3.3-.3-7.2 2.6-9.3 2.7-2 6.6-2 9.3 0 2.5 1.9 3.7 5.2 2.9 8.2-.9 3.5-4.1 5.9-7.6 5.9zM92.2 303.8c-3.1 0-5.9-1.9-7.2-4.7-1.4-3.2-.5-7 2.2-9.2 5.5-4.5 13.9.4 12.7 7.4-.6 3.7-3.9 6.5-7.7 6.5zM299.1 62.5c-3.3 0-6.3-2.1-7.4-5.2-1.2-3.2 0-6.9 2.7-8.9 2.8-2 6.6-2 9.3 0 2.6 1.9 3.7 5.3 2.9 8.4-.9 3.3-4 5.7-7.5 5.7zM372.3 115.9c-7.1 0-10.6-9.2-5.1-13.8 2.4-2.1 6-2.4 8.8-.9 2.8 1.5 4.5 4.7 4.1 7.9-.6 3.8-3.9 6.8-7.8 6.8zM292.8 219.8c-3.1 0-6-1.9-7.2-4.8-1.3-3.2-.3-7.1 2.4-9.2 5.5-4.3 13.8.6 12.5 7.5-.6 3.7-3.9 6.5-7.7 6.5zM394.2 278.7c-3.3 0-6.3-2.1-7.4-5.2-1.1-3.1-.1-6.7 2.5-8.8 5.7-4.5 14.1.8 12.5 7.9-.8 3.6-4 6.1-7.6 6.1zM201.9 322.1c-3.3 0-6.3-2.1-7.4-5.2-1.1-3.1-.1-6.7 2.5-8.8 5.6-4.5 14.1.8 12.5 7.9-.7 3.5-3.9 6.1-7.6 6.1zM228.1 130c-7.3 0-10.6-9.5-4.9-14 5.6-4.4 14 .7 12.5 7.8-.7 3.6-4 6.2-7.6 6.2z"/></svg>