<svg xmlns="http://www.w3.org/2000/svg" xmlns:xlink="http://www.w3.org/1999/xlink" id="Слой_1" viewBox="0 0 229.3 230.3"><style>.st1{fill:#22a7cc}.st2{fill:#fff}</style><defs><path id="SVGID_1_" d="M-19.1-24.8h278.7v280H-19.1z"/></defs><clipPath id="SVGID_2_"><use overflow="visible" xlink:href="#SVGID_1_"/></clipPath><g clip-path="url(#SVGID_2_)" transform="matrix(1.33333 0 0 -1.33333 0 280)"><path d="M172.6 123.6c0-47.7-38.6-86.3-86.3-86.3S0 75.9 0 123.6s38.6 86.3 86.3 86.3 86.3-38.7 86.3-86.3" class="st1"/><path d="M86.4 37.3C38.7 37.3.1 75.9.1 123.6s38.6 86.3 86.3 86.3" class="st1"/><path d="M94.3 174.4c5.1.4 8.2-4.8 8.2-8.7.5-4.7-4.6-8.7-8.2-8.7-4.8-.3-8.2 4.8-8.2 8.7 0 3.9 3.4 8.4 8.2 8.7m-46.1-24.2h50.4c.4 0 .7 0 1.1.1.9.1 1.7.5 2.4 1.2l10.6 11.2c1.6 1.7 1.6 4.4 0 6.1L102 180c-.7.7-1.5 1.1-2.4 1.2-.3.1-.7.1-1.1.1H38.7c-2.9 0-5.2-2.4-5.2-5.5v-20.2c0-3 2.3-5.5 5.2-5.5h4.5V75.6h19.2V80H48.2v39.7h14.3v4.4H48.2v26.1z" class="st2"/><path d="M123.7 131.6c5.1.4 8.2-4.8 8.2-8.7.5-4.7-4.6-8.7-8.2-8.7-4.8-.3-8.2 4.8-8.2 8.7.1 3.9 3.4 8.4 8.2 8.7M63.1 133v-20.2c0-3 2.3-5.5 5.2-5.5h59.8c.4 0 .7 0 1.1.1.9.1 1.7.5 2.4 1.2l10.6 11.2c1.6 1.7 1.6 4.4 0 6.1l-10.6 11.2c-.7.7-1.5 1.1-2.4 1.2-.3.1-.7.1-1.1.1H68.3c-2.9.1-5.2-2.3-5.2-5.4m60.6-61.6c-4.8-.3-8.2 4.8-8.2 8.7 0 3.9 3.3 8.4 8.2 8.7 5.1.4 8.2-4.8 8.2-8.7.5-4.8-4.5-8.7-8.2-8.7m7.8 22.9c-.7.7-1.5 1.1-2.4 1.2-.3.1-.7.1-1.1.1H68.2c-2.9 0-5.2-2.4-5.2-5.5V69.9c0-3 2.3-5.5 5.2-5.5H128c.4 0 .7 0 1.1.1.9.1 1.7.5 2.4 1.2L142 77c1.6 1.7 1.6 4.4 0 6.1l-10.5 11.2z" class="st2"/></g></svg>