<svg viewBox="-11 0 512 512" xmlns="http://www.w3.org/2000/svg"><path d="M490 267c0 135.309-109.691 245-245 245S0 402.309 0 267 109.691 22 245 22s245 109.691 245 245zm0 0" fill="#91e0e8"/><path d="M60.45 259.477v49.125c0 2.75 2.25 5 5 5h139.448c2.75 0 5-2.25 5-5v-49.125zm0 0" fill="#ea2a3d"/><path d="M89.527 259.477h91.297v54.125H89.527zm0 0" fill="#b7092b"/><path d="M118.953 259.477h32.442v54.125h-32.442zm0 0" fill="#a00026"/><path d="M53.125 260.477a6.06 6.06 0 0 1-6.059-6.059V88.105C47.066 39.523 86.594 0 135.176 0s88.105 39.523 88.105 88.105v52.336a6.034 6.034 0 0 0 3.742 5.594 5.96 5.96 0 0 0 2.313.461 6.008 6.008 0 0 0 4.285-1.773l18.543-18.54c5.586-5.59 13.016-8.667 20.922-8.667s15.336 3.078 20.922 8.668c5.59 5.59 8.672 13.02 8.672 20.921 0 7.907-3.082 15.336-8.668 20.926l-68.957 68.953a6.013 6.013 0 0 0-1.774 4.282v13.152a6.056 6.056 0 0 1-6.054 6.059zm0 0" fill="#fe3745"/><path d="M72 254.418V88.105C72 43.758 104.941 6.961 147.64.887A88.668 88.668 0 0 0 135.177 0c-48.582 0-88.11 39.523-88.11 88.105v166.313a6.06 6.06 0 0 0 6.059 6.059h24.934A6.057 6.057 0 0 1 72 254.418zm0 0" fill="#ea2a3d"/><g fill="#fff"><path d="M183.738 146.086h-40.152l17.617 18.035c1.11 1.14 3.324 2.07 4.918 2.07h34.36c1.593 0 1.984-.93.874-2.07zm0 0M183.738 141.258l17.614-18.035c1.113-1.141.718-2.07-.872-2.07h-34.363c-1.59 0-3.804.933-4.914 2.07l-17.617 18.035zm0 0M86.61 141.258h40.152l-17.614-18.035c-1.113-1.141-3.328-2.07-4.918-2.07H69.867c-1.59 0-1.984.933-.87 2.07zm0 0M86.61 146.086L68.995 164.12c-1.113 1.14-.719 2.07.871 2.07h34.363c1.59 0 3.805-.93 4.918-2.07l17.614-18.035zm0 0M112.688 78.047v34.36c0 1.593.933 3.808 2.07 4.917l18.004 17.582V94.754l-18-17.578c-1.14-1.114-2.075-.723-2.075.87zm0 0M157.73 112.406v-34.36c0-1.593-.933-1.984-2.074-.87L137.59 94.824v40.149l18.066-17.649c1.14-1.11 2.074-3.324 2.074-4.918zm0 0M112.688 174.938V209.3c0 1.59.933 1.984 2.07.87l18.004-17.581v-40.153l-18.004 17.583c-1.137 1.113-2.07 3.324-2.07 4.917zm0 0M137.59 152.371v40.149l18.066 17.652c1.14 1.113 2.074.719 2.074-.871v-34.363c0-1.59-.933-3.805-2.074-4.918zm0 0"/></g><path d="M248.383 473.875v38.082c47.015-.637 90.828-14.52 127.887-38.082zm0 0" fill="#02af8e"/><path d="M248.383 473.875v38.082a247.229 247.229 0 0 0 24.617-1.57v-36.512zm0 0" fill="#159e97"/><path d="M479.434 338.348c-5.215-4.164-11.641-6.434-18.414-6.434-7.907 0-15.336 3.078-20.926 8.668l-18.54 18.54a6.028 6.028 0 0 1-6.6 1.312 6.03 6.03 0 0 1-3.74-5.594v-52.336c0-48.582-39.526-88.106-88.109-88.106S235 253.922 235 302.504v166.312a6.062 6.062 0 0 0 6.059 6.059h133.636c49.637-31.035 87.36-79.348 104.739-136.527zm0 0" fill="#28a5a5"/><path d="M255.352 302.59l4.648 3.367v-3.453c0-44.34 32.922-81.125 75.605-87.215a88.004 88.004 0 0 0-12.5-.89c-48.582 0-88.105 39.523-88.105 88.105v7.723l10.547-7.637a8.355 8.355 0 0 1 9.805 0zm0 0M250.445 319.68L235 330.867v104.38l12.54-33.642c.96-2.574 2.53-2.574 3.491 0l8.969 24.06v-99.063zm0 0" fill="#0f9390"/><path d="M290.031 401.605c-.96-2.574-2.531-2.574-3.492 0l-18.426 49.43 8.887 23.84h22.887l8.726-23.418zm0 0M386.441 450.988l-18.41-49.383c-.957-2.574-2.531-2.574-3.492 0l-18.367 49.278 8.945 23.992h19.578c1.25-.781 2.493-1.578 3.73-2.383zm0 0" fill="#60d882"/><path d="M261.5 368.965c-.824 1.43-.824 3.765 0 5.195l8.598 14.89c.824 1.43 2.175 1.43 3 0l8.597-14.89c.828-1.43.828-3.765 0-5.195l-8.597-14.895c-.825-1.43-2.176-1.43-3 0zm0 0" fill="#fff"/><path d="M299.34 368.965c-.824 1.43-.824 3.765 0 5.195l8.598 14.89c.824 1.43 2.175 1.43 3 0l8.597-14.89c.824-1.43.824-3.765 0-5.195l-8.597-14.895c-.825-1.43-2.176-1.43-3 0zm0 0" fill="#60d882"/><path d="M337.18 368.965c-.828 1.43-.828 3.765 0 5.195l8.597 14.89c.825 1.43 2.176 1.43 3 0l8.598-14.89c.824-1.43.824-3.765 0-5.195l-8.598-14.895c-.824-1.43-2.175-1.43-3 0zm0 0" fill="#fff"/><path d="M375.016 368.965c-.825 1.43-.825 3.765 0 5.195l8.601 14.89c.824 1.43 2.172 1.43 3 0l8.598-14.89c.824-1.43.824-3.765 0-5.195l-8.598-14.895c-.828-1.43-2.176-1.43-3 0zm0 0" fill="#60d882"/><path d="M251.031 401.605c-.96-2.574-2.531-2.574-3.492 0L235 435.25v33.566a6.06 6.06 0 0 0 6.059 6.059h37.285zm0 0" fill="#ffd782"/><path d="M247.656 468.816V435.25l7.957-21.352-4.582-12.289c-.96-2.578-2.531-2.578-3.492 0L235 435.25v33.566a6.06 6.06 0 0 0 6.059 6.059h12.656a6.06 6.06 0 0 1-6.059-6.059zm0 0" fill="#ffc987"/><path d="M356.344 474.875l-27.313-73.266c-.96-2.578-2.531-2.578-3.492 0l-27.312 73.266zm0 0M420.55 437.875l-13.519-36.27c-.96-2.574-2.531-2.574-3.492 0l-26.848 72.02a245.984 245.984 0 0 0 43.86-35.75zm0 0" fill="#ffd782"/><path d="M411.215 308.492l-8.152-5.902a8.35 8.35 0 0 0-9.805 0l-19.719 14.281-19.719-14.281a8.35 8.35 0 0 0-9.804 0l-19.72 14.277-19.714-14.277a8.355 8.355 0 0 0-9.809 0l-19.71 14.277-19.715-14.277a8.35 8.35 0 0 0-9.805 0L235 310.227v20.64l15.445-11.187 19.715 14.28a8.362 8.362 0 0 0 9.805 0l19.715-14.28 19.715 14.28a8.362 8.362 0 0 0 9.804 0l19.719-14.28 19.719 14.28a8.362 8.362 0 0 0 9.804 0l19.72-14.28 13.054 9.453zm0 0" fill="#60d882"/><path d="M409.586 167.27l-22.117-12.77 22.117-12.77c2.379-1.375 3.203-4.449 1.828-6.828l-3.64-6.304a5.014 5.014 0 0 0-6.829-1.828l-22.113 12.765V114c0-2.75-2.25-5-5-5h-7.277c-2.75 0-5 2.25-5 5v25.535l-22.117-12.765c-2.38-1.375-5.454-.551-6.829 1.828l-3.64 6.304c-1.375 2.38-.551 5.453 1.832 6.828l22.113 12.77-22.113 12.77c-2.383 1.375-3.207 4.449-1.832 6.828l3.64 6.304c1.375 2.38 4.45 3.203 6.829 1.828l22.117-12.765V195c0 2.75 2.25 5 5 5h7.277c2.75 0 5-2.25 5-5v-25.535l22.113 12.765a5.014 5.014 0 0 0 6.828-1.828l3.641-6.304c1.375-2.38.55-5.453-1.828-6.828zm0 0M187.672 388.242l-15.14-8.742 15.14-8.742c2.379-1.375 3.203-4.45 1.828-6.828l-1.36-2.36c-1.374-2.379-4.449-3.203-6.831-1.828l-15.137 8.742V351c0-2.75-2.25-5-5-5h-2.723c-2.75 0-5 2.25-5 5v17.48l-15.14-8.738c-2.383-1.375-5.457-.55-6.832 1.828l-1.36 2.36c-1.375 2.379-.55 5.453 1.828 6.828l15.14 8.742-15.14 8.738c-2.379 1.375-3.203 4.45-1.828 6.832l1.36 2.356a5.016 5.016 0 0 0 6.832 1.832l15.14-8.742V408c0 2.75 2.25 5 5 5h2.723c2.75 0 5-2.25 5-5v-17.48l15.137 8.738c2.382 1.375 5.457.55 6.832-1.828l1.359-2.36c1.375-2.379.55-5.453-1.828-6.828zm0 0" fill="#2da1dc"/></svg>