<svg xmlns="http://www.w3.org/2000/svg" viewBox="0 0 640.2 435"><path d="M624.3 39.3l15.8 13.3c-1.4 3.2-4.9 6.8-10.6 10.9-2.8 1.2-4.3 2.4-4.3 3.7 0 .4.7 1.4 2.1 3-90.8 52.4-167.9 101.6-231.3 147.6 85.2 64.5 137.3 101.5 156.3 110.7-3.5 11.3-11.3 20-23.2 26-4.2 2-9.5 4.4-15.9 7.2-11.2 5.3-16.8 8.1-16.8 8.5v.6l3.2 6.6c-2.9.8-5.4 2.2-7.4 4.2-7.8 5.3-16.2 8.9-25.4 10.9-2.8 0-6.3-1.2-10.6-3.6-3.5-1.5-7-2.9-10.5-4.2-4.3-1.6-6.3-2.4-6.3-2.4-.8-.4-1.4-.6-2.2-.6 0 0-1.1.4-3.2 1.2-14.8 10.5-28.1 17.2-40.1 20-2.1 0-4.9-.6-8.4-1.8-22.5-13.3-46.5-30.6-71.8-52-21.1-18.1-36.9-31.1-47.6-38.8l-10.5 8.5-72.9 54.5c-9.2 6.9-35.2 27.5-78.2 61.7H90.8l-20.1-12.7c.7-1.6 1.4-3.2 2.2-4.9l2.1-3.6c0-2.4-2.1-3.6-6.3-3.6s-10.5 1.3-19 3.7c-.8 0-2.8.6-6.3 1.8-7.8-2.4-19-10.5-33.8-24.2-4.2-3.6-6.3-6.1-6.3-7.3 0-.8 1.8-2.6 5.3-5.5 4.9-4.5 7.4-8.1 7.4-10.9 0-.8-3.5-5.5-10.5-13.9l-5.5-9 51.7-38.1 115.2-76.2c2.8-2.5 5.7-4.5 8.4-6.1-45.7-45.6-83-90.7-112-135.6C57 78 53.1 70.3 51.7 65.9c9.9-8.9 22.9-17.8 39.1-26.7 7 3.2 12.3 5.7 15.8 7.3 2.8 2.8 5.6 4.2 8.4 4.2 7 0 11.6-3 13.7-9.1 2.2-11.3 10.9-17.2 26.5-17.5 4.9 0 11.6 2.6 20 7.8 44.4 41.6 87.1 78.5 127.8 110.8C394.8 85.1 470.5 40.6 530.4 9.1 542.4 3 549 0 550.5 0c3.5 0 14.1 5 31.7 15.1l6.3 4.9c0 .8-1.1 2.2-3.2 4.3-1.4.8-2.1 1.6-2.1 2.4 0 1.2 6.3 4.4 18.9 9.7L618 34l6.3 5.3z" fill="#bbdefb"/></svg>