<svg id="Слой_1" xmlns="http://www.w3.org/2000/svg" viewBox="0 0 432 455"><style>.st0{fill:#b24018}.st1{fill:#cceefa}.st2{fill:#2f70a9}</style><path class="st0" d="M432 200h-28.7l26.3-26.3-11.3-11.3-45 45-5.4-32.7-15.8 2.6 7.3 43.9-53.1 53.1 11.3 11.3 69.7-69.7H432V200zM79.9 177.3l-15.8-2.6-5.4 32.7-45-45-11.4 11.3L28.7 200H0v16h44.7l69.7 69.7 11.3-11.3-53.1-53.1 7.3-44z"/><path class="st1" d="M344 328c0 70.7-57.3 128-128 128S88 398.7 88 328s57.3-128 128-128 128 57.3 128 128z"/><path class="st1" d="M296 152c0 44.2-35.8 80-80 80s-80-35.8-80-80 35.8-80 80-80 80 35.8 80 80z"/><path class="st2" d="M232 304c0 8.8-7.2 16-16 16s-16-7.2-16-16 7.2-16 16-16 16 7.2 16 16z"/><path d="M232 176c0 8.8-7.2 16-16 16s-16-7.2-16-16 7.2-16 16-16 16 7.2 16 16z" fill="#ec7259"/><path class="st2" d="M232 368c0 8.8-7.2 16-16 16s-16-7.2-16-16 7.2-16 16-16 16 7.2 16 16z"/><path d="M152 0h128v82H152V0z" fill="#f8ac01"/><path class="st0" d="M152 41h128v41H152V41z"/><path d="M176 136h16v16h-16v-16zM240 136h16v16h-16v-16z"/><path d="M264 232h48v72h-48v-72z" fill="#32ce9e"/><path d="M120 192h192v48H120v-48z" fill="#4d5f88"/><path d="M128 72h176v8.3c0 13.1-10.6 23.7-23.7 23.7H151.7c-13.1 0-23.7-10.6-23.7-23.7V72z" fill="#ffc215"/></svg>