<svg viewBox="-1 0 511 512" xmlns="http://www.w3.org/2000/svg"><path d="M308.555 8.559a26.743 26.743 0 0 0-7.442-1.059H141.297c-14.727 0-26.649 11.926-26.649 26.648v69.11l17.758 10.883 17.438-9.45 35.84 17.118 35.52-18.551 36.163 18.226 31.985-15.543zm0 0" fill="#7aa544"/><path d="M221.203 190.906l36.164 16.79 31.985-15.395 28.09-43.047-28.09-43.313-31.985 15.543-36.164-18.226-35.52 18.547-35.84-17.114-17.437 9.45-17.758 27.515v47.184l16.79 9.492 18.726-7.426 33.906 16.469zm0 0" fill="#d64655"/><path d="M206.059 464.508l-31.496 21.472a108.847 108.847 0 0 1-14.192 8.176L57.242 308.027l32.906-22.422a56.092 56.092 0 0 0 24.5-46.351v-12.016l16.79-28.902 18.726-7.43 33.906 16.469 37.133-16.469 36.164 16.793 31.98-15.398v46.953l44.06 44.055zm0 0" fill="#7aa544"/><path d="M160.371 494.152a106.065 106.065 0 0 1-45.723 10.348c-34.058 0-67.52-16.293-88.152-46.555C-6.652 409.316 5.902 343.027 54.531 309.88l2.711-1.852c31.242 14.938 60.137 41.938 79.996 78.11 19.594 35.676 26.938 73.988 23.133 108.015zm0 0" fill="#d64655"/><path d="M193.586 137.285l27.617-14.55 27.621 14.55a16.963 16.963 0 0 0 15.809 0l24.719-13.023 14.207-21.008-14.207-16.375c-1.73.297-3.422.863-5.02 1.7l-27.605 14.55-27.618-14.55a16.963 16.963 0 0 0-15.808 0l-27.621 14.55-27.606-14.55a16.97 16.97 0 0 0-15.867.03l-27.559 14.649v38.398l35.551-18.898 27.578 14.527a16.963 16.963 0 0 0 15.809 0zm0 0M193.586 222.871l27.617-14.55 27.621 14.55a16.963 16.963 0 0 0 15.809 0l24.719-13.023 14.207-18.942-14.207-18.445c-1.73.3-3.422.863-5.016 1.703l-27.61 14.55-27.617-14.55a16.963 16.963 0 0 0-15.808 0l-27.617 14.55-27.61-14.55a16.98 16.98 0 0 0-15.867.027l-27.559 14.649v38.398L150.2 208.34l27.578 14.531a16.963 16.963 0 0 0 15.809 0zm0 0" fill="#cacfd7"/><path d="M502.465 227.238v72.496l-64.488 125.77-88.711 60.473a108.402 108.402 0 0 1-14.192 8.175L231.945 308.027l32.907-22.422a56.092 56.092 0 0 0 24.5-46.351v-12.016l16.789-28.902 18.726-7.43 33.906 16.469 37.133-16.469L432.07 207.7l34.875-16.793 23.895 8.82zm0 0" fill="#8bbe59"/><path d="M502.465 141.656v47.184l-11.625 10.887-23.895-8.82-34.875 16.792-36.164-16.793-37.133 16.469-33.906-16.469-18.726 7.426-16.79-9.492v-47.184l17.758-27.515 17.438-9.45 35.84 17.114 35.52-18.547 36.163 18.226 34.551-16.793 23.25 12.274zm0 0" fill="#e95666"/><path d="M502.465 103.258v-69.11c0-14.722-11.926-26.648-26.652-26.648H316c-14.727 0-26.648 11.926-26.648 26.648v69.11l17.757 10.883 17.438-9.45 35.84 17.118 35.52-18.551 36.163 18.226 34.551-16.793 23.25 12.274zm0 0" fill="#8bbe59"/><path d="M335.07 494.152a106.065 106.065 0 0 1-45.722 10.348c-34.059 0-67.516-16.293-88.149-46.555-33.148-48.629-20.597-114.918 28.031-148.066l2.715-1.852c31.239 14.938 60.137 41.938 79.993 78.11 19.597 35.676 26.94 73.988 23.132 108.015zm0 0M502.465 299.738v25.496c0 35.239-17.43 68.204-46.547 88.043l-17.941 12.227c-13.23-13.438-21.399-31.871-21.399-52.223 0-41.101 33.324-74.426 74.426-74.426 3.894 0 7.719.301 11.46.883zm0 0" fill="#e95666"/><path d="M502.465 103.258v38.398l-35.555-18.898-27.578 14.527a16.963 16.963 0 0 1-15.809 0l-27.617-14.55-27.617 14.55a16.963 16.963 0 0 1-15.809 0l-27.582-14.527-35.55 18.898v-38.398l27.558-14.649a16.97 16.97 0 0 1 15.867-.03l27.61 14.55L388 88.579a16.963 16.963 0 0 1 15.809 0l27.62 14.55 27.606-14.55a16.97 16.97 0 0 1 15.867.03zm0 0M502.465 188.84v38.398L466.91 208.34l-27.578 14.531a16.963 16.963 0 0 1-15.809 0l-27.617-14.55-27.617 14.55a16.963 16.963 0 0 1-15.809 0l-27.582-14.531-35.55 18.898V188.84l27.558-14.649a16.97 16.97 0 0 1 15.867-.027l27.61 14.55L388 174.165a16.963 16.963 0 0 1 15.809 0l27.62 14.55 27.606-14.55a16.98 16.98 0 0 1 15.867.027zm0 0" fill="#e4e7eb"/><path d="M338.148 60.07a7.5 7.5 0 0 0 7.5-7.5V42.121a7.5 7.5 0 1 0-15 0v10.45c0 4.144 3.356 7.5 7.5 7.5zm0 0M453.617 60.07c4.145 0 7.5-3.355 7.5-7.5V42.121a7.5 7.5 0 1 0-15 0v10.45a7.5 7.5 0 0 0 7.5 7.5zm0 0M395.883 65.648c7.719 0 14.969-3.23 19.894-8.867a7.501 7.501 0 0 0-.707-10.586 7.508 7.508 0 0 0-10.586.711c-2.078 2.38-5.21 3.742-8.601 3.742-3.39 0-6.528-1.363-8.606-3.742a7.501 7.501 0 0 0-11.293 9.875c4.93 5.637 12.18 8.867 19.899 8.867zm0 0"/><path d="M509.941 34.148C509.941 15.32 494.621 0 475.79 0H209.605a7.5 7.5 0 1 0 0 15h78.114a33.926 33.926 0 0 0-5.766 16.328 34.052 34.052 0 0 0-.125 2.82v47.293c-.34.16-25.125 13.211-25.125 13.211l-24.125-12.71c-7.047-3.708-15.746-3.704-22.797.003l-24.12 12.707-24.118-12.71c-7.078-3.727-15.813-3.747-22.879.042l-16.539 8.793V34.148c0-10.558 8.59-19.148 19.148-19.148h38.332c4.141 0 7.5-3.36 7.5-7.5s-3.359-7.5-7.5-7.5h-38.332c-18.828 0-34.148 15.32-34.148 34.148V239.25a48.551 48.551 0 0 1-21.223 40.156l-35.62 24.274c-51.97 35.43-65.43 106.523-30.005 158.492C41.551 493.372 76.82 512 114.625 512c35.52 0 62.078-18.422 90.074-37.508A114.107 114.107 0 0 0 289.33 512c22.792 0 45.308-6.996 64.136-19.824l106.652-72.7a113.94 113.94 0 0 0 49.824-94.242zm-335.68 109.774c6.989 3.683 15.723 3.726 22.798 0l24.12-12.707 24.126 12.707c7.054 3.719 15.75 3.71 22.8 0l13.723-7.23v30.335c-.344.16-25.125 13.211-25.125 13.211l-24.125-12.71c-7.031-3.774-15.758-3.696-22.797 0l-24.12 12.71-24.118-12.71c-7.102-3.735-15.793-3.723-22.879.042l-16.539 8.793v-30.199l28.066-14.922zm146.145-48.688c2.688-1.43 6.156-1.437 8.852-.02l27.605 14.552a7.503 7.503 0 0 0 6.992 0l27.618-14.551c2.734-1.442 6.082-1.367 8.82 0l27.617 14.55a7.503 7.503 0 0 0 6.992 0s27.586-14.538 27.606-14.546c2.472-1.305 6.402-1.621 8.851.011l23.582 12.536v21.41l-24.53-13.043a7.582 7.582 0 0 0-7.02-.012l-27.575 14.527c-2.71 1.43-6.113 1.426-8.82.004l-27.617-14.55a7.503 7.503 0 0 0-6.992 0s-27.614 14.546-27.617 14.546c-2.7 1.426-6.118 1.422-8.817.004l-27.582-14.53a7.55 7.55 0 0 0-7.016.01l-24.53 13.044v-21.41zm115.41 121c-.011.008-.027.012-.039.02-2.695 1.398-6.05 1.398-8.742 0-.012-.008-.027-.012-.039-.02l-27.617-14.55a7.503 7.503 0 0 0-6.992 0l-27.617 14.55c-.032.02-.07.028-.102.047-2.684 1.367-6.008 1.36-8.676-.027-.012-.008-.027-.012-.039-.02l-27.582-14.53a7.562 7.562 0 0 0-7.016.015l-24.53 13.039v-21.41s23.573-12.528 23.577-12.532c2.61-1.382 6.149-1.441 8.856-.015l27.605 14.55a7.503 7.503 0 0 0 6.992 0s27.614-14.546 27.618-14.55c2.609-1.375 6.113-1.422 8.82 0l27.617 14.55a7.503 7.503 0 0 0 6.992 0l27.602-14.55c2.523-1.328 5.621-1.406 8.23-.266.211.09 24.204 12.813 24.204 12.813v21.41l-24.532-13.04a7.506 7.506 0 0 0-7.015-.015zm-183.523 0l-27.617-14.55c-2.266-1.2-4.738-1.079-6.988 0l-27.618 14.55c-2.71 1.426-6.113 1.426-8.82 0l-27.578-14.53a7.495 7.495 0 0 0-7.016.015l-24.531 13.039v-21.41l23.578-12.532c2.715-1.441 6.137-1.445 8.852-.015l27.605 14.547a7.48 7.48 0 0 0 6.992 0L216.77 180.8c2.71-1.426 6.113-1.426 8.82 0l27.617 14.55a7.503 7.503 0 0 0 6.992 0l21.625-11.398v21.367s-20.707 10.91-20.71 10.914c-2.634 1.387-6.09 1.438-8.821 0zm96.672-72.312c7.066 3.726 15.73 3.723 22.797 0l24.12-12.707 24.126 12.707c7.07 3.726 15.726 3.723 22.797 0l24.066-12.68 28.07 14.918v30.2s-16.539-8.79-16.543-8.79c-7.086-3.765-15.785-3.777-22.882-.043l-24.114 12.707s-24.117-12.703-24.12-12.707c-7.024-3.699-15.778-3.699-22.802 0l-24.12 12.707-24.114-12.707c-7.023-3.703-15.781-3.726-22.883.043l-16.539 8.79v-30.2l28.067-14.918c.004 0 24.07 12.68 24.074 12.68zM32.668 453.719c-30.555-44.824-19.23-106.04 25.148-137.012 24.875 12.785 45.895 32.438 61.825 55.309 20.468 29.394 33.28 64.73 34.12 100.691a155.373 155.373 0 0 1-.468 16.406c-12.262 5.235-25.25 7.887-38.672 7.887-32.836 0-63.473-16.18-81.953-43.281zm162.684 8.996s-26.07 17.762-26.59 18.101c.004-.07 0-.144 0-.214.86-36.305-9.75-72.5-28.14-103.653-16.708-28.304-40.048-52.89-68.517-69.515-.125-.07-.246-.149-.37-.223l22.617-15.41a63.542 63.542 0 0 0 27.773-52.551v-7.504l28.066-14.922s24.067 12.68 24.07 12.684c7.052 3.715 15.75 3.71 22.798-.004l24.125-12.707 24.12 12.71c7.075 3.723 15.731 3.72 22.801-.003l13.723-7.23c0 7.593.563 15.398-.367 22.949-3.797 30.82-36.438 44.148-58.883 60.144-49.969 35.957-62.469 105.649-27.594 156.805.121.183.243.363.368.543zm148.117 18.097c.047-1.843.058-3.695.047-5.539-.09-12.03-1.434-24.054-3.871-35.832-.833-4.003-4.864-6.656-8.868-5.824a7.5 7.5 0 0 0-5.824 8.863c2.012 9.704 3.508 19.82 3.508 29.75 0 5.63.004 11.266-.465 16.883-12.258 5.235-25.25 7.887-38.668 7.887a99.112 99.112 0 0 1-77.617-37.41c-15.059-18.938-22.691-43.098-21.316-67.235 1.71-30 17.468-58.46 42.132-75.644.348.18.7.36 1.043.543 29.36 15.375 53.153 40.238 69.668 68.762 4.68 8.078 8.77 16.5 12.242 25.168 1.657 4.132 6.97 5.91 10.786 3.652 3.129-1.852 4.535-5.75 3.14-9.23a211.239 211.239 0 0 0-10.914-23.079c-16.816-30.613-41.367-57.492-71.695-75.097-.121-.07-.238-.145-.36-.215 0 0 23.696-16.16 24.223-16.547 16.235-11.805 26.168-31.348 26.168-51.414v-7.508l28.067-14.918 24.07 12.68c7.043 3.71 15.754 3.71 22.797 0l24.12-12.707 24.126 12.707c7.023 3.695 15.773 3.699 22.8 0l24.067-12.68 28.066 14.918v59.703c-.113-.004-.222 0-.336-.008a86.182 86.182 0 0 0-3.625-.086c-45.171 0-81.921 36.75-81.921 81.926 0 .051 0 .098.003.149.09 18.289 6.274 36.324 17.645 50.664 0 0-82.719 56.383-83.238 56.718zm108.203-73.734l-12.524 8.535c-.433.297-6.023-8.648-6.515-9.52-5.621-9.972-8.578-21.366-8.578-32.812 0-36.902 30.023-66.926 66.925-66.926 1.317 0 2.645.051 3.957.13v18.745a98.942 98.942 0 0 1-43.265 81.848zm43.27-372.93v56.63l-16.544-8.794c-7.085-3.761-15.78-3.777-22.882-.039l-24.114 12.707s-24.113-12.703-24.12-12.71c-7.067-3.723-15.747-3.712-22.802 0l-24.12 12.71-24.114-12.71c-7.086-3.727-15.808-3.712-22.883.042l-16.539 8.79V34.147c0-10.308 8.84-19.148 19.149-19.148h159.816c10.563 0 19.152 8.59 19.152 19.148zM216.77 95.218c2.71-1.429 6.113-1.429 8.82-.003l27.617 14.55c2.156 1.137 4.84 1.137 6.992 0l21.63-11.398v21.371l-20.716 10.914c-2.71 1.426-6.11 1.426-8.82 0l-27.613-14.55a7.503 7.503 0 0 0-6.992 0s-27.614 14.546-27.618 14.55c-2.613 1.375-6.113 1.426-8.82 0l-27.578-14.53a7.574 7.574 0 0 0-7.016.015l-24.531 13.039v-21.41l23.578-12.532c2.703-1.437 6.106-1.445 8.817-.035.011.008.023.012.035.02l27.61 14.547a7.492 7.492 0 0 0 6.991.004zm0 0"/></svg>