<svg id="Слой_1" xmlns="http://www.w3.org/2000/svg" width="512" height="512"><style>.st1{fill:#fff}.st2{fill:#9196aa}</style><path d="M512 256c0 141.4-114.6 256-256 256S0 397.4 0 256 114.6 0 256 0s256 114.6 256 256z" fill="#4a7aff"/><path class="st1" d="M186.5 122H130v298.8h252V122H186.5z"/><path class="st2" d="M151 192h210v22H151v-22zM151 234h210v22H151v-22zM151 276h210v22H151v-22zM151 318h210v22H151v-22zM151 360h210v22H151v-22z"/><path class="st2" d="M255.8 192H361v22H255.8v-22zM255.8 234H361v22H255.8v-22zM255.8 276H361v22H255.8v-22zM255.8 318H361v22H255.8v-22zM255.8 360H361v22H255.8v-22z"/></svg>