<svg viewBox="0 -2 512 512" xmlns="http://www.w3.org/2000/svg"><path d="M414.402 402.156c0 74.696-53.996 101.102-125.093 105.95-8.637.581-17.532.851-26.614.851-83.789 0-151.715-23.023-151.715-106.8 0-83.794 67.926-151.72 151.715-151.72 9.082 0 17.977.805 26.614 2.333 71.097 12.578 125.093 74.675 125.093 149.386zm0 0" fill="#beccd3"/><path d="M414.402 402.156c0 74.696-53.996 101.102-125.093 105.95-71.098-4.848-125.106-31.243-125.106-105.95 0-74.71 54.008-136.808 125.106-149.386 71.097 12.578 125.093 74.675 125.093 149.386zm0 0" fill="#dae6ed"/><path d="M373.973 190.836c0 55.754-40.075 102.133-92.989 111.902a114.27 114.27 0 0 1-20.816 1.903c-62.848 0-113.797-50.946-113.797-113.805 0-62.848 50.95-113.805 113.797-113.805 7.105 0 14.066.657 20.816 1.907 52.914 9.777 92.989 56.156 92.989 111.898zm0 0" fill="#beccd3"/><path d="M373.973 190.836c0 55.754-40.075 102.133-92.989 111.902-52.921-9.77-92.996-56.148-92.996-111.902 0-55.742 40.075-102.133 92.996-111.898 52.914 9.777 92.989 56.156 92.989 111.898zm0 0" fill="#dae6ed"/><path d="M282.074 31.418l-98.457 53.777-62.84 34.32h-.007a85.175 85.175 0 0 1-3.122-12.89c-5.597-34.758 10.797-70.809 43.454-88.637l13.753-7.511a85.743 85.743 0 0 1 21.348-8.2c27.809-6.574 57.2 1.32 77.977 20.703a83.874 83.874 0 0 1 7.894 8.438zm0 0" fill="#ef5361"/><path d="M180.79 75.055c3.608 2.414 4.265 5.941 2.827 10.144l-62.836 34.32h-.011c-12.547-38.386 3.609-81.468 40.335-101.527l13.754-7.512a85.743 85.743 0 0 1 21.348-8.199c-21.348 8.2-37.691 57.856-15.418 72.774zm0 0" fill="#dc4250"/><path d="M282.074 31.418l-98.457 53.777-62.84 34.32h-.007a85.175 85.175 0 0 1-3.122-12.89 400.76 400.76 0 0 1 36.93-28.39A401.29 401.29 0 0 1 274.18 22.98a83.874 83.874 0 0 1 7.894 8.438zm0 0" fill="#dc4250"/><path d="M226.332 176.258c0 7.336-4.617 13.597-11.11 16.02a17.022 17.022 0 0 1-5.992 1.081c-9.449 0-17.105-7.656-17.105-17.101 0-9.446 7.656-17.106 17.105-17.106 2.11 0 4.13.387 5.993 1.082 6.492 2.426 11.109 8.688 11.109 16.024zm0 0" fill="#333"/><path d="M226.332 176.258c0 7.336-4.617 13.597-11.11 16.02-6.492-2.423-11.113-8.684-11.113-16.02s4.621-13.598 11.114-16.024c6.492 2.426 11.109 8.688 11.109 16.024zm0 0" fill="#4c4c4c"/><path d="M319.367 176.258c0 9.445-7.656 17.105-17.101 17.105-9.45 0-17.106-7.66-17.106-17.105 0-9.446 7.656-17.102 17.106-17.102 9.445 0 17.101 7.656 17.101 17.102zm0 0" fill="#333"/><path d="M260.172 246.445c-23.133 0-44.879-9.007-61.235-25.367-3.046-3.047-3.046-7.988 0-11.031a7.797 7.797 0 0 1 11.036 0c13.406 13.406 31.234 20.793 50.199 20.793 18.96 0 36.793-7.387 50.2-20.793a7.797 7.797 0 0 1 11.034 0 7.799 7.799 0 0 1 0 11.031c-16.355 16.36-38.101 25.367-61.234 25.367zm0 0" fill="#ef5361"/><path d="M319.367 176.258c0 7.336-4.62 13.597-11.113 16.02-6.492-2.423-11.11-8.684-11.11-16.02s4.618-13.598 11.11-16.024c6.492 2.426 11.113 8.688 11.113 16.024zm0 0" fill="#4c4c4c"/><path d="M139.8 313.645L50.103 247.64v-28.825a7.804 7.804 0 0 0-15.605 0v23.004l-24.97-5.644a7.797 7.797 0 0 0-9.332 5.886 7.799 7.799 0 0 0 5.887 9.333l25.484 5.765-7.402 17.985a7.804 7.804 0 0 0 7.211 10.777c3.07 0 5.98-1.82 7.219-4.836l7.125-17.297 84.836 62.426a7.775 7.775 0 0 0 4.617 1.515 7.802 7.802 0 0 0 4.629-14.086zm0 0" fill="#935d35"/><path d="M190.504 476.125c0 21.36-14.356 29.867-33.945 32.148-4.036.477-8.301.684-12.704.684-25.757 0-46.64-7.074-46.64-32.832s20.883-46.648 46.64-46.648c4.403 0 8.668.613 12.704 1.746 19.59 5.535 33.945 23.543 33.945 44.902zm0 0M428.164 476.125c0 21.36-14.344 29.867-33.934 32.148-4.039.477-8.304.684-12.703.684-25.761 0-46.64-7.074-46.64-32.832s20.879-46.648 46.64-46.648c4.399 0 8.664.613 12.703 1.746 19.59 5.535 33.934 23.543 33.934 44.902zm0 0" fill="#beccd3"/><path d="M190.504 476.125c0 21.36-14.356 29.867-33.945 32.148-19.59-2.28-33.938-10.789-33.938-32.148s14.348-39.367 33.938-44.902c19.59 5.535 33.945 23.543 33.945 44.902zm0 0M428.164 476.125c0 21.36-14.344 29.867-33.934 32.148-19.593-2.28-33.949-10.789-33.949-32.148s14.356-39.367 33.95-44.902c19.59 5.535 33.933 23.543 33.933 44.902zm0 0" fill="#dae6ed"/><path d="M286.512 353.02c0 10.77-8.735 19.503-19.504 19.503-10.774 0-19.508-8.734-19.508-19.503 0-10.774 8.734-19.508 19.508-19.508 10.77 0 19.504 8.734 19.504 19.508zm0 0M286.512 420.898c0 10.774-8.735 19.508-19.504 19.508-10.774 0-19.508-8.734-19.508-19.508 0-10.773 8.734-19.503 19.508-19.503 10.77 0 19.504 8.73 19.504 19.503zm0 0" fill="#333"/><path d="M506.875 238.793l-17.629-11.406 19.945-16.617a7.804 7.804 0 0 0-9.988-11.992l-15.293 12.745v-14.55a7.805 7.805 0 0 0-7.805-7.805 7.801 7.801 0 0 0-7.8 7.805v27.972l-33.551 33.551v-8.469a7.804 7.804 0 0 0-15.605 0v24.075l-36.801 36.8a7.804 7.804 0 0 0 11.035 11.036l39.082-39.086c.004 0 .004 0 .004-.004l44.691-44.692 21.235 13.739a7.795 7.795 0 0 0 10.79-2.313c2.342-3.613 1.307-8.445-2.31-10.789zm0 0" fill="#935d35"/><path d="M313.758 97.61a401.311 401.311 0 0 0-111.414 51.425 401.958 401.958 0 0 0-43.008 32.918c-9.5 8.332-24.281 5.668-30.336-5.422l-16.086-29.453c-4.36-7.976-2.695-17.894 3.996-24.05a400.901 400.901 0 0 1 45.996-36.466A401.323 401.323 0 0 1 287.113 30.07c8.801-2.3 18.04 1.653 22.399 9.633l16.086 29.453c6.054 11.09.308 24.969-11.84 28.453zm0 0" fill="#ef5361"/><path d="M202.344 149.035a401.958 401.958 0 0 0-43.008 32.918c-9.5 8.332-24.281 5.668-30.336-5.422l-16.086-29.453c-4.36-7.976-2.695-17.894 3.996-24.05a400.901 400.901 0 0 1 45.996-36.466c-13.32 9.934 16.551 70.899 39.406 62.485.012 0 .024-.012.032-.012zm0 0" fill="#dc4250"/></svg>