<svg id="Layer_1" xmlns="http://www.w3.org/2000/svg" viewBox="0 0 512 512"><style>.st1{fill:#f5f5f5}</style><circle cx="256" cy="256" r="256" fill="#88c5cc"/><path class="st1" d="M256 373.7c-1.4 0-2.8-.4-4-1.1l-95-54.8c-2.5-1.4-5-6.9-5-9.8V204c0-2.9 2.5-8.3 5-9.8l95-54.8c2.5-1.4 5.5-1.4 8 0l95 54.8c2.5 1.4 5 2.9 5 5.8v108c0 2.9-2.5 8.3-5 9.8l-95 54.8c-1.2.7-2.6 1.1-4 1.1zM168 304l88 52.4 88-52.4V204l-88-48.4-88 52.4v96z"/><path class="st1" d="M268 424c0 6.6-5.4 12-12 12s-12-5.4-12-12V88c0-6.6 5.4-12 12-12s12 5.4 12 12v336z"/><path class="st1" d="M256 120c-2 0-4.1-.8-5.7-2.3l-28-28c-3.1-3.1-3.1-8.2 0-11.3s8.2-3.1 11.3 0l22.3 22.3 22.3-22.3c3.1-3.1 8.2-3.1 11.3 0s3.1 8.2 0 11.3l-28 28c-1.4 1.5-3.5 2.3-5.5 2.3zM256 392c-2 0-4.1.8-5.7 2.3l-28 28c-3.1 3.1-3.1 8.2 0 11.3s8.2 3.1 11.3 0l22.3-22.3 22.3 22.3c3.1 3.1 8.2 3.1 11.3 0s3.1-8.2 0-11.3l-28-28c-1.4-1.5-3.5-2.3-5.5-2.3zM115.3 348.6c-5.8 3.2-13.1 1.2-16.3-4.6-3.2-5.8-1.2-13.1 4.6-16.3l293.1-164.4c5.8-3.2 13.1-1.2 16.3 4.6 3.2 5.8 1.2 13.1-4.6 16.3L115.3 348.6z"/><path class="st1" d="M374.6 189.5c-1-1.8-1.3-3.9-.7-6.1l10.7-38.1c1.2-4.3 5.6-6.7 9.9-5.5 4.3 1.2 6.7 5.6 5.5 9.9l-8.6 30.4 30.4 8.6c4.3 1.2 6.7 5.6 5.5 9.9-1.2 4.3-5.6 6.7-9.9 5.5l-38.1-10.7c-2-.7-3.7-2.1-4.7-3.9zM137.4 322.5c-1-1.8-2.7-3.2-4.8-3.8L94.5 308c-4.3-1.2-8.7 1.3-9.9 5.5-1.2 4.3 1.3 8.7 5.5 9.9l30.4 8.6-8.6 30.4c-1.2 4.3 1.3 8.7 5.5 9.9 4.3 1.2 8.7-1.3 9.9-5.5l10.7-38.1c.7-2.2.4-4.4-.6-6.2zM396.7 348.6c5.8 3.2 13.1 1.2 16.3-4.6 3.2-5.8 1.2-13.1-4.6-16.3L115.3 163.4c-5.8-3.2-13.1-1.2-16.3 4.6-3.2 5.8-1.2 13.1 4.6 16.3l293.1 164.3z"/><path class="st1" d="M137.4 189.5c1-1.8 1.3-3.9.7-6.1l-10.7-38.1c-1.2-4.3-5.6-6.7-9.9-5.5-4.3 1.2-6.7 5.6-5.5 9.9l8.6 30.4-30.4 8.6c-4.3 1.2-6.7 5.6-5.5 9.9 1.2 4.3 5.6 6.7 9.9 5.5l38.1-10.7c2-.7 3.7-2.1 4.7-3.9zM374.6 322.5c1-1.8 2.7-3.2 4.8-3.8l38.1-10.7c4.3-1.2 8.7 1.3 9.9 5.5 1.2 4.3-1.3 8.7-5.5 9.9l-30.4 8.6 8.6 30.4c1.2 4.3-1.3 8.7-5.5 9.9-4.3 1.2-8.7-1.3-9.9-5.5L374 328.7c-.7-2.2-.4-4.4.6-6.2z"/></svg>