<svg id="Слой_1" xmlns="http://www.w3.org/2000/svg" viewBox="0 0 512 490"><style>.st0{fill:#d7f4f1}.st5{fill:#60d882}.st6{fill:#37c47a}.st7{fill:#ea2a3d}.st8{fill:#b7092b}</style><path class="st0" d="M501 245c0 135.3-109.7 245-245 245S11 380.3 11 245 120.7 0 256 0s245 109.7 245 245z"/><path d="M501.5 182.5c-14-13.9-36.6-13.9-50.5 0-35.5 35.6-79.1 60.2-126.5 72.3-.2-.1-.4-.3-.7-.4 27.4-20.6 45.1-53.4 45.1-90.3 0-62.4-50.6-113-113-113s-113 50.6-113 113c0 36.9 17.7 69.7 45.1 90.3l-.7.4C140 242.7 96.5 218 61 182.5c-14-13.9-36.6-13.9-50.5 0s-13.9 36.6 0 50.5c33.2 33.2 71.8 58.8 114.9 76.3 7.7 3.1 15.5 6 23.4 8.5v147.5C181.2 481.1 217.6 490 256 490c38.5 0 74.8-8.9 107.2-24.7V317.8c7.9-2.6 15.7-5.4 23.4-8.5 43.1-17.5 81.8-43.2 114.9-76.3 14-14 14-36.6 0-50.5zM149.1 317.9h.1c-.1.4-.1.4-.1 0zm213.7.1h.1c0 .3 0 .4-.1 0z" fill="#ef8318"/><path d="M158.9 441.9l-10.1 15v8.4c5.7 2.8 11.4 5.3 17.3 7.6v-20.3l-7.2-10.7zM148.8 430l1.1-1.6c2.2-3.2 5.4-5 9-5 2.7 0 5.2 1 7.2 2.9V312.1c.2-.7.3-1.3.4-2 .5-4.9-2.5-9.4-7.1-10.9-.1 0-.4-.1-.5-.2-8.1-2.6-16-5.5-23.9-8.7-43.9-17.8-83.3-44-117-77.8-9-9-10.3-22.8-3.9-33.1-1.2.9-2.4 2-3.5 3.1-13.9 13.9-13.9 36.6 0 50.5 33.2 33.2 71.8 58.8 114.9 76.3 7.7 3.1 15.5 6 23.4 8.5l-.1 112.2zm.4-112c0 .4-.1.3-.1 0 0-.1 0 0 .1 0z" fill="#db722c"/><path class="st0" d="M67.4 197.7l3 13-13-3c-3.8-.9-7.5.1-10.1 2.7-2.6 2.6-3.5 6.2-2.7 10.1l3 13-13-3c-3.8-.9-7.5.1-10.1 2.7-2.6 2.6-3.5 6.2-2.7 10.1l.2.9c6.1 5.6 12.5 11 19 16.2 0-.2-.1-.5-.1-.7l-3-13 13 2.9c3.8.9 7.5-.1 10.1-2.7 2.6-2.6 3.5-6.2 2.7-10.1l-3-13 13 3c3.8.9 7.5-.1 10.1-2.7s3.5-6.2 2.7-10.1L84 203.1c-5.4-4.3-10.6-8.8-15.6-13.4-1.3 2.3-1.6 5.1-1 8z"/><path d="M238.8 293.8c0-3.5 1.1-6.9 3.1-9.8l-33.2-14.5c-5-2.2-9.2.5-9.2 6v36.7c0 5.5 4.1 8.2 9.2 6l33.2-14.5c-2-2.9-3.1-6.3-3.1-9.9zm64.5-24.3L270.1 284c2 2.9 3.1 6.3 3.1 9.8 0 3.6-1.1 7-3.1 9.8l33.2 14.5c5 2.2 9.2-.5 9.2-6v-36.7c0-5.4-4.1-8.1-9.2-5.9z" fill="#2bb381"/><path d="M212 312.2v-36.7c0-1.6.4-3 1-4.1l-4.3-1.9c-5-2.2-9.2.5-9.2 6v36.7c0 5.5 4.1 8.2 9.2 6l4.3-1.9c-.6-1.1-1-2.5-1-4.1z" fill="#159e97"/><path class="st5" d="M274.2 293.8c0 10-8.1 18.2-18.2 18.2s-18.2-8.1-18.2-18.2c0-10 8.1-18.2 18.2-18.2s18.2 8.2 18.2 18.2z"/><path class="st6" d="M250 293.8c0-7.9 5.1-14.6 12.1-17.1-2-.7-4-1.1-6.1-1.1-10 0-18.2 8.1-18.2 18.2 0 10 8.1 18.2 18.2 18.2 2.1 0 4.2-.4 6.1-1.1-7-2.4-12.1-9.2-12.1-17.1z"/><path class="st7" d="M271.3 339.3c0 8.4-6.8 15.3-15.3 15.3s-15.3-6.8-15.3-15.3S247.6 324 256 324s15.3 6.8 15.3 15.3z"/><path class="st8" d="M253 339.3c0-6.3 3.8-11.6 9.1-14-1.9-.9-4-1.3-6.1-1.3-8.4 0-15.3 6.8-15.3 15.3s6.8 15.3 15.3 15.3c2.2 0 4.3-.5 6.1-1.3-5.3-2.4-9.1-7.7-9.1-14z"/><path class="st0" d="M229.1 144.3c0 8.4-6.8 15.3-15.3 15.3-8.4 0-15.3-6.8-15.3-15.3s6.8-15.3 15.3-15.3 15.3 6.8 15.3 15.3zm84.3 0c0 8.4-6.8 15.3-15.3 15.3-8.4 0-15.3-6.8-15.3-15.3s6.8-15.3 15.3-15.3 15.3 6.8 15.3 15.3z"/><path class="st7" d="M271.3 385.7c0 8.5-6.8 15.3-15.3 15.3s-15.3-6.8-15.3-15.3c0-8.4 6.8-15.3 15.3-15.3 8.4 0 15.3 6.9 15.3 15.3z"/><path class="st8" d="M253 385.7c0-6.3 3.8-11.6 9.1-14-1.9-.9-4-1.3-6.1-1.3-8.4 0-15.3 6.8-15.3 15.3S247.6 401 256 401c2.2 0 4.3-.5 6.1-1.3-5.3-2.4-9.1-7.7-9.1-14z"/><path class="st5" d="M271.3 177.3c0 8.4-6.8 15.3-15.3 15.3s-15.3-6.8-15.3-15.3S247.6 162 256 162s15.3 6.8 15.3 15.3z"/><path class="st6" d="M253 177.3c0-6.3 3.8-11.6 9.1-14-1.9-.9-4-1.3-6.1-1.3-8.4 0-15.3 6.8-15.3 15.3s6.8 15.3 15.3 15.3c2.2 0 4.3-.5 6.1-1.3-5.3-2.4-9.1-7.7-9.1-14z"/><path d="M197.5 179c0 11.6-9.4 21-21 21s-21-9.4-21-21 9.4-21 21-21 21 9.4 21 21zm159 0c0 11.6-9.4 21-21 21s-21-9.4-21-21 9.4-21 21-21 21 9.4 21 21z" fill="#f24976"/><path class="st0" d="M256 244.5c-24.3 0-45.2-17.3-49.7-41.1-.8-4.1 1.9-8 6-8.8s8 1.9 8.8 6c3.2 16.7 17.9 28.9 35 28.9s31.8-12.2 35-28.9c.8-4.1 4.7-6.7 8.8-6 4.1.8 6.7 4.7 6 8.8-4.7 23.8-25.6 41.1-49.9 41.1z"/></svg>