<svg id="Слой_1" xmlns="http://www.w3.org/2000/svg" viewBox="0 0 490 512"><style>.st1{fill:#37c47a}.st2{fill:#2bb381}.st3{fill:#02af8e}.st4{fill:#159e97}.st5{fill:#fff}.st6{fill:#eef6ff}.st7{fill:#ffd782}.st8{fill:#ea2a3d}.st9{fill:#ffd00d}.st10{fill:#ffc987}.st11{fill:#b7092b}.st12{fill:#ffaf10}.st13{fill:#a00026}</style><path d="M490 245c0 135.3-109.7 245-245 245S0 380.3 0 245 109.7 0 245 0s245 109.7 245 245z" fill="#d7f4f1"/><path class="st1" d="M214.1 332h4.2c1.4-7 7.5-12 14.7-12h24c7.2 0 13.3 5 14.7 12h4.2l13.4-7.5-14.6-25.2h-59.5l-14.6 25.2 13.5 7.5z"/><path class="st2" d="M214.1 332h4.2c1-5 4.5-9 9-10.9l12.6-21.8h-24.6l-14.6 25.2 13.4 7.5z"/><path class="st3" d="M281.9 294.5l-16.7-29H225l-16.7 29c-1 1.8-.4 4 1.3 5 .6.3 1.2.5 1.8.5h67.4c1.3 0 2.5-.7 3.2-1.8.5-1.1.5-2.5-.1-3.7z"/><path class="st4" d="M226.8 298.2c-.7-1.1-.7-2.5 0-3.7l16.7-29h-18.6l-16.7 29c-1 1.8-.4 4 1.3 5 .6.3 1.2.5 1.8.5H230c-1.3 0-2.6-.7-3.2-1.8z"/><path class="st5" d="M222.3 266.3c-1.3 0-2.5-.7-3.2-1.8-.7-1.1-.7-2.5 0-3.7l22.7-39.3c.7-1.1 1.9-1.8 3.2-1.8s2.5.7 3.2 1.8l22.7 39.3c.7 1.1.7 2.5 0 3.7-.7 1.1-1.9 1.8-3.2 1.8h-45.4z"/><path class="st6" d="M231.5 264.4c-.7-1.1-.7-2.5 0-3.7l19.7-34.1-3-5.2c-.7-1.1-1.9-1.8-3.2-1.8s-2.5.7-3.2 1.8l-22.7 39.3c-.7 1.1-.7 2.5 0 3.7.7 1.1 1.9 1.8 3.2 1.8h12.4c-1.3.1-2.6-.6-3.2-1.8z"/><path class="st2" d="M265.9 392.7l-1.5.8c-2.2 1.3-4.8 1.9-7.4 1.9h-24c-1 0-2-.1-2.9-.3l-1.2-.2v51.9c4.9 1.4 10 2.1 15.2 2.1 7.5 0 14.9-1.4 21.9-4.2v-52z"/><path class="st1" d="M127.1 372.4c-3.4.6-6.8 1-10.2 1-1.1 0-2.2 0-3.3-.1.3 12.9 5 25.4 13.5 35.4v-36.3zm56.6 28l-38.8 21.5c-.3.1-.5.3-.8.4 12.6 6.6 26.6 8 39.6 4.9v-26.8z"/><path class="st2" d="M147.1 269.2c-6.8 13-18.6 23.1-32.8 27.6-.8 8.7-8.1 15.6-17.1 15.6-9 0-16.3-6.9-17.1-15.7-4.8-1.5-9.3-3.7-13.5-6.5-9.1 16.7-9.6 37.7.5 55.4 12.3 21.6 36.6 32.1 59.8 27.9v-69.3c0-7.9 3.8-12.9 10-12.9 2.5 0 5.1.8 7.9 2.3l28.2 15.7c-1-7-3.3-13.8-6.9-20-4.4-8.2-11-15.1-19-20.1z"/><path class="st4" d="M91.5 345.6c-6.9-12.1-8.8-25.8-6.5-38.5-2.7-2.8-4.4-6.5-4.8-10.5-4.8-1.5-9.3-3.7-13.5-6.5-9.1 16.7-9.6 37.7.5 55.4 12.3 21.6 36.6 32.1 59.8 27.9v-.8c-14.5-3.7-27.5-13-35.5-27z"/><path class="st1" d="M117.8 225.7c-9.9 0-19.7-2.7-28.3-7.7-4-2.3-7.6-5.1-10.9-8.4-3.1 4.3-8.2 7.1-13.9 7.1-5.5 0-10.3-2.6-13.5-6.6-6.9 9.6-10.7 21.1-10.8 32.9-.2 25.7 16.6 47.5 39.9 54.8-.1-.8-.2-1.7-.2-2.6 0-9.4 7.7-17.1 17.1-17.1 9.4 0 17.1 7.7 17.1 17.1 0 .9-.1 1.8-.2 2.7 23.2-7.1 40.1-28.6 40.3-54.1.1-9.4-2.2-18.7-6.6-27-8.8 5.7-19.2 8.9-30 8.9z"/><path class="st3" d="M80.2 295.2c0-3.7 1.2-7.1 3.2-9.9C72 274.7 64.9 259.7 65.1 243c.1-10 2.8-19.8 7.8-28.4-2.5 1.4-5.3 2.1-8.1 2.1-5.5 0-10.3-2.6-13.5-6.6-6.9 9.6-10.7 21.1-10.8 32.9-.2 25.7 16.6 47.5 39.9 54.8-.1-.9-.2-1.7-.2-2.6z"/><path class="st2" d="M166.9 171.8c-2.6 6.1-8.7 10.3-15.7 10.3-9.4 0-17.1-7.7-17.1-17.1 0-2.4.5-4.7 1.4-6.8-4.7-4.1-8.7-9.1-11.8-14.5-5.3-9.4-7.8-20.1-7.1-30.9-19 .5-37.4 10.4-47.8 28.1-7.7 13.1-9.6 28.1-6.4 41.8.8-.1 1.6-.2 2.4-.2 9.4 0 17.1 7.7 17.1 17.1 0 4.1-1.5 7.9-3.9 10.9 3.3 3.2 7 6.1 11 8.4 27.1 16 62 6.9 78-20.2 4.8-8.1 7.5-17.2 7.8-26.6-2.6 0-5.3-.1-7.9-.3z"/><path class="st4" d="M92.9 140.8c5.6-9.5 13.8-17.1 23.6-22.1-.1-2-.1-4 0-6-19 .4-37.4 10.4-47.8 28.1-7.7 13.1-9.6 28.1-6.4 41.8.8-.1 1.6-.2 2.4-.2 9.4 0 17.1 7.7 17.1 17.1 0 4-1.4 7.8-3.9 10.9 3.3 3.2 7 6 11 8.4 12.8 7.6 27.4 9.5 40.9 6.6-5.9-1.3-11.6-3.5-16.8-6.6-27-16-36-50.9-20.1-78z"/><path class="st1" d="M189 97c0-4.7.6-9.3 1.7-13.7-7.8-1.6-13.7-8.5-13.7-16.8 0-2.5.6-4.9 1.5-7-11.8-1.3-23.8 1.2-34.2 7-27.4 15.5-37 50.2-21.6 77.6 3.2 5.7 7.4 10.8 12.3 15.1 2.4-6.6 8.7-11.3 16.1-11.3 9.4 0 17.1 7.7 17.1 17.1 0 2.8-.7 5.4-1.9 7.8 11.8 1.3 23.7-1.2 34-7.1 8-4.5 14.7-10.9 19.7-18.6-18.3-9.2-31-28.2-31-50.1z"/><path class="st3" d="M149.8 147.9c-.8-1.2-1.6-2.5-2.4-3.8-15.5-27.4-5.8-62.1 21.6-77.6 2.7-1.5 5.6-2.8 8.5-3.9.2-1.1.6-2.1 1.1-3.1-11.8-1.3-23.8 1.2-34.2 7-27.4 15.5-37 50.2-21.6 77.6 3.2 5.7 7.4 10.8 12.3 15 2.2-6.1 7.9-10.6 14.7-11.2zm16.7 24.8c6.1.6 12.3.3 18.3-1-5.8-1.3-11.3-3.4-16.4-6.4-.1 2.6-.7 5.1-1.9 7.4z"/><path class="st2" d="M245 40c-14.8 0-28.2 5.6-38.3 14.8 2.8 3.1 4.6 7.1 4.6 11.6 0 9.4-7.7 17.1-17.1 17.1-1.5 0-2.9-.2-4.4-.6-1.2 4.6-1.7 9.3-1.7 14 0 31.5 25.5 57 57 57 9.7 0 18.9-2.4 26.9-6.7-11-17.1-12.4-39.6-1.5-58.4 5.5-9.5 13.5-17 23-21.8-10.1-16.2-28-27-48.5-27z"/><path class="st4" d="M257.5 41.4c-4.1-.9-8.3-1.4-12.5-1.4-14.8 0-28.2 5.6-38.3 14.8 2.8 3.1 4.6 7.1 4.6 11.6 0 9.4-7.7 17.1-17.1 17.1-1.5 0-2.9-.2-4.4-.6-1.2 4.6-1.7 9.3-1.7 14 0 31.5 25.5 57 57 57 4.3 0 8.5-.5 12.5-1.4C232 146.9 213 124.1 213 97s19-49.9 44.5-55.6z"/><path class="st1" d="M347.4 67.5c-27.2-15.8-62.1-6.4-77.8 20.8-15.8 27.2-6.4 62.1 20.8 77.8 8.1 4.7 17.3 7.3 26.6 7.6-.3-5.9.3-11.7 1.9-17.4.1-.5.3-1 .4-1.5-1-.2-1.9-.6-2.7-1.2-2.1-1.5-3.2-4.1-2.7-6.6l2.2-13-9.4-9.2c-1.9-1.8-2.5-4.5-1.7-7s2.9-4.3 5.5-4.6l13-1.9 5.8-11.8c1.2-2.3 3.5-3.8 6.1-3.8s4.9 1.4 6.1 3.8l5.8 11.8 13 1.9c1.6.2 3.1 1.1 4.2 2.3 2.8-.4 5.6-.6 8.4-.6 1 0 2 0 3 .1-.7-19-10.8-37.3-28.5-47.5z"/><path class="st3" d="M317 167.5c-.8-.4-1.7-.9-2.5-1.4-27.2-15.8-36.5-50.6-20.8-77.8 8.4-14.5 22.1-23.9 37.2-27.2-23.5-5.1-48.7 5.2-61.4 27.2-15.8 27.2-6.4 62.1 20.8 77.8 8.1 4.7 17.3 7.3 26.6 7.6 0-2.1 0-4.1.1-6.2z"/><path class="st2" d="M392.7 188.9c3.9 0 7.7.4 11.4 1.2-.2-1.1-.3-2.3-.3-3.4 0-9.4 7.7-17.1 17.1-17.1 3.3 0 6.4 1 9 2.6.2-10-2.2-20.3-7.6-29.6-12.2-21.2-35.9-31.6-58.7-27.8 1 .8 1.8 1.9 2.2 3.2.8 2.5.1 5.2-1.7 7l-9.4 9.2 2.2 13c.4 2.6-.6 5.1-2.7 6.6-1.2.8-2.6 1.3-4 1.3-1.1 0-2.2-.3-3.2-.8l-11.6-6.1-11.6 6.1c-1.7.9-3.6 1-5.4.4-4.3 14.5-3 30.6 5.2 44.7 4.7 8.1 11.3 15 19.3 20 9.3-18 28.1-30.4 49.8-30.4z"/><path class="st4" d="M343.2 152.2l-7.9-4.1-11.6 6.1c-1 .5-2.1.8-3.2.8-.8 0-1.5-.1-2.2-.4-4.3 14.5-3 30.6 5.2 44.7 4.7 8.1 11.3 15 19.3 20 2.5-4.8 5.7-9.3 9.5-13.2-1.7-2.1-3.2-4.4-4.6-6.8-8.6-14.9-9.7-32-4.5-47.1zm20.3-37.5c1 .8 1.8 1.9 2.2 3.2.7 2.1.3 4.3-.9 6 1.2-.9 2.5-1.7 3.8-2.4 5.1-2.9 10.6-5 16.3-6.3-7-1.5-14.3-1.6-21.4-.5z"/><path class="st1" d="M429.4 201.5c-2.6 1.5-5.6 2.3-8.6 2.3-8.7 0-15.8-6.5-17-14.8-3.7-.7-7.4-1.1-11.2-1.1-31.5-.1-57 25.4-57.1 56.8 0 9.4 2.3 18.6 6.7 26.9 8.9-5.7 19.4-9 30.3-9 5.4 0 10.8.8 16 2.4 3.1-2.7 7-4.1 11.1-4.1 9.4 0 17.1 7.7 17.1 17.1 0 1.8-.3 3.6-.8 5.3 2.5 3.1 4.7 6.4 6.5 10 16.2-10 27-27.9 27.1-48.4 0-17.3-7.8-33-20.1-43.4z"/><path class="st3" d="M403.9 189.4l-.1-.4c-3.7-.8-7.4-1.1-11.2-1.2-31.5-.1-57 25.4-57.1 56.8 0 9.4 2.3 18.6 6.7 26.9 6.4-4.1 13.5-6.9 21-8.2-2.1-6-3.2-12.4-3.1-18.8 0-26.7 18.7-49.2 43.8-55.1z"/><path class="st7" d="M151.2 182.1c-9.4 0-17.1-7.7-17.1-17.1s7.7-17.1 17.1-17.1c9.4 0 17.1 7.7 17.1 17.1s-7.6 17.1-17.1 17.1zm269.6 21.7c-9.4 0-17.1-7.7-17.1-17.1 0-9.4 7.7-17.1 17.1-17.1 9.4 0 17.1 7.7 17.1 17.1.1 9.4-7.6 17.1-17.1 17.1z"/><path class="st5" d="M194.1 83.6c-9.4 0-17.1-7.7-17.1-17.1 0-9.4 7.7-17.1 17.1-17.1 9.4 0 17.1 7.7 17.1 17.1.1 9.4-7.6 17.1-17.1 17.1zM97.3 312.3c-9.4 0-17.1-7.7-17.1-17.1 0-9.4 7.7-17.1 17.1-17.1 9.4 0 17.1 7.7 17.1 17.1 0 9.4-7.6 17.1-17.1 17.1z"/><path class="st8" d="M64.7 216.7c-9.4 0-17.1-7.7-17.1-17.1s7.7-17.1 17.1-17.1c9.4 0 17.1 7.7 17.1 17.1s-7.6 17.1-17.1 17.1z"/><path class="st9" d="M350.1 155c-1.1 0-2.2-.3-3.2-.8l-11.6-6.1-11.6 6.1c-1 .5-2.1.8-3.2.8-1.4 0-2.8-.5-4-1.3-2.1-1.5-3.2-4.1-2.7-6.6l2.2-13-9.4-9.2c-1.9-1.8-2.5-4.5-1.7-7s2.9-4.3 5.5-4.6l13-1.9 5.8-11.8c1.1-2.3 3.5-3.8 6.1-3.8 2.6 0 5 1.5 6.1 3.8l5.8 11.8 13 1.9c2.6.4 4.7 2.2 5.5 4.6.8 2.5.1 5.2-1.7 7l-9.4 9.2 2.2 13c.4 2.6-.6 5.1-2.7 6.6-1.1.8-2.5 1.3-4 1.3zm63.7 222.8c-.8 0-1.6-.2-2.3-.6l-9-4.8-9 4.8c-.7.4-1.5.6-2.3.6-1.1 0-2.1-.3-2.9-.9-1.5-1.1-2.3-3-2-4.9l1.7-10.1-7.3-7.1c-1.4-1.3-1.9-3.3-1.3-5.1.6-1.8 2.1-3.1 4-3.4l10.1-1.5 4.5-9.2c.8-1.7 2.6-2.8 4.5-2.8s3.6 1.1 4.5 2.8l4.5 9.2 10.1 1.5c1.9.3 3.4 1.6 4 3.4.6 1.8.1 3.8-1.3 5.1l-7.3 7.1 1.7 10.1c.3 1.9-.4 3.8-2 4.9-.8.5-1.8.9-2.9.9z"/><path class="st2" d="M416.3 282.1c-1.8 7.5-8.6 13-16.6 13-9.4 0-17.1-7.7-17.1-17.1 0-5.6 2.8-10.7 7-13.8-24.8-7.8-52.6 2.3-66.2 25.7-3.5 6-5.9 12.7-7 19.6l28.8-16c2.8-1.5 5.4-2.3 7.9-2.3 6.1 0 10 4.9 10 12.9v34.7c1.3 1.7 2.5 3.6 3.5 5.4 5.5 9.5 8 20.4 7.4 31.3 4.2-.1 8.3-.7 12.4-1.7-.2-.7-.2-1.3-.1-2l1.7-10.1-7.3-7.1c-1.4-1.3-1.9-3.3-1.3-5.1.6-1.8 2.1-3.1 4-3.4l10.1-1.5 4.5-9.2c.8-1.7 2.6-2.8 4.5-2.8s3.6 1.1 4.5 2.8l4.5 9.2 10.1 1.5c.2 0 .5.1.7.1 11.7-20.9 8.7-46.4-6-64.1z"/><path class="st4" d="M345.1 293.6c.4-.2.7-.4 1.1-.6.5-1 1-2 1.6-3 8.3-14.3 22-23.7 37-27-23.5-5.2-48.8 5-61.5 27-3.5 6-5.9 12.7-7 19.6l28.8-16z"/><path class="st1" d="M362.9 407.9c14-17.7 16.6-42.8 4.8-63.6-1.4-2.5-3-4.8-4.8-7v70.6zm-17.8 14L311 403v26c11.7 1.5 23.9-.6 34.9-6.7-.3-.1-.6-.2-.8-.4z"/><path class="st7" d="M169.4 165c0 10-8.1 18.1-18.1 18.1-10 0-18.1-8.1-18.1-18.1 0-10 8.1-18.1 18.1-18.1 9.9-.1 18.1 8 18.1 18.1z"/><path class="st10" d="M145.7 165c0-7.8 4.9-14.4 11.8-17-2-.8-4.2-1.2-6.3-1.2-10 0-18.1 8.1-18.1 18.1 0 10 8.1 18.1 18.1 18.1 2.2 0 4.4-.4 6.3-1.2-6.8-2.4-11.8-9.1-11.8-16.8z"/><path class="st7" d="M439 186.7c0 10-8.1 18.1-18.1 18.1-10 0-18.1-8.1-18.1-18.1 0-10 8.1-18.1 18.1-18.1 9.9-.1 18.1 8.1 18.1 18.1z"/><path class="st10" d="M414.7 186.7c0-7.9 5.1-14.6 12.1-17.1-1.9-.7-4-1-6-1-10 0-18.1 8.1-18.1 18.1 0 10 8.1 18.1 18.1 18.1 2.1 0 4.1-.4 6-1-7-2.5-12.1-9.2-12.1-17.1z"/><path class="st5" d="M212.3 66.4c0 10-8.1 18.1-18.1 18.1-10 0-18.1-8.1-18.1-18.1 0-10 8.1-18.1 18.1-18.1 9.9 0 18.1 8.1 18.1 18.1z"/><path class="st6" d="M188.7 66.4c0-7.8 4.9-14.4 11.8-17-2-.8-4.2-1.2-6.4-1.2-10 0-18.1 8.1-18.1 18.1 0 10 8.1 18.1 18.1 18.1 2.2 0 4.4-.4 6.4-1.2-6.9-2.4-11.8-9-11.8-16.8z"/><path class="st8" d="M417.8 278.1c0 10-8.1 18.1-18.1 18.1-10 0-18.1-8.1-18.1-18.1 0-10 8.1-18.1 18.1-18.1 10 0 18.1 8.1 18.1 18.1z"/><path class="st11" d="M393.7 278.1c0-7.9 5-14.5 12-17.1-2-.7-4-1.1-6.1-1.1-10 0-18.1 8.1-18.1 18.1 0 10 8.1 18.1 18.1 18.1 2.1 0 4.2-.4 6.1-1.1-6.9-2.3-12-9-12-16.9z"/><path class="st5" d="M115.4 295.2c0 10-8.1 18.1-18.1 18.1-10 0-18.1-8.1-18.1-18.1S87.3 277 97.3 277c10 0 18.1 8.2 18.1 18.2z"/><path class="st6" d="M91.7 295.2c0-7.8 4.9-14.4 11.9-17-2-.8-4.1-1.1-6.3-1.1-10 0-18.1 8.1-18.1 18.1 0 10 8.1 18.1 18.1 18.1 2.2 0 4.3-.4 6.3-1.1-6.9-2.6-11.9-9.2-11.9-17z"/><path class="st8" d="M82.9 199.5c0 10-8.1 18.1-18.1 18.1-10 0-18.1-8.1-18.1-18.1 0-10 8.1-18.1 18.1-18.1 10 0 18.1 8.1 18.1 18.1z"/><path class="st11" d="M58.7 199.5c0-7.9 5-14.6 12.1-17.1-1.9-.7-4-1.1-6.1-1.1-10 0-18.1 8.1-18.1 18.1 0 10 8.1 18.1 18.1 18.1 2.1 0 4.2-.4 6.1-1.1-7-2.3-12.1-9-12.1-16.9z"/><path class="st9" d="M350.1 156c-1.3 0-2.5-.3-3.6-.9l-11.2-5.9-11.2 5.9c-1.1.6-2.4.9-3.6.9-1.6 0-3.3-.5-4.6-1.5-2.4-1.7-3.6-4.7-3.1-7.6l2.1-12.4-9-8.8c-2.1-2.1-2.9-5.2-2-8 .9-2.8 3.4-4.9 6.3-5.3l12.5-1.8 5.6-11.3c1.3-2.7 4-4.3 7-4.3s5.7 1.7 7 4.3l5.6 11.3 12.5 1.8c2.9.4 5.4 2.5 6.3 5.3.9 2.8.2 5.9-2 8l-9 8.8 2.1 12.4c.5 2.9-.7 5.9-3.1 7.6-1.3 1-2.9 1.5-4.6 1.5z"/><path class="st12" d="M327.4 149.5c-2.4-1.7-3.6-4.7-3.1-7.6l2.1-12.4-9-8.8c-2.5-2.4-3.1-6.1-1.5-9.1l-5.6.8c-2.9.4-5.4 2.5-6.3 5.3-.9 2.8-.2 5.9 2 8l9 8.8-2.1 12.4c-.5 2.9.7 5.9 3.1 7.6 1.3 1 2.9 1.5 4.6 1.5 1.3 0 2.5-.3 3.6-.9l7.8-4.1c-1.7 0-3.3-.5-4.6-1.5z"/><path class="st9" d="M413.8 378.8c-1 0-1.9-.2-2.8-.7l-8.6-4.5-8.6 4.5c-.9.4-1.8.7-2.8.7-1.3 0-2.5-.4-3.5-1.1-1.9-1.3-2.8-3.6-2.4-5.9l1.6-9.5-6.9-6.8c-1.6-1.6-2.2-4-1.5-6.1.7-2.2 2.6-3.7 4.8-4.1l9.6-1.4 4.3-8.7c1-2 3.1-3.3 5.4-3.3 2.3 0 4.4 1.3 5.4 3.3l4.3 8.7 9.6 1.4c2.3.3 4.1 1.9 4.8 4.1.7 2.2.1 4.5-1.5 6.1l-6.9 6.8 1.6 9.5c.4 2.2-.5 4.5-2.4 5.9-1 .7-2.2 1.1-3.5 1.1z"/><path class="st12" d="M395.8 374.9c-1.8-1.3-2.8-3.6-2.4-5.9l1.6-9.5-6.9-6.8c-1.6-1.6-2.2-4-1.5-6.1.2-.7.6-1.4 1.1-1.9l-4.4.6c-2.3.3-4.1 1.9-4.8 4.1-.7 2.2-.1 4.5 1.5 6.1l6.9 6.8-1.6 9.5c-.4 2.2.5 4.5 2.4 5.9 1 .7 2.3 1.1 3.5 1.1 1 0 1.9-.2 2.8-.7l4.2-2.2c-.9-.2-1.7-.5-2.4-1z"/><path class="st11" d="M218.1 382.8l-.2-1.4-35.2 19.5v107.3c0 2.1 1.7 3.7 3.7 3.7 1 0 1.9-.4 2.6-1.1l17.2-16.9 17.2 16.9c.7.7 1.7 1.1 2.6 1.1.5 0 1-.1 1.4-.3 1.4-.6 2.3-1.9 2.3-3.4v-113c-6-1.3-10.6-6.2-11.6-12.4z"/><path class="st13" d="M182.7 400.9v107.3c0 2.1 1.7 3.7 3.7 3.7 1 0 1.9-.4 2.6-1.1l12.9-12.6v-108l-19.2 10.7z"/><path class="st11" d="M272.1 381.4l-.2 1.4c-.7 4.4-3.2 8.2-7 10.5v115c0 2.1 1.7 3.7 3.7 3.7 1 0 1.9-.4 2.6-1.1l17.2-16.9 17.2 16.9c1.1 1.1 2.7 1.4 4.1.8 1.4-.6 2.3-1.9 2.3-3.4V403.5l-39.9-22.1z"/><path class="st13" d="M272.1 381.4l-.2 1.4c-.7 4.4-3.2 8.2-7 10.5v115c0 2.1 1.7 3.7 3.7 3.7 1 0 1.9-.4 2.6-1.1l12.9-12.6V388.1l-12-6.7z"/><path class="st8" d="M217.9 380.5V335c0-.7.1-1.3.1-2l-72.7-40.3c-10.7-5.9-19.4-.8-19.4 11.4v107.3c0 12.2 8.7 17.3 19.4 11.4l72.7-40.3c0-.7-.1-1.4-.1-2zm126.7-87.8L271.9 333c.1.6.1 1.3.1 2v45.4c0 .7-.1 1.3-.1 2l72.7 40.3c10.7 5.9 19.4.8 19.4-11.4V304.1c-.1-12.2-8.8-17.3-19.4-11.4z"/><path class="st11" d="M151 411.4V304.1c0-2.9.5-5.5 1.4-7.5l-7-3.9c-10.7-5.9-19.4-.8-19.4 11.4v107.3c0 12.2 8.7 17.3 19.4 11.4l7-3.9c-.9-2.1-1.4-4.6-1.4-7.5zm66.9-65.4h-30.8c-3.2 0-5.9 2.6-5.9 5.9v5.9c0 3.2 2.6 5.9 5.9 5.9h30.8V346z"/><path class="st13" d="M299.9 346h-27.8v17.6h27.8c3.2 0 5.9-2.6 5.9-5.9v-5.9c0-3.2-2.7-5.8-5.9-5.8z"/><path class="st11" d="M273.1 380.5c0 8.9-7.2 16-16 16H233c-8.9 0-16-7.2-16-16V335c0-8.9 7.2-16 16-16h24c8.9 0 16 7.2 16 16v45.5z"/><path class="st13" d="M241.9 380.5V335c0-8.7 6.9-15.8 15.6-16H233c-8.9 0-16 7.2-16 16v45.4c0 8.9 7.2 16 16 16h24.4c-8.6-.2-15.5-7.2-15.5-15.9z"/></svg>