<svg id="Слой_1" xmlns="http://www.w3.org/2000/svg" viewBox="0 0 512 512"><style>.st0{fill:#cdeffe}.st1{fill:#e3fbff}.st2{fill:#fff}</style><path class="st0" d="M512 256c0 141.4-114.6 256-256 256S0 397.4 0 256 114.6 0 256 0s256 114.6 256 256z"/><path class="st1" d="M458.1 249.3c0 9-7.3 16.2-16.2 16.2-9 0-16.2-7.3-16.2-16.2 0-9 7.3-16.2 16.2-16.2 9-.1 16.2 7.2 16.2 16.2z"/><path class="st2" d="M86.6 226c0 9-7.3 16.2-16.2 16.2-9 0-16.2-7.3-16.2-16.2 0-9 7.3-16.2 16.2-16.2 8.9-.1 16.2 7.2 16.2 16.2zM159.7 90.6c0 9-7.3 16.2-16.2 16.2-9 0-16.2-7.3-16.2-16.2 0-9 7.3-16.2 16.2-16.2 9 0 16.2 7.2 16.2 16.2z"/><path class="st1" d="M427.8 145c0 9-7.3 16.2-16.2 16.2-9 0-16.2-7.3-16.2-16.2 0-9 7.3-16.2 16.2-16.2 8.9 0 16.2 7.3 16.2 16.2z"/><path class="st2" d="M399 221c0 79-64 143-143 143s-143-64-143-143S177 78 256 78s143 64 143 143z"/><path class="st1" d="M256 78v285.9c79 0 143-64 143-143S335 78 256 78z"/><path d="M255.5 116.3l-95.2 207.3h190.3l-95.1-207.3z" fill="#3dd542"/><path d="M256 95.6l7.8 17 18.6 2.2-13.8 12.7 3.7 18.4-16.3-9.2-16.3 9.2 3.7-18.4-13.8-12.7 18.6-2.2 7.8-17z" fill="#fecb45"/><path d="M282.4 114.8l-18.6-2.2-7.8-17v41.2l16.3 9.2-3.7-18.4 13.8-12.8z" fill="#fca741"/><path class="st0" d="M203.5 233.3l-7.9-28.9c32.9-9 54.5-20.2 66.8-28 13.2-8.4 18.8-14.8 18.9-14.9l-.1.1 23.1 19.1c-1 1.3-27.7 32.7-100.8 52.6zM174.9 299.9L167 271c95.5-26 128-64.3 128.3-64.7l23.1 19.1c-1.4 1.9-38.9 46.1-143.5 74.5zM149.1 366.6l-6.9-29.2c131.6-31.1 178.4-82.5 178.8-83.1l22.5 19.9c-2.1 2.4-53.6 59.1-194.4 92.4z"/><path d="M100.4 304.9h311.1v71.4H100.4v-71.4z" fill="#fa0f40"/><path d="M215.3 376.3c0 25.2-20.5 45.7-45.7 45.7-25.2 0-45.7-20.5-45.7-45.7 0-25.2 20.5-45.7 45.7-45.7 25.2 0 45.7 20.4 45.7 45.7z" fill="#635d50"/><path d="M189.2 376.3c0 10.9-8.8 19.7-19.7 19.7-10.9 0-19.7-8.8-19.7-19.7s8.8-19.7 19.7-19.7c10.9 0 19.7 8.8 19.7 19.7z" fill="#a0968c"/><path d="M388.2 376.3c0 25.2-20.5 45.7-45.7 45.7-25.2 0-45.7-20.5-45.7-45.7 0-25.2 20.5-45.7 45.7-45.7 25.2 0 45.7 20.4 45.7 45.7z" fill="#4c473b"/><path d="M362.1 376.3c0 10.9-8.8 19.7-19.7 19.7-10.9 0-19.7-8.8-19.7-19.7s8.8-19.7 19.7-19.7c10.9 0 19.7 8.8 19.7 19.7z" fill="#918778"/></svg>