<svg xmlns="http://www.w3.org/2000/svg" viewBox="0 0 512 512"><path d="M512 256c0 141.4-114.6 256-256 256S0 397.4 0 256 114.6 0 256 0s256 114.6 256 256z" fill="#5f9ea0"/><linearGradient id="a" gradientUnits="userSpaceOnUse" x1="111.462" y1="400.065" x2="408.246" y2="103.28" gradientTransform="matrix(1 0 0 -1 0 512)"><stop offset="0" stop-color="#337aad"/><stop offset="1" stop-color="#1a405e"/></linearGradient><path d="M391.5 117.8H128.2c-30.1 0-54.6 24.5-54.6 54.6v176c0 30.1 24.5 54.6 54.6 54.6h263.3c30.1 0 54.6-24.5 54.6-54.6v-176c0-30.2-24.5-54.6-54.6-54.6z" fill="url(#a)"/><linearGradient id="b" gradientUnits="userSpaceOnUse" x1="128.198" y1="339.686" x2="171.84" y2="296.043" gradientTransform="matrix(1 0 0 -1 0 512)"><stop offset="0" stop-color="#7de1fa"/><stop offset="1" stop-color="#54a0c8"/></linearGradient><path d="M117.3 183.2h65.5V205h-65.5v-21.8z" fill="url(#b)"/><linearGradient id="c" gradientUnits="userSpaceOnUse" x1="238.033" y1="339.686" x2="281.675" y2="296.043" gradientTransform="matrix(1 0 0 -1 0 512)"><stop offset="0" stop-color="#7de1fa"/><stop offset="1" stop-color="#54a0c8"/></linearGradient><path d="M227.1 183.2V205h65.5v-21.8h-65.5z" fill="url(#c)"/><linearGradient id="d" gradientUnits="userSpaceOnUse" x1="347.868" y1="339.686" x2="391.51" y2="296.043" gradientTransform="matrix(1 0 0 -1 0 512)"><stop offset="0" stop-color="#7de1fa"/><stop offset="1" stop-color="#54a0c8"/></linearGradient><path d="M337 183.2h65.5V205H337v-21.8z" fill="url(#d)"/><linearGradient id="e" gradientUnits="userSpaceOnUse" x1="243.84" y1="245.875" x2="320.981" y2="168.732" gradientTransform="matrix(1 0 0 -1 0 512)"><stop offset="0" stop-color="#ff7a78"/><stop offset="1" stop-color="#ff5552"/></linearGradient><path d="M282.4 250.1c-7.8 0-15.5 1.7-22.5 4.9-18.9 8.6-32 27.6-32 49.7s13.1 41.1 32 49.7c7.1 3.2 14.8 4.9 22.5 4.9 30.1 0 54.6-24.4 54.6-54.6 0-30.1-24.5-54.6-54.6-54.6z" fill="url(#e)"/><linearGradient id="f" gradientUnits="userSpaceOnUse" x1="309.294" y1="245.878" x2="386.444" y2="168.727" gradientTransform="matrix(1 0 0 -1 0 512)"><stop offset="0" stop-color="#ffeea6"/><stop offset="1" stop-color="#ffcd00"/></linearGradient><path d="M402.4 304.7c0 30.1-24.4 54.6-54.6 54.6-30.1 0-54.6-24.4-54.6-54.6 0-30.1 24.4-54.6 54.6-54.6 30.2 0 54.6 24.5 54.6 54.6z" fill="url(#f)"/></svg>