<svg id="Слой_1" xmlns="http://www.w3.org/2000/svg" viewBox="0 0 512 511"><style>.st1{fill:#ef8318}.st2{fill:#ebaa48}.st3{fill:#ffaf10}.st4{fill:#ef9614}.st5{fill:#ea2a3d}.st7{fill:#fff}.st8{fill:#d9eafc}</style><path d="M496.2 256.5c0 135.3-109.7 245-245 245s-245-109.7-245-245 109.7-245 245-245 245 109.7 245 245z" fill="#02af8e"/><path class="st1" d="M331.2 361.5l-.2.7c-10.4 32.8-40.5 54.9-74.9 54.9s-64.6-22.1-74.9-54.9l-.2-.7h-17c-21.8 22.8-35.2 53.7-35.2 87.8v19.5c36 20.8 77.8 32.7 122.4 32.7 48.5 0 93.8-14.1 131.9-38.5v-13.8c0-34-13.4-64.9-35.2-87.8l-16.7.1z"/><path class="st2" d="M256 417.1c-43.3 0-78.6-35.2-78.6-78.6v-22.7l-.8-.1c-15.2-2.3-29.1-10.1-39.2-21.7-10.2-11.8-15.8-26.9-15.8-42.5 0-35.9 29.2-65 65-65h138.8c35.9 0 65 29.2 65 65 0 15.6-5.6 30.7-15.8 42.5-10.1 11.7-24 19.4-39.2 21.7l-.8.1v22.7c0 43.3-35.3 78.6-78.6 78.6z"/><path class="st3" d="M256 417.1c-21 0-40.4-8.2-54.7-22.1-13.8 13.9-22.4 33.1-22.4 54.3v41.4c22.9 7.1 47.2 10.9 72.4 10.9 28.7 0 56.3-5 81.9-14v-38.2c0-21.1-8.6-40.3-22.4-54.3-14.4 13.8-33.8 22-54.8 22z"/><path class="st4" d="M201.3 395c-13.8 13.9-22.4 33.1-22.4 54.3v41.4c4.2 1.3 8.4 2.5 12.6 3.5v-44.9c0-18.2 6.3-34.9 16.9-48.1-2.5-2-4.9-4-7.1-6.2z"/><path class="st5" d="M177.4 338.5v-22.7l-.8-.1c-3.7-.6-7.3-1.5-10.8-2.6H159c-2.8 0-5 2.2-5 5v39.5c0 2.8 2.2 5 5 5h22.2c-2.5-7.8-3.8-15.9-3.8-24.1zM353 313h-6.8c-3.5 1.2-7.1 2.1-10.8 2.6l-.8.1v22.7c0 8.4-1.3 16.4-3.8 24H353c2.8 0 5-2.2 5-5V318c0-2.7-2.2-5-5-5z"/><path class="st3" d="M190.7 161.5h5.2l14.1-20.2c-.7-3.2-1-6.5-1-9.8 0-13 5.2-25 14.5-34 4-3.8 4.1-10.1.3-14.1s-10.1-4.1-14.1-.3c-13.4 12.8-20.7 30-20.7 48.5 0 7.2 1.1 14.3 3.4 21.1L147 81.2c-3-4.7-9.1-6-13.8-3.1-4.7 3-6 9.1-3.1 13.8l10 15.8c-.6 0-26.1-.1-26.1-.1L87.6 67.2c-3-4.6-9.2-5.9-13.8-2.9-4.6 3-5.9 9.2-2.9 13.8l19.3 29.5H75.3c-7.6 0-18.2-5.8-22.3-12.2L18.4 41.2c-3-4.7-9.1-6-13.8-3.1-4.7 3-6 9.1-3.1 13.8L36 106.1c7.8 12.3 24.6 21.5 39.2 21.5h63c7.6 0 18.2 5.8 22.3 12.2l16.8 26.4c3.8-3 8.5-4.7 13.4-4.7zM507.4 38.1c-4.7-3-10.8-1.6-13.8 3.1L459 95.4c-4.1 6.4-14.7 12.2-22.3 12.2h-14.8l19.3-29.5c3-4.6 1.7-10.8-2.9-13.8s-10.8-1.7-13.8 2.9L398 107.6h-26.1l10-15.7c3-4.7 1.6-10.8-3.1-13.8S368 76.5 365 81.2l-45.4 71.3c2.3-6.8 3.4-13.9 3.4-21.1 0-18.5-7.4-35.7-20.7-48.5-4-3.8-10.3-3.7-14.1.3-3.8 4-3.7 10.3.3 14.1 9.4 9 14.5 21 14.5 34 0 3.4-.4 6.7-1 9.8l14.1 20.2h5.2c5 0 9.7 1.8 13.3 4.8l16.8-26.4c4.1-6.4 14.7-12.2 22.3-12.2h63c14.5 0 31.4-9.2 39.2-21.5l34.5-54.2c3-4.6 1.6-10.7-3-13.7z"/><path class="st5" d="M317.3 161.5l-50.9-73c-3 1.9-6.6 3-10.4 3s-7.4-1.1-10.4-3l-50.9 73h122.6z"/><path d="M256 91.5c-3.7 0-7.3-1-10.4-3l-50.9 73H212l49.3-70.8c-1.6.5-3.4.8-5.3.8z" fill="#b7092b"/><path class="st7" d="M186.6 186.4h138.8c5.8 0 11.5.8 16.8 2.2.6-2 .9-4.1.9-6.3 0-12.1-9.8-21.8-21.8-21.8H190.7c-12.1 0-21.8 9.8-21.8 21.8 0 2.2.3 4.3.9 6.3 5.4-1.5 11.1-2.2 16.8-2.2z"/><path class="st8" d="M186.6 186.4h7.5c-.2-1.3-.4-2.7-.4-4 0-12.1 9.8-21.8 21.8-21.8h-24.8c-12.1 0-21.8 9.8-21.8 21.8 0 2.2.3 4.3.9 6.3 5.4-1.6 11.1-2.3 16.8-2.3z"/><path class="st7" d="M277 71.5c0 11.6-9.4 21-21 21s-21-9.4-21-21 9.4-21 21-21 21 9.4 21 21z"/><path class="st8" d="M247 71.5c0-9.5 6.3-17.5 15-20.1-1.9-.6-4-.9-6-.9-11.6 0-21 9.4-21 21s9.4 21 21 21c2.1 0 4.1-.3 6-.9-8.7-2.6-15-10.6-15-20.1z"/><path class="st1" d="M442.6 157c-.1-1.4-.9-2.7-2-3.5-10.5-7.6-23.5-11.8-36.5-11.8-10.8 0-21.6 2.9-31 8.3-14.9 8.6-25.3 22.9-29.3 39.1 18.5 5.5 33.5 18.9 41.2 36.3 9.5-.6 18.7-3.4 26.9-8.2 21.2-12.3 33.2-35.9 30.7-60.2zm-274.4 32c-4-16.2-14.4-30.5-29.3-39.1-9.4-5.4-20.1-8.3-31-8.3-13 0-26 4.2-36.5 11.8-1.1.8-1.9 2.1-2 3.5-2.5 24.4 9.6 48 30.8 60.2 8.2 4.7 17.4 7.6 26.9 8.2 7.6-17.4 22.6-30.8 41.1-36.3z"/><path d="M423.1 163.9c-5.9-2.8-12.5-4.3-19-4.3-7.7 0-15.3 2.1-22 5.9-11.5 6.6-19.4 18.1-21.5 31.2 4.4 2.8 8.4 6.2 12 9.9 2.7.5 5.5.8 8.3.8 7.7 0 15.3-2.1 22-5.9 12.5-7.2 20.7-20.2 21.9-34.7.1-1.2-.6-2.3-1.7-2.9zm-283.7 42.8c3.6-3.8 7.6-7.1 12-9.9-2.1-13.1-10-24.6-21.5-31.2-6.7-3.9-14.3-5.9-22-5.9-6.5 0-13.1 1.5-19 4.3-1.1.5-1.8 1.7-1.7 3 1.2 14.5 9.4 27.5 21.9 34.7 6.7 3.9 14.3 5.9 22 5.9 2.8-.1 5.6-.4 8.3-.9z" fill="#db722c"/><path class="st2" d="M391.5 251.4c0-36.5-29.6-66-66-66H186.6c-36.5 0-66 29.6-66 66 0 33 24.2 60.4 55.9 65.3v21.9c0 43.9 35.6 79.6 79.6 79.6s79.6-35.6 79.6-79.6v-21.9c31.5-4.9 55.8-32.3 55.8-65.3z"/><path class="st4" d="M180.3 363.1c4.1-8.4 9.5-16.1 16.1-22.7-.3-2.9-.5-5.8-.5-8.7V309c0-2.6-1.9-4.8-4.4-5.1-14.8-2.3-28.4-9.8-38.3-21.2-10-11.5-15.5-26.3-15.5-41.5 0-21.4 10.7-40.4 27-51.9-25.7 9-44.2 33.5-44.2 62.3 0 33 24.2 60.4 55.9 65.3v21.9c0 8.1 1.3 16.3 3.9 24.3z"/><path class="st7" d="M292.2 323.7v.5c0 20-16.3 36.2-36.2 36.2s-36.2-16.3-36.2-36.2v-.5c-17.2 8.2-31.2 22.2-39.5 39.3 10.3 31.9 40.3 55 75.7 55s65.4-23.1 75.7-55c-8.3-17.1-22.3-31-39.5-39.3z"/><path d="M224 262.6c0 9.7-7.8 17.5-17.5 17.5s-17.5-7.8-17.5-17.5 7.8-17.5 17.5-17.5 17.5 7.8 17.5 17.5zm99 0c0 9.7-7.8 17.5-17.5 17.5s-17.5-7.8-17.5-17.5 7.8-17.5 17.5-17.5 17.5 7.8 17.5 17.5z" fill="#994334"/><path d="M256 360.5c-3.5 0-6.8-.5-10-1.4v58.4c3.3.4 6.6.6 10 .6 3.4 0 6.7-.2 10-.6v-58.4c-3.3.9-6.6 1.4-10 1.4z" fill="#bf7e52"/><path d="M293.2 324.2c0 20.6-16.7 37.2-37.2 37.2-20.6 0-37.2-16.7-37.2-37.2 0-20.6 16.7-37.2 37.2-37.2 20.6 0 37.2 16.6 37.2 37.2z" fill="#fe3745"/><path class="st5" d="M243.8 324.2c0-16.2 10.3-30 24.8-35.1-4-1.4-8.2-2.2-12.5-2.2-20.6 0-37.2 16.7-37.2 37.2 0 20.6 16.7 37.2 37.2 37.2 4.4 0 8.6-.8 12.5-2.2-14.5-4.9-24.8-18.7-24.8-34.9z"/></svg>