<svg id="Layer_1" xmlns="http://www.w3.org/2000/svg" viewBox="0 0 506.6 506.6"><style>.st0{fill:#3b322e}.st2{fill:#81d4ef}</style><path class="st0" d="M220.6 1047.3c-6.9-.3-13.8-.3-20.6 0-95.1 4.8-177.7 73.9-196.3 170.8-21.2 110.8 48.8 218.7 158.6 244.6 108.3 25.5 217.4-37.8 249.7-143.7h86.6c9.4-.1 11-13.4 1.9-15.8l-80.7-20.1c.2-2 .2-2.3.4-3.6 11.7-112.2-67.2-213.8-178.8-230.2-7-1.1-13.9-1.7-20.8-2z" transform="translate(0 -1004.36)"/><path d="M219.8 1063.2c6.4.3 12.8.9 19.3 1.9 103.2 15.2 176 109 165.2 212.7-.1.5-.1.4-.2 1.3-57-14.1-104.8-25.5-157.3-38.5-6.9-1.7-13.4-2.1-19.4-1.3-18 2.2-31.2 14.1-34.5 29-4.4 19.9 9.5 42.8 40.8 50.5.6.2 1.3.2 1.9.2h78.6c-23.7 36.7-62.1 58.7-103.4 58.7-45.4 0-87.5-26.6-110.2-70.2-1.3-2.7-4.1-4.4-7.1-4.4-6.1 0-10 6.4-7.1 11.8 25.2 48.5 72.7 78.8 124.4 78.9 50.2 0 96.3-28.7 122-74.7h62.5c-31.6 95.2-130.6 151.4-229.2 128.1-101.6-23.9-166.1-123.5-146.5-226 18.3-96.2 104.4-162.6 200.2-158z" fill="#f3f3f3" transform="translate(0 -1004.36)"/><path class="st0" d="M141 1132.3c-8 .1-16.1 2.4-23.1 7.1-14.1 9.4-22.2 26-21.9 43.7.1 4.4 3.7 8 8.1 7.9 24.8-.6 49.7-.6 74.5-.6 4.4 0 8-3.6 8-8 0-17.7-8.3-34.2-22.5-43.4-7-4.5-15-6.8-23.1-6.7zM279.7 1132.9c-8 .1-16.1 2.4-23.1 7.1-14.1 9.4-22.1 26-21.9 43.7 0 4.4 3.7 8 8.1 7.9 24.8-.6 49.7-.6 74.5-.6 4.4 0 8-3.6 8-8 0-17.7-8.3-34.2-22.5-43.3-7-4.6-15.1-6.9-23.1-6.8z" transform="translate(0 -1004.36)"/><path class="st2" d="M141.2 1148.2c4.9 0 9.8 1.4 14.4 4.4 7 4.5 11.2 12.8 13.2 21.9-18.3-.2-36.6.1-54.9.4 1.9-9.2 6-17.5 13-22.1 4.4-3.1 9.3-4.6 14.3-4.6zM279.8 1148.8c4.9 0 9.8 1.4 14.4 4.4 7 4.5 11.2 12.8 13.2 21.9-18.3-.2-36.6.1-54.9.4 1.9-9.2 6-17.5 13-22.1 4.5-3.1 9.4-4.6 14.3-4.6z" transform="translate(0 -1004.36)"/><path d="M229 1254.9c4-.4 8.7 0 13.9 1.3 63.3 15.6 138.1 34 189.9 46.8H329.3c-.8-.1-1.6-.1-2.3 0h-90c-25.2-6.3-30.9-20.4-28.5-31.2 1.7-8.2 8.4-15.8 20.5-16.9z" fill="#f29f4a" transform="translate(0 -1004.36)"/></svg>