<svg id="Слой_1" xmlns="http://www.w3.org/2000/svg" viewBox="0 0 512 470.4"><style>.st0{fill:#415e72}.st6{fill:#e04f5f}.st7{fill:#25b6d2}.st8{fill:#53bad8}</style><path class="st0" d="M0 334.4v-324C.1 4.7 4.7.1 10.4 0h491.2c5.7.1 10.3 4.7 10.4 10.4v324H0z"/><path d="M512 334.4V376c-.1 5.7-4.7 10.3-10.4 10.4H10.4C4.7 386.3.1 381.7 0 376v-41.6h512zM146.4 460h219.2v10.4H146.4V460z" fill="#cfdce5"/><path d="M328.8 460H183.2l10.4-73.6h124.8l10.4 73.6z" fill="#aac1ce"/><path d="M20.8 20.8h470.4v292.8H20.8V20.8z" fill="#fff"/><path d="M318.4 386.4H193.6l-5.8 41.1 132.5-27.9-1.9-13.2z" fill="#8ba0ae"/><path class="st0" d="M426.5 85.8h-3l4 4 4-4h-3c0-3.3 2.7-5.9 5.9-5.9 1 0 1.9.3 2.8.7l1.5-1.5c-1.3-.8-2.8-1.2-4.2-1.2-4.5 0-8 3.5-8 7.9zm13.8 0c0 3.3-2.7 5.9-5.9 5.9-1 0-1.9-.3-2.8-.7l-1.5 1.5c1.3.8 2.8 1.2 4.2 1.2 4.4 0 7.9-3.5 7.9-7.9h3l-4-4-4 4h3.1z"/><path d="M134.8 145.6c24.2.5 43.7 20 44.2 44.2h21c-.5-35.8-29.4-64.7-65.3-65.3l.1 21.1z" fill="#ffd07d"/><path class="st6" d="M179 191.7c-.5 24.9-21.1 44.8-46 44.3-8.7-.2-17.2-2.9-24.5-7.8l-13.1 16.5c29.7 21.3 71 14.4 92.3-15.3 7.9-11 12.2-24.1 12.3-37.6h-21z"/><path class="st7" d="M93.9 243.5l13.1-16.4c-20-14.8-24.3-43.1-9.4-63.2 8.3-11.2 21.4-18 35.4-18.3v-21c-36.5.5-65.8 30.5-65.3 67 .2 20.4 9.9 39.6 26.2 51.9z"/><path class="st6" d="M347.9 188.2h13.9v25.2h-13.9v-25.2z"/><path class="st7" d="M364.6 147.4h13.9v66.1h-13.9v-66.1z"/><path class="st6" d="M381.4 175.1h13.9v38.4h-13.9v-38.4z"/><path class="st7" d="M398.2 116.2H412v97.3h-13.9v-97.3z"/><path class="st6" d="M414.9 175.1h13.9v38.4h-13.9v-38.4z"/><path class="st7" d="M431.7 175.1h13.9v38.4h-13.9v-38.4z"/><path class="st8" d="M233.9 153.1H223V164h10.9v-10.9z"/><path class="st6" d="M223 184.4h10.9v10.9H223v-10.9z"/><path class="st0" d="M223 214.8h10.9v10.9H223v-10.9z"/><path class="st8" d="M242.6 157.6h61.9v2h-61.9v-2z"/><path class="st0" d="M66.4 92.3h126.1v2H66.4v-2zm281.5 134.2h97.7v2h-97.7v-2zM66.4 77.8h126.1v2H66.4v-2z"/><path class="st6" d="M242.6 188.8h61.9v2h-61.9v-2zm-123.4-10.9h31.2v2h-31.2v-2z"/><path class="st0" d="M108 188.8h53.8v2H108v-2zm0 7.6h53.8v2H108v-2zm134.6 22.9h61.9v2h-61.9v-2z"/></svg>