<svg viewBox="-11 0 512 512" xmlns="http://www.w3.org/2000/svg"><path d="M490 245c0 135.309-109.691 245-245 245S0 380.309 0 245 109.691 0 245 0s245 109.691 245 245zm0 0" fill="#02af8e"/><path d="M245.078 180.508c2.918 0 5.672.875 7.977 2.433V.145C250.379.059 247.695 0 245 0c-2.64 0-5.27.059-7.89.14v182.801a14.16 14.16 0 0 1 7.968-2.433zm0 0M360.11 28.688v45.84l.093-.188a8.725 8.725 0 0 1 7.875-4.903 8.744 8.744 0 0 1 7.89 4.903l.087.176v-36.54a245.807 245.807 0 0 0-15.946-9.288zm0 0M111.48 74.34a8.72 8.72 0 0 1 7.875-4.903 8.742 8.742 0 0 1 7.887 4.903l.086.18V30.066a244.68 244.68 0 0 0-15.941 9.563v34.898zm0 0" fill="#d9eafc"/><path d="M420.75 353.434l-16.996-9.817 16.996-9.812a7.503 7.503 0 0 0 2.746-10.246c-2.074-3.586-6.66-4.817-10.246-2.746l-16.996 9.816V311a7.5 7.5 0 1 0-15 0v19.625l-16.992-9.813a7.499 7.499 0 1 0-7.5 12.988l16.996 9.817-16.996 9.813a7.5 7.5 0 1 0 7.5 12.992l16.992-9.813v19.618a7.5 7.5 0 1 0 15 0v-19.622l16.996 9.817a7.498 7.498 0 0 0 7.5-12.988zm0 0" fill="#fff"/><path d="M87.004 272.172l-9.25-5.344 9.25-5.34a7.5 7.5 0 1 0-7.5-12.992l-9.25 5.344v-10.684a7.5 7.5 0 1 0-15 0v10.684l-9.25-5.344c-3.582-2.066-8.172-.844-10.242 2.746-2.075 3.586-.844 8.172 2.742 10.246l9.254 5.34-9.254 5.344a7.499 7.499 0 0 0-2.742 10.246 7.492 7.492 0 0 0 6.5 3.75c1.27 0 2.562-.324 3.742-1.004l9.25-5.344v10.68a7.5 7.5 0 1 0 15 0v-10.68l9.25 5.344a7.498 7.498 0 0 0 10.246-2.746 7.5 7.5 0 0 0-2.746-10.246zm0 0" fill="#ffd00d"/><path d="M160.75 463.203l-16.996-9.816 16.996-9.813a7.5 7.5 0 0 0 2.746-10.246 7.503 7.503 0 0 0-10.246-2.746l-16.996 9.816V420.77a7.5 7.5 0 1 0-15 0v19.625l-16.992-9.813a7.503 7.503 0 0 0-10.246 2.742 7.502 7.502 0 0 0 2.746 10.246l16.996 9.817-16.996 9.812c-3.586 2.074-4.817 6.66-2.746 10.246a7.498 7.498 0 0 0 10.246 2.746l16.992-9.812V486a7.5 7.5 0 0 0 7.5 7.5c4.144 0 7.5-3.355 7.5-7.5v-19.621l16.996 9.812a7.498 7.498 0 0 0 10.246-2.742 7.502 7.502 0 0 0-2.746-10.246zm0 0" fill="#ff9f60"/><path d="M311.02 412.918a15.36 15.36 0 0 1-7.086-1.75l-58.856-30.941-58.844 30.937a15.244 15.244 0 0 1-7.086 1.754 15.15 15.15 0 0 1-8.957-2.91c-4.73-3.438-7.05-9.145-6.058-14.903l11.23-65.527-47.605-46.41c-4.188-4.074-5.66-10.059-3.856-15.613 1.801-5.555 6.516-9.532 12.293-10.371l65.801-9.559L231.426 188c2.582-5.238 7.812-8.492 13.652-8.492 5.844 0 11.082 3.254 13.668 8.492l29.418 59.621 65.797 9.559c5.785.843 10.496 4.82 12.3 10.37 1.805 5.56.325 11.54-3.855 15.614l-47.61 46.41 11.235 65.535c.989 5.754-1.332 11.461-6.054 14.895a15.135 15.135 0 0 1-8.957 2.914zm0 0" fill="#fe3745"/><path d="M311.02 412.918a15.36 15.36 0 0 1-7.086-1.75l-58.856-30.941-58.844 30.937a15.244 15.244 0 0 1-7.086 1.754 15.15 15.15 0 0 1-8.957-2.91c-4.73-3.438-7.05-9.145-6.058-14.903l11.23-65.527-47.605-46.41c-4.188-4.074-5.66-10.059-3.856-15.613 1.801-5.555 6.516-9.532 12.293-10.371l65.801-9.559L231.426 188c2.582-5.238 7.812-8.492 13.652-8.492 5.844 0 11.082 3.254 13.668 8.492l29.418 59.621 65.797 9.559c5.785.843 10.496 4.82 12.3 10.37 1.805 5.56.325 11.54-3.855 15.614l-47.61 46.41 11.235 65.535c.989 5.754-1.332 11.461-6.054 14.895a15.135 15.135 0 0 1-8.957 2.914zm0 0" fill="#fe3745"/><path d="M201.047 397.504c-4.727-3.438-7.05-9.149-6.059-14.906l11.235-65.528-47.61-46.41c-4.187-4.074-5.66-10.058-3.855-15.613.062-.2.14-.395.215-.594l-18.778 2.73c-5.78.84-10.492 4.817-12.297 10.372-1.8 5.554-.328 11.539 3.856 15.613l47.61 46.41-11.231 65.527c-.992 5.758 1.328 11.465 6.058 14.903a15.147 15.147 0 0 0 8.954 2.91 15.26 15.26 0 0 0 7.09-1.754l20.96-11.02a15.194 15.194 0 0 1-6.148-2.64zm0 0" fill="#ea2a3d"/><path d="M410.453 218.43a9.842 9.842 0 0 1-4.55-1.125l-37.825-19.883-37.812 19.883a9.822 9.822 0 0 1-4.555 1.125 9.754 9.754 0 0 1-5.754-1.868 9.73 9.73 0 0 1-3.895-9.578l7.22-42.109-30.594-29.824c-2.692-2.617-3.637-6.461-2.477-10.031a9.734 9.734 0 0 1 7.898-6.668l42.286-6.141 18.91-38.313a9.726 9.726 0 0 1 8.773-5.46 9.739 9.739 0 0 1 8.785 5.46l18.903 38.313 42.28 6.14a9.74 9.74 0 0 1 7.907 6.665 9.733 9.733 0 0 1-2.476 10.035l-30.598 29.824 7.223 42.11a9.733 9.733 0 0 1-3.891 9.574 9.75 9.75 0 0 1-5.758 1.87zm0 0" fill="#ffd00d"/><path d="M344.516 204.133a9.73 9.73 0 0 1-3.895-9.578l2.774-16.16-7.223-12.504c-1.067-1.848-1.067-4.868 0-6.715l6.691-11.586-25.617-24.969a9.697 9.697 0 0 1-2.933-6.625l-16.204 2.356a9.729 9.729 0 0 0-7.898 6.668 9.715 9.715 0 0 0 2.476 10.03l30.594 29.821-7.219 42.11a9.727 9.727 0 0 0 3.895 9.578 9.73 9.73 0 0 0 5.754 1.87 9.822 9.822 0 0 0 4.555-1.124L352.14 205.8c-.618.12-1.243.199-1.871.199a9.771 9.771 0 0 1-5.754-1.867zm0 0M161.73 218.43a9.858 9.858 0 0 1-4.554-1.125l-37.82-19.883-37.813 19.883a9.822 9.822 0 0 1-4.555 1.125 9.754 9.754 0 0 1-5.754-1.868 9.73 9.73 0 0 1-3.894-9.578l7.219-42.109-30.594-29.824c-2.692-2.617-3.637-6.461-2.477-10.031a9.734 9.734 0 0 1 7.899-6.668l42.285-6.141 18.91-38.313a9.726 9.726 0 0 1 8.773-5.46 9.739 9.739 0 0 1 8.786 5.46l18.906 38.313 42.277 6.14a9.74 9.74 0 0 1 7.906 6.665 9.733 9.733 0 0 1-2.476 10.035l-30.598 29.824 7.223 42.11a9.733 9.733 0 0 1-3.89 9.574 9.75 9.75 0 0 1-5.759 1.87zm0 0" fill="#ffaf10"/><path d="M95.234 207.133a9.73 9.73 0 0 1-3.894-9.578l7.219-42.11-30.594-29.824c-2.582-2.512-3.535-6.148-2.586-9.59l-15.992 2.32a9.734 9.734 0 0 0-7.899 6.669 9.715 9.715 0 0 0 2.477 10.03l30.594 29.821-7.22 42.11a9.727 9.727 0 0 0 3.895 9.578 9.73 9.73 0 0 0 5.754 1.87 9.822 9.822 0 0 0 4.555-1.124l16.602-8.73a9.834 9.834 0 0 1-2.91-1.442zm0 0" fill="#ef9614"/><path d="M113.871 358a2.349 2.349 0 0 1-2.308-1.922c-2.286-12.422-3.473-13.61-15.895-15.898a2.345 2.345 0 0 1 0-4.613c12.422-2.29 13.61-3.477 15.894-15.899a2.349 2.349 0 0 1 4.618 0c2.289 12.422 3.476 13.61 15.898 15.898a2.346 2.346 0 0 1 0 4.613c-12.422 2.29-13.61 3.477-15.898 15.9A2.346 2.346 0 0 1 113.87 358zm0 0M245 462.254a3.162 3.162 0 0 1-3.11-2.59c-3.081-16.742-4.683-18.344-21.425-21.426a3.168 3.168 0 0 1-2.594-3.11 3.162 3.162 0 0 1 2.594-3.108c16.742-3.083 18.344-4.684 21.426-21.43a3.162 3.162 0 0 1 6.218 0c3.082 16.746 4.684 18.347 21.426 21.43a3.162 3.162 0 0 1 2.594 3.109 3.168 3.168 0 0 1-2.594 3.11c-16.742 3.081-18.344 4.683-21.426 21.425a3.159 3.159 0 0 1-3.109 2.59zm0 0" fill="#fff"/><g fill="#ffd00d"><path d="M307 512a2.817 2.817 0 0 1-2.766-2.305c-2.742-14.89-4.168-16.316-19.058-19.054a2.814 2.814 0 0 1 0-5.536c14.89-2.742 16.316-4.164 19.058-19.058a2.81 2.81 0 1 1 5.531 0c2.743 14.894 4.169 16.316 19.06 19.058a2.815 2.815 0 0 1 0 5.535c-14.891 2.739-16.317 4.165-19.06 19.055A2.81 2.81 0 0 1 307 512zm0 0M128.14 73.895a9.756 9.756 0 0 0-4.64-4.54l-21.082 21.082-10.746 21.774-12.899 1.871-27.8 27.8 11.418 11.134 70.168-70.168zm0 0M74.559 164.871l-4.375 25.524 78.02-78.016-1.161-.168-7.012-14.215-66.183 66.188zm0 0M68.969 214.234a9.89 9.89 0 0 0 2.261 2.325 9.75 9.75 0 0 0 5.758 1.87 9.822 9.822 0 0 0 4.555-1.124l14.562-7.66 91.54-91.536-19.688-2.863zm0 0M197.168 131.21l-70.207 70.208 14.777 7.77 25.625-25.622-3.207-18.691 30.598-29.824a9.824 9.824 0 0 0 2.414-3.84zm0 0M157.176 217.305a9.858 9.858 0 0 0 4.554 1.125 9.75 9.75 0 0 0 5.758-1.871 9.733 9.733 0 0 0 3.89-9.575l-.706-4.105-14.106 14.105zm0 0"/></g><path d="M366.941 270.832l-19.93 14.895-22.534-16.844a7.975 7.975 0 0 0-9.543 0l-22.536 16.84-22.53-16.84a7.975 7.975 0 0 0-9.544 0l-22.535 16.84-22.531-16.84a7.969 7.969 0 0 0-9.543.004l-22.528 16.836-22.527-16.836a7.975 7.975 0 0 0-9.547-.004l-21.511 16.082 11.558 11.265 14.727-11.007 22.527 16.84a7.98 7.98 0 0 0 9.547 0l22.527-16.84 22.532 16.84a7.963 7.963 0 0 0 9.542 0l22.536-16.84 22.53 16.84a7.975 7.975 0 0 0 9.548 0l22.531-16.84 22.535 16.84c.153.113.317.199.477.3l19.687-19.195c3.364-3.281 4.977-7.8 4.535-12.336zm0 0M297.926 325.008l-22.531 16.84-22.536-16.84a7.963 7.963 0 0 0-9.543 0l-22.535 16.84-22.531-16.84a7.969 7.969 0 0 0-9.547 0l-14.402 10.765-3.899 22.758c.184-.117.371-.215.547-.347l22.528-16.84 22.53 16.844a7.98 7.98 0 0 0 9.548 0l22.535-16.844 22.531 16.844a7.975 7.975 0 0 0 9.543 0l22.535-16.844 16.188 12.101-3.914-22.832-7.5-5.605a7.969 7.969 0 0 0-9.547 0zm0 0" fill="#b7092b"/><path d="M310.078 139.938l-4.457 7.718 17.66 17.215-1 5.836 2.781-4.816c1.067-1.848 1.067-4.868 0-6.715l-11.105-19.238c-1.066-1.848-2.812-1.848-3.879 0zm0 0M336.172 159.176c-1.067 1.847-1.067 4.867 0 6.715l11.11 19.242c1.066 1.844 2.812 1.844 3.874 0l11.11-19.242c1.066-1.848 1.066-4.868 0-6.715l-11.11-19.238c-1.066-1.848-2.808-1.848-3.875 0zm0 0M373.375 159.176c-1.066 1.847-1.066 4.867 0 6.715l11.11 19.242c1.066 1.844 2.808 1.844 3.874 0l11.11-19.242c1.062-1.848 1.062-4.868 0-6.715l-11.11-19.238c-1.066-1.848-2.808-1.848-3.875 0zm0 0M414.102 171.992l-1.223-7.12 17.328-16.888-4.644-8.047c-1.067-1.847-2.81-1.847-3.875 0l-11.11 19.239c-1.066 1.847-1.066 4.867 0 6.71zm0 0" fill="#fff"/></svg>