<svg viewBox="0 -12 512 512" xmlns="http://www.w3.org/2000/svg" xmlns:xlink="http://www.w3.org/1999/xlink"><linearGradient id="a"><stop offset="0" stop-color="#d3e843"/><stop offset=".624" stop-color="#a9c93c"/><stop offset="1" stop-color="#8db437"/></linearGradient><linearGradient id="g" gradientUnits="userSpaceOnUse" x1="67.59" x2="54.7" xlink:href="#a" y1="61.595" y2="127.883"/><linearGradient id="h" gradientUnits="userSpaceOnUse" x1="113.317" x2="100.428" xlink:href="#a" y1="70.486" y2="136.775"/><linearGradient id="i" gradientUnits="userSpaceOnUse" x1="98.833" x2="78.578" xlink:href="#a" y1="93.399" y2="164.291"/><linearGradient id="j" gradientTransform="matrix(-1.00392 0 0 1.00392 239.425 -11.79)" gradientUnits="userSpaceOnUse" x1="-204.184" x2="-217.023" xlink:href="#a" y1="73.099" y2="139.128"/><linearGradient id="k" gradientTransform="matrix(-1.00392 0 0 1.00392 239.425 -11.79)" gradientUnits="userSpaceOnUse" x1="-158.635" x2="-171.474" xlink:href="#a" y1="81.955" y2="147.985"/><linearGradient id="l" gradientUnits="userSpaceOnUse" x1="424.475" x2="387.038" y1="104.792" y2="67.355"><stop offset=".003" stop-color="#8db437" stop-opacity="0"/><stop offset=".481" stop-color="#698927" stop-opacity=".478"/><stop offset="1" stop-color="#455f18"/></linearGradient><linearGradient id="m" gradientTransform="matrix(-1.00392 0 0 1.00392 239.425 -11.79)" gradientUnits="userSpaceOnUse" x1="-173.063" x2="-193.238" xlink:href="#a" y1="104.779" y2="175.393"/><linearGradient id="b"><stop offset="0" stop-color="#f1ce98"/><stop offset=".733" stop-color="#dbaf6e"/><stop offset="1" stop-color="#d2a35d"/></linearGradient><linearGradient id="n" gradientUnits="userSpaceOnUse" x1="33.731" x2="194.051" xlink:href="#b" y1="186.433" y2="186.433"/><linearGradient id="c"><stop offset=".003" stop-color="#d2a35d" stop-opacity="0"/><stop offset="1" stop-color="#c5874e"/></linearGradient><linearGradient id="o" gradientUnits="userSpaceOnUse" x1="124.847" x2="124.847" xlink:href="#c" y1="212.274" y2="147.45"/><linearGradient id="p" gradientUnits="userSpaceOnUse" x1="317.954" x2="478.27" xlink:href="#b" y1="186.433" y2="186.433"/><linearGradient id="q" gradientUnits="userSpaceOnUse" x1="387.146" x2="387.146" xlink:href="#c" y1="212.274" y2="147.45"/><linearGradient id="r" gradientUnits="userSpaceOnUse" x1="137.794" x2="352.201" xlink:href="#b" y1="231.647" y2="362.53"/><linearGradient id="s" gradientUnits="userSpaceOnUse" x1="317.17" x2="279.21" xlink:href="#c" y1="273.696" y2="85.84"/><linearGradient id="t" gradientUnits="userSpaceOnUse" x1="178.188" x2="331.145" xlink:href="#c" y1="324.622" y2="477.579"/><linearGradient id="d"><stop offset="0" stop-color="#45425a"/><stop offset="1" stop-color="#2d3251"/></linearGradient><linearGradient id="u" gradientUnits="userSpaceOnUse" x1="178.419" x2="201.605" xlink:href="#d" y1="256.513" y2="279.699"/><linearGradient id="v" gradientUnits="userSpaceOnUse" x1="309.99" x2="333.177" xlink:href="#d" y1="256.513" y2="279.699"/><linearGradient id="w" gradientUnits="userSpaceOnUse" x1="328.817" x2="266.066" xlink:href="#c" y1="435.118" y2="372.367"/><linearGradient id="e"><stop offset="0" stop-color="#ff706a"/><stop offset=".811" stop-color="#f64640"/><stop offset="1" stop-color="#f43b36"/></linearGradient><linearGradient id="x" gradientUnits="userSpaceOnUse" x1="214.661" x2="295.922" xlink:href="#e" y1="320.972" y2="402.232"/><linearGradient id="y" gradientUnits="userSpaceOnUse" x1="198.113" x2="343.958" xlink:href="#e" y1="31.841" y2="177.685"/><linearGradient id="z" gradientUnits="userSpaceOnUse" x1="278.306" x2="200.038" y1="111.029" y2="-7.029"><stop offset="0" stop-color="#ff706a" stop-opacity="0"/><stop offset=".415" stop-color="#ff726c" stop-opacity=".416"/><stop offset=".565" stop-color="#ff7873" stop-opacity=".565"/><stop offset=".671" stop-color="#ff847e" stop-opacity=".671"/><stop offset=".757" stop-color="#ff948f" stop-opacity=".757"/><stop offset=".831" stop-color="#ffa9a5" stop-opacity=".831"/><stop offset=".897" stop-color="#ffc3c1" stop-opacity=".898"/><stop offset=".954" stop-color="#ffe1e0" stop-opacity=".953"/><stop offset="1" stop-color="#fff"/></linearGradient><linearGradient id="f"><stop offset="0" stop-color="#f43b36" stop-opacity="0"/><stop offset=".436" stop-color="#d02021" stop-opacity=".435"/><stop offset="1" stop-color="#a60108"/></linearGradient><linearGradient id="A" gradientUnits="userSpaceOnUse" x1="258.769" x2="258.769" xlink:href="#f" y1="110.146" y2="146.54"/><linearGradient id="B" gradientUnits="userSpaceOnUse" x1="371.33" x2="337.093" xlink:href="#f" y1="57.776" y2="70.571"/><linearGradient id="C" gradientUnits="userSpaceOnUse" x1="255.971" x2="269.842" y1="134.2" y2="183.686"><stop offset="0" stop-color="#ecf7ff"/><stop offset="1" stop-color="#c2e0ff"/></linearGradient><linearGradient id="D" gradientUnits="userSpaceOnUse" x1="258.848" x2="258.848" y1="152.712" y2="181.774"><stop offset=".003" stop-color="#c2e0ff" stop-opacity="0"/><stop offset=".076" stop-color="#bfdcfd" stop-opacity=".075"/><stop offset="1" stop-color="#9eb2e7"/></linearGradient><radialGradient id="E" cx="376.445" cy="43.527" gradientUnits="userSpaceOnUse" r="49.882"><stop offset="0" stop-color="#ecf7ff"/><stop offset=".535" stop-color="#eaf6ff"/><stop offset=".728" stop-color="#e3f2ff"/><stop offset=".865" stop-color="#d8ecff"/><stop offset=".976" stop-color="#c7e3ff"/><stop offset="1" stop-color="#c2e0ff"/></radialGradient><path d="M61.965 138.754c-7.586 0-13.735-6.149-13.735-13.734V56.043c0-7.582 6.149-13.734 13.735-13.734 7.582 0 13.73 6.152 13.73 13.734v68.977c0 7.585-6.148 13.734-13.73 13.734zm0 0" fill="url(#g)"/><path d="M107.152 138.754c-7.586 0-13.734-6.149-13.734-13.734V79.344c0-7.586 6.148-13.735 13.734-13.735s13.735 6.149 13.735 13.735v45.676c0 7.585-6.149 13.734-13.735 13.734zm0 0" fill="url(#h)"/><path d="M173.473 199.242c-3.516 0-7.032-1.34-9.711-4.023l-36.04-36.04c-11.109-11.109-25.878-17.226-41.59-17.226h-16.26C31.343 141.953 0 110.61 0 72.082v-34.18c0-7.586 6.148-13.734 13.734-13.734 7.582 0 13.735 6.148 13.735 13.734v34.18c0 23.383 19.02 42.402 42.398 42.402H86.13c23.047 0 44.715 8.977 61.012 25.274l36.043 36.039c5.363 5.363 5.363 14.058 0 19.422a13.678 13.678 0 0 1-9.711 4.023zm0 0" fill="url(#i)"/><path d="M450.035 138.754c7.586 0 13.735-6.149 13.735-13.734V56.043c0-7.582-6.149-13.734-13.735-13.734-7.582 0-13.734 6.152-13.734 13.734v68.977c.004 7.585 6.152 13.734 13.734 13.734zm0 0" fill="url(#j)"/><path d="M404.848 138.754c7.586 0 13.734-6.149 13.734-13.734V79.344c0-7.586-6.148-13.735-13.734-13.735s-13.735 6.149-13.735 13.735v45.676c0 7.585 6.149 13.734 13.735 13.734zm0 0" fill="url(#k)"/><path d="M404.848 65.61c-7.586 0-13.735 6.148-13.735 13.734v17.328l27.465 27.469V79.344c0-7.586-6.148-13.735-13.73-13.735zm0 0" fill="url(#l)"/><path d="M338.527 199.242c3.516 0 7.032-1.34 9.711-4.023l36.04-36.04c11.109-11.109 25.878-17.226 41.59-17.226h16.26c38.528 0 69.872-31.344 69.872-69.871v-34.18c0-7.586-6.148-13.734-13.734-13.734s-13.735 6.148-13.735 13.734v34.18c0 23.383-19.02 42.402-42.402 42.402h-16.262c-23.047 0-44.715 8.977-61.012 25.274l-36.039 36.039c-5.363 5.363-5.363 14.058 0 19.422a13.678 13.678 0 0 0 9.711 4.023zm0 0" fill="url(#m)"/><path d="M194.05 147.996l-6.902 14.328-12.238 25.422a65.585 65.585 0 0 1-59.09 37.121H57.191c-17.265 0-28.609-18.043-21.109-33.597l2.961-6.153c10.926-22.695 33.887-37.12 59.082-37.12zm0 0" fill="url(#n)"/><path d="M187.148 162.324l-12.238 25.422a65.585 65.585 0 0 1-59.09 37.121H77.324c-11.547-2.71-18.328-15.687-12.847-27.054l2.421-5.04a53.8 53.8 0 0 1 48.47-30.449zm0 0" fill="url(#o)"/><path d="M454.8 224.867h-58.628a65.585 65.585 0 0 1-59.09-37.12l-12.238-25.423-6.89-14.328h95.917c25.191 0 48.152 14.426 59.09 37.125l2.96 6.149c7.49 15.558-3.843 33.597-21.12 33.597zm0 0" fill="url(#p)"/><path d="M434.668 224.867h-38.496a65.585 65.585 0 0 1-59.09-37.12l-12.238-25.423h71.785a53.786 53.786 0 0 1 48.465 30.45l2.422 5.038c5.48 11.368-1.301 24.344-12.848 27.055zm0 0" fill="url(#q)"/><path d="M256 488.418c-78.191 0-141.578-63.387-141.578-141.574V223.902c0-41.918 33.984-75.902 75.906-75.902h131.344c41.922 0 75.906 33.984 75.906 75.902v122.942c0 78.187-63.387 141.574-141.578 141.574zm0 0" fill="url(#r)"/><path d="M384.723 147.996H190.328c-18.516 0-35.476 6.637-48.648 17.652.351.282.715.559 1.086.817l241.14 241.137c8.762-18.41 13.672-39.012 13.672-60.762V224.867h57.223c2.101 0 4.101-.293 6-.785zm0 0" fill="url(#s)"/><path d="M256 317.543c-19.563 0-38.285 3.578-55.559 10.113-64.27 24.328-70.226 113.715-9.125 145.156 19.391 9.977 41.38 15.606 64.684 15.606s45.293-5.629 64.684-15.606c61.105-31.44 55.144-120.828-9.125-145.156-17.274-6.535-36-10.113-55.559-10.113zm0 0" fill="url(#t)"/><path d="M202.746 268.309c0-9.52-5.61-17.235-12.531-17.235s-12.535 7.715-12.535 17.235c0 9.515 5.613 17.234 12.535 17.234s12.531-7.719 12.531-17.234zm0 0" fill="url(#u)"/><path d="M334.32 268.309c0-9.52-5.613-17.235-12.535-17.235s-12.531 7.715-12.531 17.235c0 9.515 5.61 17.234 12.531 17.234s12.535-7.719 12.535-17.234zm0 0" fill="url(#v)"/><path d="M381.23 412.922l-75.464-75.465c-10.797-11.785-29.055-19.535-49.766-19.535-33.168 0-60.059 19.875-60.059 44.39 0 10.426 4.88 20.004 13.02 27.583l91.422 91.418c34.957-11.532 63.883-36.305 80.847-68.391zm0 0" fill="url(#w)"/><path d="M316.059 362.313c0-24.516-26.891-44.391-60.059-44.391s-60.059 19.875-60.059 44.39 26.891 44.391 60.059 44.391 60.059-19.875 60.059-44.39zm0 0" fill="url(#x)"/><path d="M396.5 70.27c-12.219-30.188-41.117-53.02-76.355-64.262-2.493-.801-8.915-2.711-16.25-4.043-19.102-3.465-39.11-2.363-57.329 3.402-.12.04-.23.074-.351.113-35.242 11.254-63.477 34.602-75.692 64.79l-5.777 14.273c-9.203 22.742-13.89 46.504-13.89 70.418h215.828c0-23.91-4.688-47.676-13.895-70.418l-5.773-14.273zm0 0" fill="url(#y)"/><path d="M352.79 84.543l-5.774-14.273h47.652c-12.504-26.637-38.906-46.77-70.77-56.938-2.367-.762-8.476-2.578-15.449-3.844-18.168-3.293-37.187-2.246-54.512 3.235-.113.039-.218.07-.332.105-33.507 10.703-60.359 32.899-71.972 61.606l-5.488 13.57c-8.754 21.625-13.211 44.219-13.211 66.957h203.75c0-23.914-4.688-47.676-13.895-70.418zm0 0" fill="url(#z)"/><path d="M164.75 84.543c-9.207 22.742-13.895 46.504-13.895 70.418h215.829c0-23.91-4.688-47.676-13.895-70.418l-1.2-2.969H165.95zm0 0" fill="url(#A)"/><path d="M347.016 70.27l-3.465-8.395c-4.211-10.406 5.457-21.078 19.094-21.078h4.16c6.882 0 13.332 2.805 16.965 7.496.02.023.039.05.062.078 5.215 6.754 9.504 14.078 12.668 21.899zm0 0" fill="url(#B)"/><path d="M362.695 170.332H155.004c-11.8 0-21.371-9.566-21.371-21.371v-8.996c0-11.8 9.566-21.367 21.37-21.367h207.692c11.801 0 21.368 9.566 21.368 21.367v8.996c0 11.805-9.567 21.371-21.368 21.371zm0 0" fill="url(#C)"/><path d="M133.633 148.59v.37c0 11.806 9.566 21.372 21.37 21.372h207.692c11.801 0 21.368-9.566 21.368-21.371v-.371zm0 0" fill="url(#D)"/><path d="M424.055 69.582c0 15.219-12.336 27.555-27.555 27.555-15.215 0-27.555-12.336-27.555-27.555s12.34-27.555 27.555-27.555c15.219 0 27.555 12.336 27.555 27.555zm0 0" fill="url(#E)"/></svg>