<svg xmlns="http://www.w3.org/2000/svg" viewBox="0 0 564.6 568"><path d="M166.1 563.2L1.6 398.8l-.1-232.6L165.9 1.6l232.6-.1L563 165.9l.1 232.6-164.4 164.6-232.6.1z" fill="#fff" stroke="#000" stroke-width="3" stroke-linecap="square" stroke-linejoin="round"/><path d="M177.3 536.3L28.5 387.6l-.1-210.3L177.1 28.5l210.3-.1 148.8 148.7.1 210.3-148.7 148.8-210.3.1z" fill="red"/><path d="M72.9 324.8v-.2c0-.7.7-1.2 2.2-1.5 11.5-3.7 19-6.4 22.5-8 1.8 2.4 4.1 4.6 6.9 6.5 4.6 2.7 9.6 4.4 14.8 5 5.6.1 9.1 0 10.4-.4 6.4-1.8 10.4-3.7 11.9-5.6 1.5-1.3 2.8-4.5 3.9-9.5.3-2 0-4.1-.8-6.5-1-1.6-2-3-3.1-4.1l-3.3-2.5-3.7-1.7c-20.6-6.4-32-10.2-34.1-11.3-9.6-3.8-16.7-10.2-21.4-19-3.1-5.9-4.4-13.1-4.1-21.6 1.2-10.5 5.6-18.9 13-25.1 8.3-6.1 17-9.3 26.1-9.9h2.5c6.4 0 11.8.5 16 1.5 8.6 2.4 15.3 5.8 20.1 10.1 4.8 4 8.8 9.4 11.9 16.2l-.3 1.1-20.1 9.7-1-.5c-1.2-4-4.7-7.2-10.4-9.7-6.4-2.4-14-2.5-22.7-.2-3.7 1.2-6.3 2.8-7.8 4.8-.5.5-1.2 2.1-2.1 4.9-.1 3.2 0 5 .4 5.6.8 2.2 2.5 4.2 5.1 6l2.5 1.1c18.5 5.5 31 9.4 37.6 11.9 5.7 2.6 10 5.5 13 8.6l5.5 7.4c4 6.7 6.2 14 6.4 22 .1.5.1 1.1.1 1.9 0 2.5-.4 6-1.2 10.3-1.6 6.1-3.6 10.5-5.9 13.4-3.9 4.8-6.7 7.7-8.5 8.7-9.6 6.6-19.4 10.1-29.6 10.6H117c-6.6-.6-12.2-2-16.8-3.9-7.3-3.4-13.2-7.2-17.7-11.3-3.6-3.7-6.9-8.5-9.6-14.8zm195.2-114.1v27.5h-28.6V354h-26.6V238h-30.6v-27.2l85.8-.1zm70.2-1.7c15.8 2.4 27.4 11.7 35 27.9 6.4 12 9.7 26.7 9.7 44.1v1.8c0 21.8-5.3 40.4-15.9 55.7-7.6 10.3-18.2 16-32 17.3-1.4.1-2.8.2-4.2.2-14.3 0-26.3-6.1-36-18.2-10-16.1-15.1-32.7-15.2-49.7-.1-1.4-.1-2.9-.1-4.3 0-23 5.1-42 15.3-57 6.8-8.2 14-13.4 21.4-15.7 5.1-1.6 10.3-2.4 15.4-2.4 2.1-.1 4.4.1 6.6.3zm-7.5 122c7.6-.4 13.9-5.6 19.1-15.5 3.8-6.6 6.2-16.4 7.1-29.3.2-16.4-2.7-29.9-8.7-40.3-4.9-7.3-10.3-11.4-16.2-12.2-7.8.4-14.3 5.5-19.5 15.3-3.7 6.9-6.1 16.8-7.2 29.7-.1 16.4 2.8 29.8 8.9 40.2 4.8 7.3 10.3 11.3 16.5 12.1zm119.8-120.4c8.3.9 15.7 3.9 22.1 9s11 10.8 13.8 17.2c3.5 6.8 5.3 14.2 5.3 22 0 3.6 0 6-.1 7.1-.5 9-2.4 16.5-5.6 22.5s-6.7 10.6-10.4 13.8c-8.2 7.5-16.8 11.3-25.9 11.4h-27.1v40.1h-26.8V210.6h54.7zM423.1 285h22.1c3.4-.4 6.2-1.2 8.4-2.5 6-3.6 9.6-9.8 10.7-18.7.2-8-1.4-14.1-4.9-18.3s-8-6.5-13.8-7.1H423l.1 46.6z" fill="#fff"/></svg>