<svg xmlns="http://www.w3.org/2000/svg" viewBox="0 0 508 508"><circle cx="254" cy="254" r="254" fill="#49d195"/><path d="M183.8 65.1s.9 25.1-34 27.2c-7.7.4-43.4 3.4-36.6 41.3 0 0 5.5-25.5 39.6-25.5 6.8 0 48.5-3 31-43zm117.5 0s.9 25.1-34 27.2c-7.7.4-43.4 3.4-36.6 41.3 0 0 5.5-25.5 39.6-25.5 6.7 0 48-3 31-43zm117 0s.9 25.1-34 27.2c-7.7.4-43.4 3.4-36.6 41.3 0 0 5.5-25.5 39.6-25.5 6.7 0 48.4-3 31-43zM71.9 244.7h323v171.5h-323V244.7z" fill="#fff"/><path d="M102.8 284.8h36.8V310h-36.8v-25.2zm60 0h36.8V310h-36.8v-25.2zm59.6 0h36.8V310h-36.8v-25.2zm60 0h36.8V310h-36.8v-25.2zm59.6 0h36.8V310H342v-25.2zm-239.2 36.8h36.8v25.2h-36.8v-25.2zm60 0h36.8v25.2h-36.8v-25.2zm59.6 0h36.8v25.2h-36.8v-25.2zm60 0h36.8v25.2h-36.8v-25.2zm59.6 0h36.8v25.2H342v-25.2z" fill="#84dbff"/><path d="M150.2 244.7H91.9l8.9-99.1h40.4l9 99.1zm112.3 0h-58.3l8.5-99.1h40.8l9 99.1zm112.4 0h-58.3l8.5-99.1h40.8l9 99.1z" fill="#e6e9ee"/></svg>