<svg viewBox="0 0 372.57 611.89" xmlns="http://www.w3.org/2000/svg" xmlns:xlink="http://www.w3.org/1999/xlink"><defs><filter id="e" color-interpolation-filters="sRGB"><feGaussianBlur stdDeviation="1.882"/></filter><filter id="i" x="-.138" y="-.045" width="1.276" height="1.09" color-interpolation-filters="sRGB"><feGaussianBlur stdDeviation=".792"/></filter><linearGradient id="b" x1=".5" x2=".5" y1=".619" y2="-.585" xlink:href="#a"/><linearGradient id="g" x1=".412" x2=".5" y1=".514" y2=".161"><stop stop-color="#006533" offset="0"/><stop stop-color="#00583f" offset="1"/></linearGradient><linearGradient id="c" x1=".5" x2=".5" y1="1" y2=".096"><stop stop-color="#2e3436" offset="0"/><stop stop-color="#2e3436" stop-opacity="0" offset="1"/></linearGradient><linearGradient id="h" x1=".5" x2=".5" y1=".761" y2=".154"><stop stop-color="#2e3436" offset="0"/><stop stop-color="#2e3436" stop-opacity="0" offset="1"/></linearGradient><linearGradient id="f" x1=".5" x2=".5" y1=".381" y2="1.585" xlink:href="#a"/><linearGradient id="d" x1=".474" x2=".5" y1=".144" y2=".907"><stop stop-color="#006e29" offset="0"/><stop stop-color="#00892c" offset="1"/></linearGradient><linearGradient id="a"><stop stop-color="#007129" offset="0"/><stop stop-color="#00583f" offset="1"/></linearGradient></defs><path d="M61.143 176h254.29c20.577 0 31.143-18.053 37.143-46.036l20-83.928C372.576 20.532 356.01 0 335.433 0H41.143C20.566 0 4 20.532 4 46.036l20 83.928C32 157.327 40.566 176 61.143 176z" fill="url(#b)"/><path transform="rotate(.081 188.28 90)" d="M76.464 169.39h223.64c18.097 0 27.389-16.288 32.666-41.534l17.589-75.719c0-23.01-14.569-41.534-32.666-41.534H58.873c-18.097 0-32.666 18.524-32.666 41.534l17.589 75.719c7.036 24.687 14.569 41.534 32.666 41.534z" fill="url(#c)" opacity=".25"/><path d="M358.9 289.24l-41.378 291.4a26.803 26.803 0 0 1-26.862 26.862H77.83a26.803 26.803 0 0 1-26.862-26.862L8.228 290.6l350.67-1.362z" fill="url(#d)"/><g fill="#37a42c"><path d="M20.978 290.54l-12.75.031 42.75 290.06a26.8 26.8 0 0 0 18.156 25.438 30.496 30.496 0 0 1-3.813-14.78l-44.343-300.75z"/><path d="M29.019 291.84l-12.75.031 42.75 290.06c0 7.95 3.063 17.905 8.515 22.816 2.664 2.4 6.167 1.442 9.641 2.622a30.496 30.496 0 0 1-3.812-14.781l-44.344-300.75zM340.42 293.96l12.75.031-42.75 290.06a26.802 26.802 0 0 1-10.403 21.27c-2.311 1.79-4.218 1.086-7.046 2.047 2.414-4.37 3.105-7.29 3.105-12.66l44.344-300.75z" filter="url(#e)"/><path d="M348.11 290.54l12.75.031-42.75 290.06a26.8 26.8 0 0 1-18.156 25.438 30.496 30.496 0 0 0 3.813-14.78l44.344-300.75z"/></g><path d="M1.09 282.9l10.374 70.406c6.76 7.202 16.385 11.688 27.094 11.688h294.31c9.956 0 18.974-3.886 25.625-10.219l9.031-63.531c-5.351 13.922-18.805 23.75-34.656 23.75H38.558c-18.866 0-34.335-13.918-36.78-32.094H1.09z" fill="#00892c"/><path d="M57.143 176h254.29c20.577 0 31.143 14.566 37.143 37.143l20 67.714c0 20.577-16.566 37.143-37.143 37.143H37.143C16.566 318 0 301.434 0 280.857l20-67.714C28 191.066 36.566 176 57.143 176z" fill="url(#f)"/><path d="M12.375 314.02l8.406 56.969c5.608 3.393 12.19 5.344 19.25 5.344h294.31a37.172 37.172 0 0 0 14.875-3.094l7.72-54.562a36.98 36.98 0 0 1-22.595 7.656H40.031c-11.016 0-20.873-4.745-27.656-12.312z" fill="#2e3436" opacity=".179"/><path d="M57.652 177.99c-20.577 0-29.156 15.079-37.156 37.156l-20 67.719c0 20.577 16.579 37.125 37.156 37.125h294.28a37.031 37.031 0 0 0 37.125-37.125l-20-67.719c-6-22.577-16.548-37.156-37.125-37.156H57.652zm6.375 2.5h243.53c19.708 0 29.816 13.757 35.562 35.062l19.156 63.906c0 19.418-15.855 35.031-35.562 35.031H44.873c-19.708 0-35.594-15.613-35.594-35.031l19.156-63.906c7.662-20.833 15.886-35.062 35.594-35.062z" fill="#37a52c"/><path d="M308.64 154.05L47.05 16c-3.418-1.774-7.337.162-8.788 4.343-1.45 4.18.133 8.974 3.55 10.748l261.59 138.05c3.418 1.774 7.338-.163 8.789-4.343 1.45-4.18-.133-8.974-3.55-10.748z" fill="url(#g)"/><path d="M43.335 14.632c-2.612-.008-5.09 1.903-6.178 5.038-.1.287-.173.562-.245.854 1.859-1.812 4.457-2.33 6.807-1.11l261.59 138.03c3.17 1.645 4.748 5.92 3.805 9.862.828-.819 1.508-1.915 1.955-3.202 1.45-4.18-.108-8.985-3.526-10.76L45.953 15.315c-.855-.443-1.747-.68-2.618-.682z" fill="#2e3436" opacity=".389"/><path d="M312.22 551.07L78.03 450.02a5.987 5.987 0 0 0-7.867 3.179 5.987 5.987 0 0 0 3.178 7.867l234.19 101.05c3.06 1.299 6.569-.119 7.868-3.179s-.12-6.568-3.179-7.867z" fill="url(#g)" transform="matrix(-1.169 .013 .0144 1.2918 418.746 -569.706)"/><path d="M341.7 23.683c1.825-2.245 2.331-5.586 1.088-8.501a7.855 7.855 0 0 0-.375-.75c-.139 2.744-1.618 5.31-4.034 6.564L67.985 159.183c-3.26 1.692-7.089.353-8.948-2.947a8.53 8.53 0 0 0 .682 3.704c1.659 3.888 5.812 5.577 9.326 3.754L339.439 25.506a7.154 7.154 0 0 0 2.26-1.824z" fill="#2e3436" opacity=".389"/><path d="M34.882 312.83c-9.202-2.978-16.709-8.76-20.74-15.972-2.397-4.288-4.716-11.761-4.716-15.196 0-3.458 18.785-65.742 22.308-73.962 1.49-3.475 3.767-8.132 5.063-10.349 2.73-4.672 9.023-11.761 9.78-11.018.473.465 13.004 121.44 13.039 125.89l.015 1.945-10.43-.038c-7.992-.03-11.34-.333-14.32-1.297zM335.4 312.13c9.202-2.978 16.709-8.76 20.74-15.972 2.397-4.288 4.716-11.761 4.716-15.196 0-3.458-18.785-65.742-22.308-73.962-1.49-3.475-3.767-8.132-5.063-10.349-2.73-4.672-9.023-11.761-9.78-11.018-.473.465-13.003 121.44-13.038 125.89l-.016 1.945 10.43-.038c7.992-.03 11.34-.333 14.32-1.297z" fill="url(#h)" opacity=".25"/><path d="M1.09 282.9l10.374 70.406c6.76 7.202 16.385 11.688 27.094 11.688h294.31c9.956 0 18.974-3.886 25.625-10.219l9.031-63.531c-5.351 13.922-18.805 23.75-34.656 23.75H38.558c-18.866 0-34.335-13.918-36.78-32.094H1.09z" fill="#00892c"/><g fill="#2f9d2b"><path d="M5.468 293.44s8.132 15.556 22.981 19.445l3.182 49.498c-14.142 1.06-19.446-8.839-19.446-8.839L5.468 293.44zM366.63 293.44s-8.132 15.556-22.981 19.445l-3.182 49.498c14.142 1.06 19.445-8.839 19.445-8.839l6.718-60.104z" filter="url(#i)"/></g></svg>