<svg viewBox="0 0 414.661 512.838" xmlns="http://www.w3.org/2000/svg" xmlns:xlink="http://www.w3.org/1999/xlink"><defs><linearGradient id="c"><stop stop-color="#71b7ff" offset="0"/><stop stop-color="#3b06ff" stop-opacity=".984" offset=".543"/><stop stop-color="#34097c" offset="1"/></linearGradient><linearGradient id="d"><stop stop-color="#f9f9f9" stop-opacity="0" offset="0"/><stop stop-color="#a5c7eb" offset="1"/></linearGradient><linearGradient id="b"><stop stop-color="#f9f9f9" offset="0"/><stop stop-color="#c3e9f3" offset="1"/></linearGradient><linearGradient id="a"><stop stop-color="#d1e8ff" offset="0"/><stop stop-color="#06a8ff" stop-opacity=".984" offset=".407"/><stop stop-color="#7931f1" offset="1"/></linearGradient><linearGradient id="e" x1="432.71" x2="521.25" y1="483" y2="573.56" gradientUnits="userSpaceOnUse" xlink:href="#a"/><linearGradient id="f" x1="357.49" x2="506.04" y1="677.63" y2="785.14" gradientUnits="userSpaceOnUse" xlink:href="#b"/><linearGradient id="h" x1="269.27" x2="512.94" y1="479.15" y2="731.39" gradientUnits="userSpaceOnUse" xlink:href="#c"/><linearGradient id="g" x1="298.08" x2="506.5" y1="545.1" y2="785.18" gradientUnits="userSpaceOnUse" xlink:href="#d"/><linearGradient id="i" x1="549.15" x2="637.68" y1="621.59" y2="712.16" gradientUnits="userSpaceOnUse" xlink:href="#a"/><linearGradient id="j" x1="473.92" x2="622.47" y1="816.23" y2="923.74" gradientUnits="userSpaceOnUse" xlink:href="#b"/><linearGradient id="k" x1="414.51" x2="622.93" y1="683.7" y2="923.78" gradientUnits="userSpaceOnUse" xlink:href="#d"/><linearGradient id="l" x1="385.7" x2="629.37" y1="617.75" y2="869.99" gradientUnits="userSpaceOnUse" xlink:href="#c"/></defs><g fill-rule="evenodd"><path d="M432.71 470.41v103.15l104.6-1.378-104.6-101.77z" fill="url(#e)" transform="translate(-254.11 -454.56)"/><path d="M261.54 463.99v358.37l282.56-1.378-1.378-243.97h-113.02v-113.02h-168.16zm170.3-1.995l112.92 112.77" fill="url(#f)" transform="translate(-254.11 -454.56)"/><path d="M268.84 469.81v345.81h267.97V583.43l-6.594.125-108.34 2.063 1.031-107 .063-6.438-6.438-.094-141.12-2.187-6.562-.094zm12.938 13.125l128.12 2-1.031 107.22-.063 6.656 6.656-.125 108.41-2.062v206.06H281.78v-319.75z" fill="url(#g)" transform="translate(-254.11 -454.56)"/><path d="M254.12 456.56v373.25l7.438-.031 282.56-1.375 7.437-.032-.031-7.437-1.375-243.97-.031-7.375h-.22l.095-.094-112.88-112.72v-.219h-183zm14.844 14.844h153.31v113.03h113.03l1.313 229.16-267.66 1.312v-343.5zm168.16 6.375l91.938 91.812h-91.938v-91.812z" fill="url(#h)" transform="translate(-254.11 -454.56)"/><path d="M549.15 609.01v103.15l104.6-1.378-104.6-101.77z" fill="url(#i)" transform="translate(-254.11 -454.56)"/><path d="M377.97 602.59v358.37l282.56-1.378-1.378-243.97h-113.02v-113.02h-168.16zm170.3-1.995l112.92 112.77" fill="url(#j)" transform="translate(-254.11 -454.56)"/><path d="M385.27 608.41v345.81h267.97V722.03l-6.594.125-108.34 2.063 1.031-107 .063-6.438-6.438-.094-141.12-2.187-6.562-.094zm12.938 13.125l128.12 2-1.031 107.22-.063 6.656 6.656-.125 108.41-2.062v206.06H398.21v-319.75z" fill="url(#k)" transform="translate(-254.11 -454.56)"/><path d="M370.56 595.16v373.25l7.438-.031 282.56-1.375 7.437-.032-.031-7.437-1.375-243.97-.032-7.375h-.218l.093-.094-112.88-112.72v-.219h-183zm14.844 14.844h153.31v113.03h113.03l1.312 229.16-267.66 1.313v-343.5zm168.16 6.375l91.938 91.812h-91.938v-91.812z" fill="url(#l)" transform="translate(-254.11 -454.56)"/></g></svg>