<svg enable-background="new 0 0 72 33.4" version="1.1" viewBox="0 0 72 33.4" xml:space="preserve" xmlns="http://www.w3.org/2000/svg" xmlns:xlink="http://www.w3.org/1999/xlink">
<symbol id="ag" viewBox="-36.001 -16.688 72.007 37.138">
			<g clip-rule="evenodd" fill-rule="evenodd">
					<radialGradient id="x" cx=".1992" cy="-6.5498" r="24.038" gradientTransform="matrix(1 0 0 -1.2324 0 -14.624)" gradientUnits="userSpaceOnUse">
					<stop stop-opacity=".149" offset=".0627"/>
					<stop stop-opacity=".149" offset=".2196"/>
				</radialGradient>
				<path d="m33.5-6.55c0-2.333-3.25-4.333-9.75-6-6.533-1.667-14.383-2.5-23.55-2.5s-17.017 0.833-23.55 2.5c-6.5 1.667-9.75 3.667-9.75 6s3.25 4.333 9.75 6 14.35 2.5 23.55 2.5 17.05-0.833 23.55-2.5 9.75-3.666 9.75-6z" fill="url(#x)"/>
					<radialGradient id="y" cx="12.55" cy="-14.55" r="12.642" gradientTransform="matrix(1 0 0 -1 0 -29.1)" gradientUnits="userSpaceOnUse">
					<stop stop-opacity=".149" offset=".0627"/>
					<stop stop-opacity=".149" offset=".2196"/>
				</radialGradient>
				<path d="m26.3-13.05c1.566 0.667 2.9 0.833 4 0.5-0.667-0.767-1.6-1.267-2.8-1.5-7.133-1.333-12.133-2.167-15-2.5-1.8-0.2-5.3-0.183-10.5 0.05l-7.2 0.45 6-0.15c1.767 0 6.5 0.333 14.2 1 5 0.433 8.766 1.15 11.3 2.15z" fill="url(#y)"/>
					<radialGradient id="z" cx="34.649" cy="-6.5996" r="1.85" gradientTransform="matrix(1 0 0 -1 0 -13.199)" gradientUnits="userSpaceOnUse">
					<stop stop-opacity=".149" offset=".0627"/>
					<stop stop-opacity=".149" offset=".2196"/>
				</radialGradient>
				<path d="m34.8-8.85c0.566 1.667 0.633 2.767 0.2 3.3-0.3 0.367-0.667 0.667-1.1 0.9l-0.6 0.3 1.4-0.4c0.933-0.4 1.367-0.883 1.3-1.45-0.134-0.9-0.534-1.783-1.2-2.65z" fill="url(#z)"/>
					<radialGradient id="aa" cx="-32.5" cy="-8.9497" r="3.2876" gradientTransform="matrix(1 0 0 -1 0 -17.899)" gradientUnits="userSpaceOnUse">
					<stop stop-opacity=".149" offset=".0627"/>
					<stop stop-opacity=".149" offset=".2196"/>
				</radialGradient>
				<path d="m-35.851-8.2c-0.2 0.4-0.2 0.917 0 1.55l0.35 0.8 0.15-1.5c0.1-1 2.217-2.567 6.35-4.7-3.666 0.767-5.949 2.05-6.85 3.85z" fill="url(#aa)"/>
				<linearGradient id="ab" x1="-33.9" x2="31.3" y1="-5.7246" y2="-5.7246" gradientUnits="userSpaceOnUse">
					<stop stop-color="#5C5C5C" offset="0"/>
					<stop stop-color="#4B4B4B" offset=".2627"/>
					<stop stop-color="#373737" offset=".6392"/>
					<stop stop-color="#545454" offset="1"/>
				</linearGradient>
				<path d="m23.45 0.95c0.6-0.067 1.167-0.267 1.7-0.6 0.434-0.267 1.284-0.75 2.55-1.45 1.1-0.633 1.75-1.067 1.95-1.3 0.167-0.233 0.45-0.517 0.85-0.85 0.3-0.333 0.483-0.683 0.55-1.05l0.25-2-0.5-1c-0.6-0.767-1.55-1.517-2.85-2.25-4.1-2.3-10.867-3.767-20.3-4.4-2.167-0.233-4.466-0.35-6.9-0.35h-4.1c-2.367 0-4.667 0.117-6.9 0.35-9.4 0.633-16.167 2.1-20.3 4.4-1.267 0.733-2.217 1.483-2.85 2.25l-0.5 1 0.25 2c0.067 0.367 0.25 0.717 0.55 1.05 0.4 0.333 0.684 0.617 0.85 0.85 0.2 0.233 0.85 0.667 1.95 1.3 1.3 0.7 2.15 1.183 2.55 1.45 0.533 0.333 1.1 0.533 1.7 0.6h1.3c0.3 0 1.833-0.417 4.6-1.25 1.367-0.433 2.7-0.85 4-1.25l12.9 4.4 1.95-0.95 1.95 0.95 12.9-4.4 4 1.25c2.767 0.833 4.3 1.25 4.6 1.25h1.3z" fill="url(#ab)"/>
				<linearGradient id="ac" x1="-33.9" x2="31.3" y1="-9.7749" y2="-9.7749" gradientUnits="userSpaceOnUse">
					<stop stop-color="#404040" offset="0"/>
					<stop stop-color="#383838" offset=".1569"/>
					<stop stop-color="#242424" offset=".6392"/>
					<stop stop-color="#3D3D3D" offset="1"/>
				</linearGradient>
				<path d="m7.649-12.55c8.3 0.567 14.567 1.783 18.8 3.65 2.5 1.1 4.083 2.317 4.75 3.65l0.1-1.05-0.5-1c-0.6-0.767-1.55-1.517-2.85-2.25-4.1-2.3-10.867-3.767-20.3-4.4-2.167-0.233-4.466-0.35-6.9-0.35h-4.1c-2.367 0-4.667 0.117-6.9 0.35-9.4 0.633-16.167 2.1-20.3 4.4-1.267 0.733-2.217 1.483-2.85 2.25l-0.5 1 0.15 1.05c0.6-1.3 2.167-2.517 4.7-3.65 4.233-1.867 10.5-3.083 18.8-3.65 1.767-0.233 4.067-0.35 6.9-0.35h4.1c2.867 0 5.168 0.117 6.9 0.35z" fill="url(#ac)"/>
					<linearGradient id="ad" x1="-2875.4" x2="-2865.3" y1="-4697.5" y2="-4697.5" gradientTransform="matrix(.8874 -.461 .461 .8874 4686.6 2839.3)" gradientUnits="userSpaceOnUse">
					<stop stop-color="#808080" offset="0"/>
					<stop stop-color="#686868" offset=".4941"/>
					<stop stop-color="#545454" offset="1"/>
				</linearGradient>
				<path d="m-28.05-2.8c0.6-0.467 1.383-0.9 2.35-1.3 1.566-0.667 3.316-1.15 5.25-1.45-0.333-0.167-1.667-0.25-4-0.25-0.567 0-0.917-0.233-1.05-0.7-0.1-0.267-0.183-0.4-0.25-0.4-0.167-0.033-0.3-0.05-0.4-0.05-0.233-0.033-0.417-0.1-0.55-0.2-0.167-0.1-0.184-0.25-0.05-0.45 0.033-0.067 0.267-0.317 0.7-0.75 0.433-0.467 0.9-0.867 1.4-1.2-0.333 0-1.483 0.35-3.45 1.05-1.3 0.467-2.4 1.133-3.3 2-0.667 0.667-1.017 1.2-1.05 1.6 0 0.167 0.083 0.3 0.25 0.4 0.2 0.067 0.3 0.2 0.3 0.4 0 0.233 0.15 0.35 0.45 0.35 0.533 0.034 0.816 0.05 0.85 0.05 0.167 0.066 0.35 0.167 0.55 0.3 0.133 0.1 0.267 0.15 0.4 0.15 0.267 0 0.467 0.184 0.6 0.55l0.4 0.5 0.6-0.6z" fill="url(#ad)"/>
				<linearGradient id="ae" x1="28.686" x2="19.686" y1="-7.9849" y2="-3.3099" gradientUnits="userSpaceOnUse">
					<stop stop-color="#616161" offset="0"/>
					<stop stop-color="#545454" offset="1"/>
				</linearGradient>
				<path d="m20.149-5.2c1.367 0.3 2.534 0.667 3.5 1.1 1.567 0.633 2.567 1.267 3 1.9l0.351-0.5c0.2-0.367 0.4-0.55 0.6-0.55 0.267 0 0.6-0.15 1-0.45 0.033 0 0.317-0.017 0.85-0.05 0.3 0 0.45-0.117 0.45-0.35 0-0.2 0.1-0.333 0.3-0.4 0.167-0.1 0.233-0.233 0.2-0.4-0.033-0.4-0.383-0.933-1.05-1.6-0.867-0.867-1.95-1.533-3.25-2-1.233-0.433-2.183-0.733-2.85-0.9l-0.65-0.15c0.5 0.333 0.983 0.733 1.45 1.2 0.4 0.4 0.633 0.65 0.7 0.75 0.133 0.2 0.117 0.35-0.05 0.45-0.133 0.1-0.317 0.167-0.55 0.2-0.233 0-0.383 0.017-0.45 0.05s-0.133 0.167-0.2 0.4c-0.1 0.267-0.2 0.434-0.3 0.5-0.133 0.133-0.383 0.2-0.75 0.2-2.367 0-3.717 0.083-4.05 0.25l1.749 0.35z" fill="url(#ae)"/>
				<path d="m26-0.95c0-1.633-2.65-3.033-7.95-4.2-5.334-1.166-11.75-1.75-19.25-1.75s-13.9 0.583-19.2 1.75-7.95 2.567-7.95 4.2 2.65 3.017 7.95 4.15c5.333 1.167 11.733 1.75 19.2 1.75 7.5 0 13.917-0.583 19.25-1.75 5.3-1.133 7.95-2.516 7.95-4.15z" fill="#222"/>
			</g>
		<defs>

			<path id="af" d="m17 18.9c-5 1.033-11.067 1.55-18.2 1.55-7.1 0-13.167-0.517-18.2-1.55-5.033-1.034-7.55-2.284-7.55-3.75v-15.75c0-1.467 2.517-2.733 7.55-3.8 5.033-1.033 11.1-1.55 18.2-1.55 7.133 0 13.2 0.517 18.2 1.55 5.033 1.066 7.55 2.333 7.55 3.8v15.75c0 1.467-2.517 2.716-7.55 3.75z"/>
		
		</defs>
		<clipPath id="r">
			<use xlink:href="#af"/>
		</clipPath>
		<g clip-path="url(#r)">
				<use transform="translate(-1.2002 5.3501)" x="-25.75" y="-15.4" width="51.5" height="26.75" xlink:href="#ah"/>
		</g>
</symbol>
<symbol id="ah" viewBox="-25.75 -15.4 51.5 26.75">
		<g clip-rule="evenodd" fill-rule="evenodd">
			<linearGradient id="s" x1="-25.75" x2="25.75" y1="2.625" y2="2.625" gradientUnits="userSpaceOnUse">
				<stop stop-color="#DF6E63" offset="0"/>
				<stop stop-color="#E29A94" offset=".0941"/>
				<stop stop-color="#E8CAC8" offset=".2039"/>
				<stop stop-color="#ECDDDC" offset=".2588"/>
				<stop stop-color="#AD5E57" offset="1"/>
			</linearGradient>
			<path d="m25.65 5.55c0.063-0.156 0.096-0.314 0.1-0.475v-0.075c-0.033-1.433-2.55-2.683-7.55-3.75-5-1.033-11.067-1.55-18.2-1.55-7.1 0-13.167 0.517-18.2 1.55-5 1.067-7.517 2.317-7.55 3.75v0.075c4e-3 0.16 0.038 0.318 0.1 0.475 0.533-1.267 3.017-2.367 7.45-3.3 5.033-1.033 11.1-1.55 18.2-1.55 7.133 0 13.2 0.517 18.2 1.55 4.433 0.933 6.917 2.033 7.45 3.3z" fill="url(#s)"/>
			<linearGradient id="t" x1="-24.337" x2="28.538" y1="6.0254" y2="6.0254" gradientUnits="userSpaceOnUse">
				<stop stop-color="#DF6E63" offset="0"/>
				<stop stop-color="#BE645B" offset=".6078"/>
				<stop stop-color="#AD5E57" offset="1"/>
			</linearGradient>
			<path d="m-25.65 5.55c-0.064 0.162-0.098 0.295-0.1 0.4v0.1c0 1.467 2.517 2.717 7.55 3.75 5.034 1.034 11.1 1.55 18.2 1.55 7.133 0 13.2-0.517 18.2-1.55 5.033-1.033 7.55-2.283 7.55-3.75v-0.1c-2e-3 -0.105-0.036-0.239-0.1-0.4-0.533-1.267-3.017-2.367-7.45-3.3-5-1.033-11.067-1.55-18.2-1.55-7.1 0-13.167 0.517-18.2 1.55-4.433 0.933-6.917 2.033-7.45 3.3z" fill="#ff0000"/>
			<linearGradient id="u" x1="-24.337" x2="28.538" y1="2.3252" y2="2.3252" gradientUnits="userSpaceOnUse">
				<stop stop-color="#934941" offset="0"/>
				<stop stop-color="#8F4740" offset=".2431"/>
				<stop stop-color="#83423B" offset=".5137"/>
				<stop stop-color="#703934" offset=".7882"/>
				<stop stop-color="#5E312D" offset="1"/>
			</linearGradient>
			<path d="m25.75-1.3h-51.5v6.3c0.033-1.433 2.55-2.683 7.55-3.75 5.033-1.033 11.1-1.55 18.2-1.55 7.133 0 13.2 0.517 18.2 1.55 5 1.067 7.517 2.317 7.55 3.75v-6.3zm-51.5 6.375v0.875c2e-3 -0.105 0.036-0.239 0.1-0.4-0.062-0.156-0.096-0.315-0.1-0.475zm51.4 0.475c0.064 0.162 0.098 0.295 0.1 0.4v-0.875c-4e-3 0.16-0.038 0.319-0.1 0.475z" fill="#ff0000"/>
			<linearGradient id="v" x1="-24.337" x2="28.538" y1="-11.875" y2="-11.875" gradientUnits="userSpaceOnUse">
				<stop stop-color="#934941" offset="0"/>
				<stop stop-color="#8F4740" offset=".2431"/>
				<stop stop-color="#83423B" offset=".5137"/>
				<stop stop-color="#703934" offset=".7882"/>
				<stop stop-color="#5E312D" offset="1"/>
			</linearGradient>
			<path d="m-25.75-8.35h51.5v-1.7c0-1.467-2.517-2.733-7.55-3.8-5-1.033-11.067-1.55-18.2-1.55-7.1 0-13.167 0.517-18.2 1.55-5.033 1.067-7.55 2.333-7.55 3.8v1.7z" fill="#ff0000"/>
			<linearGradient id="w" x1="-24.337" x2="28.538" y1="-4.8252" y2="-4.8252" gradientUnits="userSpaceOnUse">
				<stop stop-color="#934941" offset="0"/>
				<stop stop-color="#8F4740" offset=".2431"/>
				<stop stop-color="#83423B" offset=".5137"/>
				<stop stop-color="#703934" offset=".7882"/>
				<stop stop-color="#5E312D" offset="1"/>
			</linearGradient>
			<polygon points="25.75 -8.35 -25.75 -8.35 -25.75 -1.3 25.75 -1.3" fill="#ff0000"/>
		</g>
</symbol>
<use transform="matrix(1 0 0 -1 36 16.7)" x="-36.001" y="-16.688" width="72.007" height="37.138" xlink:href="#ag"/>
</svg>
