<svg viewBox="0 0 988.15 496.43" xmlns="http://www.w3.org/2000/svg" xmlns:xlink="http://www.w3.org/1999/xlink"><defs><linearGradient id="a"><stop stop-color="#4d4d4d" offset="0"/><stop stop-color="#1f1f1f" offset="1"/></linearGradient><linearGradient id="b"><stop stop-color="#ff2a2a" offset="0"/><stop stop-color="#a42727" offset="1"/></linearGradient><linearGradient id="d"><stop stop-color="#fff725" offset="0"/><stop stop-color="#fff725" stop-opacity="0" offset="1"/></linearGradient><linearGradient id="c"><stop stop-color="#fff" offset="0"/><stop stop-color="#b7fdff" offset="1"/></linearGradient><linearGradient id="e" x1="333.62" x2="410.39" y1="593.71" y2="708.62" gradientTransform="translate(-54.398 -68.377) scale(1.1038)" gradientUnits="userSpaceOnUse"><stop stop-color="#fff" offset="0"/><stop stop-color="#72d8db" offset="1"/></linearGradient><linearGradient id="f" x1="183.97" x2="242.96" y1="492.26" y2="608.32" gradientTransform="translate(-54.398 -68.377) scale(1.1038)" gradientUnits="userSpaceOnUse" xlink:href="#a"/><linearGradient id="g" x1="588.22" x2="645.09" y1="190.97" y2="314.21" gradientTransform="translate(0 308.27)" gradientUnits="userSpaceOnUse" xlink:href="#a"/><linearGradient id="h" x1="694.64" x2="660" y1="487.67" y2="478.38" gradientTransform="translate(0 308.27)" gradientUnits="userSpaceOnUse" xlink:href="#b"/><linearGradient id="i" x1="962.19" x2="924.15" y1="549.27" y2="545.98" gradientTransform="translate(0 308.27)" gradientUnits="userSpaceOnUse" xlink:href="#b"/><linearGradient id="j" x1="706.73" x2="669.69" y1="773.97" y2="765.4" gradientUnits="userSpaceOnUse" xlink:href="#c"/><linearGradient id="k" x1="758.61" x2="690.68" y1="659.79" y2="690.51" gradientUnits="userSpaceOnUse" xlink:href="#c"/><linearGradient id="l" x1="310.12" x2="311.88" y1="657.9" y2="636.94" gradientUnits="userSpaceOnUse" xlink:href="#c"/><linearGradient id="m" x1="513.16" x2="483.25" y1="274.92" y2="255.23" gradientTransform="translate(0 308.27)" gradientUnits="userSpaceOnUse" xlink:href="#c"/><linearGradient id="n" x1="501.55" x2="510.16" y1="417.51" y2="390.49" gradientTransform="translate(0 308.27)" gradientUnits="userSpaceOnUse" xlink:href="#c"/><linearGradient id="o" x1="876.48" x2="877.01" y1="496.01" y2="520" gradientUnits="userSpaceOnUse" xlink:href="#d"/><linearGradient id="p" x1="331.46" x2="323.88" y1="311.75" y2="303.04" gradientUnits="userSpaceOnUse" xlink:href="#b"/><linearGradient id="q" x1="220.93" x2="226.08" y1="297.32" y2="304.39" gradientUnits="userSpaceOnUse" xlink:href="#b"/><linearGradient id="r" x1="216.22" x2="220.34" y1="298.27" y2="305.09" gradientUnits="userSpaceOnUse" xlink:href="#b"/><linearGradient id="s" x1="235.51" x2="228.84" y1="257.62" y2="257.62" gradientUnits="userSpaceOnUse" xlink:href="#c"/><linearGradient id="t" x1="241.75" x2="236.04" y1="283.56" y2="260.27" gradientUnits="userSpaceOnUse"><stop stop-color="navy" offset="0"/><stop stop-color="#2a97ff" offset="1"/></linearGradient><linearGradient id="u" x1="310.06" x2="340.95" y1="231.14" y2="217.48" gradientUnits="userSpaceOnUse" xlink:href="#c"/><linearGradient id="v" x1="347.25" x2="346.59" y1="181.92" y2="208.44" gradientUnits="userSpaceOnUse" xlink:href="#c"/><linearGradient id="w" x1="336.46" x2="338.78" y1="291.33" y2="265.57" gradientUnits="userSpaceOnUse" xlink:href="#c"/><linearGradient id="x" x1="179.33" x2="193.32" y1="345.51" y2="366.72" gradientUnits="userSpaceOnUse" xlink:href="#d"/></defs><path d="M425.93 292.503s-25.552-12.158-32.428-20.793c-6.875-8.636-32.822-49.454-37.658-61.224-4.836-11.771-10.497-26.16-12.395-44.05-1.897-17.89-3.091-46.92-2.262-59.17.83-12.25 4.255-42.44 5.859-56.566s-2.86-14.352-7.072-16.794c-4.211-2.442-12.458-3.939-21.076-4.636-8.618-.698-98.406 9.311-126.2 9.523-27.798.212-82.543 5.5-108.58 5.07-26.042-.43-54.71-9.856-63.579-8.337-8.869 1.518-12.325 4.773-14.124 10.74S.495 63.83 4.391 69.043c3.898 5.211 7.115 11.468 16.186 15.584 9.072 4.115 37.84 10.186 49.076 10.058 11.236-.128 27.798-.212 27.798-.212s-21.25 4.321-34.149 4.26c-12.898-.061-34.2-.234-40.633-.403-6.433-.17-7.95 3.306-10.24 8.656-2.29 5.351-5.172 13.44-1.123 19.791 4.048 6.351 9.758 12.89 18.496 15.004 8.737 2.114 26.71 4.434 37.914 4.584 11.205.15 32.267-2.51 32.267-2.51s-15.037 6.43-25.663 8.59c-10.625 2.16-28.572 2.087-32.393 3.618-3.821 1.53-7.768 4.168-7.56 7.278s.071 9.266 5.14 14.049c5.067 4.783 7.894 7.068 16.82 7.52 8.926.451 20.402 3.156 29.454 2.5 9.052-.655 27.615-1.074 27.615-1.074s-4.683 1.713-5.029 4.76c-.345 3.047.536 7.636 4.962 10.663s15.28 8.748 25.684 8.526c10.405-.222 38.846 1.322 45.367 3.185 6.522 1.862 22.871 13.537 33.655 22.336 10.784 8.798 22.513 21.632 35.022 30.065 12.51 8.433 21.657 19.29 37.798 27.855 16.141 8.565 53.31 29.616 53.31 29.616z" stroke="#000" stroke-width="5.519"/><path d="M413.99 715.88s-54.684-7.609-78.425-30.783-73.69-107.11-73.69-107.11-26.651 9.88-36.553 5.67c-9.902-4.21-15.116-12.656-13.19-19.731 1.925-7.076 33.428-25.102 33.428-25.102s-25.928 3.51-35.302-2.885-12.654-12.097-8.45-19.475c4.204-7.378 23.339-15.306 23.339-15.306s-12.898-.06-18.42-8.262c-5.522-8.202-8.123-14.95-3.49-21.156 4.631-6.208 17.95-14.795 28.361-17.541s37.901-2.712 58.686-5.403 59.611-6.14 68.84-3.41c9.229 2.731 12.03 2.769 14.36 6.96s-6.995 41.85-5.473 75.407c1.522 33.557 2.32 73.485 15.562 97.712 13.241 24.227 31.608 55.207 38.49 61.319 6.88 6.111 25.942 16.13 25.942 16.13z" fill="url(#e)" transform="translate(-29.93 -410.447)"/><path d="M219.81 454.25s-17.845 8.916-20.444 14.512-5.663 12.823-2.629 18.218c3.035 5.394 7.45 13.47 15.972 14.998 0 0-10.814 3.822-13.658 9.11-2.844 5.289-6.311 13.592-3.088 17.325 3.224 3.732 8.16 12.148 14.744 13.456 6.585 1.308 18.96 1.03 18.96 1.03s-18.008 12.824-19.958 17.653c-1.95 4.829-4.392 9.04.336 14.346 4.728 5.306 8.896 13.073 15.884 13.305 6.987.232 34.369-6.199 34.369-6.199s46.032 73.958 53.524 82.102c7.492 8.145 16.477 22.911 23.76 27.946 7.285 5.035 16.168 10.812 27.549 14.348 11.382 3.536 46.363 11.714 46.363 11.714l-38.076 11.67s-39.138-20.994-60.404-36.312c-21.266-15.319-40.72-29.309-46.983-35.912s-39.291-34.477-48.028-36.59c-8.738-2.115-41.767-2.777-48.691-3.563-6.925-.786-18.986-3.277-24.513-8.954-5.528-5.677-.499-10.437 3.045-11.998 3.544-1.562 9.769-4.502 9.769-4.502s-31.071 4.329-50.182 2.16-31.21-1.859-35.378-9.626c-4.169-7.767-2.583-14.32.28-14.837 2.865-.517 19.024.475 33.81-3.738 14.786-4.213 56.229-20.83 56.229-20.83s-33.387 7.432-50.811 7.699c-17.424.267-50.667-.981-59.941-10.73-9.274-9.75-7.934-16.611-5.058-22.176 2.876-5.565 4.235-7.655 6.76-7.65 2.524.006 38.782 1.877 57.968-1.556s55.191-11.691 55.191-11.691-42.187 5.872-66.19 2.307-48.162-5.747-56.725-16.818c-8.562-11.071-6.826-16.485-3.855-22.881 2.97-6.396 2.202-7.044 7.873-10.048 5.671-3.004 21.724 3.868 35.573 5.44s63.748 1.904 87.825-.133 48.83-2.594 48.83-2.594z" fill="url(#f)" transform="translate(-29.93 -410.447)"/><path d="M296.185 194.637s-8.771 29.073-10.94 40.999-4.927 25.92-1.182 35.183c3.745 9.265 8.18 19.021 16.951 23.259 8.771 4.237 27.003 8.081 39.323 6.504s23.554-7.391 29.763-14.191c6.209-6.8 24.933-45.926 34.001-68.002 9.067-22.076 20.302-42.378 27.103-57.457 6.8-15.08 20.204-44.546 26.413-54.599 6.209-10.052 17.247-26.51 36.661-40.11s39.421-19.81 58.147-23.752c18.725-3.942 49.671-6.21 61.005-5.716s22.174-1.971 31.833-2.169c9.658-.197 61.99 2.76 75.788 2.957s44.94.099 60.906-1.281c15.966-1.38 56.866-8.574 60.512-7.49s9.067 4.73 11.334 10.545 4.533 14.192 1.97 20.992c-2.562 6.8-5.913 13.206-13.501 16.36-7.589 3.153-39.125 8.18-58.738 10.84s-59.131.69-58.64.789c.494.098 13.306 6.406 28.582 7.884s35.38 6.308 50.952 6.012c15.571-.296 42.97-2.957 47.01-1.084 4.04 1.872 5.716 5.815 5.223 8.574-.493 2.76-2.07 15.079-6.012 21.386-3.942 6.308-9.56 13.404-15.867 15.473s-30.846 4.632-41.294 3.351l-75.59-9.264s31.142 9.56 41.884 12.122c10.743 2.562 32.752 9.436 43.791 11.59 11.959 2.332 17.445.735 20.402 3.298s2.135 6.104-.132 9.75-8.279 16.656-16.951 22.372c-8.673 5.717-22.47 8.082-33.114 7.096-10.644-.985-41.097-8.87-52.529-12.812-11.432-3.942-51.642-13.205-57.457-13.305-5.815-.098-16.951.394-16.951.394s6.997 8.082 15.965 11.334 25.821 4.435 27.693 8.082.592 6.997-3.646 10.545c-4.238 3.548-16.557 11.826-26.708 12.024s-45.433-12.714-45.433-12.714 3.35 5.815 5.716 7.49c2.365 1.675 9.165 5.815 9.855 8.377s-2.266 6.603-6.997 9.166c-4.73 2.562-8.673 4.336-14.29 4.829-5.617.493-21.682-3.548-28.087-6.21-6.406-2.66-12.32-5.715-12.32-5.715s-.788 2.464-2.562 3.252-4.435.986-4.435.986 2.168 1.576.69 5.124c-1.478 3.548-4.04 6.603-7.589 7.983s-11.925 2.76-15.375 5.815c-3.449 3.055-16.359 27.2-16.359 27.2s51.642 6.012 62.877 6.505 56.767 1.676 56.767 1.676 30.157-10.053 40.013-13.502 24.343-10.25 27.793-8.968 3.843 3.942 3.843 5.913-1.084 10.348-1.084 10.348 13.896-1.577 20.006-2.562c6.11-.986 11.926-1.971 15.08-2.464 3.153-.493 8.18-3.844 10.446-3.647 2.267.197 4.83 2.366 5.52 6.012s1.675 11.63-.198 15.867c-1.872 4.238-12.122 13.896-17.937 16.36-5.814 2.463-33.606 10.446-45.433 11.235-11.826.789-37.845 2.168-37.845 2.168s19.02 3.548 28.975 3.745c9.954.197 21.977 1.577 27.989 1.084s15.67-2.66 17.345-1.478c1.675 1.183 3.35 3.055 2.957 5.618-.395 2.562-1.282 8.18-5.52 12.22-4.237 4.04-8.278 8.377-15.473 10.15-7.194 1.775-21.878 2.366-34.493 1.48s-23.752-3.253-23.752-3.253l-5.913 3.154s12.024 4.632 13.995 6.603c1.971 1.97 1.577 5.223.986 7.49-.592 2.267-2.563 5.913-2.563 5.913s129.399 33.804 135.017 34.888c5.618 1.084 25.033 5.42 31.242 4.533s35.381-22.273 39.619-24.835c4.237-2.563 10.25.788 12.023 2.956 1.774 2.169 4.041 5.322 4.14 7.885.098 2.562 0 4.73 0 4.73s7.982-4.632 12.32-4.533c4.336.098 12.81 2.562 14.487 6.012 1.675 3.449 2.266 6.11.788 7.785-1.478 1.676-13.7 11.137-16.163 13.7-2.464 2.562-3.745 5.026-3.745 5.026s6.603 6.11 13.798 7.194c7.194 1.084 13.305 3.253 22.667 1.577 9.363-1.675 21.485-4.533 26.708-2.858s8.18 4.14 8.77 7.195c.592 3.055-.985 8.77-.985 8.77s4.041-1.478 8.279-.886 7.589 1.872 7.983 5.913c.394 4.04-3.548 13.108-3.548 13.108s2.168-.789 3.252 1.084 2.168 5.519.591 8.672c-1.576 3.154-7.785 9.659-12.417 9.363-4.632-.296-26.216-.098-37.55-3.844-11.333-3.744-29.96-9.165-42.97-15.079-13.009-5.913-38.238-19.71-38.238-19.71l-70.86-17.74s-11.235 3.746-24.047.296c-12.812-3.449-17.74-12.713-17.74-12.713l-95.498-24.638s-7.49 3.646-16.853 5.026-40.8-1.774-54.697-3.646c-13.896-1.873-49.77-6.308-49.77-6.308s-17.64 3.055-38.83 4.632-41.59 0-51.445-2.956-13.798-10.94-13.798-10.94-.886 4.238 1.774 14.98c0 0-16.26-9.954-20.302-15.08-4.04-5.124-5.913-10.643-5.913-10.643s-.69 4.435.197 9.56 7.096 19.808 7.096 19.808-20.894-11.235-26.117-15.768-8.87-7.392-8.87-7.392-9.067.493-27.595-3.055-51.445-9.067-64.454-16.163c-13.01-7.096-31.34-21.584-37.647-35.085-3.062-6.553-5.618-16.065-6.702-27.201-1.084-11.137-1.97-20.795-.591-34.79s7.687-25.723 9.757-34.198c2.07-8.475 8.87-26.017 8.87-26.017l45.137-25.428z" stroke="#000" stroke-width="5.518999999999999"/><path d="M251.349 207.154s-16.557 44.744-17.74 62.877c-1.182 18.135 2.76 49.671 9.659 58.344 6.898 8.673 23.85 29.566 53.81 38.041 29.96 8.476 68.79 12.812 68.79 12.812l-6.11-10.84s13.205 14.585 18.134 17.738c4.928 3.154 18.134 10.841 18.134 10.841s-3.35-9.264-3.153-16.163 1.773-12.516 1.773-12.516 5.125 11.926 11.827 17.839 11.432 8.968 11.432 8.968c-2.267-10.15-.395-18.035-.395-18.035s5.52 11.038 12.024 14.783c6.505 3.745 45.138 6.9 62.089 4.337s92.443-16.36 92.443-16.36l-46.32 13.995s37.254 5.52 51.84 6.505c14.585.985 28.776 5.519 42.771 1.183s23.85-7.293 27.004-13.6c3.154-6.308 3.745-10.25.197-14.192S606.93 354.79 606.93 354.79l26.413 3.35s13.205.789 23.455-5.716l-19.316-6.11s40.8 8.278 52.036 7.49c11.236-.788 26.61 2.76 36.86-5.716 10.249-8.476 11.63-15.375 10.446-17.149-1.182-1.774-10.25 0-16.754.394-6.505.395-44.94-1.97-58.738-4.139s-20.499-9.264-20.499-9.264 24.244 4.928 48.686 1.971 41.59-6.504 53.612-12.22 18.135-11.235 19.12-18.725c.985-7.49.196-12.417-2.563-13.6s-8.476 2.563-13.206 3.351c-4.73.789-40.998 6.899-62.483 9.264s-74.51 1.487-95.696.372c-21.185-1.115-67.18-6.69-67.18-6.69s-10.731 15.053-27.317 21.464-33.31 8.223-46.691 4.6-25.367-16.866-25.367-16.866 14.077 9.617 30.942 5.715c16.865-3.903 32.475-15.053 37.353-24.391 4.878-9.338 17.004-34.705 23.137-49.896s16.028-28.572 25.505-38.19c9.478-9.617 11.847-10.453 11.847-10.453s4.181 2.23 9.756-.418 7.945-6.411 7.945-6.411-6.83-2.09-11.568-7.666c0 0 14.634 5.157 23.694 4.042 9.06-1.115 23.554-3.345 27.596-10.314 4.042-6.969.279-11.429-3.763-13.937-4.042-2.51-33.45-10.314-33.45-10.314s20.07 4.32 27.456 4.181 29.687-2.509 35.82-8.084 6.411-10.453 4.878-14.356c-1.533-3.902-5.436-11.01-11.29-14.077s-35.82-10.453-35.82-10.453l8.92-.418 8.085 1.673s9.477-.14 17.422-6.412c7.944-6.272 12.544-12.265 12.405-18.258s-2.091-12.125-10.036-15.47c-7.944-3.346-13.937-3.346-21.046-3.624-7.108-.279-11.428.14-11.428.14l14.215-2.092s1.952-1.115-.278-1.811c-2.23-.697-30.105.139-42.928 3.623-12.823 3.485-44.322 5.994-70.246 25.367-25.924 19.373-44.182 52.127-52.544 71.639-8.363 19.513-40.14 87.389-47.388 103.974s-11.986 32.753-25.366 44.88-27.178 15.47-44.6 13.937-30.523-6.69-36.238-14.215c-5.714-7.527-11.847-19.234-11.429-30.524.419-11.29 8.363-44.46 11.987-54.077s1.811-21.185 1.811-21.185z" fill="#fff"/><path d="M472.05 705.04s13.125 7.59 25.268 6.786c12.143-.804 33.929-7.411 44.196-18.75 10.268-11.34 16.339-27.857 20.268-31.964s16.875-5.804 19.018-8.572c2.143-2.768 3.125-3.839 2.679-6.16-.447-2.322-3.929-3.661-3.929-3.661s4.554.625 7.232-.536c2.679-1.16 3.215-5 3.215-5s14.107 8.482 23.66 9.822c9.554 1.339 18.304 3.214 23.482-.09 5.18-3.303 8.483-5.535 7.768-7.321-.714-1.786-6.071-5.09-9.375-8.214s-12.589-15.09-12.589-15.09 18.214 9.376 27.768 11.876 17.411 7.232 28.214 3.839c10.804-3.393 14.464-5.09 16.875-8.214 2.411-3.125 4.643-4.286 3.929-6.34-.714-2.053-8.214-2.053-13.393-3.482s-16.607-4.821-22.411-10.357c-5.804-5.536-5.446-8.214-5.446-8.214s11.339 1.16 16.696.357c5.357-.804 33.929 6.25 42.768 8.304 8.839 2.053 44.018 12.857 53.214 14.018 9.196 1.16 28.66.714 35.446-6.25 6.785-6.965 15.893-19.643 14.107-22.857-1.786-3.215-3.661-.893-9.018-1.786-5.357-.893-47.768-11.786-64.286-16.34s-47.143-16.517-47.143-16.517 47.946 7.768 58.304 9.107c10.357 1.34 53.839 4.286 62.946 2.41s16.16-4.553 20-9.642c3.839-5.09 9.643-19.375 8.482-23.036-1.16-3.66-3.304-5.179-5.536-5.179s-29.732 1.072-39.91 1.072-32.055-3.215-48.572-5.982c-16.518-2.768-43.125-13.304-43.125-13.304s42.946 3.928 71.696 0 49.821-5.268 55.625-9.643c5.804-4.375 9.107-11.161 9.107-17.321 0-6.161-.536-11.875-3.84-15.625s-3.838-4.822-7.5-4.822-10.713 1.607-15.713 2.232-36.607 4.197-54.821 5.804-58.75-.714-75.446-1.34-21.875-1.428-34.911-.803a852.862 852.862 0 0 0-25.09 1.607l-.446 1.518s13.661.625 18.571 4.286 7.322 9.643 7.143 15.446-5.803 14.196-11.25 17.41c-5.446 3.215-14.018 5.804-14.018 5.804s12.054 1.875 15.714 5.358c3.661 3.482 10.804 11.25 11.071 17.589.268 6.339-4.107 11.518-11.696 14.464-7.589 2.946-24.554 4.464-24.554 4.464s6.697 2.946 7.679 5.714c.982 2.768 1.607 8.036-.446 11.161-2.054 3.125-9.911 8.482-18.75 9.732s-15.982 1.429-15.982 1.429-3.84 6.518-9.286 8.571-10.357.982-10.357.982-8.66 6.161-17.054 17.411c-8.393 11.25-15.982 26.43-22.411 42.232s-12.68 30-17.857 34.821-9.643 8.483-19.375 12.768c-9.732 4.286-15.893 5.625-26.607 4.018z" fill="url(#g)" transform="translate(-84.328 -478.824) scale(1.1038)"/><path d="M664.777 378.144l-.394 5.815s135.999 36.76 146.253 39.421c10.25 2.66 24.54 6.603 33.114 5.618 8.574-.986 19.317-6.604 23.752-11.236 4.435-4.632 18.035-10.348 19.02-12.418.986-2.07.789-5.617-2.365-8.475-3.154-2.859-5.913-5.42-11.136-2.859-5.223 2.563-23.358 18.135-30.946 21.78s-20.795 2.267-27.891.69-72.93-17.444-93.429-22.963c-20.499-5.519-55.978-15.375-55.978-15.375z" fill="#8e2100"/><path d="M677.41 783.43s142.86 38.214 149.02 39.821c6.16 1.607 12.679 1.875 17.054 1.16 4.375-.714 14.821-4.731 19.643-8.214 4.821-3.482 18.839-12.857 25.982-14.464 7.143-1.607 9.554-.178 12.054 1.072s3.929 2.768 4.018 4.286c.09 1.517-4.822 6.607-9.732 10-4.911 3.392-11.786 7.678-12.143 14.375-.357 6.696 1.696 9.285 4.464 11.339s18.571 10.804 29.464 14.286c10.893 3.482 28.125 7.767 35.357 8.214s11.607-.447 12.946.982 1.071 4.107-.09 6.071c-1.16 1.965-4.106 6.072-10.178 6.072s-22.68.089-39.732-5.536c-17.054-5.625-33.661-12.321-45.357-18.929-11.696-6.607-19.464-10.804-19.464-10.804l-61.607-14.375 4.91-4.91s-14.82 6.339-28.214 3.75-17.32-13.394-17.32-13.394l-1.34 1.518-80.357-20.357s5.179-2.053 7.857-5.893c2.679-3.839 2.768-6.071 2.768-6.071z" fill="url(#h)" transform="translate(-84.328 -478.824) scale(1.1038)"/><path d="M894.02 844.33s20 10.179 32.411 13.393c12.411 3.214 35.446 5.804 35.446 5.804s5.357-8.572 3.66-11.696-4.196-3.125-7.946-2.768-18.036 2.857-27.857 1.875-35.714-6.607-35.714-6.607z" fill="url(#i)" transform="translate(-84.328 -478.824) scale(1.1038)"/><path d="M894.51 435.994s-2.562 3.351-1.773 6.9c.788 3.547 5.174 6.996 5.174 6.996s36.909 7.343 45.433 7.786c8.525.444 21.633-.443 21.633-.443s2.217-6.16 1.133-8.574-3.252-5.372-7.983-5.618c-4.73-.246-17.592 3.252-27.151 3.252-9.56 0-19.514-.246-24.343-3.006s-12.122-7.293-12.122-7.293z" fill="#8e2100"/><path d="M651.34 760.49s20.192 7.235 23.125 9.554c2.046 1.617 3.84 4.642 3.84 4.642s1.696-2.767 2.32-5 1.34-4.017-.267-5.267c-1.607-1.25-13.571-6.518-13.571-6.518s-4.643 2.321-15.446 2.589z" fill="url(#j)" transform="translate(-84.328 -478.824) scale(1.1038)"/><path d="M663.75 694.59s28.214-8.929 33.839-11.607 20.446-8.929 22.5-6.875-.446 12.5-.446 12.5-19.018 3.393-26.875 4.196-29.018 1.786-29.018 1.786z" fill="url(#k)" stroke="#000" transform="translate(-84.328 -478.824) scale(1.1038)"/><path d="M338.15 612.43l-37.844 21.906c-3.41 6.566-4.766 12.967-9.125 27.188 5.045-8.52 12.79-13.969 21.469-13.969 6.548 0 13.314 4.108 18.039 9.291 2.271-9.978 4.148-20.8 5.805-25.198 3.283-8.712 1.656-19.219 1.656-19.219z" fill="url(#l)" transform="translate(-84.328 -478.824) scale(1.1038)"/><path d="M417.7 696.79c19.445-25.001 31.315-55.558 42.426-85.358 11.112-29.8 34.345-74.751 41.416-84.853 7.071-10.102 21.213-30.305 42.426-37.881 21.213-7.576 42.426-13.637 54.548-14.142 12.122-.505 27.022-2.273 35.86 1.01 8.839 3.283 13.89 3.536 11.364 9.092s-6.06 9.849-18.688 10.354c-12.627.505-57.074-1.768-83.085 35.355-26.011 37.123-43.689 96.722-60.104 120.21-16.415 23.486-21.971 34.093-31.315 40.406-9.344 6.313-34.85 5.808-34.85 5.808z" fill="url(#m)" transform="translate(-84.328 -478.824) scale(1.1038)"/><path d="M459.11 697.8s.758 33.082 11.617 45.709 20.456 22.476 38.133 19.951 30.557-8.586 38.133-22.476c7.576-13.89 2.273-52.275 2.273-52.275s-11.364 13.637-23.74 18.94c-12.373 5.303-22.98 8.081-35.607 6.819s-30.81-16.668-30.81-16.668z" fill="url(#n)" transform="translate(-84.328 -478.824) scale(1.1038)"/><path transform="translate(-84.328 -138.556) scale(1.1038)" d="M850.3 516.81s29.8-19.445 37.376-20.708c7.576-1.263 11.617-1.01 13.132 1.263 1.515 2.272-5.808 9.091-12.122 14.142-6.314 5.05-9.091 8.586-9.091 12.879s-10.607 5.05-20.708 3.03c-10.102-2.02-8.587-10.607-8.587-10.607z" fill="url(#o)"/><g><path d="M184.894 185.767s-25.427 21.78-40.702 33.114-57.654 43.66-69.086 52.037c-11.432 8.377-24.836 18.725-28.975 21.584-4.139 2.858-15.473 6.011-17.247 9.264s-1.182 4.237 0 5.716 4.14 3.745 8.082 3.45c3.942-.296 8.278-.1 14.685-2.465 6.406-2.365 63.27-24.441 80.715-31.536 17.445-7.096 64.75-26.117 80.321-34.79 15.572-8.673 62.09-31.832 72.635-37.253 10.545-5.42 14.191-6.899 14.191-6.899s12.516-2.267 20.4-6.11 19.909-11.334 24.639-18.824c4.73-7.49 4.533-16.951 4.533-16.951l4.632 3.252-1.577-4.337 3.942 2.07s-1.28-5.913-5.026-11.038l7.983 3.154s-5.52-12.32-15.769-16.261c0 0 3.35-8.673 5.125-16.557s-2.563-22.766-6.11-29.567c-3.549-6.8-9.363-14.389-9.363-14.389s6.495-.565 10.644-2.07c4.465-1.62 8.968-3.843 10.446-6.603s1.971-7.983 1.281-13.403c0 0-10.052 6.702-15.177 8.476s-12.023 2.07-12.023 2.07 18.33-8.674 22.765-13.996c4.435-5.322 10.546-13.403 10.841-20.204.296-6.8-2.956-12.122-6.307-15.769-3.351-3.646-14.586-8.18-14.586-8.18s.296 19.219-3.843 26.708c-4.14 7.49-5.716 10.25-9.363 13.7-3.646 3.448-7.687 6.504-7.687 6.504s.69-3.943 0-7.885-2.464-6.898-5.026-8.77-6.9-2.859-6.9-2.859 2.563 6.505 1.775 11.236c-.789 4.73-5.223 10.15-5.223 10.15s-18.135-7.982-32.523-7.194c-14.389.789-34.198 2.07-46.221 8.673-12.024 6.603-26.018 13.7-29.467 20.204s-3.548 25.427-4.632 31.832c-1.085 6.406-3.154 21.584-6.505 26.708-3.35 5.125-7.786 7.293-11.136 12.024-3.351 4.73-6.406 14.881-6.406 14.881l5.42-4.04s-2.267 4.139-1.38 8.475c.887 4.336 2.505 9.931 4.928 13.7 1.82 2.83 5.572 6.184 8.279 8.968z" stroke="#000" stroke-width="5.518999999999999"/><path d="M283.63 196.42c-10.593 9.198-48.364 31.776-76.1 45.296S56.31 305.13 45.856 307.362c-10.453 2.23-14.076.418-15.191-2.37-1.115-2.787 9.617-6.271 15.61-9.756s81.117-60.907 95.612-71.36c14.495-10.454 51.848-40.558 57.284-48.643 5.436-8.083 12.404-13.519 18.815-13.798 6.412-.279 20.489 3.484 24.53 5.993 4.042 2.509 12.686 7.157 27.875 6.272 17.684-1.031 19.93-11.429 42.232-16.307-6.514 14.829-16.738 27.81-28.99 39.025z" fill="#ff2a2a"/><path transform="translate(-53.107 -164.28) scale(1.1038)" d="M300.65 334.23c27.653-11.49 45.331-41.29 45.331-41.29s-2.652-2.147-10.102-1.515c0 0-12.627 25.759-35.229 42.805z" fill="url(#p)"/><path transform="translate(-53.107 -164.28) scale(1.1038)" d="M221.22 294.96c6.06 4.42 8.144 6.755 8.144 6.755-2.525 3.978-4.924 6.061-4.924 6.061s-3.662-4.861-3.22-12.816z" fill="url(#q)"/><path d="M187.036 183.869l4.738-4.878s-5.366-3.624-6.69-8.223c-1.324-4.6-1.463-11.011-1.463-11.011l-4.739.836s5.715-3.902 10.663-2.787 12.055 9.129 12.055 9.129 7.108-7.039 14.775-7.805c7.665-.767 19.582 2.23 25.227 4.947 5.645 2.718 12.892 7.666 23.625 7.596 10.732-.07 14.634-2.02 18.258-4.25s19.513-12.614 32.126-12.962 23.763 7.108 23.763 7.108l-7.944-2.021s-4.46 7.735-10.593 15.052-21.534 21.186-21.534 21.186 17.312-4.353 26.872-10.069c9.56-5.716 15.522-12.664 18.183-18.872 2.661-6.21 2.218-15.128 2.218-15.128l3.893 3.597-2.07-4.533c1.675.591 3.696 2.217 3.696 2.217s-2.908-8.426-8.23-11.58l8.821 3.252s-5.864-7.785-12.122-9.51c-6.258-1.725-19.957-.444-19.957-.444s10.004-3.005 19.76-2.217c0 0 6.357-14.191 5.963-24.54-.394-10.348-7.44-23.603-12.91-30.304-5.47-6.702-7.933-10.102-7.933-10.102s2.83 1.72 5.124 2.267c3.105.739 11.476-1.581 14.537-2.76 3.914-1.507 9.018-5.618 7.737-12.418 0 0-6.702 5.125-12.91 6.505s-22.864 2.76-22.864 2.76 19.562-7.786 28.777-16.213c9.215-8.427 11.678-14.537 12.418-19.71.739-5.175-.789-16.804-14.586-20.45 0 0-.394 14.486-4.09 22.567-3.696 8.082-9.461 14.094-12.91 17.593-3.45 3.498-13.748 7.983-13.748 7.983s4.216-4.314 4.83-9.166c.541-4.287-.395-9.116-6.012-11.482 0 0 .394 7.638-.789 11.236-1.183 3.597-5.716 9.363-5.716 9.363s-16.015-9.018-36.317-8.23c-20.302.789-32.129 3.745-46.124 11.038s-23.258 13.6-25.623 19.514c-2.366 5.914-2.464 27.694-3.548 33.065s-3.795 17.739-6.357 22.667c-2.562 4.928-8.525 8.722-10.94 11.826s-4.237 7.441-4.237 7.441l4.878-5.47s-2.267 5.914-2.66 9.166c-.395 3.252.147 8.771.147 8.771l1.281-4.927s.493 7.539 2.218 11.875 9.036 11.506 9.036 11.506z" fill="#fff"/><path transform="translate(-53.107 -164.28) scale(1.1038)" d="M216.24 293.31l2.525.19c-.063 10.29 4.988 15.72 4.988 15.72l-.82.82s-7.072-3.535-6.693-16.73z" fill="url(#r)"/><path d="M186.77 149.596s7.49.887 10.743 2.957 12.024 6.8 12.024 6.8l-3.548-4.435s5.42.788 7.786-.69c2.365-1.478 4.612-4.811 5.321-8.18 1.972-9.362 1.873-43.264 1.479-50.755-.394-7.49-3.351-15.571-8.771-16.065-5.42-.492-12.812 11.432-14.094 19.81-1.28 8.376-3.35 33.31-1.872 50.064 0 0-2.145-.719-3.252-.69-1.395.037-5.815 1.183-5.815 1.183z"/><path transform="translate(-53.107 -164.28) scale(1.1038)" d="M227.5 284.18s2.59 2.946 6.34 3.304c4.274.407 6.07.714 8.124-1.518s3.482-10.357 3.572-16.964c.089-6.607.268-23.214-.357-26.25-.625-3.036-3.483-10.625-6.965-10.982-3.482-.357-8.125 5-9.375 9.732-1.25 4.732-1.785 13.75-1.785 19.107 0 5.357-.09 15.536.446 23.57z" fill="url(#s)"/><path d="M249.356 92.342s8.674-11.571 17.05-11.432c7.884.13 12.91 10.15 12.91 10.15s-6.702-7.807-13.108-7.588c-6.108.21-16.853 8.87-16.853 8.87zM238.12 139.055s4.829-20.007 18.922-25.723c10.34-4.194 17.927-3.497 23.062.295 6.599 4.874 9.165 16.261 9.165 16.261l-2.66 1.085s-7.688-9.856-18.036-9.56c-10.348.296-14.191 2.957-18.626 5.815-4.435 2.858-11.826 11.826-11.826 11.826zM245.56 145.854l1.231 8.081-1.478-.197-.197 2.365c3.153-.295 10.791 1.134 10.791 1.134s-3.695-2.415-6.948-2.858zM268.871 157.19s6.406-9.461 15.474-13.896l1.182-5.223 1.084 3.942c8.771-4.238 19.218-5.913 19.218-5.913s-15.768 5.815-20.302 8.673c-4.533 2.858-16.655 12.417-16.655 12.417zM219.083 133.659c0 11.554-4.01 20.92-8.955 20.92s-8.955-9.366-8.955-20.92c0-11.554 4.01-20.92 8.955-20.92s8.955 9.366 8.955 20.92z"/><path transform="matrix(.9642 0 0 1.04727 -20.281 -148.353)" d="M246.16 268.92c0 9.862-3.318 17.857-7.41 17.857s-7.411-7.995-7.411-17.857c0-9.862 3.318-17.857 7.41-17.857s7.411 7.995 7.411 17.857z" fill="url(#t)"/><path d="M214.265 137.23c0 5.137-1.591 9.302-3.554 9.302s-3.554-4.165-3.554-9.302c0-5.138 1.591-9.303 3.554-9.303s3.554 4.165 3.554 9.303z"/><path d="M211.638 125.132c0 5.138-1.591 9.303-3.554 9.303s-3.554-4.165-3.554-9.303c0-5.137 1.591-9.302 3.554-9.302s3.554 4.165 3.554 9.302z" fill="#fff"/><path transform="translate(-53.107 -164.28) scale(1.1038)" d="M354.11 268.38s-13.393-.714-25.536 2.143-18.036 5-18.036 5 5.179-26.786 1.964-36.43c-3.214-9.642-9.821-23.392-20.357-24.285-10.536-.893-31.07-1.786-43.393 1.071-12.32 2.858-17.32 3.929-20.357 10-3.035 6.072-2.857 9.465-2.857 9.465s.179-11.786 1.429-14.821c1.25-3.036 11.964-12.321 22.679-16.786 10.714-4.465 17.143-8.215 30.536-9.643s25.055-.329 35.714 3.571c7.321 2.679 14.21 5.513 20.893 11.964 5.178 5 12.954 11.805 16.607 18.571 2.96 5.482 6.071 11.25 5.714 19.286-.357 8.036-5 20.893-5 20.893z" fill="url(#u)"/><path transform="translate(-53.107 -164.28) scale(1.1038)" d="M359.5 155.66s-.34 13.116-3.688 20.438c-3.348 7.321-8.593 12.768-11.719 15.938-3.125 3.17-12.438 7.25-12.438 7.25s3.82-3.917 4.376-8.313c.49-3.883-.349-8.263-5.438-10.406 0 0 .353 6.93-.719 10.188-.726 2.21-4.191 6.993-5.482 8.768 4.412 2.29 7.371 4.1 11.33 6.961 7.546-3.112 19.507-8.741 25.746-14.448 8.348-7.634 10.58-13.156 11.25-17.844.67-4.687-.72-15.228-13.22-18.53zm8.313 42.688s-6.063 4.625-11.688 5.875c-3.811.847-14.508 2.172-19.372 2.63 3.735 1.73 7.216 4.235 10.872 5.245 2.786.77 10.414-1.432 13.188-2.5 3.545-1.365 8.16-5.09 7-11.25z" fill="url(#v)"/><path transform="translate(-53.107 -164.28) scale(1.1038)" d="M291.81 293.06c4.088-4.493 9.905-9.874 15.026-12.753 10.538-5.926 17.234-8.111 25.885-8.713 15.401-1.07 20.203-2.146 25.38.38s8.839 7.197 8.839 7.197l-8.334-2.4c6.313 4.041 8.713 10.733 8.713 10.733s-1.263-.883-3.662-2.651l1.894 4.798s-1.642-2.778-3.788-3.788l-1.01 11.743s-11.87-9.091-22.602-9.091-18.562 2.651-25.506 7.07c-6.945 4.42-6.945 5.809-13.258 7.072-6.314 1.262-10.102 1.768-13.132-1.263s3.309-5.864 5.555-8.334z" fill="url(#w)"/><path transform="translate(-53.107 -164.28) scale(1.1038)" d="M243.07 298.74c-7.855 2.7-5.177 7.071-16.162 16.036-10.985 8.965-35.355 29.421-53.286 42.931s-55.18 40.659-66.796 49.497c-11.617 8.839-26.643 14.142-28.158 16.668-1.515 2.525 2.273 3.41 3.535 3.41s41.67-16.29 56.947-25.38c15.28-9.092 158.22-94.198 158.22-94.198s-13.132 2.4-19.319.632c-6.187-1.768-11.49-6.188-18.056-8.082s-12.04-3.192-16.92-1.515z" fill="url(#x)"/></g></svg>