<svg xmlns="http://www.w3.org/2000/svg" xmlns:xlink="http://www.w3.org/1999/xlink" width="17" height="16" viewBox="0 0 17 16"><defs><path id="gwjpa" d="M1131.5 923.7l-2.92 11.9a.16.16 0 0 1-.2.11l-5.83-1.75a.16.16 0 0 1-.1-.11c-.02-.05 0-.11.03-.15l5.8-6.8-7.55 6.4a.16.16 0 0 1-.16.03l-4.96-1.57a.16.16 0 1 1-.02-.3l15.67-7.94a.16.16 0 0 1 .18.01c.04.04.07.1.05.17zm-7.14 12.1c.02.04.01.09-.01.13l-1.61 2.52a.16.16 0 0 1-.18.07.16.16 0 0 1-.12-.15v-3.01c0-.05.02-.1.06-.13.05-.03.1-.04.15-.03l1.6.5c.06 0 .1.04.11.1z"/></defs><g><g transform="translate(-1115 -923)"><use fill="#fff" xlink:href="#gwjpa"/></g></g></svg>