<svg xmlns="http://www.w3.org/2000/svg" xmlns:xlink="http://www.w3.org/1999/xlink" width="13" height="16" viewBox="0 0 13 16"><defs><path id="eq73a" d="M891.07 937.35c-.27.4-.73.65-1.23.65h-8.72c-.5 0-.95-.24-1.23-.65-.27-.41-.32-.92-.14-1.38l3.06-8.27v-2.44c-.58-.2-1-.75-1-1.4v-.39c0-.81.67-1.47 1.49-1.47h4.37c.82 0 1.48.66 1.48 1.47v.4c0 .64-.42 1.19-1 1.39v2.44l3.07 8.29c.18.44.13.95-.15 1.36zm-7.46-2.74a.5.5 0 1 0 0-1 .5.5 0 1 0 0 1zm1.88.8a.87.87 0 1 0 1.74 0 .87.87 0 0 0-.87-.86.87.87 0 0 0-.87.86zm.76-2.14c.34 0 .62-.28.62-.62a.63.63 0 0 0-1.25 0c0 .34.28.62.63.62zm-3.6-2.31h.04s4.67-.08 5.31-.74l.03-.03-.85-2.32v-3.5h.49a.5.5 0 0 0 .5-.5v-.4a.5.5 0 0 0-.5-.5h-4.37a.5.5 0 0 0-.5.5v.4c0 .27.22.5.5.5h.48v3.5zm1.81-1.9a.68.68 0 0 1 1.36 0 .68.68 0 0 1-1.36 0z"/></defs><g><g transform="translate(-879 -922)"><use fill="#fff" xlink:href="#eq73a"/></g></g></svg>