<svg xmlns="http://www.w3.org/2000/svg" xmlns:xlink="http://www.w3.org/1999/xlink" width="16" height="16" viewBox="0 0 16 16"><defs><path id="gkkka" d="M413 926.33v9.34c0 .74-.6 1.33-1.34 1.33h-13.33c-.73 0-1.33-.6-1.33-1.33v-9.34c0-.73.6-1.33 1.33-1.33h5.68l-2.24-2.69-.1.02a.67.67 0 1 1 .66-.66c0 .08-.02.15-.04.22l2.59 3.11h.24l2.59-3.1a.66.66 0 0 1-.05-.23.67.67 0 1 1 .67.67c-.04 0-.07-.02-.1-.03l-2.24 2.69h5.67c.74 0 1.34.6 1.34 1.33zm-4 1.34c0-.74-.6-1.34-1.34-1.34h-8c-.73 0-1.33.6-1.33 1.34v6.67c0 .73.6 1.33 1.34 1.33h8c.73 0 1.33-.6 1.33-1.33zm2.91-.25a.95.95 0 1 0-1.9 0 .95.95 0 0 0 1.9 0z"/></defs><g><g transform="translate(-397 -921)"><use fill="#fff" xlink:href="#gkkka"/></g></g></svg>