<svg viewBox="0 0 719.425 719.438" xmlns="http://www.w3.org/2000/svg"><path d="M64.521.94h590.37c34.971 0 63.585 28.611 63.585 63.576v590.4c0 34.986-28.614 63.6-63.585 63.6H64.521c-34.965 0-63.582-28.612-63.582-63.6v-590.4C.939 29.551 29.559.94 64.521.94" fill="#fff"/><path d="M64.521.94h590.37c34.971 0 63.585 28.611 63.585 63.576v590.4c0 34.986-28.614 63.6-63.585 63.6H64.521c-34.965 0-63.582-28.612-63.582-63.6v-590.4C.939 29.551 29.559.94 64.521.94z" fill="none" stroke="#231f20" stroke-width="1.875"/><path d="M64.521 19.12h590.37c24.999 0 45.426 20.424 45.426 45.39v590.4c0 24.994-20.427 45.432-45.426 45.432H64.521c-24.971 0-45.423-20.439-45.423-45.432V64.51c0-24.966 20.453-45.39 45.423-45.39" fill="#15569c" fill-rule="evenodd"/><path d="M285.765 176.62c25.744-2.379 45.741-24.555 45.741-50.493 0-27.915-22.773-50.682-50.667-50.682-27.927 0-50.7 22.767-50.7 50.682 0 8.514 2.379 17.229 6.336 24.561l18.067 254.121 186.012.066 76.278 178.752 100.173-39.282-15.516-36.93-56.067 20.22-73.797-170.408-172.962 1.155-2.364-32.175 125.202.042v-47.607l-129.975-.066-5.76-101.952" fill="#fff" fill-rule="evenodd"/><path d="M472.86 541.069c-31.377 62.052-97.11 102.945-167.19 102.945-102.948 0-186.912-83.97-186.912-186.918 0-72.267 43.803-139.44 109.176-169.215l4.223 55.194c-38.655 24.369-62.487 68.331-62.487 114.408 0 74.673 60.918 135.591 135.606 135.591 68.313 0 126.564-52.425 134.508-119.7l33.078 67.692" fill="#fff" fill-rule="evenodd"/></svg>